<?xml version="1.0" encoding="utf-8"?>
<!-- Generator: Adobe Illustrator 24.0.2, SVG Export Plug-In . SVG Version: 6.00 Build 0)  -->
<svg version="1.1" id="Layer_1" xmlns="http://www.w3.org/2000/svg" xmlns:xlink="http://www.w3.org/1999/xlink" x="0px" y="0px"
	 viewBox="0 0 100 100" style="enable-background:new 0 0 100 100;" xml:space="preserve">
<rect y="0" fill="#105CFB" width="100" height="100"/>
<g>
	<path fill="#ffffff" d="M31.3,39.6V26.7h9.6v2.2h-7v2.9h6.5V34H34v3.5h7.2v2.2L31.3,39.6z"/>
	<path fill="#ffffff" d="M45.1,33.1l-2.2-0.4c0.2-0.8,0.6-1.5,1.3-2c0.8-0.5,1.8-0.7,2.7-0.6c0.8,0,1.7,0.1,2.5,0.4
		c0.5,0.2,0.9,0.6,1.1,1c0.3,0.7,0.4,1.5,0.3,2.2v2.9c0,0.6,0,1.2,0.1,1.8c0.1,0.4,0.2,0.9,0.4,1.3h-2.5c-0.1-0.2-0.1-0.4-0.2-0.7
		c0-0.1-0.1-0.2-0.1-0.3c-0.3,0.3-0.7,0.6-1.3,0.8c-0.5,0.2-1,0.3-1.5,0.3c-0.8,0-1.6-0.2-2.3-0.8c-0.6-0.5-0.9-1.2-0.8-2
		c0-0.5,0.1-1,0.4-1.4c0.2-0.4,0.6-0.8,1.1-1c0.6-0.3,1.3-0.5,2-0.6c0.8-0.1,1.6-0.3,2.4-0.6v-0.3c0-0.4-0.1-0.7-0.3-1
		c-0.5-0.1-1-0.2-1.5-0.1c-0.4,0-0.7,0.1-1,0.3S45.2,32.8,45.1,33.1z M48.4,35.1c-0.3,0.1-0.8,0.2-1.5,0.4c-0.5,0.1-0.9,0.2-1.3,0.4
		c-0.3,0.2-0.5,0.5-0.5,0.9c0,0.3,0.1,0.7,0.4,0.9c0.3,0.3,0.6,0.4,1,0.4c0.5,0,0.9-0.2,1.3-0.4c0.3-0.2,0.5-0.5,0.6-0.8
		c0.1-0.4,0.1-0.8,0.1-1.2L48.4,35.1z"/>
	<path fill="#ffffff" d="M55.6,39.6h-2.4v-9.3h2.3v1.3c0.3-0.5,0.6-0.9,1.1-1.2c0.3-0.2,0.7-0.3,1.1-0.3c0.6,0,1.1,0.2,1.6,0.5
		l-0.8,2.1c-0.3-0.2-0.7-0.4-1.2-0.4c-0.3,0-0.6,0.1-0.9,0.3c-0.3,0.3-0.5,0.6-0.6,1c-0.2,1-0.2,2.1-0.2,3.1L55.6,39.6z"/>
	<path fill="#ffffff" d="M68.8,39.6h-2.5v-4.8c0-0.7,0-1.3-0.2-2c-0.1-0.3-0.3-0.5-0.5-0.7c-0.3-0.2-0.5-0.3-0.8-0.3
		c-0.4,0-0.8,0.1-1.2,0.4c-0.3,0.2-0.6,0.5-0.7,0.9c-0.2,0.7-0.2,1.4-0.2,2.1v4.2h-2.5v-9.3h2.3v1.4c0.7-1,1.9-1.6,3.1-1.6
		c0.5,0,1,0.1,1.5,0.3c0.4,0.2,0.7,0.4,1,0.8c0.2,0.3,0.4,0.6,0.5,1c0.1,0.5,0.2,1.1,0.1,1.7L68.8,39.6z"/>
</g>
<g>
	<path fill="#ffffff" d="M21.5,49.3l-0.9,4.3c-1.1-0.9-2.5-1.4-3.9-1.3c-1.6-0.1-3.1,0.6-4.1,1.8c-0.6,0.7-1.1,1.6-1.3,2.6h8.6
		l-0.5,2.4H11c0,0.2,0,0.5,0,0.9s0,0.7,0,1.1h8l-0.5,2.4h-7.2c0.2,1,0.6,1.9,1.2,2.6c1,1.2,2.5,1.9,4.1,1.8c1.8,0.1,3.5-0.6,4.8-1.8
		V71c-1.5,0.7-3.1,1-4.7,1c-2.8,0.1-5.6-1.1-7.5-3.1c-1.4-1.5-2.3-3.3-2.6-5.3H4.2l0.5-2.4h1.5c0-0.3,0-0.5,0-0.8c0-0.5,0-0.9,0-1.3
		h-2l0.5-2.4h1.9C7,54.8,7.9,53,9.2,51.5c2-2.1,4.8-3.3,7.7-3.1C18.5,48.3,20,48.6,21.5,49.3z"/>
	<g>
		<path fill="#ffffff" d="M36.4,72h-4.5V55.2c-1.6,1.5-3.6,2.7-5.8,3.4v-4.1c1.2-0.4,2.4-1.1,3.8-2.2c1.4-1.1,2.3-2.3,2.8-3.7h3.6V72
			H36.4z"/>
		<path fill="#ffffff" d="M46.9,59.4c-1.2-0.5-2-1.2-2.5-2s-0.8-1.8-0.8-2.8c0-1.7,0.6-3.2,1.8-4.3s2.9-1.7,5.2-1.7
			c2.2,0,3.9,0.6,5.2,1.7c1.2,1.1,1.8,2.6,1.8,4.3c0,1.1-0.3,2-0.8,2.9c-0.6,0.8-1.4,1.5-2.4,1.9c1.3,0.5,2.3,1.3,3,2.3s1,2.2,1,3.5
			c0,2.2-0.7,3.9-2.1,5.3s-3.2,2-5.5,2c-2.1,0-3.9-0.6-5.3-1.7c-1.7-1.3-2.5-3.1-2.5-5.4c0-1.3,0.3-2.4,0.9-3.5
			C44.6,60.8,45.6,60,46.9,59.4z M47.4,64.9c0,1.2,0.3,2.2,0.9,2.9s1.4,1,2.4,1c0.9,0,1.7-0.3,2.3-1s0.9-1.6,0.9-2.9
			c0-1.1-0.3-2-0.9-2.6c-0.6-0.7-1.4-1-2.3-1c-1.1,0-1.9,0.4-2.4,1.1C47.7,63.2,47.4,64.1,47.4,64.9z M47.8,54.9
			c0,0.9,0.3,1.6,0.8,2.1s1.2,0.7,2,0.7c0.9,0,1.5-0.3,2-0.8s0.8-1.2,0.8-2.1c0-0.8-0.3-1.5-0.8-2s-1.2-0.8-2-0.8
			c-0.9,0-1.5,0.3-2.1,0.8S47.8,54.1,47.8,54.9z"/>
		<path fill="#ffffff" d="M68.8,48.6c2.3,0,4,0.8,5.3,2.4c1.5,1.9,2.3,5.1,2.3,9.5s-0.8,7.6-2.3,9.5c-1.3,1.6-3,2.4-5.3,2.4
			s-4.1-0.9-5.5-2.6s-2.1-4.9-2.1-9.3s0.8-7.6,2.3-9.5C64.8,49.4,66.5,48.6,68.8,48.6z M68.8,52.3c-0.5,0-1,0.2-1.5,0.5
			c-0.4,0.3-0.8,1-1,1.9c-0.3,1.2-0.5,3.1-0.5,5.8s0.1,4.6,0.4,5.7c0.3,1,0.6,1.7,1,2s0.9,0.5,1.4,0.5s1-0.2,1.5-0.5
			c0.4-0.3,0.8-1,1-1.9c0.3-1.1,0.5-3.1,0.5-5.8s-0.1-4.6-0.4-5.7c-0.3-1-0.6-1.7-1-2.1S69.3,52.3,68.8,52.3z"/>
		<path fill="#ffffff" d="M80.2,72V48.7h4.5v12.4l5.2-6h5.5l-5.8,6.2L95.8,72H91l-4.3-7.6l-2.1,2.2V72H80.2z"/>
	</g>
</g>
</svg>
