<?xml version="1.0" encoding="utf-8"?>
<!-- Generator: Adobe Illustrator 24.0.2, SVG Export Plug-In . SVG Version: 6.00 Build 0)  -->
<svg version="1.1" id="Layer_1" xmlns="http://www.w3.org/2000/svg" xmlns:xlink="http://www.w3.org/1999/xlink" x="0px" y="0px"
	 viewBox="0 0 100 100" style="enable-background:new 0 0 100 100;" xml:space="preserve">
<rect y="0" fill="#105CFB" width="100" height="100"/>
<g>
	<path fill="#ffffff" d="M31.2,39.6V26.7h9.6v2.2h-7v2.9h6.5V34h-6.4v3.5h7.2v2.2L31.2,39.6z"/>
	<path fill="#ffffff" d="M45.1,33.1l-2.2-0.4c0.2-0.8,0.6-1.5,1.3-2c0.8-0.5,1.8-0.7,2.7-0.6c0.8,0,1.7,0.1,2.5,0.4
		c0.5,0.2,0.9,0.6,1.1,1c0.3,0.7,0.4,1.5,0.3,2.2v2.9c0,0.6,0,1.2,0.1,1.8c0.1,0.4,0.2,0.9,0.4,1.3h-2.5c-0.1-0.2-0.1-0.4-0.2-0.7
		c0-0.1-0.1-0.2-0.1-0.3c-0.4,0.4-0.8,0.7-1.3,0.9s-1,0.3-1.5,0.3c-0.8,0-1.6-0.2-2.3-0.8c-0.6-0.5-0.9-1.2-0.8-2
		c0-0.5,0.1-1,0.4-1.4c0.2-0.4,0.6-0.8,1.1-1c0.6-0.3,1.3-0.5,2-0.6c0.8-0.1,1.6-0.3,2.4-0.6v-0.3c0-0.4-0.1-0.7-0.3-1
		c-0.4-0.2-0.9-0.3-1.4-0.2c-0.4,0-0.7,0.1-1,0.3C45.4,32.5,45.2,32.8,45.1,33.1z M48.4,35.1c-0.3,0.1-0.8,0.2-1.5,0.4
		c-0.5,0.1-0.9,0.2-1.3,0.4c-0.3,0.2-0.5,0.5-0.5,0.9c0,0.3,0.1,0.7,0.4,0.9c0.3,0.3,0.6,0.4,1,0.4c0.5,0,0.9-0.2,1.3-0.4
		c0.3-0.2,0.5-0.5,0.6-0.8c0.1-0.4,0.1-0.8,0.1-1.2L48.4,35.1z"/>
	<path fill="#ffffff" d="M55.6,39.6h-2.4v-9.3h2.3v1.3c0.3-0.5,0.6-0.9,1.1-1.2c0.3-0.2,0.7-0.3,1.1-0.3c0.6,0,1.1,0.2,1.6,0.5
		l-0.8,2.1c-0.3-0.2-0.7-0.4-1.2-0.4c-0.3,0-0.6,0.1-0.9,0.3c-0.3,0.3-0.5,0.6-0.6,1c-0.2,1-0.2,2.1-0.2,3.1L55.6,39.6z"/>
	<path fill="#ffffff" d="M68.7,39.6h-2.5v-4.8c0-0.7,0-1.3-0.2-2c-0.1-0.3-0.3-0.5-0.5-0.7c-0.3-0.2-0.5-0.3-0.8-0.3
		c-0.4,0-0.8,0.1-1.2,0.4c-0.3,0.2-0.6,0.5-0.7,0.9c-0.2,0.7-0.2,1.4-0.2,2.1v4.2h-2.5v-9.3h2.4v1.4c0.7-1,1.9-1.6,3.1-1.6
		c0.5,0,1,0.1,1.5,0.3c0.4,0.2,0.7,0.4,1,0.8c0.2,0.3,0.4,0.6,0.5,1c0.1,0.5,0.2,1.1,0.1,1.7L68.7,39.6z"/>
</g>
<g>
	<path fill="#ffffff" d="M27.6,49.3l-0.9,4.3c-1.1-0.9-2.5-1.4-3.9-1.3c-1.6-0.1-3.1,0.6-4.1,1.8c-0.6,0.7-1.1,1.6-1.3,2.6H26l-0.5,2.4
		h-8.4c0,0.2,0,0.5,0,0.9s0,0.7,0,1.1h8l-0.5,2.4h-7.2c0.2,1,0.6,1.9,1.2,2.6c1,1.2,2.5,1.9,4.1,1.8c1.8,0.1,3.5-0.6,4.8-1.8V71
		c-1.5,0.7-3.1,1-4.7,1c-2.8,0.1-5.6-1.1-7.5-3.1c-1.4-1.5-2.3-3.3-2.6-5.3h-2.3l0.5-2.4h1.5c0-0.3,0-0.5,0-0.8c0-0.5,0-0.9,0-1.3
		h-2l0.5-2.4h1.9c0.4-1.9,1.3-3.7,2.6-5.2c2-2.1,4.8-3.3,7.7-3.1C24.6,48.3,26.2,48.6,27.6,49.3z"/>
	<path fill="#ffffff" d="M41.2,71.6h-4.4V55.1c-1.6,1.5-3.6,2.7-5.7,3.3v-4c1.4-0.5,2.6-1.2,3.7-2.1c1.3-0.9,2.2-2.2,2.8-3.7h3.6
		L41.2,71.6z"/>
	<path fill="#ffffff" d="M48.7,71.6v-4.4H53v4.4H48.7z"/>
	<path fill="#ffffff" d="M60.4,59.3c-2-0.7-3.3-2.6-3.3-4.7c0-1.6,0.6-3.2,1.8-4.2c1.4-1.2,3.2-1.8,5.1-1.7c1.8-0.1,3.7,0.5,5.1,1.7
		c1.2,1.1,1.8,2.6,1.8,4.2c0,1-0.3,2-0.9,2.8s-1.4,1.5-2.3,1.9c1.2,0.4,2.2,1.2,2.9,2.2c0.7,1,1,2.2,1,3.4c0.1,1.9-0.6,3.8-2,5.2
		c-1.4,1.4-3.4,2.1-5.4,2c-1.9,0.1-3.7-0.5-5.2-1.7c-1.6-1.3-2.5-3.2-2.5-5.3c0-1.2,0.3-2.4,0.9-3.4C58.2,60.6,59.2,59.7,60.4,59.3z
		 M60.9,64.7c-0.1,1,0.3,2,0.9,2.8c0.6,0.7,1.4,1,2.3,1s1.7-0.3,2.3-1c0.6-0.8,1-1.8,0.9-2.8c0-0.9-0.3-1.9-0.9-2.6
		c-0.6-0.7-1.4-1-2.3-1c-0.9-0.1-1.8,0.4-2.4,1.1C61.2,62.9,60.9,63.8,60.9,64.7z M61.3,54.8c0,0.7,0.2,1.5,0.7,2s1.3,0.8,2,0.7
		c0.7,0,1.5-0.2,2-0.7c0.5-0.6,0.8-1.3,0.8-2.1c0.1-1.4-1-2.6-2.4-2.7c-0.1,0-0.2,0-0.3,0c-1.4-0.1-2.7,1-2.8,2.4
		C61.3,54.6,61.3,54.7,61.3,54.8L61.3,54.8z"/>
	<g>
		<path fill="#ffffff" d="M75.8,72.1V51.2h4v11l4.7-5.3h4.9l-5.2,5.5l5.5,9.6h-4.3l-3.8-6.8l-1.9,1.9v4.8h-3.9V72.1z"/>
	</g>
</g>
</svg>
