<?xml version="1.0" encoding="utf-8"?>
<!-- Generator: Adobe Illustrator 24.0.2, SVG Export Plug-In . SVG Version: 6.00 Build 0)  -->
<svg version="1.1" id="Layer_1" xmlns="http://www.w3.org/2000/svg" xmlns:xlink="http://www.w3.org/1999/xlink" x="0px" y="0px"
	 viewBox="0 0 100 100" style="enable-background:new 0 0 100 100;" xml:space="preserve">
<rect y="0" fill="#105CFB" width="100" height="100"/>
<path fill="#ffffff" d="M22.1,39.6V26.7h9.6v2.2h-7v2.9h6.5V34h-6.4v3.5h7.2v2.2L22.1,39.6z"/>
<path fill="#ffffff" d="M35.9,33.1l-2.2-0.4c0.2-0.8,0.6-1.5,1.3-2c0.8-0.5,1.8-0.7,2.7-0.6c0.8,0,1.7,0.1,2.5,0.4
	c0.5,0.2,0.9,0.6,1.1,1c0.3,0.7,0.4,1.5,0.3,2.2v2.9c0,0.6,0,1.2,0.1,1.8c0.1,0.4,0.2,0.9,0.4,1.3h-2.5c-0.1-0.2-0.1-0.4-0.2-0.7
	c0-0.1-0.1-0.2-0.1-0.3C39,39,38.6,39.3,38,39.5c-0.5,0.2-1,0.3-1.5,0.3c-0.8,0-1.6-0.2-2.3-0.8c-0.6-0.5-0.9-1.2-0.8-2
	c0-0.5,0.1-1,0.4-1.4c0.2-0.4,0.6-0.8,1.1-1c0.6-0.3,1.3-0.5,2-0.6c0.8-0.1,1.6-0.3,2.4-0.6v-0.3c0-0.4-0.1-0.7-0.3-1
	C38.5,32,38,31.9,37.5,32c-0.4,0-0.7,0.1-1,0.3C36.2,32.5,36,32.8,35.9,33.1z M39.2,35.1c-0.3,0.1-0.8,0.2-1.5,0.4
	c-0.5,0.1-0.9,0.2-1.3,0.4c-0.3,0.2-0.5,0.5-0.5,0.9c0,0.3,0.1,0.7,0.4,0.9c0.3,0.3,0.6,0.4,1,0.4c0.5,0,0.9-0.2,1.3-0.4
	c0.3-0.2,0.5-0.5,0.6-0.8c0.1-0.4,0.1-0.8,0.1-1.2L39.2,35.1z"/>
<path fill="#ffffff" d="M46.4,39.6H44v-9.3h2.3v1.3c0.3-0.5,0.6-0.9,1.1-1.2c0.3-0.2,0.7-0.3,1.1-0.3c0.6,0,1.1,0.2,1.6,0.5l-0.8,2.1
	c-0.3-0.2-0.7-0.4-1.2-0.4c-0.3,0-0.6,0.1-0.9,0.3c-0.3,0.3-0.5,0.6-0.6,1c-0.2,1-0.2,2.1-0.2,3.1L46.4,39.6z"/>
<path fill="#ffffff" d="M59.6,39.6h-2.5v-4.8c0-0.7,0-1.3-0.2-2c-0.1-0.3-0.3-0.5-0.5-0.7c-0.3-0.2-0.5-0.3-0.8-0.3
	c-0.4,0-0.8,0.1-1.2,0.4c-0.3,0.2-0.6,0.5-0.7,0.9c-0.2,0.7-0.2,1.4-0.2,2.1v4.2h-2.5v-9.3h2.3v1.4c0.7-1,1.9-1.6,3.1-1.6
	c0.5,0,1,0.1,1.5,0.3c0.8,0.3,1.4,1,1.5,1.8c0.1,0.5,0.2,1.1,0.1,1.7V39.6z"/>
<path fill="#ffffff" d="M67.5,36.7l2.5,0.4c-0.3,0.8-0.8,1.6-1.5,2.1c-0.8,0.5-1.7,0.7-2.6,0.7c-1.4,0.1-2.7-0.5-3.6-1.6
	c-0.6-1-1-2.1-0.9-3.3c-0.1-1.3,0.4-2.6,1.2-3.6c0.8-0.9,1.9-1.3,3.1-1.3c1.2-0.1,2.5,0.4,3.3,1.4c0.9,1.2,1.3,2.7,1.2,4.2h-6.2
	c0,0.6,0.2,1.2,0.6,1.7c0.4,0.4,0.9,0.7,1.4,0.7c0.4,0,0.7-0.1,1-0.3C67.2,37.4,67.4,37.1,67.5,36.7z M67.6,34.2
	c0-0.6-0.2-1.2-0.6-1.6c-0.3-0.3-0.8-0.5-1.3-0.5c-0.5,0-1,0.2-1.3,0.6c-0.4,0.4-0.5,1-0.5,1.6L67.6,34.2z"/>
<path fill="#ffffff" d="M80.6,39.6h-2.3v-1.4c-0.3,0.5-0.8,0.9-1.3,1.2c-0.5,0.3-1,0.4-1.6,0.4c-1.1,0-2.1-0.5-2.8-1.3
	c-0.8-1-1.2-2.3-1.1-3.6c-0.1-1.3,0.3-2.6,1.1-3.6c0.7-0.8,1.8-1.3,2.8-1.2c1,0,2,0.5,2.7,1.3v-4.6h2.5V39.6z M74.1,34.8
	c-0.1,0.7,0.1,1.5,0.4,2.2c0.3,0.6,1,1,1.7,1c0.6,0,1.1-0.3,1.4-0.7c0.4-0.6,0.7-1.4,0.6-2.2c0.1-0.8-0.1-1.6-0.6-2.3
	c-0.4-0.5-0.9-0.7-1.5-0.7c-0.6,0-1.1,0.3-1.5,0.7C74.2,33.3,74,34,74.1,34.8z"/>
<g>
	<g>
		<path fill="#ffffff" d="M27.5,51.1l-0.8,3.6c-0.9-0.8-2.1-1.2-3.2-1.1c-1.3,0-2.6,0.5-3.4,1.5c-0.5,0.6-0.9,1.4-1.1,2.2h7.2l-0.4,2
			h-7c0,0.2,0,0.5,0,0.8c0,0.3,0,0.6,0,1h6.7L25,63h-6c0.2,0.8,0.5,1.5,1,2.2c0.8,1,2.1,1.6,3.4,1.5c1.5,0.1,2.9-0.5,4-1.5v4
			c-1.2,0.6-2.6,0.9-3.9,0.8c-2.4,0.1-4.6-0.9-6.3-2.6c-1.1-1.2-1.9-2.8-2.2-4.4h-1.9l0.4-2h1.3c0-0.2,0-0.4,0-0.7
			c0-0.4,0-0.8,0-1.1h-1.7l0.4-2h1.6c0.3-1.6,1.1-3.1,2.2-4.3c1.7-1.8,4-2.7,6.5-2.6C25,50.3,26.3,50.5,27.5,51.1z"/>
		<path fill="#ffffff" d="M38.8,69.7h-3.7V55.9c-1.4,1.3-3,2.2-4.7,2.8v-3.3c1.1-0.4,2.2-1,3.1-1.8c1-0.8,1.8-1.8,2.3-3.1h3L38.8,69.7z
			"/>
		<path fill="#ffffff" d="M50.5,50.5c1.7-0.1,3.3,0.7,4.3,2c1.2,1.6,1.9,4.2,1.9,7.8c0,3.6-0.6,6.2-1.9,7.8c-1.1,1.3-2.7,2-4.3,1.9
			c-1.8,0-3.4-0.7-4.5-2.1c-1.1-1.4-1.7-4-1.7-7.6s0.6-6.2,1.9-7.7C47.2,51.2,48.8,50.5,50.5,50.5z M50.5,53.6
			c-0.4,0-0.9,0.1-1.2,0.4c-0.4,0.4-0.7,0.9-0.8,1.5c-0.3,1.6-0.4,3.2-0.4,4.8c-0.1,1.5,0.1,3.1,0.3,4.6c0.1,0.6,0.4,1.2,0.8,1.7
			c0.3,0.3,0.8,0.4,1.2,0.4c0.4,0,0.9-0.1,1.2-0.4c0.4-0.4,0.7-0.9,0.8-1.5c0.3-1.6,0.5-3.2,0.4-4.8c0.1-1.5-0.1-3.1-0.3-4.6
			c-0.1-0.6-0.4-1.2-0.8-1.7C51.4,53.7,50.9,53.6,50.5,53.6z"/>
		<path fill="#ffffff" d="M65.8,50.5c1.7-0.1,3.3,0.7,4.3,2c1.2,1.6,1.9,4.2,1.9,7.8c0,3.6-0.6,6.2-1.9,7.8c-1.1,1.3-2.7,2-4.3,1.9
			c-1.8,0-3.4-0.7-4.5-2.1c-1.1-1.4-1.7-4-1.7-7.6s0.6-6.2,1.9-7.7C62.5,51.2,64.1,50.5,65.8,50.5z M65.8,53.6
			c-0.4,0-0.9,0.1-1.2,0.4c-0.4,0.4-0.7,0.9-0.8,1.5c-0.3,1.6-0.4,3.2-0.4,4.8c-0.1,1.5,0.1,3.1,0.3,4.6c0.1,0.6,0.4,1.2,0.8,1.7
			c0.3,0.3,0.8,0.4,1.2,0.4c0.4,0,0.9-0.1,1.2-0.4c0.4-0.4,0.7-0.9,0.8-1.5c0.3-1.6,0.5-3.2,0.4-4.8c0.1-1.5-0.1-3.1-0.3-4.6
			c-0.1-0.6-0.4-1.2-0.8-1.7C66.7,53.7,66.2,53.6,65.8,53.6z"/>
	</g>
	<g>
		<path fill="#ffffff" d="M74.7,70V51.7h3.5v9.7l4.1-4.7h4.3L82,61.6l4.9,8.4h-3.8l-3.4-5.9l-1.6,1.7V70H74.7z"/>
	</g>
</g>
</svg>
