<?xml version="1.0" encoding="utf-8"?>
<!-- Generator: Adobe Illustrator 24.0.2, SVG Export Plug-In . SVG Version: 6.00 Build 0)  -->
<svg version="1.1" id="Layer_1" xmlns="http://www.w3.org/2000/svg" xmlns:xlink="http://www.w3.org/1999/xlink" x="0px" y="0px"
	 viewBox="0 0 100 100" style="enable-background:new 0 0 100 100;" xml:space="preserve">
<rect y="0" fill="#105CFB" width="100" height="100"/>
<path fill="#ffffff" d="M22.1,39.6V26.7h9.6v2.2h-7v2.9h6.5V34h-6.4v3.5h7.2v2.2L22.1,39.6z"/>
<path fill="#ffffff" d="M35.9,33.1l-2.2-0.4c0.2-0.8,0.6-1.5,1.3-2c0.8-0.5,1.8-0.7,2.7-0.6c0.8,0,1.7,0.1,2.5,0.4
	c0.5,0.2,0.9,0.6,1.1,1c0.3,0.7,0.4,1.5,0.3,2.2v2.9c0,0.6,0,1.2,0.1,1.8c0.1,0.4,0.2,0.9,0.4,1.3h-2.5c-0.1-0.2-0.1-0.4-0.2-0.7
	c0-0.1-0.1-0.2-0.1-0.3C39,39,38.6,39.3,38,39.5c-0.5,0.2-1,0.3-1.5,0.3c-0.8,0-1.6-0.2-2.3-0.8c-0.6-0.5-0.9-1.2-0.8-2
	c0-0.5,0.1-1,0.4-1.4c0.2-0.4,0.6-0.8,1.1-1c0.6-0.3,1.3-0.5,2-0.6c0.8-0.1,1.6-0.3,2.4-0.6v-0.3c0-0.4-0.1-0.7-0.3-1
	C38.5,32,38,31.9,37.5,32c-0.4,0-0.7,0.1-1,0.3C36.2,32.5,36,32.8,35.9,33.1z M39.2,35.1c-0.3,0.1-0.8,0.2-1.5,0.4
	c-0.5,0.1-0.9,0.2-1.3,0.4c-0.3,0.2-0.5,0.5-0.5,0.9c0,0.3,0.1,0.7,0.4,0.9c0.3,0.3,0.6,0.4,1,0.4c0.5,0,0.9-0.2,1.3-0.4
	c0.3-0.2,0.5-0.5,0.6-0.8c0.1-0.4,0.1-0.8,0.1-1.2L39.2,35.1z"/>
<path fill="#ffffff" d="M46.4,39.6H44v-9.3h2.3v1.3c0.3-0.5,0.6-0.9,1.1-1.2c0.3-0.2,0.7-0.3,1.1-0.3c0.6,0,1.1,0.2,1.6,0.5l-0.8,2.1
	c-0.3-0.2-0.7-0.4-1.2-0.4c-0.3,0-0.6,0.1-0.9,0.3c-0.3,0.3-0.5,0.6-0.6,1c-0.2,1-0.2,2.1-0.2,3.1L46.4,39.6z"/>
<path fill="#ffffff" d="M59.6,39.6h-2.5v-4.8c0-0.7,0-1.3-0.2-2c-0.1-0.3-0.3-0.5-0.5-0.7c-0.3-0.2-0.5-0.3-0.8-0.3
	c-0.4,0-0.8,0.1-1.2,0.4c-0.3,0.2-0.6,0.5-0.7,0.9c-0.2,0.7-0.2,1.4-0.2,2.1v4.2h-2.5v-9.3h2.3v1.4c0.7-1,1.9-1.6,3.1-1.6
	c0.5,0,1,0.1,1.5,0.3c0.8,0.3,1.4,1,1.5,1.8c0.1,0.5,0.2,1.1,0.1,1.7V39.6z"/>
<path fill="#ffffff" d="M67.5,36.7l2.5,0.4c-0.3,0.8-0.8,1.6-1.5,2.1c-0.8,0.5-1.7,0.7-2.6,0.7c-1.4,0.1-2.7-0.5-3.6-1.6
	c-0.6-1-1-2.1-0.9-3.3c-0.1-1.3,0.4-2.6,1.2-3.6c0.8-0.9,1.9-1.3,3.1-1.3c1.2-0.1,2.5,0.4,3.3,1.4c0.9,1.2,1.3,2.7,1.2,4.2h-6.2
	c0,0.6,0.2,1.2,0.6,1.7c0.4,0.4,0.9,0.7,1.4,0.7c0.4,0,0.7-0.1,1-0.3C67.2,37.4,67.4,37.1,67.5,36.7z M67.6,34.2
	c0-0.6-0.2-1.2-0.6-1.6c-0.3-0.3-0.8-0.5-1.3-0.5c-0.5,0-1,0.2-1.3,0.6c-0.4,0.4-0.5,1-0.5,1.6L67.6,34.2z"/>
<path fill="#ffffff" d="M80.6,39.6h-2.3v-1.4c-0.3,0.5-0.8,0.9-1.3,1.2c-0.5,0.3-1,0.4-1.6,0.4c-1.1,0-2.1-0.5-2.8-1.3
	c-0.8-1-1.2-2.3-1.1-3.6c-0.1-1.3,0.3-2.6,1.1-3.6c0.7-0.8,1.8-1.3,2.8-1.2c1,0,2,0.5,2.7,1.3v-4.6h2.5V39.6z M74.1,34.8
	c-0.1,0.7,0.1,1.5,0.4,2.2c0.3,0.6,1,1,1.7,1c0.6,0,1.1-0.3,1.4-0.7c0.4-0.6,0.7-1.4,0.6-2.2c0.1-0.8-0.1-1.6-0.6-2.3
	c-0.4-0.5-0.9-0.7-1.5-0.7c-0.6,0-1.1,0.3-1.5,0.7C74.2,33.3,74,34,74.1,34.8z"/>
<g>
	<path fill="#ffffff" d="M27.2,49.3l-0.9,4.3c-1.1-0.9-2.5-1.4-3.9-1.3c-1.6-0.1-3.1,0.6-4.1,1.8c-0.6,0.7-1.1,1.6-1.3,2.6h8.6
		l-0.5,2.4h-8.4c0,0.2,0,0.5,0,0.9s0,0.7,0,1.1h8l-0.5,2.4H17c0.2,1,0.6,1.9,1.2,2.6c1,1.2,2.5,1.9,4.1,1.8c1.8,0.1,3.5-0.6,4.8-1.8
		V71c-1.5,0.7-3.1,1-4.7,1c-2.8,0.1-5.6-1.1-7.5-3.1c-1.4-1.5-2.3-3.3-2.6-5.3H9.9l0.5-2.4h1.5c0-0.3,0-0.5,0-0.8c0-0.5,0-0.9,0-1.3
		h-2l0.5-2.4h1.9c0.4-1.9,1.3-3.7,2.6-5.2c2-2.1,4.8-3.3,7.7-3.1C24.2,48.3,25.8,48.6,27.2,49.3z"/>
	<g>
		<path fill="#ffffff" d="M30.6,64.8l4.1-0.5c0.1,1,0.5,1.8,1.1,2.4c0.6,0.6,1.3,0.8,2.1,0.8c0.9,0,1.6-0.3,2.2-1
			c0.6-0.7,0.9-1.6,0.9-2.7c0-1.1-0.3-1.9-0.9-2.5s-1.3-0.9-2.1-0.9c-0.5,0-1.2,0.1-1.9,0.3l0.5-3.5c1.1,0,2-0.2,2.6-0.7
			s0.9-1.2,0.9-2.1c0-0.7-0.2-1.3-0.7-1.8c-0.4-0.4-1-0.7-1.8-0.7c-0.7,0-1.3,0.3-1.9,0.8c-0.5,0.5-0.8,1.2-0.9,2.2l-3.9-0.7
			c0.3-1.3,0.7-2.4,1.2-3.2c0.5-0.8,1.3-1.4,2.3-1.9c1-0.5,2.1-0.7,3.3-0.7c2.1,0,3.8,0.7,5,2c1,1.1,1.6,2.3,1.6,3.7
			c0,1.9-1.1,3.5-3.2,4.7c1.3,0.3,2.3,0.9,3,1.8c0.8,0.9,1.1,2.1,1.1,3.4c0,1.9-0.7,3.6-2.1,5c-1.4,1.4-3.2,2.1-5.3,2.1
			c-2,0-3.7-0.6-5-1.7C31.6,68.2,30.8,66.7,30.6,64.8z"/>
		<path fill="#ffffff" d="M48.9,70.7v-4.2h4.2v4.2H48.9z"/>
		<path fill="#ffffff" d="M70.9,66.7v3.9H56c0.2-1.5,0.6-2.9,1.4-4.2c0.8-1.3,2.4-3.1,4.8-5.3c1.9-1.8,3.1-3,3.5-3.6
			c0.6-0.9,0.9-1.7,0.9-2.6c0-0.9-0.3-1.7-0.8-2.2c-0.5-0.5-1.2-0.8-2.1-0.8c-0.9,0-1.6,0.3-2.1,0.8c-0.5,0.5-0.8,1.4-0.9,2.7
			L56.5,55c0.3-2.3,1-4,2.4-5c1.3-1,3-1.5,5-1.5c2.2,0,3.9,0.6,5.1,1.8c1.2,1.2,1.9,2.6,1.9,4.4c0,1-0.2,1.9-0.5,2.8
			c-0.4,0.9-0.9,1.8-1.7,2.8c-0.5,0.7-1.4,1.6-2.8,2.8c-1.3,1.2-2.2,2-2.5,2.4s-0.6,0.8-0.9,1.2H70.9z"/>
		<path fill="#ffffff" d="M74.5,70.7V48.5h4.2v8c1.3-1.5,2.9-2.2,4.7-2.2c2,0,3.6,0.7,4.8,2.1c1.3,1.4,1.9,3.4,1.9,6.1
			c0,2.7-0.7,4.8-2,6.3S85.3,71,83.4,71c-0.9,0-1.8-0.2-2.7-0.7c-0.9-0.5-1.7-1.1-2.3-2v2.4H74.5z M78.7,62.3c0,1.7,0.3,2.9,0.8,3.7
			c0.7,1.1,1.7,1.7,2.9,1.7c0.9,0,1.7-0.4,2.4-1.2c0.7-0.8,1-2.1,1-3.8c0-1.8-0.3-3.2-1-4c-0.7-0.8-1.5-1.2-2.6-1.2
			c-1,0-1.9,0.4-2.5,1.2C79,59.5,78.7,60.7,78.7,62.3z"/>
	</g>
</g>
</svg>
