<?xml version="1.0" encoding="utf-8"?>
<!-- Generator: Adobe Illustrator 24.0.2, SVG Export Plug-In . SVG Version: 6.00 Build 0)  -->
<svg version="1.1" id="Layer_1" xmlns="http://www.w3.org/2000/svg" xmlns:xlink="http://www.w3.org/1999/xlink" x="0px" y="0px"
	 viewBox="0 0 100 100" style="enable-background:new 0 0 100 100;" xml:space="preserve">
<rect y="0" fill="#105CFB" width="100" height="100"/>
<g>
	<path fill="#ffffff" d="M31.3,39.6V26.7h9.6v2.2h-7v2.9h6.5V34H34v3.5h7.2v2.2L31.3,39.6z"/>
	<path fill="#ffffff" d="M45.1,33.1l-2.2-0.4c0.2-0.8,0.6-1.5,1.3-2c0.8-0.5,1.8-0.7,2.7-0.6c0.8,0,1.7,0.1,2.5,0.4
		c0.5,0.2,0.9,0.6,1.1,1c0.3,0.7,0.4,1.5,0.3,2.2v2.9c0,0.6,0,1.2,0.1,1.8c0.1,0.4,0.2,0.9,0.4,1.3h-2.5c-0.1-0.2-0.1-0.4-0.2-0.7
		c0-0.1-0.1-0.2-0.1-0.3c-0.3,0.3-0.7,0.6-1.3,0.8c-0.5,0.2-1,0.3-1.5,0.3c-0.8,0-1.6-0.2-2.3-0.8c-0.6-0.5-0.9-1.2-0.8-2
		c0-0.5,0.1-1,0.4-1.4c0.2-0.4,0.6-0.8,1.1-1c0.6-0.3,1.3-0.5,2-0.6c0.8-0.1,1.6-0.3,2.4-0.6v-0.3c0-0.4-0.1-0.7-0.3-1
		c-0.5-0.1-1-0.2-1.5-0.1c-0.4,0-0.7,0.1-1,0.3S45.2,32.8,45.1,33.1z M48.4,35.1c-0.3,0.1-0.8,0.2-1.5,0.4c-0.5,0.1-0.9,0.2-1.3,0.4
		c-0.3,0.2-0.5,0.5-0.5,0.9c0,0.3,0.1,0.7,0.4,0.9c0.3,0.3,0.6,0.4,1,0.4c0.5,0,0.9-0.2,1.3-0.4c0.3-0.2,0.5-0.5,0.6-0.8
		c0.1-0.4,0.1-0.8,0.1-1.2L48.4,35.1z"/>
	<path fill="#ffffff" d="M55.6,39.6h-2.4v-9.3h2.3v1.3c0.3-0.5,0.6-0.9,1.1-1.2c0.3-0.2,0.7-0.3,1.1-0.3c0.6,0,1.1,0.2,1.6,0.5
		l-0.8,2.1c-0.3-0.2-0.7-0.4-1.2-0.4c-0.3,0-0.6,0.1-0.9,0.3c-0.3,0.3-0.5,0.6-0.6,1c-0.2,1-0.2,2.1-0.2,3.1L55.6,39.6z"/>
	<path fill="#ffffff" d="M68.8,39.6h-2.5v-4.8c0-0.7,0-1.3-0.2-2c-0.1-0.3-0.3-0.5-0.5-0.7c-0.3-0.2-0.5-0.3-0.8-0.3
		c-0.4,0-0.8,0.1-1.2,0.4c-0.3,0.2-0.6,0.5-0.7,0.9c-0.2,0.7-0.2,1.4-0.2,2.1v4.2h-2.5v-9.3h2.3v1.4c0.7-1,1.9-1.6,3.1-1.6
		c0.5,0,1,0.1,1.5,0.3c0.8,0.3,1.4,1,1.5,1.8c0.1,0.5,0.2,1.1,0.1,1.7v5.9H68.8z"/>
</g>
<g>
	<path fill="#ffffff" d="M23.9,49.3L23,53.6c-1.1-0.9-2.5-1.4-3.9-1.3c-1.6-0.1-3.1,0.6-4.1,1.8c-0.6,0.7-1.1,1.6-1.3,2.6h8.6l-0.5,2.4
		h-8.4c0,0.2,0,0.5,0,0.9s0,0.7,0,1.1h8l-0.5,2.4h-7.2c0.2,1,0.6,1.9,1.2,2.6c1,1.2,2.5,1.9,4.1,1.8c1.8,0.1,3.5-0.6,4.8-1.8V71
		c-1.5,0.7-3.1,1-4.7,1c-2.8,0.1-5.6-1.1-7.5-3.1c-1.4-1.5-2.3-3.3-2.6-5.3H6.6l0.5-2.4h1.5c0-0.3,0-0.5,0-0.8c0-0.5,0-0.9,0-1.3h-2
		l0.5-2.4H9c0.4-1.9,1.3-3.7,2.6-5.2c2-2.1,4.8-3.3,7.7-3.1C20.9,48.3,22.5,48.6,23.9,49.3z"/>
	<g>
		<path fill="#ffffff" d="M30.3,65.6l4.5-0.5c0.1,1,0.5,1.8,1.1,2.4s1.4,0.9,2.2,0.9c0.9,0,1.7-0.4,2.4-1.1c0.7-0.8,1-1.9,1-3.5
			c0-1.4-0.3-2.5-1-3.3S39,59.4,38,59.4c-1.3,0-2.5,0.6-3.5,1.7l-3.7-0.5l2.3-12.3H45v4.2h-8.5l-0.7,4c1-0.5,2-0.8,3.1-0.8
			c2,0,3.7,0.7,5.1,2.2c1.4,1.5,2.1,3.3,2.1,5.7c0,1.9-0.6,3.7-1.7,5.2C42.9,71,40.8,72,38.1,72c-2.2,0-3.9-0.6-5.3-1.8
			C31.4,69.1,30.6,67.5,30.3,65.6z"/>
		<path fill="#ffffff" d="M49.5,71.6v-4.5H54v4.5H49.5z"/>
		<path fill="#ffffff" d="M57.7,52.6v-4.2h15.4v3.3c-1.3,1.3-2.6,3.1-3.9,5.4c-1.3,2.3-2.3,4.8-3,7.5c-0.7,2.6-1,5-1,7.1h-4.4
			c0.1-3.3,0.7-6.6,2-10c1.3-3.4,3-6.4,5.1-9.1H57.7z"/>
		<path fill="#ffffff" d="M76.7,71.6V48.1h4.5v8.5c1.4-1.6,3-2.4,4.9-2.4c2.1,0,3.8,0.8,5.2,2.3c1.4,1.5,2,3.7,2,6.5
			c0,2.9-0.7,5.2-2.1,6.7c-1.4,1.6-3.1,2.4-5,2.4c-1,0-1.9-0.2-2.9-0.7c-0.9-0.5-1.8-1.2-2.4-2.2v2.5h-4.2V71.6z M81.2,62.7
			c0,1.8,0.3,3.1,0.8,3.9c0.8,1.2,1.8,1.8,3.1,1.8c1,0,1.8-0.4,2.5-1.3s1.1-2.2,1.1-4c0-1.9-0.4-3.4-1.1-4.2
			C87,58,86.1,57.6,85,57.6s-2,0.4-2.7,1.3C81.6,59.7,81.2,61,81.2,62.7z"/>
	</g>
</g>
</svg>
