<?xml version="1.0" encoding="utf-8"?>
<!-- Generator: Adobe Illustrator 24.0.2, SVG Export Plug-In . SVG Version: 6.00 Build 0)  -->
<svg version="1.1" id="Layer_1" xmlns="http://www.w3.org/2000/svg" xmlns:xlink="http://www.w3.org/1999/xlink" x="0px" y="0px"
	 viewBox="0 0 100 100" style="enable-background:new 0 0 100 100;" xml:space="preserve">
<rect y="0" fill="#105CFB" width="100" height="100"/>
<g>
	<path fill="#ffffff" d="M22.1,42.8V29.9h9.6v2.2h-7V35h6.5v2.2h-6.4v3.5h7.2v2.2L22.1,42.8z"/>
	<path fill="#ffffff" d="M35.9,36.3l-2.2-0.4c0.2-0.8,0.6-1.5,1.3-2c0.8-0.5,1.8-0.7,2.7-0.6c0.8,0,1.7,0.1,2.5,0.4
		c0.5,0.2,0.9,0.6,1.1,1c0.3,0.7,0.4,1.5,0.3,2.2v2.9c0,0.6,0,1.2,0.1,1.8c0.1,0.4,0.2,0.9,0.4,1.3h-2.5c-0.1-0.2-0.1-0.4-0.2-0.7
		c0-0.1-0.1-0.2-0.1-0.3c-0.4,0.4-0.8,0.7-1.3,0.9c-0.5,0.2-1,0.3-1.5,0.3c-0.8,0-1.6-0.2-2.3-0.8c-0.6-0.5-0.9-1.2-0.8-2
		c0-0.5,0.1-1,0.4-1.4c0.2-0.4,0.6-0.8,1.1-1c0.6-0.3,1.3-0.5,2-0.6c0.8-0.1,1.6-0.3,2.4-0.6v-0.3c0-0.4-0.1-0.7-0.3-1
		c-0.4-0.2-0.9-0.3-1.4-0.2c-0.4,0-0.7,0.1-1,0.3C36.2,35.7,36,36,35.9,36.3z M39.2,38.3c-0.3,0.1-0.8,0.2-1.5,0.4
		c-0.5,0.1-0.9,0.2-1.3,0.4c-0.3,0.2-0.5,0.5-0.5,0.9c0,0.3,0.1,0.7,0.4,0.9c0.3,0.3,0.6,0.4,1,0.4c0.5,0,0.9-0.2,1.3-0.4
		c0.3-0.2,0.5-0.5,0.6-0.8c0.1-0.4,0.1-0.8,0.1-1.2L39.2,38.3z"/>
	<path fill="#ffffff" d="M46.4,42.8H44v-9.3h2.3v1.3c0.3-0.5,0.6-0.9,1.1-1.2c0.3-0.2,0.7-0.3,1.1-0.3c0.6,0,1.1,0.2,1.6,0.5l-0.8,2.1
		c-0.3-0.2-0.7-0.4-1.2-0.4c-0.3,0-0.6,0.1-0.9,0.3c-0.3,0.3-0.5,0.6-0.6,1c-0.2,1-0.2,2.1-0.2,3.1L46.4,42.8z"/>
	<path fill="#ffffff" d="M59.6,42.8h-2.5v-4.8c0-0.7,0-1.3-0.2-2c-0.1-0.3-0.3-0.5-0.5-0.7c-0.3-0.2-0.5-0.3-0.8-0.3
		c-0.4,0-0.8,0.1-1.2,0.4c-0.3,0.2-0.6,0.5-0.7,0.9c-0.2,0.7-0.2,1.4-0.2,2.1v4.2h-2.5v-9.3h2.3v1.4c0.7-1,1.9-1.6,3.1-1.6
		c0.5,0,1,0.1,1.5,0.3c0.8,0.3,1.4,1,1.5,1.8c0.1,0.5,0.2,1.1,0.1,1.7V42.8z"/>
	<path fill="#ffffff" d="M67.5,39.8l2.5,0.4c-0.3,0.8-0.8,1.6-1.5,2.1c-0.8,0.5-1.7,0.7-2.6,0.7c-1.4,0.1-2.7-0.5-3.6-1.6
		c-0.6-1-1-2.1-0.9-3.3c-0.1-1.3,0.4-2.6,1.2-3.6c0.8-0.9,1.9-1.3,3.1-1.3c1.2-0.1,2.5,0.4,3.3,1.4c0.9,1.2,1.3,2.7,1.2,4.2h-6.2
		c0,0.6,0.2,1.2,0.6,1.7c0.4,0.4,0.9,0.7,1.4,0.7c0.4,0,0.7-0.1,1-0.3C67.2,40.6,67.4,40.2,67.5,39.8z M67.6,37.3
		c0-0.6-0.2-1.2-0.6-1.6c-0.3-0.3-0.8-0.5-1.3-0.5c-0.5,0-1,0.2-1.3,0.6c-0.4,0.4-0.5,1-0.5,1.6L67.6,37.3z"/>
	<path fill="#ffffff" d="M80.6,42.8h-2.3v-1.4C78,42,77.5,42.4,77,42.6c-0.5,0.3-1,0.4-1.6,0.4c-1.1,0-2.1-0.5-2.8-1.3
		c-0.8-1-1.2-2.3-1.1-3.6c-0.1-1.3,0.3-2.6,1.1-3.6c0.7-0.8,1.8-1.3,2.8-1.2c1,0,2,0.5,2.7,1.3v-4.6h2.5V42.8z M74.1,37.9
		c-0.1,0.7,0.1,1.5,0.4,2.2c0.3,0.6,1,1,1.7,1c0.6,0,1.1-0.3,1.4-0.7c0.4-0.6,0.7-1.4,0.6-2.2c0.1-0.8-0.1-1.6-0.6-2.3
		c-0.4-0.5-0.9-0.7-1.5-0.7c-0.6,0-1.1,0.3-1.5,0.7C74.2,36.5,74,37.2,74.1,37.9z"/>
	<g>
		<path fill="#ffffff" d="M23.9,54.2l-0.6,3c-0.7-0.7-1.7-1-2.7-0.9c-1.1,0-2.1,0.4-2.9,1.3c-0.4,0.5-0.7,1.1-0.9,1.8h6L22.5,61h-5.8
			c0,0.2,0,0.4,0,0.6c0,0.3,0,0.5,0,0.8h5.5l-0.3,1.7h-5c0.1,0.7,0.4,1.3,0.8,1.8c0.7,0.8,1.7,1.3,2.8,1.3c1.2,0.1,2.4-0.4,3.3-1.3
			v3.3c-1,0.5-2.1,0.7-3.3,0.7c-2,0.1-3.9-0.7-5.2-2.2c-0.9-1-1.6-2.3-1.8-3.7h-1.6l0.3-1.7h1.1c0-0.2,0-0.4,0-0.6
			c0-0.3,0-0.6,0-0.9H12l0.3-1.7h1.3c0.3-1.3,0.9-2.6,1.8-3.6c1.4-1.5,3.3-2.3,5.4-2.2C21.8,53.5,22.9,53.7,23.9,54.2z"/>
		<g>
			<path fill="#ffffff" d="M29.4,65.2l3.2-0.4c0.1,0.8,0.4,1.4,0.8,1.9c0.4,0.4,1,0.6,1.6,0.6c0.7,0,1.2-0.3,1.7-0.8
				c0.5-0.5,0.7-1.2,0.7-2.1c0-0.8-0.2-1.5-0.7-2c-0.4-0.5-1-0.7-1.6-0.7c-0.4,0-0.9,0.1-1.5,0.2l0.4-2.7c0.9,0,1.6-0.2,2-0.6
				c0.5-0.4,0.7-1,0.7-1.6c0-0.6-0.2-1-0.5-1.4c-0.3-0.3-0.8-0.5-1.4-0.5c-0.6,0-1,0.2-1.4,0.6s-0.6,1-0.7,1.7l-3-0.5
				c0.2-1,0.5-1.9,1-2.5c0.4-0.6,1-1.1,1.8-1.5c0.8-0.4,1.6-0.5,2.5-0.5c1.6,0,2.9,0.5,3.9,1.5C39.6,55,40,55.9,40,57
				c0,1.5-0.8,2.7-2.5,3.6c1,0.2,1.8,0.7,2.3,1.4s0.9,1.6,0.9,2.6c0,1.5-0.5,2.8-1.6,3.8s-2.5,1.6-4.1,1.6c-1.5,0-2.8-0.4-3.8-1.3
				C30.2,67.8,29.6,66.7,29.4,65.2z"/>
			<path fill="#ffffff" d="M53.9,66.7v3H42.4c0.1-1.2,0.5-2.2,1.1-3.3c0.6-1,1.9-2.4,3.7-4.1c1.5-1.4,2.4-2.3,2.7-2.8
				c0.5-0.7,0.7-1.3,0.7-2c0-0.7-0.2-1.3-0.6-1.7c-0.4-0.4-0.9-0.6-1.6-0.6c-0.7,0-1.2,0.2-1.6,0.6c-0.4,0.4-0.6,1.1-0.7,2.1
				l-3.3-0.3c0.2-1.8,0.8-3.1,1.8-3.9c1-0.8,2.3-1.2,3.8-1.2c1.7,0,3,0.5,4,1.4c1,0.9,1.4,2,1.4,3.4c0,0.8-0.1,1.5-0.4,2.2
				c-0.3,0.7-0.7,1.4-1.3,2.2c-0.4,0.5-1.1,1.2-2.1,2.2c-1,0.9-1.7,1.6-2,1.9c-0.3,0.3-0.5,0.6-0.7,0.9H53.9z"/>
			<path fill="#ffffff" d="M61.7,52.6c1.7,0,3,0.6,3.9,1.8c1.1,1.4,1.7,3.7,1.7,7c0,3.2-0.6,5.6-1.7,7c-0.9,1.2-2.2,1.7-3.9,1.7
				c-1.7,0-3-0.6-4-1.9c-1-1.3-1.5-3.6-1.5-6.8c0-3.2,0.6-5.5,1.7-7C58.7,53.2,60,52.6,61.7,52.6z M61.7,55.3
				c-0.4,0-0.8,0.1-1.1,0.4c-0.3,0.3-0.6,0.7-0.7,1.4c-0.2,0.8-0.3,2.3-0.3,4.3c0,2,0.1,3.4,0.3,4.1c0.2,0.8,0.5,1.2,0.8,1.5
				s0.7,0.4,1.1,0.4s0.8-0.1,1.1-0.4c0.3-0.3,0.6-0.7,0.7-1.4c0.2-0.8,0.3-2.3,0.3-4.3c0-2-0.1-3.4-0.3-4.1
				c-0.2-0.8-0.5-1.3-0.8-1.5S62,55.3,61.7,55.3z"/>
			<path fill="#ffffff" d="M69.8,57.4h3v1.7c1.1-1.3,2.4-2,3.9-2c0.8,0,1.5,0.2,2.1,0.5s1.1,0.8,1.4,1.5c0.5-0.7,1.1-1.2,1.8-1.5
				c0.6-0.3,1.3-0.5,2-0.5c0.9,0,1.7,0.2,2.3,0.6c0.6,0.4,1.1,0.9,1.4,1.6c0.2,0.5,0.3,1.4,0.3,2.6v7.9h-3.3v-7.1
				c0-1.2-0.1-2-0.3-2.4c-0.3-0.5-0.8-0.7-1.4-0.7c-0.5,0-0.9,0.1-1.3,0.4c-0.4,0.3-0.7,0.7-0.9,1.2c-0.2,0.5-0.3,1.4-0.3,2.6v5.9
				h-3.3V63c0-1.2-0.1-2-0.2-2.3c-0.1-0.3-0.3-0.6-0.5-0.8c-0.2-0.2-0.6-0.3-1-0.3c-0.5,0-1,0.1-1.4,0.4s-0.7,0.7-0.9,1.2
				c-0.2,0.5-0.3,1.4-0.3,2.6v6h-3.3V57.4z"/>
		</g>
	</g>
</g>
</svg>
