<?xml version="1.0" encoding="utf-8"?>
<!-- Generator: Adobe Illustrator 24.0.2, SVG Export Plug-In . SVG Version: 6.00 Build 0)  -->
<svg version="1.1" id="Layer_1" xmlns="http://www.w3.org/2000/svg" xmlns:xlink="http://www.w3.org/1999/xlink" x="0px" y="0px"
	 viewBox="0 0 100 100" style="enable-background:new 0 0 100 100;" xml:space="preserve">
<rect y="0" fill="#105CFB" width="100" height="100"/>
<g>
	<path fill="#ffffff" d="M22.1,41.7V28.8h9.6V31h-7v2.9h6.5v2.2h-6.4v3.5h7.2v2.2L22.1,41.7z"/>
	<path fill="#ffffff" d="M35.9,35.2l-2.2-0.4c0.2-0.8,0.6-1.5,1.3-2c0.8-0.5,1.8-0.7,2.7-0.7c0.8,0,1.7,0.1,2.5,0.4
		c0.5,0.2,0.9,0.6,1.1,1c0.3,0.7,0.4,1.5,0.3,2.2v2.9c0,0.6,0,1.2,0.1,1.8c0.1,0.4,0.2,0.9,0.4,1.3h-2.5c-0.1-0.2-0.1-0.4-0.2-0.7
		c0-0.1-0.1-0.2-0.1-0.3c-0.4,0.4-0.8,0.7-1.3,0.9c-0.5,0.2-1,0.3-1.5,0.3c-0.8,0-1.6-0.2-2.3-0.8c-0.6-0.5-0.9-1.2-0.8-2
		c0-0.5,0.1-1,0.4-1.4c0.2-0.4,0.6-0.8,1.1-1c0.6-0.3,1.3-0.5,2-0.6c0.8-0.1,1.6-0.3,2.4-0.6v-0.3c0-0.4-0.1-0.7-0.3-1
		c-0.4-0.2-0.9-0.3-1.4-0.2c-0.4,0-0.7,0.1-1,0.3C36.2,34.6,36,34.9,35.9,35.2z M39.2,37.2c-0.3,0.1-0.8,0.2-1.5,0.4
		c-0.5,0.1-0.9,0.2-1.3,0.4c-0.3,0.2-0.5,0.5-0.5,0.9c0,0.3,0.1,0.7,0.4,0.9c0.3,0.3,0.6,0.4,1,0.4c0.5,0,0.9-0.2,1.3-0.4
		c0.3-0.2,0.5-0.5,0.6-0.8c0.1-0.4,0.1-0.8,0.1-1.2L39.2,37.2z"/>
	<path fill="#ffffff" d="M46.4,41.7H44v-9.3h2.3v1.3c0.3-0.5,0.6-0.9,1.1-1.2c0.3-0.2,0.7-0.3,1.1-0.3c0.6,0,1.1,0.2,1.6,0.5l-0.8,2.2
		c-0.3-0.2-0.7-0.4-1.2-0.4c-0.3,0-0.6,0.1-0.9,0.3c-0.3,0.3-0.5,0.6-0.6,1c-0.2,1-0.2,2.1-0.2,3.1L46.4,41.7z"/>
	<path fill="#ffffff" d="M59.6,41.7h-2.5v-4.8c0-0.7,0-1.3-0.2-2c-0.1-0.3-0.3-0.5-0.5-0.7c-0.3-0.2-0.5-0.3-0.8-0.3
		c-0.4,0-0.8,0.1-1.2,0.4c-0.3,0.2-0.6,0.5-0.7,0.9c-0.2,0.7-0.2,1.4-0.2,2.1v4.2h-2.5v-9.3h2.3v1.4c0.7-1,1.9-1.6,3.1-1.6
		c0.5,0,1,0.1,1.5,0.3c0.8,0.3,1.4,1,1.5,1.8c0.1,0.5,0.2,1.1,0.1,1.7V41.7z"/>
	<path fill="#ffffff" d="M67.5,38.7l2.5,0.4c-0.3,0.8-0.8,1.6-1.5,2.1c-0.8,0.5-1.7,0.7-2.6,0.7c-1.4,0.1-2.7-0.5-3.6-1.6
		c-0.6-1-1-2.1-0.9-3.3c-0.1-1.3,0.4-2.6,1.2-3.6c0.8-0.9,1.9-1.3,3.1-1.3c1.2-0.1,2.5,0.4,3.3,1.4c0.9,1.2,1.3,2.7,1.2,4.2h-6.2
		c0,0.6,0.2,1.2,0.6,1.7c0.4,0.4,0.9,0.7,1.4,0.7c0.4,0,0.7-0.1,1-0.3C67.2,39.5,67.4,39.1,67.5,38.7z M67.6,36.2
		c0-0.6-0.2-1.2-0.6-1.6c-0.3-0.3-0.8-0.5-1.3-0.5c-0.5,0-1,0.2-1.3,0.6c-0.4,0.4-0.5,1-0.5,1.6L67.6,36.2z"/>
	<path fill="#ffffff" d="M80.6,41.7h-2.3v-1.4c-0.3,0.5-0.8,0.9-1.3,1.2c-0.5,0.3-1,0.4-1.6,0.4c-1.1,0-2.1-0.5-2.8-1.3
		c-0.8-1-1.2-2.3-1.1-3.6c-0.1-1.3,0.3-2.6,1.1-3.6c0.7-0.8,1.8-1.3,2.8-1.2c1,0,2,0.5,2.7,1.3v-4.6h2.5V41.7z M74.1,36.8
		c-0.1,0.7,0.1,1.5,0.4,2.2c0.3,0.6,1,1,1.7,1c0.6,0,1.1-0.3,1.4-0.7c0.4-0.6,0.7-1.4,0.6-2.2c0.1-0.8-0.1-1.6-0.6-2.3
		c-0.4-0.5-0.9-0.7-1.5-0.7c-0.6,0-1.1,0.3-1.5,0.7C74.2,35.4,74,36.1,74.1,36.8z"/>
	<g>
		<path fill="#ffffff" d="M23.5,53.9l-0.7,3.3c-0.8-0.7-1.9-1.1-3-1c-1.2,0-2.4,0.5-3.1,1.4c-0.5,0.6-0.8,1.2-1,2h6.6l-0.4,1.8h-6.4
			c0,0.2,0,0.4,0,0.7s0,0.6,0,0.9h6.1l-0.4,1.8h-5.5c0.1,0.7,0.5,1.4,0.9,2c0.8,0.9,1.9,1.4,3.1,1.4c1.4,0.1,2.7-0.4,3.6-1.4v3.6
			c-1.1,0.5-2.4,0.8-3.6,0.8c-2.2,0.1-4.2-0.8-5.7-2.4c-1-1.1-1.7-2.5-2-4h-1.8l0.4-1.8h1.2c0-0.2,0-0.4,0-0.6c0-0.4,0-0.7,0-1h-1.5
			l0.4-1.8h1.4c0.3-1.5,1-2.9,2-4c1.5-1.6,3.7-2.5,5.9-2.4C21.2,53.1,22.4,53.4,23.5,53.9z"/>
		<g>
			<path fill="#ffffff" d="M37.8,70.4h-3.4V57.6c-1.2,1.2-2.7,2-4.4,2.6v-3.1c0.9-0.3,1.8-0.8,2.9-1.6c1-0.8,1.7-1.8,2.1-2.8h2.8V70.4z
				"/>
			<path fill="#ffffff" d="M45.8,60.8c-0.9-0.4-1.5-0.9-1.9-1.5s-0.6-1.4-0.6-2.1c0-1.3,0.5-2.4,1.4-3.3c0.9-0.9,2.2-1.3,3.9-1.3
				c1.7,0,3,0.4,3.9,1.3s1.4,2,1.4,3.3c0,0.8-0.2,1.6-0.6,2.2s-1,1.1-1.8,1.5c1,0.4,1.7,1,2.2,1.7c0.5,0.8,0.8,1.6,0.8,2.6
				c0,1.6-0.5,3-1.6,4s-2.4,1.5-4.2,1.5c-1.6,0-2.9-0.4-4-1.3c-1.3-1-1.9-2.4-1.9-4.1c0-1,0.2-1.8,0.7-2.6S44.8,61.3,45.8,60.8z
				 M46.2,65c0,0.9,0.2,1.7,0.7,2.2c0.5,0.5,1.1,0.8,1.8,0.8c0.7,0,1.3-0.3,1.7-0.8c0.5-0.5,0.7-1.2,0.7-2.2c0-0.8-0.2-1.5-0.7-2
				s-1.1-0.8-1.8-0.8c-0.8,0-1.4,0.3-1.9,0.9S46.2,64.3,46.2,65z M46.5,57.4c0,0.7,0.2,1.2,0.6,1.6c0.4,0.4,0.9,0.6,1.5,0.6
				c0.6,0,1.2-0.2,1.5-0.6c0.4-0.4,0.6-0.9,0.6-1.6c0-0.6-0.2-1.1-0.6-1.5c-0.4-0.4-0.9-0.6-1.5-0.6c-0.7,0-1.2,0.2-1.6,0.6
				C46.7,56.3,46.5,56.8,46.5,57.4z"/>
			<path fill="#ffffff" d="M62.4,52.6c1.7,0,3.1,0.6,4,1.8c1.1,1.4,1.7,3.8,1.7,7.2c0,3.3-0.6,5.7-1.7,7.2c-1,1.2-2.3,1.8-4,1.8
				c-1.7,0-3.1-0.7-4.2-2c-1.1-1.3-1.6-3.7-1.6-7.1c0-3.3,0.6-5.7,1.7-7.2C59.3,53.2,60.7,52.6,62.4,52.6z M62.4,55.4
				c-0.4,0-0.8,0.1-1.1,0.4c-0.3,0.3-0.6,0.7-0.7,1.4c-0.2,0.9-0.3,2.4-0.3,4.4c0,2.1,0.1,3.5,0.3,4.3c0.2,0.8,0.5,1.3,0.8,1.6
				c0.3,0.3,0.7,0.4,1.1,0.4s0.8-0.1,1.1-0.4c0.3-0.3,0.6-0.7,0.7-1.4c0.2-0.9,0.3-2.3,0.3-4.4c0-2.1-0.1-3.5-0.3-4.3
				c-0.2-0.8-0.5-1.3-0.8-1.6C63.2,55.5,62.8,55.4,62.4,55.4z"/>
			<path fill="#ffffff" d="M70.9,57.6H74v1.7c1.1-1.4,2.4-2,4-2c0.8,0,1.5,0.2,2.1,0.5c0.6,0.3,1.1,0.8,1.5,1.5
				c0.6-0.7,1.2-1.2,1.8-1.5c0.7-0.3,1.3-0.5,2.1-0.5c0.9,0,1.7,0.2,2.4,0.6c0.7,0.4,1.1,0.9,1.5,1.7c0.2,0.5,0.3,1.4,0.3,2.7v8.2
				h-3.4V63c0-1.3-0.1-2.1-0.3-2.5c-0.3-0.5-0.8-0.7-1.4-0.7c-0.5,0-0.9,0.1-1.3,0.4c-0.4,0.3-0.7,0.7-0.9,1.3
				C82.1,62.1,82,63,82,64.2v6.2h-3.4v-7c0-1.2-0.1-2.1-0.2-2.4s-0.3-0.6-0.6-0.8s-0.6-0.3-1-0.3c-0.5,0-1,0.1-1.4,0.4
				c-0.4,0.3-0.7,0.7-0.9,1.2c-0.2,0.5-0.3,1.4-0.3,2.6v6.2h-3.4V57.6z"/>
		</g>
	</g>
</g>
</svg>
