<?xml version="1.0" encoding="utf-8"?>
<!-- Generator: Adobe Illustrator 24.0.2, SVG Export Plug-In . SVG Version: 6.00 Build 0)  -->
<svg version="1.1" id="Layer_1" xmlns="http://www.w3.org/2000/svg" xmlns:xlink="http://www.w3.org/1999/xlink" x="0px" y="0px"
	 viewBox="0 0 100 100" style="enable-background:new 0 0 100 100;" xml:space="preserve">
<rect y="0" fill="#105CFB" width="100" height="100"/>
<g>
	<path fill="#fff" d="M31.2,39.6V26.7h9.6v2.2h-7v2.9h6.5V34h-6.4v3.5H41v2.2L31.2,39.6z"/>
	<path fill="#fff" d="M45.1,33.1l-2.2-0.4c0.2-0.8,0.6-1.5,1.3-2c0.8-0.5,1.8-0.7,2.7-0.6c0.8,0,1.7,0.1,2.5,0.4
		c0.5,0.2,0.9,0.6,1.1,1c0.3,0.7,0.4,1.5,0.3,2.2v2.9c0,0.6,0,1.2,0.1,1.8c0.1,0.4,0.2,0.9,0.4,1.3h-2.5c-0.1-0.2-0.1-0.4-0.2-0.7
		c0-0.1-0.1-0.2-0.1-0.3c-0.4,0.4-0.8,0.7-1.3,0.9c-0.5,0.2-1,0.3-1.5,0.3c-0.8,0-1.6-0.2-2.3-0.8c-0.6-0.5-0.9-1.2-0.8-2
		c0-0.5,0.1-1,0.4-1.4c0.2-0.4,0.6-0.8,1.1-1c0.6-0.3,1.3-0.5,2-0.6c0.8-0.1,1.6-0.3,2.4-0.6v-0.3c0-0.4-0.1-0.7-0.3-1
		c-0.4-0.2-0.9-0.3-1.4-0.2c-0.4,0-0.7,0.1-1,0.3C45.4,32.5,45.2,32.8,45.1,33.1z M48.4,35.1c-0.3,0.1-0.8,0.2-1.5,0.4
		c-0.5,0.1-0.9,0.2-1.3,0.4c-0.3,0.2-0.5,0.5-0.5,0.9c0,0.3,0.1,0.7,0.4,0.9c0.3,0.3,0.6,0.4,1,0.4c0.5,0,0.9-0.2,1.3-0.4
		c0.3-0.2,0.5-0.5,0.6-0.8c0.1-0.4,0.1-0.8,0.1-1.2L48.4,35.1z"/>
	<path fill="#fff" d="M55.6,39.6h-2.4v-9.3h2.3v1.3c0.3-0.5,0.6-0.9,1.1-1.2c0.3-0.2,0.7-0.3,1.1-0.3c0.6,0,1.1,0.2,1.6,0.5
		l-0.8,2.1c-0.3-0.2-0.7-0.4-1.2-0.4c-0.3,0-0.6,0.1-0.9,0.3c-0.3,0.3-0.5,0.6-0.6,1c-0.2,1-0.2,2.1-0.2,3.1L55.6,39.6z"/>
	<path fill="#fff" d="M68.7,39.6h-2.5v-4.8c0-0.7,0-1.3-0.2-2c-0.1-0.3-0.3-0.5-0.5-0.7c-0.3-0.2-0.5-0.3-0.8-0.3
		c-0.4,0-0.8,0.1-1.2,0.4c-0.3,0.2-0.6,0.5-0.7,0.9c-0.2,0.7-0.2,1.4-0.2,2.1v4.2h-2.5v-9.3h2.3v1.4c0.7-1,1.9-1.6,3.1-1.6
		c0.5,0,1,0.1,1.5,0.3c0.8,0.3,1.4,1,1.5,1.8c0.1,0.5,0.2,1.1,0.1,1.7V39.6z"/>
</g>
<g>
	<path fill="#fff" d="M36.7,49.3l-0.9,4.3c-1.1-0.9-2.5-1.4-3.9-1.3c-1.6-0.1-3.1,0.6-4.1,1.8c-0.6,0.7-1.1,1.6-1.3,2.6h8.6
		l-0.5,2.4h-8.4c0,0.2,0,0.5,0,0.9s0,0.7,0,1.1h8l-0.5,2.4h-7.2c0.2,1,0.6,1.9,1.2,2.6c1,1.2,2.5,1.9,4.1,1.8
		c1.8,0.1,3.5-0.6,4.8-1.8V71c-1.5,0.7-3.1,1-4.7,1c-2.8,0.1-5.6-1.1-7.5-3.1c-1.4-1.5-2.3-3.3-2.6-5.3h-2.3l0.5-2.4h1.5
		c0-0.3,0-0.5,0-0.8c0-0.5,0-0.9,0-1.3h-2l0.5-2.4h1.9c0.4-1.9,1.3-3.7,2.6-5.2c2-2.1,4.8-3.3,7.7-3.1
		C33.7,48.3,35.3,48.6,36.7,49.3z"/>
	<path fill="#fff" d="M38.9,65.5l4.2-0.6c0.1,0.9,0.5,1.8,1.1,2.5c0.6,0.6,1.3,0.9,2.2,0.9c0.9,0,1.7-0.3,2.3-1
		c0.7-0.8,1-1.8,0.9-2.8c0-1-0.3-1.9-0.9-2.6c-0.5-0.6-1.3-1-2.2-1c-0.7,0-1.4,0.1-2,0.3l0.5-3.6c1,0.1,1.9-0.1,2.7-0.7
		c0.6-0.5,1-1.4,0.9-2.2c0-0.7-0.2-1.3-0.7-1.8c-0.5-0.5-1.2-0.8-1.9-0.7c-0.7,0-1.4,0.3-1.9,0.8c-0.6,0.6-0.9,1.4-1,2.3l-4-0.7
		c0.2-1.2,0.6-2.3,1.3-3.3c0.6-0.9,1.4-1.5,2.4-2c1.1-0.5,2.2-0.7,3.4-0.7c1.9-0.1,3.8,0.7,5.2,2.1c1,1,1.6,2.4,1.7,3.8
		c0,2-1.1,3.6-3.3,4.8c1.2,0.2,2.4,0.9,3.2,1.9c0.8,1,1.2,2.3,1.1,3.5c0,1.9-0.8,3.8-2.2,5.1c-1.5,1.4-3.5,2.2-5.5,2.1
		c-1.9,0.1-3.7-0.6-5.2-1.8C39.9,69,39.1,67.4,38.9,65.5z"/>
	<path fill="#fff" d="M57.8,71.6v-4.4h4.3v4.4H57.8z"/>
	<path fill="#fff" d="M80.6,67.5v4.1H65.2c0.2-1.6,0.7-3,1.5-4.4c1.4-2,3.1-3.9,4.9-5.5c1.3-1.1,2.6-2.4,3.7-3.8
		c0.6-0.8,0.9-1.7,0.9-2.7c0.1-0.8-0.2-1.6-0.8-2.3c-1.3-1.1-3.1-1.1-4.4,0c-0.6,0.8-1,1.8-0.9,2.8l-4.4-0.4
		c0.3-2.4,1.1-4.2,2.4-5.2c1.5-1.1,3.3-1.6,5.2-1.6c1.9-0.1,3.9,0.5,5.3,1.8c1.3,1.2,2,2.8,2,4.6c0,1-0.2,2-0.6,3
		c-0.4,1.1-1,2-1.8,2.9c-0.9,1-1.8,2-2.9,2.9c-1.4,1.3-2.3,2.1-2.6,2.5c-0.3,0.4-0.6,0.8-0.9,1.2L80.6,67.5z"/>
</g>
</svg>
