<?xml version="1.0" encoding="utf-8"?>
<!-- Generator: Adobe Illustrator 24.0.2, SVG Export Plug-In . SVG Version: 6.00 Build 0)  -->
<svg version="1.1" id="Layer_1" xmlns="http://www.w3.org/2000/svg" xmlns:xlink="http://www.w3.org/1999/xlink" x="0px" y="0px"
	 viewBox="0 0 100 100" style="enable-background:new 0 0 100 100;" xml:space="preserve">
<rect y="0" fill="#105CFB" width="100" height="100"/>
<g>
	<path fill="#ffffff" d="M31.3,39.6V26.7h9.6v2.2h-7v2.9h6.5V34H34v3.5h7.2v2.2L31.3,39.6z"/>
	<path fill="#ffffff" d="M45.1,33.1l-2.2-0.4c0.2-0.8,0.6-1.5,1.3-2c0.8-0.5,1.8-0.7,2.7-0.6c0.8,0,1.7,0.1,2.5,0.4
		c0.5,0.2,0.9,0.6,1.1,1c0.3,0.7,0.4,1.5,0.3,2.2v2.9c0,0.6,0,1.2,0.1,1.8c0.1,0.4,0.2,0.9,0.4,1.3h-2.5c-0.1-0.2-0.1-0.4-0.2-0.7
		c0-0.1-0.1-0.2-0.1-0.3c-0.3,0.3-0.7,0.6-1.3,0.8c-0.5,0.2-1,0.3-1.5,0.3c-0.8,0-1.6-0.2-2.3-0.8c-0.6-0.5-0.9-1.2-0.8-2
		c0-0.5,0.1-1,0.4-1.4c0.2-0.4,0.6-0.8,1.1-1c0.6-0.3,1.3-0.5,2-0.6c0.8-0.1,1.6-0.3,2.4-0.6v-0.3c0-0.4-0.1-0.7-0.3-1
		c-0.5-0.1-1-0.2-1.5-0.1c-0.4,0-0.7,0.1-1,0.3S45.2,32.8,45.1,33.1z M48.4,35.1c-0.3,0.1-0.8,0.2-1.5,0.4c-0.5,0.1-0.9,0.2-1.3,0.4
		c-0.3,0.2-0.5,0.5-0.5,0.9c0,0.3,0.1,0.7,0.4,0.9c0.3,0.3,0.6,0.4,1,0.4c0.5,0,0.9-0.2,1.3-0.4c0.3-0.2,0.5-0.5,0.6-0.8
		c0.1-0.4,0.1-0.8,0.1-1.2L48.4,35.1z"/>
	<path fill="#ffffff" d="M55.6,39.6h-2.4v-9.3h2.3v1.3c0.3-0.5,0.6-0.9,1.1-1.2c0.3-0.2,0.7-0.3,1.1-0.3c0.6,0,1.1,0.2,1.6,0.5
		l-0.8,2.1c-0.3-0.2-0.7-0.4-1.2-0.4c-0.3,0-0.6,0.1-0.9,0.3c-0.3,0.3-0.5,0.6-0.6,1c-0.2,1-0.2,2.1-0.2,3.1L55.6,39.6z"/>
	<path fill="#ffffff" d="M68.8,39.6h-2.5v-4.8c0-0.7,0-1.3-0.2-2c-0.1-0.3-0.3-0.5-0.5-0.7c-0.3-0.2-0.5-0.3-0.8-0.3
		c-0.4,0-0.8,0.1-1.2,0.4c-0.3,0.2-0.6,0.5-0.7,0.9c-0.2,0.7-0.2,1.4-0.2,2.1v4.2h-2.5v-9.3h2.3v1.4c0.7-1,1.9-1.6,3.1-1.6
		c0.5,0,1,0.1,1.5,0.3c0.8,0.3,1.4,1,1.5,1.8c0.1,0.5,0.2,1.1,0.1,1.7v5.9H68.8z"/>
</g>
<g>
	<path fill="#ffffff" d="M24.9,50L24,54c-1-0.9-2.3-1.3-3.6-1.2c-1.5-0.1-2.9,0.6-3.8,1.7c-0.6,0.7-1,1.5-1.2,2.4h8L23,59.2h-7.9
		c0,0.2,0,0.5,0,0.9s0,0.7,0,1.1h7.4L22,63.5h-6.7c0.2,0.9,0.6,1.7,1.1,2.4c0.9,1.1,2.3,1.8,3.8,1.7c1.7,0.1,3.3-0.5,4.4-1.7v4.4
		c-1.4,0.7-2.9,1-4.4,0.9c-2.6,0.1-5.2-1-7-2.9c-1.3-1.4-2.1-3.1-2.5-4.9H8.8l0.5-2.3h1.4c0-0.2,0-0.5,0-0.7c0-0.4,0-0.8,0-1.2H8.8
		l0.5-2.3H11c0.3-1.8,1.2-3.5,2.4-4.8c1.9-2,4.5-3,7.2-2.9C22.1,49.1,23.6,49.4,24.9,50z"/>
	<g>
		<path fill="#ffffff" d="M30.3,65l3.7-0.5c0.1,0.9,0.4,1.7,1,2.2c0.5,0.5,1.1,0.8,1.9,0.8c0.8,0,1.5-0.3,2-0.9s0.8-1.4,0.8-2.4
			s-0.3-1.7-0.8-2.3S37.8,61,37,61c-0.5,0-1.1,0.1-1.8,0.3l0.4-3.1c1,0,1.8-0.2,2.4-0.7c0.5-0.5,0.8-1.1,0.8-1.9
			c0-0.7-0.2-1.2-0.6-1.6s-0.9-0.6-1.6-0.6c-0.7,0-1.2,0.2-1.7,0.7s-0.7,1.1-0.8,2l-3.5-0.6c0.2-1.2,0.6-2.2,1.1-2.9
			c0.5-0.7,1.2-1.3,2.1-1.7s1.9-0.6,3-0.6c1.9,0,3.4,0.6,4.5,1.8c0.9,1,1.4,2.1,1.4,3.3c0,1.8-1,3.2-2.9,4.2
			c1.1,0.2,2.1,0.8,2.7,1.7c0.7,0.9,1,1.9,1,3.1c0,1.8-0.6,3.3-1.9,4.5c-1.3,1.2-2.9,1.9-4.8,1.9c-1.8,0-3.3-0.5-4.5-1.6
			C31.2,68,30.5,66.7,30.3,65z"/>
		<path fill="#ffffff" d="M59,66.7v3.6H45.5c0.1-1.3,0.6-2.6,1.3-3.8c0.7-1.2,2.2-2.8,4.3-4.8c1.7-1.6,2.8-2.7,3.2-3.3
			c0.5-0.8,0.8-1.6,0.8-2.3c0-0.9-0.2-1.5-0.7-2s-1.1-0.7-1.9-0.7c-0.8,0-1.4,0.2-1.9,0.7s-0.7,1.3-0.8,2.4L46,56.1
			c0.2-2.1,0.9-3.6,2.1-4.5c1.2-0.9,2.7-1.4,4.5-1.4c2,0,3.5,0.5,4.7,1.6c1.1,1.1,1.7,2.4,1.7,4c0,0.9-0.2,1.8-0.5,2.6
			S57.7,60,57,60.9c-0.5,0.6-1.3,1.4-2.5,2.6c-1.2,1.1-2,1.8-2.3,2.2c-0.3,0.4-0.6,0.7-0.8,1.1L59,66.7L59,66.7z"/>
		<path fill="#ffffff" d="M68,50.2c1.9,0,3.5,0.7,4.5,2.1c1.3,1.6,2,4.4,2,8.1c0,3.8-0.7,6.5-2,8.2c-1.1,1.4-2.6,2-4.5,2
			s-3.5-0.7-4.7-2.2s-1.8-4.2-1.8-8c0-3.8,0.7-6.5,2-8.1C64.6,50.9,66.1,50.2,68,50.2z M68,53.4c-0.5,0-0.9,0.1-1.2,0.4
			c-0.4,0.3-0.6,0.8-0.8,1.6c-0.3,1-0.4,2.7-0.4,5s0.1,4,0.4,4.8s0.5,1.5,0.9,1.8s0.8,0.4,1.2,0.4c0.5,0,0.9-0.1,1.2-0.4
			c0.4-0.3,0.6-0.8,0.8-1.6c0.3-1,0.4-2.6,0.4-5s-0.1-4-0.4-4.8s-0.5-1.5-0.9-1.8S68.5,53.4,68,53.4z"/>
		<path fill="#ffffff" d="M77.8,70.3v-20h3.8v10.6l4.5-5.1h4.7l-5,5.3l5.3,9.2H87l-3.6-6.5l-1.8,1.9v4.6H77.8z"/>
	</g>
</g>
</svg>
