<?xml version="1.0" encoding="utf-8"?>
<!-- Generator: Adobe Illustrator 24.0.2, SVG Export Plug-In . SVG Version: 6.00 Build 0)  -->
<svg version="1.1" id="Layer_1" xmlns="http://www.w3.org/2000/svg" xmlns:xlink="http://www.w3.org/1999/xlink" x="0px" y="0px"
	 viewBox="0 0 100 100" style="enable-background:new 0 0 100 100;" xml:space="preserve">
<rect y="0" fill="#105CFB" width="100" height="100"/>
<g>
	<path fill="#fff" d="M31.3,39.6V26.7h9.6v2.2h-7v2.9h6.5V34h-6.4v3.5H41v2.2L31.3,39.6z"/>
	<path fill="#fff" d="M45.1,33.1l-2.2-0.4c0.2-0.8,0.6-1.5,1.3-2c0.8-0.5,1.8-0.7,2.7-0.6c0.8,0,1.7,0.1,2.5,0.4
		c0.5,0.2,0.9,0.6,1.1,1c0.3,0.7,0.4,1.5,0.3,2.2v2.9c0,0.6,0,1.2,0.1,1.8c0.1,0.4,0.2,0.9,0.4,1.3h-2.5c-0.1-0.2-0.1-0.4-0.2-0.7
		c0-0.1-0.1-0.2-0.1-0.3c-0.4,0.4-0.8,0.7-1.3,0.9c-0.5,0.2-1,0.3-1.5,0.3c-0.8,0-1.6-0.2-2.3-0.8c-0.6-0.5-0.9-1.2-0.8-2
		c0-0.5,0.1-1,0.4-1.4c0.2-0.4,0.6-0.8,1.1-1c0.6-0.3,1.3-0.5,2-0.6c0.8-0.1,1.6-0.3,2.4-0.6v-0.3c0-0.4-0.1-0.7-0.3-1
		c-0.4-0.2-0.9-0.3-1.4-0.2c-0.4,0-0.7,0.1-1,0.3C45.4,32.5,45.2,32.8,45.1,33.1z M48.4,35.1c-0.3,0.1-0.8,0.2-1.5,0.4
		c-0.5,0.1-0.9,0.2-1.3,0.4c-0.3,0.2-0.5,0.5-0.5,0.9c0,0.3,0.1,0.7,0.4,0.9c0.3,0.3,0.6,0.4,1,0.4c0.5,0,0.9-0.2,1.3-0.4
		c0.3-0.2,0.5-0.5,0.6-0.8c0.1-0.4,0.1-0.8,0.1-1.2L48.4,35.1z"/>
	<path fill="#fff" d="M55.6,39.6h-2.4v-9.3h2.3v1.3c0.3-0.5,0.6-0.9,1.1-1.2c0.3-0.2,0.7-0.3,1.1-0.3c0.6,0,1.1,0.2,1.6,0.5
		l-0.8,2.1c-0.3-0.2-0.7-0.4-1.2-0.4c-0.3,0-0.6,0.1-0.9,0.3c-0.3,0.3-0.5,0.6-0.6,1c-0.2,1-0.2,2.1-0.2,3.1L55.6,39.6z"/>
	<path fill="#fff" d="M68.8,39.6h-2.5v-4.8c0-0.7,0-1.3-0.2-2c-0.1-0.3-0.3-0.5-0.5-0.7c-0.3-0.2-0.5-0.3-0.8-0.3
		c-0.4,0-0.8,0.1-1.2,0.4c-0.3,0.2-0.6,0.5-0.7,0.9c-0.2,0.7-0.2,1.4-0.2,2.1v4.2h-2.5v-9.3h2.3v1.4c0.7-1,1.9-1.6,3.1-1.6
		c0.5,0,1,0.1,1.5,0.3c0.4,0.2,0.7,0.4,1,0.8c0.2,0.3,0.4,0.6,0.5,1c0.1,0.5,0.2,1.1,0.1,1.7L68.8,39.6z"/>
</g>
<g>
	<path fill="#fff" d="M34,49.3l-0.9,4.3c-1.1-0.9-2.5-1.4-3.9-1.3c-1.6-0.1-3.1,0.6-4.1,1.8c-0.6,0.7-1.1,1.6-1.3,2.6h8.6l-0.5,2.4
		h-8.4c0,0.2,0,0.5,0,0.9s0,0.7,0,1.1h8L31,63.6h-7.2c0.2,1,0.6,1.9,1.2,2.6c1,1.2,2.5,1.9,4.1,1.8c1.8,0.1,3.5-0.6,4.8-1.8V71
		c-1.5,0.7-3.1,1-4.7,1c-2.8,0.1-5.6-1.1-7.5-3.1c-1.4-1.5-2.3-3.3-2.6-5.3h-2.3l0.5-2.4h1.5c0-0.3,0-0.5,0-0.8c0-0.5,0-0.9,0-1.3
		h-2l0.5-2.4h1.9c0.4-1.9,1.3-3.7,2.6-5.2c2-2.1,4.8-3.3,7.7-3.1C31,48.3,32.6,48.6,34,49.3z"/>
	<path fill="#fff" d="M47.6,71.6h-4.4V55c-1.6,1.5-3.6,2.7-5.7,3.3v-4c1.4-0.5,2.6-1.2,3.7-2.1c1.3-0.9,2.2-2.2,2.8-3.7h3.6
		L47.6,71.6z"/>
	<path fill="#fff" d="M55.6,59c-2-0.7-3.3-2.6-3.3-4.7c0-1.6,0.6-3.2,1.8-4.2c1.4-1.2,3.2-1.8,5.1-1.7c1.8-0.1,3.7,0.5,5.1,1.7
		c1.2,1.1,1.8,2.6,1.8,4.2c0,1-0.3,2-0.9,2.8c-0.6,0.8-1.4,1.5-2.3,1.9c1.2,0.4,2.2,1.2,2.9,2.2c0.7,1,1,2.2,1,3.4
		c0.1,1.9-0.6,3.8-2,5.2c-1.4,1.4-3.4,2.1-5.4,2c-1.9,0.1-3.7-0.5-5.2-1.7c-1.6-1.3-2.5-3.2-2.5-5.3c0-1.2,0.3-2.4,0.9-3.4
		C53.4,60.3,54.4,59.4,55.6,59z M56.1,64.4c-0.1,1,0.3,2,0.9,2.8c0.6,0.7,1.4,1,2.3,1c0.9,0,1.7-0.3,2.3-1c0.6-0.8,1-1.8,0.9-2.8
		c0-0.9-0.3-1.9-0.9-2.6c-0.6-0.7-1.4-1-2.3-1c-0.9-0.1-1.8,0.4-2.4,1.1C56.3,62.6,56.1,63.5,56.1,64.4z M56.5,54.6
		c0,0.7,0.2,1.5,0.7,2c0.5,0.5,1.3,0.8,2,0.7c0.7,0,1.5-0.2,2-0.7c0.5-0.6,0.8-1.3,0.8-2.1c0.1-1.4-1-2.6-2.4-2.7
		c-0.1,0-0.2,0-0.3,0c-1.4-0.1-2.7,1-2.8,2.4C56.4,54.3,56.4,54.4,56.5,54.6L56.5,54.6z"/>
	<path fill="#fff" d="M75.9,48.4c2-0.1,3.9,0.8,5.2,2.4c1.5,1.9,2.2,5,2.2,9.3s-0.8,7.4-2.3,9.3c-1.3,1.6-3.2,2.4-5.2,2.3
		c-2.1,0.1-4.1-0.9-5.4-2.6c-1.4-1.7-2-4.8-2-9.2s0.7-7.4,2.3-9.3C72,49.2,73.9,48.4,75.9,48.4z M75.9,52.1c-0.5,0-1,0.2-1.4,0.5
		c-0.5,0.5-0.9,1.1-1,1.8c-0.4,1.9-0.5,3.8-0.5,5.7c-0.1,1.9,0.1,3.7,0.4,5.5c0.1,0.8,0.5,1.4,1,2c0.4,0.3,0.9,0.5,1.4,0.5
		s1-0.2,1.4-0.5c0.5-0.5,0.9-1.1,1-1.8c0.4-1.9,0.5-3.8,0.5-5.7c0.1-1.9-0.1-3.7-0.4-5.5c-0.1-0.7-0.5-1.4-1-2
		C77,52.2,76.5,52.1,75.9,52.1z"/>
</g>
</svg>
