<?xml version="1.0" encoding="utf-8"?>
<!-- Generator: Adobe Illustrator 24.0.2, SVG Export Plug-In . SVG Version: 6.00 Build 0)  -->
<svg version="1.1" id="Layer_1" xmlns="http://www.w3.org/2000/svg" xmlns:xlink="http://www.w3.org/1999/xlink" x="0px" y="0px"
	 viewBox="0 0 100 100" style="enable-background:new 0 0 100 100;" xml:space="preserve">
<rect y="0" fill="#105CFB" width="100" height="100"/>
<g>
	<path fill="#ffffff" d="M22.1,41.5V28.7h9.6v2.2h-7v2.9h6.5v2.2h-6.4v3.5h7.2v2.2L22.1,41.5z"/>
	<path fill="#ffffff" d="M35.9,35.1l-2.2-0.4c0.2-0.8,0.6-1.5,1.3-2c0.8-0.5,1.8-0.7,2.7-0.6c0.8,0,1.7,0.1,2.5,0.4
		c0.5,0.2,0.9,0.6,1.1,1c0.3,0.7,0.4,1.5,0.3,2.2v2.9c0,0.6,0,1.2,0.1,1.8c0.1,0.4,0.2,0.9,0.4,1.3h-2.5c-0.1-0.2-0.1-0.4-0.2-0.7
		c0-0.1-0.1-0.2-0.1-0.3c-0.4,0.4-0.8,0.7-1.3,0.9c-0.5,0.2-1,0.3-1.5,0.3c-0.8,0-1.6-0.2-2.3-0.8c-0.6-0.5-0.9-1.2-0.8-2
		c0-0.5,0.1-1,0.4-1.4c0.2-0.4,0.6-0.8,1.1-1c0.6-0.3,1.3-0.5,2-0.6c0.8-0.1,1.6-0.3,2.4-0.6v-0.3c0-0.4-0.1-0.7-0.3-1
		c-0.4-0.2-0.9-0.3-1.4-0.2c-0.4,0-0.7,0.1-1,0.3C36.2,34.4,36,34.7,35.9,35.1z M39.2,37.1c-0.3,0.1-0.8,0.2-1.5,0.4
		c-0.5,0.1-0.9,0.2-1.3,0.4c-0.3,0.2-0.5,0.5-0.5,0.9c0,0.3,0.1,0.7,0.4,0.9c0.3,0.3,0.6,0.4,1,0.4c0.5,0,0.9-0.2,1.3-0.4
		c0.3-0.2,0.5-0.5,0.6-0.8c0.1-0.4,0.1-0.8,0.1-1.2L39.2,37.1z"/>
	<path fill="#ffffff" d="M46.4,41.5H44v-9.3h2.3v1.3c0.3-0.5,0.6-0.9,1.1-1.2c0.3-0.2,0.7-0.3,1.1-0.3c0.6,0,1.1,0.2,1.6,0.5l-0.8,2.1
		c-0.3-0.2-0.7-0.4-1.2-0.4c-0.3,0-0.6,0.1-0.9,0.3c-0.3,0.3-0.5,0.6-0.6,1c-0.2,1-0.2,2.1-0.2,3.1L46.4,41.5z"/>
	<path fill="#ffffff" d="M59.6,41.5h-2.5v-4.8c0-0.7,0-1.3-0.2-2c-0.1-0.3-0.3-0.5-0.5-0.7c-0.3-0.2-0.5-0.3-0.8-0.3
		c-0.4,0-0.8,0.1-1.2,0.4c-0.3,0.2-0.6,0.5-0.7,0.9c-0.2,0.7-0.2,1.4-0.2,2.1v4.2h-2.5v-9.3h2.3v1.4c0.7-1,1.9-1.6,3.1-1.6
		c0.5,0,1,0.1,1.5,0.3c0.8,0.3,1.4,1,1.5,1.8c0.1,0.5,0.2,1.1,0.1,1.7V41.5z"/>
	<path fill="#ffffff" d="M67.5,38.6l2.5,0.4c-0.3,0.8-0.8,1.6-1.5,2.1c-0.8,0.5-1.7,0.7-2.6,0.7c-1.4,0.1-2.7-0.5-3.6-1.6
		c-0.6-1-1-2.1-0.9-3.3c-0.1-1.3,0.4-2.6,1.2-3.6c0.8-0.9,1.9-1.3,3.1-1.3c1.2-0.1,2.5,0.4,3.3,1.4c0.9,1.2,1.3,2.7,1.2,4.2h-6.2
		c0,0.6,0.2,1.2,0.6,1.7c0.4,0.4,0.9,0.7,1.4,0.7c0.4,0,0.7-0.1,1-0.3C67.2,39.3,67.4,39,67.5,38.6z M67.6,36.1
		c0-0.6-0.2-1.2-0.6-1.6c-0.3-0.3-0.8-0.5-1.3-0.5c-0.5,0-1,0.2-1.3,0.6c-0.4,0.4-0.5,1-0.5,1.6L67.6,36.1z"/>
	<path fill="#ffffff" d="M80.6,41.5h-2.3v-1.4c-0.3,0.5-0.8,0.9-1.3,1.2c-0.5,0.3-1,0.4-1.6,0.4c-1.1,0-2.1-0.5-2.8-1.3
		c-0.8-1-1.2-2.3-1.1-3.6c-0.1-1.3,0.3-2.6,1.1-3.6c0.7-0.8,1.8-1.3,2.8-1.2c1,0,2,0.5,2.7,1.3v-4.6h2.5V41.5z M74.1,36.7
		c-0.1,0.7,0.1,1.5,0.4,2.2c0.3,0.6,1,1,1.7,1c0.6,0,1.1-0.3,1.4-0.7c0.4-0.6,0.7-1.4,0.6-2.2c0.1-0.8-0.1-1.6-0.6-2.3
		c-0.4-0.5-0.9-0.7-1.5-0.7c-0.6,0-1.1,0.3-1.5,0.7C74.2,35.2,74,35.9,74.1,36.7z"/>
	<g>
		<path fill="#ffffff" d="M26,53.9l-0.7,3.2c-0.8-0.7-1.9-1.1-2.9-1c-1.2,0-2.3,0.5-3.1,1.4c-0.5,0.6-0.8,1.2-1,1.9h6.5l-0.4,1.8h-6.3
			c0,0.2,0,0.4,0,0.7c0,0.3,0,0.6,0,0.9h6l-0.4,1.8h-5.4c0.1,0.7,0.5,1.4,0.9,2c0.7,0.9,1.9,1.4,3.1,1.4c1.3,0.1,2.6-0.4,3.6-1.4
			v3.6c-1.1,0.5-2.3,0.8-3.6,0.8c-2.1,0.1-4.2-0.8-5.6-2.4c-1-1.1-1.7-2.5-2-4H13l0.4-1.8h1.2c0-0.2,0-0.4,0-0.6c0-0.4,0-0.7,0-1
			h-1.5l0.4-1.8h1.4c0.3-1.5,1-2.8,2-3.9c1.5-1.6,3.6-2.4,5.8-2.4C23.8,53.2,25,53.4,26,53.9z"/>
		<g>
			<path fill="#ffffff" d="M32,66.4l3.5-0.4c0.1,0.8,0.4,1.4,0.9,1.9c0.5,0.5,1,0.7,1.7,0.7c0.7,0,1.3-0.3,1.8-0.9s0.8-1.5,0.8-2.7
				c0-1.1-0.2-1.9-0.7-2.5c-0.5-0.6-1.1-0.8-1.9-0.8c-1,0-1.9,0.4-2.7,1.3l-2.8-0.4l1.8-9.4h9.2v3.3h-6.6l-0.5,3.1
				c0.8-0.4,1.6-0.6,2.4-0.6c1.5,0,2.8,0.6,3.9,1.7c1.1,1.1,1.6,2.6,1.6,4.4c0,1.5-0.4,2.8-1.3,4c-1.2,1.6-2.8,2.4-4.9,2.4
				c-1.7,0-3-0.4-4.1-1.3C32.8,69.1,32.2,67.9,32,66.4z"/>
			<path fill="#ffffff" d="M46,56.4v-3.2h11.9v2.5c-1,1-2,2.4-3,4.2c-1,1.8-1.8,3.7-2.3,5.8c-0.5,2-0.8,3.8-0.8,5.5h-3.4
				c0.1-2.5,0.6-5.1,1.6-7.7c1-2.6,2.3-4.9,3.9-7H46z"/>
			<path fill="#ffffff" d="M66,52.8c1.8,0,3.1,0.6,4.1,1.9c1.2,1.5,1.8,3.9,1.8,7.4c0,3.4-0.6,5.9-1.8,7.4c-1,1.2-2.4,1.9-4.1,1.9
				c-1.8,0-3.2-0.7-4.3-2c-1.1-1.4-1.6-3.8-1.6-7.3c0-3.4,0.6-5.9,1.8-7.4C62.9,53.4,64.2,52.8,66,52.8z M66,55.7
				c-0.4,0-0.8,0.1-1.1,0.4c-0.3,0.3-0.6,0.7-0.8,1.4c-0.2,0.9-0.4,2.4-0.4,4.5c0,2.1,0.1,3.6,0.3,4.4c0.2,0.8,0.5,1.3,0.8,1.6
				c0.3,0.3,0.7,0.4,1.1,0.4s0.8-0.1,1.1-0.4c0.3-0.3,0.6-0.7,0.8-1.4c0.2-0.9,0.4-2.4,0.4-4.5c0-2.1-0.1-3.6-0.3-4.4
				c-0.2-0.8-0.5-1.3-0.8-1.6C66.8,55.8,66.4,55.7,66,55.7z"/>
			<path fill="#ffffff" d="M74.8,71V52.9h3.5v9.6l4.1-4.6h4.3l-4.5,4.8L87,71h-3.7l-3.3-5.9l-1.6,1.7V71H74.8z"/>
		</g>
	</g>
</g>
</svg>
