<?xml version="1.0" encoding="utf-8"?>
<!-- Generator: Adobe Illustrator 24.0.2, SVG Export Plug-In . SVG Version: 6.00 Build 0)  -->
<svg version="1.1" id="Layer_1" xmlns="http://www.w3.org/2000/svg" xmlns:xlink="http://www.w3.org/1999/xlink" x="0px" y="0px"
	 viewBox="0 0 100 100" style="enable-background:new 0 0 100 100;" xml:space="preserve">
<rect y="0" fill="#105CFB" width="100" height="100"/>
<g>
	<path fill="#ffffff" d="M31.3,39.6V26.7h9.6v2.2h-7v2.9h6.5V34H34v3.5h7.2v2.2L31.3,39.6z"/>
	<path fill="#ffffff" d="M45.1,33.1l-2.2-0.4c0.2-0.8,0.6-1.5,1.3-2c0.8-0.5,1.8-0.7,2.7-0.6c0.8,0,1.7,0.1,2.5,0.4
		c0.5,0.2,0.9,0.6,1.1,1c0.3,0.7,0.4,1.5,0.3,2.2v2.9c0,0.6,0,1.2,0.1,1.8c0.1,0.4,0.2,0.9,0.4,1.3h-2.5c-0.1-0.2-0.1-0.4-0.2-0.7
		c0-0.1-0.1-0.2-0.1-0.3c-0.3,0.3-0.7,0.6-1.3,0.8c-0.5,0.2-1,0.3-1.5,0.3c-0.8,0-1.6-0.2-2.3-0.8c-0.6-0.5-0.9-1.2-0.8-2
		c0-0.5,0.1-1,0.4-1.4c0.2-0.4,0.6-0.8,1.1-1c0.6-0.3,1.3-0.5,2-0.6c0.8-0.1,1.6-0.3,2.4-0.6v-0.3c0-0.4-0.1-0.7-0.3-1
		c-0.5-0.1-1-0.2-1.5-0.1c-0.4,0-0.7,0.1-1,0.3S45.2,32.8,45.1,33.1z M48.4,35.1c-0.3,0.1-0.8,0.2-1.5,0.4c-0.5,0.1-0.9,0.2-1.3,0.4
		c-0.3,0.2-0.5,0.5-0.5,0.9c0,0.3,0.1,0.7,0.4,0.9c0.3,0.3,0.6,0.4,1,0.4c0.5,0,0.9-0.2,1.3-0.4c0.3-0.2,0.5-0.5,0.6-0.8
		c0.1-0.4,0.1-0.8,0.1-1.2L48.4,35.1z"/>
	<path fill="#ffffff" d="M55.6,39.6h-2.4v-9.3h2.3v1.3c0.3-0.5,0.6-0.9,1.1-1.2c0.3-0.2,0.7-0.3,1.1-0.3c0.6,0,1.1,0.2,1.6,0.5
		l-0.8,2.1c-0.3-0.2-0.7-0.4-1.2-0.4c-0.3,0-0.6,0.1-0.9,0.3c-0.3,0.3-0.5,0.6-0.6,1c-0.2,1-0.2,2.1-0.2,3.1L55.6,39.6z"/>
	<path fill="#ffffff" d="M68.8,39.6h-2.5v-4.8c0-0.7,0-1.3-0.2-2c-0.1-0.3-0.3-0.5-0.5-0.7c-0.3-0.2-0.5-0.3-0.8-0.3
		c-0.4,0-0.8,0.1-1.2,0.4c-0.3,0.2-0.6,0.5-0.7,0.9c-0.2,0.7-0.2,1.4-0.2,2.1v4.2h-2.5v-9.3h2.3v1.4c0.7-1,1.9-1.6,3.1-1.6
		c0.5,0,1,0.1,1.5,0.3c0.8,0.3,1.4,1,1.5,1.8c0.1,0.5,0.2,1.1,0.1,1.7v5.9H68.8z"/>
</g>
<g>
	<path fill="#ffffff" d="M22.3,49.3l-0.9,4.3c-1.1-0.9-2.5-1.4-3.9-1.3c-1.6-0.1-3.1,0.6-4.1,1.8c-0.6,0.7-1.1,1.6-1.3,2.6h8.6
		l-0.5,2.4h-8.4c0,0.2,0,0.5,0,0.9s0,0.7,0,1.1h8l-0.5,2.4h-7.2c0.2,1,0.6,1.9,1.2,2.6c1,1.2,2.5,1.9,4.1,1.8
		c1.8,0.1,3.5-0.6,4.8-1.8V71c-1.5,0.7-3.1,1-4.7,1c-2.8,0.1-5.6-1.1-7.5-3.1c-1.4-1.5-2.3-3.3-2.6-5.3H5l0.5-2.4H7
		c0-0.3,0-0.5,0-0.8c0-0.5,0-0.9,0-1.3H5l0.5-2.4h1.9c0.4-1.9,1.3-3.7,2.6-5.2c2-2.1,4.8-3.3,7.7-3.1C19.4,48.3,20.9,48.6,22.3,49.3
		z"/>
	<g>
		<path fill="#ffffff" d="M25.5,65.5l4.4-0.5c0.1,1,0.5,1.8,1.1,2.4s1.3,0.9,2.1,0.9c0.9,0,1.7-0.4,2.3-1.1s1-1.9,1-3.4
			c0-1.4-0.3-2.5-0.9-3.2c-0.7-0.6-1.5-1-2.5-1c-1.3,0-2.4,0.6-3.4,1.7L26,60.8l2.3-11.9h11.6V53h-8.3l-0.7,3.9c1-0.5,2-0.7,3-0.7
			c1.9,0,3.6,0.7,5,2.1c1.4,1.4,2,3.3,2,5.5c0,1.9-0.5,3.6-1.6,5c-1.5,2-3.6,3-6.2,3c-2.1,0-3.8-0.6-5.2-1.7
			C26.5,69,25.7,67.5,25.5,65.5z"/>
		<path fill="#ffffff" d="M43.2,52.9v-4.1h15V52c-1.2,1.2-2.5,3-3.8,5.3s-2.3,4.7-2.9,7.3c-0.7,2.6-1,4.9-1,6.9h-4.2
			c0.1-3.2,0.7-6.4,2-9.7c1.2-3.3,2.9-6.2,4.9-8.8L43.2,52.9L43.2,52.9z"/>
		<path fill="#ffffff" d="M68.4,48.4c2.2,0,4,0.8,5.2,2.4c1.5,1.9,2.2,5,2.2,9.3s-0.8,7.4-2.3,9.3c-1.2,1.6-3,2.3-5.2,2.3
			s-4-0.9-5.4-2.6s-2-4.8-2-9.2c0-4.3,0.8-7.4,2.3-9.3C64.5,49.2,66.2,48.4,68.4,48.4z M68.4,52.1c-0.5,0-1,0.2-1.4,0.5
			s-0.7,0.9-1,1.8c-0.3,1.1-0.5,3-0.5,5.7s0.1,4.5,0.4,5.5s0.6,1.7,1,2s0.9,0.5,1.4,0.5s1-0.2,1.4-0.5s0.7-0.9,1-1.8
			c0.3-1.1,0.5-3,0.5-5.7s-0.1-4.5-0.4-5.5s-0.6-1.7-1-2S69,52.1,68.4,52.1z"/>
		<path fill="#ffffff" d="M79.6,71.4V48.5H84v12.2l5.1-5.8h5.4L88.8,61L95,71.4h-4.7L86,64l-2,2.1v5.3H79.6z"/>
	</g>
</g>
</svg>
