<?xml version="1.0" encoding="utf-8"?>
<!-- Generator: Adobe Illustrator 24.0.2, SVG Export Plug-In . SVG Version: 6.00 Build 0)  -->
<svg version="1.1" id="Layer_1" xmlns="http://www.w3.org/2000/svg" xmlns:xlink="http://www.w3.org/1999/xlink" x="0px" y="0px"
	 viewBox="0 0 100 100" style="enable-background:new 0 0 100 100;" xml:space="preserve">
<rect y="0" fill="#105CFB" width="100" height="100"/>
<path fill="#ffffff" d="M22.1,39.6V26.7h9.6v2.2h-7v2.9h6.5V34h-6.4v3.5h7.2v2.2L22.1,39.6z"/>
<path fill="#ffffff" d="M35.9,33.1l-2.2-0.4c0.2-0.8,0.6-1.5,1.3-2c0.8-0.5,1.8-0.7,2.7-0.6c0.8,0,1.7,0.1,2.5,0.4
	c0.5,0.2,0.9,0.6,1.1,1c0.3,0.7,0.4,1.5,0.3,2.2v2.9c0,0.6,0,1.2,0.1,1.8c0.1,0.4,0.2,0.9,0.4,1.3h-2.5c-0.1-0.2-0.1-0.4-0.2-0.7
	c0-0.1-0.1-0.2-0.1-0.3C39,39,38.6,39.3,38,39.5c-0.5,0.2-1,0.3-1.5,0.3c-0.8,0-1.6-0.2-2.3-0.8c-0.6-0.5-0.9-1.2-0.8-2
	c0-0.5,0.1-1,0.4-1.4c0.2-0.4,0.6-0.8,1.1-1c0.6-0.3,1.3-0.5,2-0.6c0.8-0.1,1.6-0.3,2.4-0.6v-0.3c0-0.4-0.1-0.7-0.3-1
	C38.5,32,38,31.9,37.5,32c-0.4,0-0.7,0.1-1,0.3C36.2,32.5,36,32.8,35.9,33.1z M39.2,35.1c-0.3,0.1-0.8,0.2-1.5,0.4
	c-0.5,0.1-0.9,0.2-1.3,0.4c-0.3,0.2-0.5,0.5-0.5,0.9c0,0.3,0.1,0.7,0.4,0.9c0.3,0.3,0.6,0.4,1,0.4c0.5,0,0.9-0.2,1.3-0.4
	c0.3-0.2,0.5-0.5,0.6-0.8c0.1-0.4,0.1-0.8,0.1-1.2L39.2,35.1z"/>
<path fill="#ffffff" d="M46.4,39.6H44v-9.3h2.3v1.3c0.3-0.5,0.6-0.9,1.1-1.2c0.3-0.2,0.7-0.3,1.1-0.3c0.6,0,1.1,0.2,1.6,0.5l-0.8,2.1
	c-0.3-0.2-0.7-0.4-1.2-0.4c-0.3,0-0.6,0.1-0.9,0.3c-0.3,0.3-0.5,0.6-0.6,1c-0.2,1-0.2,2.1-0.2,3.1L46.4,39.6z"/>
<path fill="#ffffff" d="M59.6,39.6h-2.5v-4.8c0-0.7,0-1.3-0.2-2c-0.1-0.3-0.3-0.5-0.5-0.7c-0.3-0.2-0.5-0.3-0.8-0.3
	c-0.4,0-0.8,0.1-1.2,0.4c-0.3,0.2-0.6,0.5-0.7,0.9c-0.2,0.7-0.2,1.4-0.2,2.1v4.2h-2.5v-9.3h2.3v1.4c0.7-1,1.9-1.6,3.1-1.6
	c0.5,0,1,0.1,1.5,0.3c0.8,0.3,1.4,1,1.5,1.8c0.1,0.5,0.2,1.1,0.1,1.7V39.6z"/>
<path fill="#ffffff" d="M67.5,36.7l2.5,0.4c-0.3,0.8-0.8,1.6-1.5,2.1c-0.8,0.5-1.7,0.7-2.6,0.7c-1.4,0.1-2.7-0.5-3.6-1.6
	c-0.6-1-1-2.1-0.9-3.3c-0.1-1.3,0.4-2.6,1.2-3.6c0.8-0.9,1.9-1.3,3.1-1.3c1.2-0.1,2.5,0.4,3.3,1.4c0.9,1.2,1.3,2.7,1.2,4.2h-6.2
	c0,0.6,0.2,1.2,0.6,1.7c0.4,0.4,0.9,0.7,1.4,0.7c0.4,0,0.7-0.1,1-0.3C67.2,37.4,67.4,37.1,67.5,36.7z M67.6,34.2
	c0-0.6-0.2-1.2-0.6-1.6c-0.3-0.3-0.8-0.5-1.3-0.5c-0.5,0-1,0.2-1.3,0.6c-0.4,0.4-0.5,1-0.5,1.6L67.6,34.2z"/>
<path fill="#ffffff" d="M80.6,39.6h-2.3v-1.4c-0.3,0.5-0.8,0.9-1.3,1.2c-0.5,0.3-1,0.4-1.6,0.4c-1.1,0-2.1-0.5-2.8-1.3
	c-0.8-1-1.2-2.3-1.1-3.6c-0.1-1.3,0.3-2.6,1.1-3.6c0.7-0.8,1.8-1.3,2.8-1.2c1,0,2,0.5,2.7,1.3v-4.6h2.5V39.6z M74.1,34.8
	c-0.1,0.7,0.1,1.5,0.4,2.2c0.3,0.6,1,1,1.7,1c0.6,0,1.1-0.3,1.4-0.7c0.4-0.6,0.7-1.4,0.6-2.2c0.1-0.8-0.1-1.6-0.6-2.3
	c-0.4-0.5-0.9-0.7-1.5-0.7c-0.6,0-1.1,0.3-1.5,0.7C74.2,33.3,74,34,74.1,34.8z"/>
<g>
	<path fill="#ffffff" d="M25.2,49.3l-0.9,4.3c-1.1-0.9-2.5-1.4-3.9-1.3c-1.6-0.1-3.1,0.6-4.1,1.8c-0.6,0.7-1.1,1.6-1.3,2.6h8.6
		l-0.5,2.4h-8.4c0,0.2,0,0.5,0,0.9s0,0.7,0,1.1h8l-0.5,2.4h-7.2c0.2,1,0.6,1.9,1.2,2.6c1,1.2,2.5,1.9,4.1,1.8
		c1.8,0.1,3.5-0.6,4.8-1.8V71c-1.5,0.7-3.1,1-4.7,1c-2.8,0.1-5.6-1.1-7.5-3.1c-1.4-1.5-2.3-3.3-2.6-5.3H7.9l0.5-2.4H10
		c0-0.3,0-0.5,0-0.8c0-0.5,0-0.9,0-1.3H8l0.5-2.4h1.9c0.4-1.9,1.3-3.7,2.6-5.2c2-2.1,4.8-3.3,7.7-3.1C22.2,48.3,23.8,48.6,25.2,49.3
		z"/>
	<path fill="#ffffff" d="M27.4,65.5l4.2-0.6c0.1,0.9,0.5,1.8,1.1,2.5c0.6,0.6,1.3,0.9,2.2,0.9c0.9,0,1.7-0.3,2.3-1
		c0.7-0.8,1-1.8,0.9-2.8c0-1-0.3-1.9-0.9-2.6c-0.5-0.6-1.3-1-2.2-1c-0.7,0-1.4,0.1-2,0.3l0.5-3.6c1,0.1,1.9-0.1,2.7-0.7
		c0.6-0.5,1-1.4,0.9-2.2c0-0.7-0.2-1.3-0.7-1.8c-0.5-0.5-1.2-0.8-1.9-0.7c-0.7,0-1.4,0.3-1.9,0.8c-0.6,0.6-0.9,1.4-1,2.3l-4-0.7
		c0.2-1.2,0.6-2.3,1.3-3.3c0.6-0.9,1.4-1.5,2.4-2c1.1-0.5,2.2-0.7,3.4-0.7c1.9-0.1,3.8,0.7,5.2,2.1c1,1,1.6,2.4,1.7,3.8
		c0,2-1.1,3.6-3.3,4.8c1.2,0.2,2.4,0.9,3.2,1.9c0.8,1,1.2,2.3,1.1,3.5c0,1.9-0.8,3.8-2.2,5.1C39,71.3,37,72.1,35,72
		c-1.9,0.1-3.7-0.6-5.2-1.8C28.4,69,27.6,67.4,27.4,65.5z"/>
	<path fill="#ffffff" d="M46.3,71.6v-4.4h4.3v4.4H46.3z"/>
	<path fill="#ffffff" d="M69.1,67.5v4.1H53.7c0.2-1.6,0.7-3,1.5-4.4c1.4-2,3.1-3.9,4.9-5.5c1.3-1.1,2.6-2.4,3.7-3.8
		c0.6-0.8,0.9-1.7,0.9-2.7c0.1-0.8-0.2-1.6-0.8-2.3c-1.3-1.1-3.1-1.1-4.4,0c-0.6,0.8-1,1.8-0.9,2.8l-4.4-0.4
		c0.3-2.4,1.1-4.2,2.4-5.2c1.5-1.1,3.3-1.6,5.2-1.6c1.9-0.1,3.9,0.5,5.3,1.8c1.3,1.2,2,2.8,2,4.6c0,1-0.2,2-0.6,3
		c-0.4,1.1-1,2-1.8,2.9c-0.9,1-1.8,2-2.9,2.9c-1.4,1.3-2.3,2.1-2.6,2.5c-0.3,0.4-0.6,0.8-0.9,1.2L69.1,67.5z"/>
	<g>
		<path fill="#ffffff" d="M71.7,57.4h3.5v1.9c1.3-1.3,2.7-2.1,4.3-2.1c0.8,0,1.6,0.3,2.4,0.5c0.5,0.3,1.1,0.8,1.6,1.6
			c0.5-0.8,1.3-1.3,1.9-1.6c0.8-0.3,1.3-0.5,2.1-0.5c1.1,0,1.9,0.3,2.7,0.5c0.8,0.5,1.3,1.1,1.6,1.9c0.3,0.5,0.3,1.6,0.3,3v8.9h-3.8
			v-8.1c0-1.3,0-2.1-0.3-2.7c-0.3-0.5-0.8-0.8-1.6-0.8c-0.5,0-1.1,0.3-1.3,0.5c-0.5,0.3-0.8,0.8-1.1,1.3c-0.3,0.5-0.3,1.6-0.3,3v6.7
			H80v-7.5c0-1.3,0-2.1-0.3-2.7s-0.3-0.8-0.5-0.8c-0.3-0.3-0.5-0.3-1.1-0.3c-0.5,0-1.1,0.3-1.6,0.5s-0.8,0.8-1.1,1.3
			c-0.3,0.5-0.3,1.6-0.3,3v6.7h-3.5V57.4z"/>
	</g>
</g>
</svg>
