<?xml version="1.0" encoding="utf-8"?>
<!-- Generator: Adobe Illustrator 24.0.2, SVG Export Plug-In . SVG Version: 6.00 Build 0)  -->
<svg version="1.1" id="Layer_1" xmlns="http://www.w3.org/2000/svg" xmlns:xlink="http://www.w3.org/1999/xlink" x="0px" y="0px"
	 viewBox="0 0 100 100" style="enable-background:new 0 0 100 100;" xml:space="preserve">
<rect y="0" fill="#105CFB" width="100" height="100"/>
<g>
	<path fill="#ffffff" d="M31.3,39.6V26.7h9.6v2.2h-7v2.9h6.5V34h-6.4v3.5H41v2.2L31.3,39.6z"/>
	<path fill="#ffffff" d="M45.1,33.1l-2.2-0.4c0.2-0.8,0.6-1.5,1.3-2c0.8-0.5,1.8-0.7,2.7-0.6c0.8,0,1.7,0.1,2.5,0.4
		c0.5,0.2,0.9,0.6,1.1,1c0.3,0.7,0.4,1.5,0.3,2.2v2.9c0,0.6,0,1.2,0.1,1.8c0.1,0.4,0.2,0.9,0.4,1.3h-2.5c-0.1-0.2-0.1-0.4-0.2-0.7
		c0-0.1-0.1-0.2-0.1-0.3c-0.4,0.4-0.8,0.7-1.3,0.9c-0.5,0.2-1,0.3-1.5,0.3c-0.8,0-1.6-0.2-2.3-0.8c-0.6-0.5-0.9-1.2-0.8-2
		c0-0.5,0.1-1,0.4-1.4c0.2-0.4,0.6-0.8,1.1-1c0.6-0.3,1.3-0.5,2-0.6c0.8-0.1,1.6-0.3,2.4-0.6v-0.3c0-0.4-0.1-0.7-0.3-1
		c-0.4-0.2-0.9-0.3-1.4-0.2c-0.4,0-0.7,0.1-1,0.3C45.4,32.5,45.2,32.8,45.1,33.1z M48.4,35.1c-0.3,0.1-0.8,0.2-1.5,0.4
		c-0.5,0.1-0.9,0.2-1.3,0.4c-0.3,0.2-0.5,0.5-0.5,0.9c0,0.3,0.1,0.7,0.4,0.9c0.3,0.3,0.6,0.4,1,0.4c0.5,0,0.9-0.2,1.3-0.4
		c0.3-0.2,0.5-0.5,0.6-0.8c0.1-0.4,0.1-0.8,0.1-1.2L48.4,35.1z"/>
	<path fill="#ffffff" d="M55.6,39.6h-2.4v-9.3h2.3v1.3c0.3-0.5,0.6-0.9,1.1-1.2c0.3-0.2,0.7-0.3,1.1-0.3c0.6,0,1.1,0.2,1.6,0.5
		l-0.8,2.1c-0.3-0.2-0.7-0.4-1.2-0.4c-0.3,0-0.6,0.1-0.9,0.3c-0.3,0.3-0.5,0.6-0.6,1c-0.2,1-0.2,2.1-0.2,3.1L55.6,39.6z"/>
	<path fill="#ffffff" d="M68.8,39.6h-2.5v-4.8c0-0.7,0-1.3-0.2-2c-0.1-0.3-0.3-0.5-0.5-0.7c-0.3-0.2-0.5-0.3-0.8-0.3
		c-0.4,0-0.8,0.1-1.2,0.4c-0.3,0.2-0.6,0.5-0.7,0.9c-0.2,0.7-0.2,1.4-0.2,2.1v4.2h-2.5v-9.3h2.3v1.4c0.7-1,1.9-1.6,3.1-1.6
		c0.5,0,1,0.1,1.5,0.3c0.4,0.2,0.7,0.4,1,0.8c0.2,0.3,0.4,0.6,0.5,1c0.1,0.5,0.2,1.1,0.1,1.7L68.8,39.6z"/>
</g>
<g>
	<path fill="#ffffff" d="M29.7,49.3l-0.9,4.3c-1.1-0.9-2.5-1.4-3.9-1.3c-1.6-0.1-3.1,0.6-4.1,1.8c-0.6,0.7-1.1,1.6-1.3,2.6h8.6
		l-0.5,2.4h-8.4c0,0.2,0,0.5,0,0.9s0,0.7,0,1.1h8l-0.5,2.4h-7.2c0.2,1,0.6,1.9,1.2,2.6c1,1.2,2.5,1.9,4.1,1.8
		c1.8,0.1,3.5-0.6,4.8-1.8V71c-1.5,0.7-3.1,1-4.7,1c-2.8,0.1-5.6-1.1-7.5-3.1c-1.4-1.5-2.3-3.3-2.6-5.3h-2.3l0.5-2.4h1.5
		c0-0.3,0-0.5,0-0.8c0-0.5,0-0.9,0-1.3h-2l0.5-2.4h1.9c0.4-1.9,1.3-3.7,2.6-5.2c2-2.1,4.8-3.3,7.7-3.1
		C26.8,48.3,28.3,48.6,29.7,49.3z"/>
	<path fill="#ffffff" d="M43.3,71.6h-4.4V55.1c-1.6,1.5-3.6,2.7-5.7,3.3v-4c1.4-0.5,2.6-1.2,3.7-2.1c1.3-0.9,2.2-2.2,2.8-3.7h3.6
		L43.3,71.6z"/>
	<path fill="#ffffff" d="M53,59.3c-2-0.7-3.3-2.6-3.3-4.7c0-1.6,0.6-3.2,1.8-4.2c1.4-1.2,3.2-1.8,5.1-1.7c1.8-0.1,3.7,0.5,5.1,1.7
		c1.2,1.1,1.8,2.6,1.8,4.2c0,1-0.3,2-0.9,2.8c-0.6,0.8-1.4,1.5-2.3,1.9c1.2,0.4,2.2,1.2,2.9,2.2c0.7,1,1,2.2,1,3.4
		c0.1,1.9-0.6,3.8-2,5.2c-1.4,1.4-3.4,2.1-5.4,2c-1.9,0.1-3.7-0.5-5.2-1.7c-1.6-1.3-2.5-3.2-2.5-5.3c0-1.2,0.3-2.4,0.9-3.4
		C50.8,60.6,51.8,59.7,53,59.3z M53.5,64.7c-0.1,1,0.3,2,0.9,2.8c0.6,0.7,1.4,1,2.3,1c0.9,0,1.7-0.3,2.3-1c0.6-0.8,1-1.8,0.9-2.8
		c0-0.9-0.3-1.9-0.9-2.6c-0.6-0.7-1.4-1-2.3-1c-0.9-0.1-1.8,0.4-2.4,1.1C53.8,62.9,53.5,63.8,53.5,64.7z M53.9,54.8
		c0,0.7,0.2,1.5,0.7,2c0.5,0.5,1.3,0.8,2,0.7c0.7,0,1.5-0.2,2-0.7c0.5-0.6,0.8-1.3,0.8-2.1c0.1-1.4-1-2.6-2.4-2.7
		c-0.1,0-0.2,0-0.3,0c-1.4-0.1-2.7,1-2.8,2.4C53.9,54.6,53.9,54.7,53.9,54.8L53.9,54.8z"/>
	<g>
		<path fill="#ffffff" d="M67.2,57.9h3.5v1.9c1.3-1.3,2.7-2.1,4.3-2.1c0.8,0,1.6,0.3,2.4,0.5c0.5,0.3,1.1,0.8,1.6,1.6
			c0.5-0.8,1.3-1.3,1.9-1.6c0.8-0.3,1.3-0.5,2.1-0.5c1.1,0,1.9,0.3,2.7,0.5c0.8,0.5,1.3,1.1,1.6,1.9c0.3,0.5,0.3,1.6,0.3,2.9v8.8
			h-3.7v-8c0-1.3,0-2.1-0.3-2.7c-0.3-0.5-0.8-0.8-1.6-0.8c-0.5,0-1.1,0.3-1.3,0.5c-0.5,0.3-0.8,0.8-1.1,1.3
			c-0.3,0.5-0.3,1.6-0.3,2.9v6.7h-3.7v-7.5c0-1.3,0-2.1-0.3-2.7c-0.3-0.5-0.3-0.8-0.5-0.8c-0.3-0.3-0.5-0.3-1.1-0.3
			c-0.5,0-1.1,0.3-1.6,0.5c-0.5,0.3-0.8,0.8-1.1,1.3c-0.3,0.5-0.3,1.6-0.3,2.9v6.7h-3.5V57.9z"/>
	</g>
</g>
</svg>
