<?xml version="1.0" encoding="utf-8"?>
<!-- Generator: Adobe Illustrator 24.0.2, SVG Export Plug-In . SVG Version: 6.00 Build 0)  -->
<svg version="1.1" id="Layer_1" xmlns="http://www.w3.org/2000/svg" xmlns:xlink="http://www.w3.org/1999/xlink" x="0px" y="0px"
	 viewBox="0 0 100 100" style="enable-background:new 0 0 100 100;" xml:space="preserve">
<rect y="0" fill="#105CFB" width="100" height="100"/>
<g>
	<path fill="#ffffff" d="M22.1,52.6l-1,4.5c-1.2-1-2.6-1.5-4.1-1.3c-1.6,0-3.2,0.6-4.2,1.9c-0.6,0.7-1.2,1.7-1.3,2.6h9l-0.6,2.5h-8.7
		c0,0.3,0,0.6,0,1c0,0.4,0,0.7,0,1.2h8.3l-0.6,2.5h-7.4c0.1,1,0.6,1.9,1.3,2.8c1,1.3,2.6,2,4.2,1.9c1.9,0.1,3.6-0.6,4.9-1.9v4.9
		c-1.6,0.7-3.2,1-4.9,1c-2.9,0.1-5.8-1-7.9-3.2c-1.5-1.6-2.3-3.5-2.8-5.5H3.9l0.6-2.5h1.6c0-0.3,0-0.6,0-0.9c0-0.4,0-0.9,0-1.3h-2
		l0.6-2.5h1.9c0.4-2,1.3-3.9,2.8-5.4c2-2.2,4.9-3.3,8-3.2C18.9,51.6,20.5,51.8,22.1,52.6z"/>
	<path fill="#ffffff" d="M36.2,75.9h-4.5V58.5c-1.7,1.6-3.6,2.8-5.8,3.5v-4.2c1.5-0.6,2.8-1.3,3.9-2.2c1.3-1,2.3-2.3,2.9-3.8h3.6
		L36.2,75.9z"/>
	<path fill="#ffffff" d="M44,75.9v-4.5h4.5v4.5H44z"/>
	<path fill="#ffffff" d="M56.3,62.9c-2-0.7-3.3-2.8-3.3-4.9c0-1.6,0.6-3.2,1.9-4.4c1.5-1.3,3.3-1.9,5.2-1.7c1.9-0.1,3.8,0.4,5.2,1.7
		c1.2,1.2,1.9,2.8,1.9,4.4c0,1-0.3,2-0.9,2.9c-0.6,0.9-1.5,1.6-2.5,2c1.2,0.4,2.3,1.3,3.1,2.3c0.7,1,1,2.3,1,3.5
		c0.1,2-0.7,3.9-2,5.4c-1.5,1.5-3.5,2.2-5.5,2c-1.9,0-3.8-0.6-5.4-1.7c-1.7-1.3-2.6-3.3-2.6-5.5c0-1.3,0.3-2.5,1-3.5
		C53.9,64.4,54.9,63.5,56.3,62.9z M56.6,68.6c0,1,0.3,2.2,1,2.9c0.6,0.7,1.5,1,2.5,1c0.9,0,1.7-0.3,2.3-1c0.7-0.9,1-1.9,0.9-2.9
		c0-1-0.3-1.9-0.9-2.6c-0.6-0.7-1.5-1-2.3-1c-1,0-1.9,0.4-2.5,1.2C57.1,66.7,56.6,67.7,56.6,68.6z M57.1,58.4c0,0.7,0.3,1.5,0.7,2
		c0.6,0.6,1.3,0.9,2,0.7c0.7,0,1.5-0.3,2-0.7c0.6-0.6,0.9-1.3,0.7-2.2c0-1.5-1-2.8-2.5-2.8c-0.1,0-0.3,0-0.3,0
		c-1.5-0.1-2.8,1-2.9,2.5C57.1,58.1,57.1,58.3,57.1,58.4L57.1,58.4z"/>
	<g>
		<path fill="#ffffff" d="M72.6,59.9h3.9V62c1.5-1.7,3.1-2.5,4.9-2.5c1,0,1.9,0.1,2.6,0.6c0.7,0.4,1.3,1,1.9,1.9
			c0.7-0.9,1.5-1.5,2.3-1.9s1.6-0.6,2.6-0.6c1.2,0,2.2,0.3,2.9,0.7c0.9,0.4,1.5,1.2,1.7,2c0.3,0.7,0.4,1.7,0.4,3.3v10.2h-4.2v-9.2
			c0-1.6-0.1-2.6-0.4-3.1c-0.4-0.6-1-0.9-1.7-0.9c-0.6,0-1.2,0.1-1.6,0.6c-0.6,0.3-0.9,0.9-1.2,1.6s-0.3,1.7-0.3,3.3V76h-4.2v-8.7
			c0-1.6-0.1-2.5-0.3-3.1c-0.1-0.6-0.4-0.7-0.7-1c-0.3-0.3-0.7-0.3-1.3-0.3c-0.6,0-1.2,0.1-1.7,0.6c-0.6,0.3-0.9,0.9-1.2,1.5
			c-0.3,0.7-0.3,1.7-0.3,3.3V76h-4.2C72.8,76,72.8,59.9,72.6,59.9z"/>
	</g>
</g>
<g>
	<path fill="#ffffff" d="M31.3,43.1V30.2h9.6v2.2h-7v2.9h6.5v2.2H34V41h7v2.2L31.3,43.1z"/>
	<path fill="#ffffff" d="M45.1,36.6l-2.2-0.4c0.2-0.8,0.6-1.5,1.3-2c0.8-0.5,1.8-0.7,2.7-0.6c0.8,0,1.7,0.1,2.5,0.4
		c0.5,0.2,0.9,0.6,1.1,1c0.3,0.7,0.4,1.5,0.3,2.2v2.9c0,0.6,0,1.2,0.1,1.8c0.1,0.4,0.2,0.9,0.4,1.3h-2.5c-0.1-0.2-0.1-0.4-0.2-0.7
		c0-0.1-0.1-0.2-0.1-0.3c-0.4,0.4-0.8,0.7-1.3,0.9s-1,0.3-1.5,0.3c-0.8,0-1.6-0.2-2.3-0.8c-0.6-0.5-0.9-1.2-0.8-2
		c0-0.5,0.1-1,0.4-1.4c0.2-0.4,0.6-0.8,1.1-1c0.6-0.3,1.3-0.5,2-0.6c0.8-0.1,1.6-0.3,2.4-0.6v-0.3c0-0.4-0.1-0.7-0.3-1
		c-0.4-0.2-0.9-0.3-1.4-0.2c-0.4,0-0.7,0.1-1,0.3C45.5,36,45.3,36.3,45.1,36.6z M48.5,38.6c-0.3,0.1-0.8,0.2-1.5,0.4
		c-0.5,0.1-0.9,0.2-1.3,0.4C45.3,39.6,45,40,45,40.3s0.1,0.7,0.4,0.9c0.3,0.3,0.6,0.4,1,0.4c0.5,0,0.9-0.2,1.3-0.4
		c0.3-0.2,0.5-0.5,0.6-0.8c0.1-0.4,0.1-0.8,0.1-1.2L48.5,38.6z"/>
	<path fill="#ffffff" d="M55.6,43.1h-2.4v-9.3h2.3v1.3c0.3-0.5,0.6-0.9,1.1-1.2c0.3-0.2,0.7-0.3,1.1-0.3c0.6,0,1.1,0.2,1.6,0.5
		l-0.8,2.1c-0.3-0.2-0.7-0.4-1.2-0.4c-0.3,0-0.6,0.1-0.9,0.3c-0.3,0.3-0.5,0.6-0.6,1c-0.2,1-0.2,2.1-0.2,3.1L55.6,43.1z"/>
	<path fill="#ffffff" d="M68.8,43.1h-2.5v-4.8c0-0.7,0-1.3-0.2-2c-0.1-0.3-0.3-0.5-0.5-0.7c-0.3-0.2-0.5-0.3-0.8-0.3
		c-0.4,0-0.8,0.1-1.2,0.4c-0.3,0.2-0.6,0.5-0.7,0.9c-0.2,0.7-0.2,1.4-0.2,2.1v4.2h-2.5v-9.3h2.3V35c0.7-1,1.9-1.6,3.1-1.6
		c0.5,0,1,0.1,1.5,0.3c0.4,0.2,0.7,0.4,1,0.8c0.2,0.3,0.4,0.6,0.5,1c0.1,0.5,0.2,1.1,0.1,1.7L68.8,43.1z"/>
</g>
</svg>
