<svg id="Layer_1" data-name="Layer 1" xmlns="http://www.w3.org/2000/svg" viewBox="0 0 100 100"><rect fill="#105cfb" width="100" height="100"/><path fill="#fff" d="M22.07,39.63V26.74h9.56v2.18h-7v2.86h6.47V34H24.67v3.51h7.2v2.17Z"/><path fill="#fff" d="M35.91,33.14l-2.24-.4a3.5,3.5,0,0,1,1.3-2,4.78,4.78,0,0,1,2.74-.65,5.74,5.74,0,0,1,2.46.4,2.45,2.45,0,0,1,1.14,1,5.09,5.09,0,0,1,.33,2.21l0,2.88a10,10,0,0,0,.12,1.82,5.7,5.7,0,0,0,.44,1.25H39.73c-.06-.17-.14-.41-.24-.73a2.74,2.74,0,0,0-.09-.29,4.33,4.33,0,0,1-1.35.92,3.78,3.78,0,0,1-1.54.31,3.18,3.18,0,0,1-2.27-.78,2.61,2.61,0,0,1-.83-2,2.66,2.66,0,0,1,.38-1.41,2.45,2.45,0,0,1,1.06-1,8.5,8.5,0,0,1,2-.58,12.58,12.58,0,0,0,2.4-.6v-.25a1.29,1.29,0,0,0-.35-1A2.12,2.12,0,0,0,37.53,32a1.8,1.8,0,0,0-1,.26A1.87,1.87,0,0,0,35.91,33.14Zm3.3,2c-.32.1-.82.23-1.5.37a4.29,4.29,0,0,0-1.35.44,1,1,0,0,0-.48.87,1.2,1.2,0,0,0,.39.89,1.33,1.33,0,0,0,1,.38,2.18,2.18,0,0,0,1.28-.44,1.52,1.52,0,0,0,.58-.82,4.53,4.53,0,0,0,.1-1.2Z"/><path fill="#fff" d="M46.44,39.63H44V30.29h2.29v1.33a4,4,0,0,1,1.06-1.24,1.94,1.94,0,0,1,1.07-.3,3.13,3.13,0,0,1,1.62.47l-.76,2.15a2.16,2.16,0,0,0-1.16-.4,1.36,1.36,0,0,0-.88.28,2,2,0,0,0-.57,1,14.67,14.67,0,0,0-.2,3.13Z"/><path fill="#fff" d="M59.57,39.63H57.1V34.87a7.64,7.64,0,0,0-.16-2,1.36,1.36,0,0,0-.52-.69,1.47,1.47,0,0,0-.85-.25,1.94,1.94,0,0,0-1.15.36,1.71,1.71,0,0,0-.7.93,7.81,7.81,0,0,0-.19,2.14v4.23H51.06V30.29h2.29v1.38a3.74,3.74,0,0,1,3.08-1.59,3.64,3.64,0,0,1,1.49.3,2.4,2.4,0,0,1,1.51,1.79,7.67,7.67,0,0,1,.14,1.66Z"/><path fill="#fff" d="M67.48,36.66l2.46.41a4.07,4.07,0,0,1-1.5,2.06,4.41,4.41,0,0,1-2.56.71,4.18,4.18,0,0,1-3.61-1.59A5.38,5.38,0,0,1,61.35,35a5.14,5.14,0,0,1,1.21-3.63,4,4,0,0,1,3.07-1.32,4.14,4.14,0,0,1,3.29,1.38,6.12,6.12,0,0,1,1.15,4.21H63.88a2.49,2.49,0,0,0,.6,1.71A1.85,1.85,0,0,0,65.9,38a1.51,1.51,0,0,0,1-.31A2,2,0,0,0,67.48,36.66Zm.14-2.5a2.35,2.35,0,0,0-.56-1.63A1.71,1.71,0,0,0,65.78,32a1.74,1.74,0,0,0-1.34.59,2.28,2.28,0,0,0-.51,1.6Z"/><path fill="#fff" d="M80.64,39.63H78.35V38.26A3.71,3.71,0,0,1,77,39.45a3.47,3.47,0,0,1-1.57.39,3.56,3.56,0,0,1-2.76-1.3,5.28,5.28,0,0,1-1.14-3.61,5.22,5.22,0,0,1,1.11-3.61,3.68,3.68,0,0,1,2.83-1.24,3.5,3.5,0,0,1,2.7,1.3V26.74h2.47Zm-6.59-4.87a4.3,4.3,0,0,0,.41,2.16,1.87,1.87,0,0,0,1.67,1,1.79,1.79,0,0,0,1.45-.73,3.31,3.31,0,0,0,.6-2.16,3.64,3.64,0,0,0-.58-2.32A1.84,1.84,0,0,0,76.12,32a1.89,1.89,0,0,0-1.48.7A3.2,3.2,0,0,0,74.05,34.76Z"/><path fill="#fff" d="M37.56,49.29l-.92,4.32a5.29,5.29,0,0,0-3.88-1.32,5.16,5.16,0,0,0-4.12,1.82,6,6,0,0,0-1.27,2.58H36l-.5,2.42H27.06c0,.24,0,.55,0,.93s0,.74,0,1.14h8l-.5,2.42H27.4a6,6,0,0,0,1.21,2.62,5.06,5.06,0,0,0,4.06,1.85,6.34,6.34,0,0,0,4.78-1.85V71a10.4,10.4,0,0,1-4.73,1,9.8,9.8,0,0,1-7.5-3.13,10.46,10.46,0,0,1-2.64-5.29H20.26l.5-2.42h1.53c0-.25,0-.52,0-.8,0-.48,0-.9,0-1.27h-2l.5-2.42h1.86a10.7,10.7,0,0,1,2.61-5.2A10.13,10.13,0,0,1,33,48.33,10.15,10.15,0,0,1,37.56,49.29Z"/><path fill="#fff" d="M39.76,65.55,44,65a4,4,0,0,0,1.1,2.48,3,3,0,0,0,2.15.86,3,3,0,0,0,2.29-1,4,4,0,0,0,.93-2.78,3.76,3.76,0,0,0-.89-2.63,2.86,2.86,0,0,0-2.17-1,7.66,7.66,0,0,0-2,.33l.49-3.58A3.85,3.85,0,0,0,48.61,57a2.76,2.76,0,0,0,.93-2.18,2.5,2.5,0,0,0-.68-1.84A2.47,2.47,0,0,0,47,52.24a2.64,2.64,0,0,0-1.92.78,3.65,3.65,0,0,0-1,2.28l-4-.69a9.21,9.21,0,0,1,1.27-3.32,5.7,5.7,0,0,1,2.38-1.95,8,8,0,0,1,3.41-.71,6.82,6.82,0,0,1,5.19,2.06A5.41,5.41,0,0,1,54,54.5q0,3-3.3,4.82a5.31,5.31,0,0,1,3.15,1.89A5.46,5.46,0,0,1,55,64.75a6.86,6.86,0,0,1-2.2,5.14A7.59,7.59,0,0,1,47.29,72a7.55,7.55,0,0,1-5.15-1.79A7,7,0,0,1,39.76,65.55Z"/><path fill="#fff" d="M58.65,71.63V67.24H63v4.39Z"/><path fill="#fff" d="M81.43,67.55v4.08H66a10.69,10.69,0,0,1,1.5-4.38,29.66,29.66,0,0,1,4.94-5.5A30.56,30.56,0,0,0,76.12,58,4.77,4.77,0,0,0,77,55.32a3.07,3.07,0,0,0-.79-2.26,3.35,3.35,0,0,0-4.37,0,4.3,4.3,0,0,0-.94,2.75l-4.37-.44q.39-3.63,2.45-5.2a8.28,8.28,0,0,1,5.16-1.58,7.45,7.45,0,0,1,5.33,1.83A6,6,0,0,1,81.43,55a7.89,7.89,0,0,1-.55,3,12.09,12.09,0,0,1-1.76,2.93,28,28,0,0,1-2.87,2.92c-1.39,1.27-2.27,2.12-2.64,2.53a7.34,7.34,0,0,0-.89,1.22Z"/></svg>