<?xml version="1.0" encoding="utf-8"?>
<!-- Generator: Adobe Illustrator 24.0.2, SVG Export Plug-In . SVG Version: 6.00 Build 0)  -->
<svg version="1.1" id="Layer_1" xmlns="http://www.w3.org/2000/svg" xmlns:xlink="http://www.w3.org/1999/xlink" x="0px" y="0px"
	 viewBox="0 0 100 100" style="enable-background:new 0 0 100 100;" xml:space="preserve">
<rect y="0" fill="#105CFB" width="100" height="100"/>
<g>
	<g>
		<path fill="#ffffff" d="M31.3,44.3V31.4h9.6v2.2h-7v2.9h6.5v2.2H34v3.5h7.2v2.2L31.3,44.3z"/>
		<path fill="#ffffff" d="M45.1,37.8l-2.2-0.4c0.2-0.8,0.6-1.5,1.3-2c0.8-0.5,1.8-0.7,2.7-0.6c0.8,0,1.7,0.1,2.5,0.4
			c0.5,0.2,0.9,0.6,1.1,1c0.3,0.7,0.4,1.5,0.3,2.2v2.9c0,0.6,0,1.2,0.1,1.8c0.1,0.4,0.2,0.9,0.4,1.3h-2.5c-0.1-0.2-0.1-0.4-0.2-0.7
			c0-0.1-0.1-0.2-0.1-0.3c-0.3,0.3-0.7,0.6-1.3,0.8c-0.5,0.2-1,0.3-1.5,0.3c-0.8,0-1.6-0.2-2.3-0.8c-0.6-0.5-0.9-1.2-0.8-2
			c0-0.5,0.1-1,0.4-1.4c0.2-0.4,0.6-0.8,1.1-1c0.6-0.3,1.3-0.5,2-0.6c0.8-0.1,1.6-0.3,2.4-0.6v-0.3c0-0.4-0.1-0.7-0.3-1
			c-0.4-0.2-0.9-0.3-1.4-0.2c-0.4,0-0.7,0.1-1,0.3C45.4,37.2,45.2,37.5,45.1,37.8z M48.4,39.8c-0.3,0.1-0.8,0.2-1.5,0.4
			c-0.5,0.1-0.9,0.2-1.3,0.4c-0.3,0.2-0.5,0.5-0.5,0.9c0,0.3,0.1,0.7,0.4,0.9c0.3,0.3,0.6,0.4,1,0.4c0.5,0,0.9-0.2,1.3-0.4
			c0.3-0.2,0.5-0.5,0.6-0.8c0.1-0.4,0.1-0.8,0.1-1.2L48.4,39.8z"/>
		<path fill="#ffffff" d="M55.6,44.3h-2.4V35h2.3v1.3c0.3-0.5,0.6-0.9,1.1-1.2c0.3-0.2,0.7-0.3,1.1-0.3c0.6,0,1.1,0.2,1.6,0.5l-0.8,2.1
			c-0.3-0.2-0.7-0.4-1.2-0.4c-0.3,0-0.6,0.1-0.9,0.3c-0.3,0.3-0.5,0.6-0.6,1c-0.2,1-0.2,2.1-0.2,3.1L55.6,44.3z"/>
		<path fill="#ffffff" d="M68.8,44.3h-2.5v-4.8c0-0.7,0-1.3-0.2-2c-0.1-0.3-0.3-0.5-0.5-0.7c-0.3-0.2-0.5-0.3-0.8-0.3
			c-0.4,0-0.8,0.1-1.2,0.4c-0.3,0.2-0.6,0.5-0.7,0.9c-0.2,0.7-0.2,1.4-0.2,2.1v4.2h-2.5V35h2.3v1.4c0.7-1,1.9-1.6,3.1-1.6
			c0.5,0,1,0.1,1.5,0.3c0.8,0.3,1.4,1,1.5,1.8c0.1,0.5,0.2,1.1,0.1,1.7v5.7H68.8z"/>
	</g>
	<g>
		<path fill="#ffffff" d="M26.4,54.2l-0.6,2.7c-0.7-0.6-1.6-0.9-2.4-0.8c-1,0-2,0.4-2.6,1.1c-0.4,0.5-0.7,1-0.8,1.6h5.4l-0.3,1.5h-5.3
			c0,0.2,0,0.3,0,0.6s0,0.5,0,0.7h5l-0.3,1.5H20c0.1,0.6,0.4,1.2,0.8,1.7c0.6,0.8,1.6,1.2,2.6,1.2c1.1,0.1,2.2-0.4,3-1.2v3
			c-0.9,0.4-2,0.7-3,0.6c-1.8,0.1-3.5-0.7-4.7-2c-0.9-0.9-1.4-2.1-1.7-3.3h-1.5l0.3-1.5h1c0-0.2,0-0.3,0-0.5c0-0.3,0-0.6,0-0.8h-1.3
			l0.3-1.5H17c0.2-1.2,0.8-2.4,1.6-3.3c1.3-1.3,3-2.1,4.9-2C24.5,53.6,25.5,53.8,26.4,54.2z"/>
		<g>
			<path fill="#ffffff" d="M31.8,64.2l2.9-0.3c0.1,0.7,0.3,1.3,0.7,1.7s0.9,0.6,1.4,0.6c0.6,0,1.1-0.2,1.5-0.7s0.6-1.1,0.6-1.9
				c0-0.7-0.2-1.3-0.6-1.8c-0.4-0.4-0.9-0.7-1.5-0.7c-0.4,0-0.8,0.1-1.4,0.2l0.3-2.4c0.8,0,1.4-0.2,1.8-0.5c0.4-0.4,0.6-0.9,0.6-1.5
				c0-0.5-0.2-0.9-0.5-1.2s-0.7-0.5-1.2-0.5s-0.9,0.2-1.3,0.5c-0.4,0.3-0.6,0.9-0.7,1.5L32,56.9c0.2-0.9,0.5-1.7,0.9-2.2
				c0.4-0.6,0.9-1,1.6-1.3c0.7-0.3,1.4-0.5,2.3-0.5c1.4,0,2.6,0.5,3.5,1.4c0.7,0.8,1.1,1.6,1.1,2.6c0,1.4-0.7,2.4-2.2,3.2
				c0.9,0.2,1.6,0.6,2.1,1.3s0.8,1.5,0.8,2.4c0,1.4-0.5,2.5-1.5,3.5s-2.2,1.4-3.7,1.4c-1.4,0-2.5-0.4-3.5-1.2
				C32.4,66.6,31.9,65.5,31.8,64.2z"/>
			<path fill="#ffffff" d="M53.8,65.6v2.7H43.4c0.1-1,0.4-2,1-2.9s1.7-2.2,3.3-3.7c1.3-1.2,2.1-2.1,2.4-2.5c0.4-0.6,0.6-1.2,0.6-1.8
				c0-0.7-0.2-1.2-0.5-1.5c-0.4-0.4-0.8-0.5-1.5-0.5c-0.6,0-1.1,0.2-1.5,0.6s-0.6,1-0.6,1.8l-2.9-0.3c0.2-1.6,0.7-2.8,1.6-3.5
				c0.9-0.7,2.1-1.1,3.5-1.1c1.5,0,2.7,0.4,3.6,1.2c0.9,0.8,1.3,1.8,1.3,3.1c0,0.7-0.1,1.4-0.4,2s-0.6,1.3-1.2,2
				c-0.4,0.5-1,1.1-1.9,2c-0.9,0.9-1.5,1.4-1.8,1.7c-0.2,0.3-0.4,0.6-0.6,0.8L53.8,65.6L53.8,65.6z"/>
			<path fill="#ffffff" d="M60.7,52.9c1.5,0,2.7,0.5,3.5,1.6c1,1.3,1.5,3.3,1.5,6.3c0,2.9-0.5,5-1.5,6.3c-0.8,1-2,1.6-3.5,1.6
				S58,68.1,57.1,67s-1.4-3.2-1.4-6.2c0-2.9,0.5-5,1.5-6.3C58.1,53.4,59.3,52.9,60.7,52.9z M60.7,55.3c-0.4,0-0.7,0.1-1,0.3
				s-0.5,0.6-0.7,1.2c-0.2,0.8-0.3,2-0.3,3.9c0,1.8,0.1,3,0.3,3.7c0.2,0.7,0.4,1.1,0.7,1.3s0.6,0.3,0.9,0.3s0.7-0.1,1-0.3
				c0.3-0.2,0.5-0.6,0.7-1.2c0.2-0.8,0.3-2,0.3-3.8s-0.1-3-0.3-3.7s-0.4-1.1-0.7-1.4S61.1,55.3,60.7,55.3z"/>
			<path fill="#ffffff" d="M68.1,57.2h2.7v1.5c1-1.2,2.1-1.8,3.5-1.8c0.7,0,1.3,0.1,1.9,0.4c0.5,0.3,1,0.7,1.3,1.3c0.5-0.6,1-1,1.6-1.3
				s1.2-0.4,1.8-0.4c0.8,0,1.5,0.2,2.1,0.5s1,0.8,1.3,1.5c0.2,0.5,0.3,1.2,0.3,2.3v7.1h-2.9v-6.4c0-1.1-0.1-1.8-0.3-2.1
				c-0.3-0.4-0.7-0.6-1.3-0.6c-0.4,0-0.8,0.1-1.2,0.4s-0.6,0.6-0.8,1.1c-0.2,0.5-0.2,1.3-0.2,2.3v5.4H75v-6.1c0-1.1-0.1-1.8-0.2-2.1
				s-0.3-0.5-0.5-0.7s-0.5-0.2-0.9-0.2c-0.5,0-0.9,0.1-1.2,0.4c-0.4,0.2-0.6,0.6-0.8,1.1c-0.2,0.5-0.2,1.2-0.2,2.3v5.4h-2.9V57.2
				H68.1z"/>
		</g>
	</g>
</g>
</svg>
