<?xml version="1.0" encoding="utf-8"?>
<!-- Generator: Adobe Illustrator 24.0.2, SVG Export Plug-In . SVG Version: 6.00 Build 0)  -->
<svg version="1.1" id="Layer_1" xmlns="http://www.w3.org/2000/svg" xmlns:xlink="http://www.w3.org/1999/xlink" x="0px" y="0px"
	 viewBox="0 0 100 100" style="enable-background:new 0 0 100 100;" xml:space="preserve">
<rect y="0" fill="#105CFB" width="100" height="100"/>
<g>
	<path fill="#ffffff" d="M31.3,39.6V26.7h9.6v2.2h-7v2.9h6.5V34H34v3.5h7.2v2.2L31.3,39.6z"/>
	<path fill="#ffffff" d="M45.1,33.1l-2.2-0.4c0.2-0.8,0.6-1.5,1.3-2c0.8-0.5,1.8-0.7,2.7-0.6c0.8,0,1.7,0.1,2.5,0.4
		c0.5,0.2,0.9,0.6,1.1,1c0.3,0.7,0.4,1.5,0.3,2.2v2.9c0,0.6,0,1.2,0.1,1.8c0.1,0.4,0.2,0.9,0.4,1.3h-2.5c-0.1-0.2-0.1-0.4-0.2-0.7
		c0-0.1-0.1-0.2-0.1-0.3c-0.3,0.3-0.7,0.6-1.3,0.8c-0.5,0.2-1,0.3-1.5,0.3c-0.8,0-1.6-0.2-2.3-0.8c-0.6-0.5-0.9-1.2-0.8-2
		c0-0.5,0.1-1,0.4-1.4c0.2-0.4,0.6-0.8,1.1-1c0.6-0.3,1.3-0.5,2-0.6c0.8-0.1,1.6-0.3,2.4-0.6v-0.3c0-0.4-0.1-0.7-0.3-1
		c-0.5-0.1-1-0.2-1.5-0.1c-0.4,0-0.7,0.1-1,0.3S45.2,32.8,45.1,33.1z M48.4,35.1c-0.3,0.1-0.8,0.2-1.5,0.4c-0.5,0.1-0.9,0.2-1.3,0.4
		c-0.3,0.2-0.5,0.5-0.5,0.9c0,0.3,0.1,0.7,0.4,0.9c0.3,0.3,0.6,0.4,1,0.4c0.5,0,0.9-0.2,1.3-0.4c0.3-0.2,0.5-0.5,0.6-0.8
		c0.1-0.4,0.1-0.8,0.1-1.2L48.4,35.1z"/>
	<path fill="#ffffff" d="M55.6,39.6h-2.4v-9.3h2.3v1.3c0.3-0.5,0.6-0.9,1.1-1.2c0.3-0.2,0.7-0.3,1.1-0.3c0.6,0,1.1,0.2,1.6,0.5
		l-0.8,2.1c-0.3-0.2-0.7-0.4-1.2-0.4c-0.3,0-0.6,0.1-0.9,0.3c-0.3,0.3-0.5,0.6-0.6,1c-0.2,1-0.2,2.1-0.2,3.1L55.6,39.6z"/>
	<path fill="#ffffff" d="M68.8,39.6h-2.5v-4.8c0-0.7,0-1.3-0.2-2c-0.1-0.3-0.3-0.5-0.5-0.7c-0.3-0.2-0.5-0.3-0.8-0.3
		c-0.4,0-0.8,0.1-1.2,0.4c-0.3,0.2-0.6,0.5-0.7,0.9c-0.2,0.7-0.2,1.4-0.2,2.1v4.2h-2.5v-9.3h2.3v1.4c0.7-1,1.9-1.6,3.1-1.6
		c0.5,0,1,0.1,1.5,0.3c0.8,0.3,1.4,1,1.5,1.8c0.1,0.5,0.2,1.1,0.1,1.7v5.9H68.8z"/>
</g>
<g>
	<path fill="#ffffff" d="M21.9,50.3l-0.8,3.9c-1-0.9-2.2-1.3-3.5-1.2c-1.4-0.1-2.8,0.6-3.7,1.6c-0.6,0.7-1,1.5-1.2,2.3h7.8L20,59.1
		h-7.6c0,0.2,0,0.5,0,0.8s0,0.7,0,1h7.2l-0.5,2.2h-6.5c0.2,0.9,0.5,1.7,1.1,2.4c0.9,1.1,2.3,1.7,3.7,1.7c1.6,0.1,3.2-0.5,4.3-1.7V70
		c-1.3,0.6-2.8,0.9-4.3,0.9c-2.6,0.1-5-1-6.8-2.8c-1.2-1.3-2.1-3-2.4-4.8H6.3l0.5-2.2h1.4c0-0.2,0-0.5,0-0.7c0-0.4,0-0.8,0-1.2H6.3
		L6.8,57h1.7c0.3-1.8,1.2-3.4,2.4-4.7c1.8-1.9,4.4-2.9,7-2.8C19.2,49.4,20.7,49.7,21.9,50.3z"/>
	<path fill="#ffffff" d="M34.3,70.5h-4v-15c-1.5,1.4-3.2,2.4-5.1,3V55c1.2-0.5,2.4-1.1,3.4-1.9c1.1-0.8,2-2,2.5-3.3h3.2V70.5z"/>
	<path fill="#ffffff" d="M46.9,49.7c1.8-0.1,3.6,0.7,4.7,2.1c1.3,1.7,2,4.5,2,8.4s-0.7,6.7-2,8.5c-1.1,1.4-2.9,2.2-4.7,2.1
		C45,70.9,43.2,70,42,68.5s-1.8-4.3-1.8-8.3s0.6-6.7,2-8.4C43.4,50.4,45.1,49.7,46.9,49.7z M46.9,53c-0.5,0-0.9,0.2-1.3,0.5
		c-0.5,0.4-0.8,1-0.9,1.6c-0.3,1.7-0.5,3.4-0.4,5.2c-0.1,1.7,0.1,3.4,0.4,5c0.1,0.7,0.4,1.3,0.9,1.8c0.4,0.3,0.8,0.5,1.3,0.5
		s0.9-0.2,1.3-0.5c0.5-0.4,0.8-1,0.9-1.6c0.3-1.7,0.5-3.4,0.4-5.2c0.1-1.7-0.1-3.4-0.4-5c-0.1-0.7-0.4-1.3-0.9-1.8
		C47.9,53.2,47.4,53,46.9,53z"/>
	<path fill="#ffffff" d="M63.5,49.7c1.8-0.1,3.6,0.7,4.7,2.1c1.3,1.7,2,4.5,2,8.4s-0.7,6.7-2,8.5c-1.1,1.4-2.9,2.2-4.7,2.1
		c-1.9,0.1-3.7-0.8-4.9-2.3s-1.8-4.3-1.8-8.3s0.6-6.7,2-8.4C60,50.4,61.7,49.7,63.5,49.7z M63.5,53c-0.5,0-0.9,0.2-1.3,0.5
		c-0.5,0.4-0.8,1-0.9,1.6c-0.3,1.7-0.5,3.4-0.4,5.2c-0.1,1.7,0.1,3.4,0.4,5c0.1,0.7,0.4,1.3,0.9,1.8c0.4,0.3,0.8,0.5,1.3,0.5
		s0.9-0.2,1.3-0.5c0.5-0.4,0.8-1,0.9-1.6c0.3-1.7,0.5-3.4,0.4-5.2c0.1-1.7-0.1-3.4-0.4-5c-0.1-0.7-0.4-1.3-0.9-1.8
		C64.5,53.2,64,53,63.5,53z"/>
	<g>
		<path fill="#ffffff" d="M75,57.8h3.2v1.7c1.2-1.2,2.5-2,3.9-2c0.7,0,1.5,0.2,2.2,0.5c0.5,0.2,1,0.7,1.5,1.5c0.5-0.7,1.2-1.2,1.7-1.5
			c0.7-0.2,1.2-0.5,2-0.5c1,0,1.7,0.2,2.5,0.5c0.7,0.5,1.2,1,1.5,1.7c0.2,0.5,0.2,1.5,0.2,2.7v8.1h-3.4v-7.4c0-1.2,0-2-0.2-2.5
			s-0.7-0.7-1.5-0.7c-0.5,0-1,0.2-1.2,0.5c-0.5,0.2-0.7,0.7-1,1.2c-0.2,0.5-0.2,1.5-0.2,2.7v6.2h-3.4v-6.9c0-1.2,0-2-0.2-2.5
			s-0.2-0.7-0.5-0.7c-0.2-0.2-0.5-0.2-1-0.2s-1,0.2-1.5,0.5s-0.7,0.7-1,1.2s-0.2,1.5-0.2,2.7v6.2H75V57.8z"/>
	</g>
</g>
</svg>
