<?xml version="1.0" encoding="utf-8"?>
<!-- Generator: Adobe Illustrator 24.0.2, SVG Export Plug-In . SVG Version: 6.00 Build 0)  -->
<svg version="1.1" id="Layer_1" xmlns="http://www.w3.org/2000/svg" xmlns:xlink="http://www.w3.org/1999/xlink" x="0px" y="0px"
	 viewBox="0 0 100 100" style="enable-background:new 0 0 100 100;" xml:space="preserve">
<rect y="0" fill="#105CFB" width="100" height="100"/>
<g>
	<path fill="#ffffff" d="M31.3,39.6V26.7h9.6v2.2h-7v2.9h6.5V34H34v3.5h7.2v2.2L31.3,39.6z"/>
	<path fill="#ffffff" d="M45.1,33.1l-2.2-0.4c0.2-0.8,0.6-1.5,1.3-2c0.8-0.5,1.8-0.7,2.7-0.6c0.8,0,1.7,0.1,2.5,0.4
		c0.5,0.2,0.9,0.6,1.1,1c0.3,0.7,0.4,1.5,0.3,2.2v2.9c0,0.6,0,1.2,0.1,1.8c0.1,0.4,0.2,0.9,0.4,1.3h-2.5c-0.1-0.2-0.1-0.4-0.2-0.7
		c0-0.1-0.1-0.2-0.1-0.3c-0.3,0.3-0.7,0.6-1.3,0.8c-0.5,0.2-1,0.3-1.5,0.3c-0.8,0-1.6-0.2-2.3-0.8c-0.6-0.5-0.9-1.2-0.8-2
		c0-0.5,0.1-1,0.4-1.4c0.2-0.4,0.6-0.8,1.1-1c0.6-0.3,1.3-0.5,2-0.6c0.8-0.1,1.6-0.3,2.4-0.6v-0.3c0-0.4-0.1-0.7-0.3-1
		c-0.5-0.1-1-0.2-1.5-0.1c-0.4,0-0.7,0.1-1,0.3S45.2,32.8,45.1,33.1z M48.4,35.1c-0.3,0.1-0.8,0.2-1.5,0.4c-0.5,0.1-0.9,0.2-1.3,0.4
		c-0.3,0.2-0.5,0.5-0.5,0.9c0,0.3,0.1,0.7,0.4,0.9c0.3,0.3,0.6,0.4,1,0.4c0.5,0,0.9-0.2,1.3-0.4c0.3-0.2,0.5-0.5,0.6-0.8
		c0.1-0.4,0.1-0.8,0.1-1.2L48.4,35.1z"/>
	<path fill="#ffffff" d="M55.6,39.6h-2.4v-9.3h2.3v1.3c0.3-0.5,0.6-0.9,1.1-1.2c0.3-0.2,0.7-0.3,1.1-0.3c0.6,0,1.1,0.2,1.6,0.5
		l-0.8,2.1c-0.3-0.2-0.7-0.4-1.2-0.4c-0.3,0-0.6,0.1-0.9,0.3c-0.3,0.3-0.5,0.6-0.6,1c-0.2,1-0.2,2.1-0.2,3.1L55.6,39.6z"/>
	<path fill="#ffffff" d="M68.8,39.6h-2.5v-4.8c0-0.7,0-1.3-0.2-2c-0.1-0.3-0.3-0.5-0.5-0.7c-0.3-0.2-0.5-0.3-0.8-0.3
		c-0.4,0-0.8,0.1-1.2,0.4c-0.3,0.2-0.6,0.5-0.7,0.9c-0.2,0.7-0.2,1.4-0.2,2.1v4.2h-2.5v-9.3h2.3v1.4c0.7-1,1.9-1.6,3.1-1.6
		c0.5,0,1,0.1,1.5,0.3c0.4,0.2,0.7,0.4,1,0.8c0.2,0.3,0.4,0.6,0.5,1c0.1,0.5,0.2,1.1,0.1,1.7L68.8,39.6z"/>
</g>
<g>
	<path fill="#ffffff" d="M21.6,50.8l-0.8,3.7c-0.9-0.8-2.1-1.2-3.3-1.1c-1.4,0-2.7,0.5-3.5,1.6c-0.5,0.6-0.9,1.4-1.1,2.2h7.4l-0.4,2.1
		h-7.2c0,0.2,0,0.5,0,0.8s0,0.6,0,1h6.9l-0.6,2h-6.1c0.2,0.8,0.5,1.6,1,2.2c0.9,1,2.1,1.6,3.5,1.6c1.5,0.1,3-0.5,4.1-1.6v4.1
		c-1.3,0.6-2.7,0.9-4.1,0.9c-2.4,0.1-4.8-0.9-6.4-2.7c-1.2-1.3-2-2.8-2.3-4.5h-2L7.1,61h1.3c0-0.2,0-0.4,0-0.7c0-0.4,0-0.8,0-1.1
		H6.7l0.4-2.1h1.6c0.3-1.7,1.1-3.2,2.2-4.5c1.7-1.8,4.1-2.8,6.6-2.7C19,50,20.3,50.3,21.6,50.8z"/>
	<g>
		<path fill="#ffffff" d="M36.2,69.6h-3.7v-14c-1.4,1.3-3,2.2-4.8,2.8V55c1-0.3,2-0.9,3.2-1.8s1.9-1.9,2.4-3.1h3v19.5H36.2z"/>
		<path fill="#ffffff" d="M45,59.1c-1-0.4-1.7-1-2.1-1.7c-0.4-0.7-0.7-1.5-0.7-2.3c0-1.5,0.5-2.7,1.5-3.6c1-0.9,2.5-1.4,4.3-1.4
			c1.9,0,3.3,0.5,4.3,1.4s1.5,2.1,1.5,3.6c0,0.9-0.2,1.7-0.7,2.4s-1.1,1.2-2,1.6c1.1,0.4,1.9,1.1,2.5,1.9c0.6,0.8,0.8,1.8,0.8,2.9
			c0,1.8-0.6,3.3-1.7,4.4C51.6,69.4,50,70,48.1,70c-1.8,0-3.2-0.5-4.4-1.4c-1.4-1.1-2.1-2.6-2.1-4.5c0-1.1,0.3-2,0.8-2.9
			C43,60.3,43.8,59.6,45,59.1z M45.4,63.7c0,1,0.3,1.8,0.8,2.4s1.2,0.9,2,0.9s1.4-0.3,1.9-0.8s0.8-1.4,0.8-2.4
			c0-0.9-0.3-1.6-0.8-2.2c-0.5-0.6-1.2-0.8-2-0.8c-0.9,0-1.6,0.3-2,0.9S45.4,63,45.4,63.7z M45.7,55.4c0,0.7,0.2,1.3,0.6,1.7
			s1,0.6,1.7,0.6s1.3-0.2,1.7-0.6c0.4-0.4,0.6-1,0.6-1.7s-0.2-1.3-0.6-1.7s-1-0.6-1.7-0.6s-1.3,0.2-1.7,0.6
			C46,54.1,45.7,54.7,45.7,55.4z"/>
		<path fill="#ffffff" d="M63.2,50.1c1.9,0,3.4,0.7,4.4,2c1.3,1.6,1.9,4.2,1.9,7.9s-0.6,6.3-1.9,7.9c-1.1,1.3-2.5,2-4.4,2
			s-3.4-0.7-4.6-2.2s-1.7-4.1-1.7-7.8s0.6-6.3,1.9-7.9C59.8,50.8,61.3,50.1,63.2,50.1z M63.2,53.2c-0.5,0-0.9,0.1-1.2,0.4
			s-0.6,0.8-0.8,1.5c-0.3,1-0.4,2.6-0.4,4.9c0,2.3,0.1,3.9,0.3,4.7c0.2,0.9,0.5,1.4,0.9,1.7c0.3,0.3,0.8,0.4,1.2,0.4
			c0.5,0,0.9-0.1,1.2-0.4c0.4-0.3,0.6-0.8,0.8-1.5c0.3-1,0.4-2.6,0.4-4.9c0-2.3-0.1-3.9-0.3-4.7c-0.2-0.9-0.5-1.4-0.9-1.7
			S63.7,53.2,63.2,53.2z"/>
		<path fill="#ffffff" d="M72.5,55.5H76v1.9c1.2-1.5,2.7-2.2,4.4-2.2c0.9,0,1.7,0.2,2.4,0.6c0.7,0.4,1.2,0.9,1.6,1.7
			c0.6-0.8,1.3-1.3,2-1.7s1.5-0.6,2.3-0.6c1,0,1.9,0.2,2.6,0.6c0.7,0.4,1.3,1,1.6,1.9c0.3,0.6,0.4,1.6,0.4,2.9v9h-3.7v-8.1
			c0-1.4-0.1-2.3-0.4-2.7c-0.3-0.5-0.9-0.8-1.6-0.8c-0.5,0-1,0.2-1.5,0.5s-0.8,0.8-1,1.4c-0.2,0.6-0.3,1.6-0.3,2.9v6.8h-3.7v-7.7
			c0-1.4-0.1-2.3-0.2-2.7s-0.3-0.7-0.6-0.9S79.6,58,79.2,58c-0.6,0-1.1,0.2-1.6,0.5s-0.8,0.8-1,1.3c-0.2,0.6-0.3,1.6-0.3,2.9v6.9
			h-3.7V55.5H72.5z"/>
	</g>
</g>
</svg>
