<?xml version="1.0" encoding="utf-8"?>
<!-- Generator: Adobe Illustrator 24.0.2, SVG Export Plug-In . SVG Version: 6.00 Build 0)  -->
<svg version="1.1" id="Layer_1" xmlns="http://www.w3.org/2000/svg" xmlns:xlink="http://www.w3.org/1999/xlink" x="0px" y="0px"
	 viewBox="0 0 100 100" style="enable-background:new 0 0 100 100;" xml:space="preserve">
<rect y="0" fill="#105CFB" width="100" height="100"/>
<g>
	<path fill="#ffffff" d="M31.3,39.6V26.7h9.6v2.2h-7v2.9h6.5V34H34v3.5h7.2v2.2L31.3,39.6z"/>
	<path fill="#ffffff" d="M45.1,33.1l-2.2-0.4c0.2-0.8,0.6-1.5,1.3-2c0.8-0.5,1.8-0.7,2.7-0.6c0.8,0,1.7,0.1,2.5,0.4
		c0.5,0.2,0.9,0.6,1.1,1c0.3,0.7,0.4,1.5,0.3,2.2v2.9c0,0.6,0,1.2,0.1,1.8c0.1,0.4,0.2,0.9,0.4,1.3h-2.5c-0.1-0.2-0.1-0.4-0.2-0.7
		c0-0.1-0.1-0.2-0.1-0.3c-0.3,0.3-0.7,0.6-1.3,0.8c-0.5,0.2-1,0.3-1.5,0.3c-0.8,0-1.6-0.2-2.3-0.8c-0.6-0.5-0.9-1.2-0.8-2
		c0-0.5,0.1-1,0.4-1.4c0.2-0.4,0.6-0.8,1.1-1c0.6-0.3,1.3-0.5,2-0.6c0.8-0.1,1.6-0.3,2.4-0.6v-0.3c0-0.4-0.1-0.7-0.3-1
		c-0.5-0.1-1-0.2-1.5-0.1c-0.4,0-0.7,0.1-1,0.3S45.2,32.8,45.1,33.1z M48.4,35.1c-0.3,0.1-0.8,0.2-1.5,0.4c-0.5,0.1-0.9,0.2-1.3,0.4
		c-0.3,0.2-0.5,0.5-0.5,0.9c0,0.3,0.1,0.7,0.4,0.9c0.3,0.3,0.6,0.4,1,0.4c0.5,0,0.9-0.2,1.3-0.4c0.3-0.2,0.5-0.5,0.6-0.8
		c0.1-0.4,0.1-0.8,0.1-1.2L48.4,35.1z"/>
	<path fill="#ffffff" d="M55.6,39.6h-2.4v-9.3h2.3v1.3c0.3-0.5,0.6-0.9,1.1-1.2c0.3-0.2,0.7-0.3,1.1-0.3c0.6,0,1.1,0.2,1.6,0.5
		l-0.8,2.1c-0.3-0.2-0.7-0.4-1.2-0.4c-0.3,0-0.6,0.1-0.9,0.3c-0.3,0.3-0.5,0.6-0.6,1c-0.2,1-0.2,2.1-0.2,3.1L55.6,39.6z"/>
	<path fill="#ffffff" d="M68.8,39.6h-2.5v-4.8c0-0.7,0-1.3-0.2-2c-0.1-0.3-0.3-0.5-0.5-0.7c-0.3-0.2-0.5-0.3-0.8-0.3
		c-0.4,0-0.8,0.1-1.2,0.4c-0.3,0.2-0.6,0.5-0.7,0.9c-0.2,0.7-0.2,1.4-0.2,2.1v4.2h-2.5v-9.3h2.3v1.4c0.7-1,1.9-1.6,3.1-1.6
		c0.5,0,1,0.1,1.5,0.3c0.8,0.3,1.4,1,1.5,1.8c0.1,0.5,0.2,1.1,0.1,1.7v5.9H68.8z"/>
</g>
<g>
	<path fill="#ffffff" d="M20.2,50.7l-0.8,3.7c-0.9-0.8-2.1-1.2-3.4-1.1c-1.4,0-2.7,0.5-3.6,1.6c-0.5,0.6-0.9,1.4-1.1,2.2h7.5l-0.4,2.1
		h-7.3c0,0.2,0,0.5,0,0.8s0,0.6,0,1H18l-0.4,2.1h-6.2c0.2,0.8,0.5,1.6,1,2.3c0.9,1.1,2.2,1.6,3.5,1.6c1.5,0.1,3.1-0.5,4.1-1.6v4.1
		c-1.3,0.6-2.7,0.9-4.1,0.9c-2.5,0.1-4.8-0.9-6.5-2.7c-1.2-1.3-2-2.9-2.3-4.6h-2L5.6,61h1.3c0-0.2,0-0.5,0-0.7c0-0.4,0-0.8,0-1.1
		H5.2l0.4-2.1h1.6c0.3-1.7,1.1-3.2,2.3-4.5c1.7-1.8,4.2-2.8,6.7-2.7C17.6,49.8,18.9,50.1,20.2,50.7z"/>
	<g>
		<path fill="#ffffff" d="M26.2,64.5l3.9-0.4c0.1,0.9,0.4,1.6,1,2.1S32.3,67,33,67c0.8,0,1.5-0.3,2.1-1s0.9-1.7,0.9-3
			c0-1.3-0.3-2.2-0.9-2.8c-0.6-0.6-1.3-0.9-2.2-0.9c-1.1,0-2.2,0.5-3.1,1.5l-3.2-0.5l2-10.7H39v3.7h-7.5l-0.6,3.5
			c0.9-0.4,1.8-0.7,2.7-0.7c1.8,0,3.2,0.6,4.5,1.9c1.2,1.3,1.8,2.9,1.8,5c0,1.7-0.5,3.2-1.5,4.5c-1.3,1.8-3.2,2.7-5.6,2.7
			c-1.9,0-3.5-0.5-4.7-1.5C27.1,67.6,26.4,66.2,26.2,64.5z"/>
		<path fill="#ffffff" d="M42.1,53.1v-3.7h13.5v2.9c-1.1,1.1-2.2,2.7-3.4,4.7c-1.2,2.1-2,4.2-2.6,6.5c-0.6,2.3-0.9,4.4-0.9,6.2h-3.8
			c0.1-2.8,0.7-5.8,1.8-8.7c1.1-3,2.6-5.6,4.4-7.9C51.1,53.1,42.1,53.1,42.1,53.1z"/>
		<path fill="#ffffff" d="M64.8,49.1c2,0,3.6,0.7,4.7,2.1c1.3,1.7,2,4.5,2,8.4s-0.7,6.7-2,8.4c-1.1,1.4-2.7,2.1-4.7,2.1
			s-3.6-0.8-4.9-2.3c-1.2-1.5-1.8-4.3-1.8-8.2s0.7-6.7,2-8.4C61.3,49.8,62.8,49.1,64.8,49.1z M64.8,52.4c-0.5,0-0.9,0.2-1.3,0.5
			s-0.7,0.9-0.9,1.6c-0.3,1-0.4,2.7-0.4,5.2c0,2.4,0.1,4.1,0.4,5c0.2,0.9,0.6,1.5,0.9,1.8s0.8,0.4,1.3,0.4s0.9-0.2,1.3-0.5
			s0.7-0.9,0.9-1.6c0.3-1,0.4-2.7,0.4-5.1c0-2.4-0.1-4.1-0.4-5s-0.6-1.5-0.9-1.8S65.3,52.4,64.8,52.4z"/>
		<g>
			<path fill="#ffffff" d="M76.6,57.3h3V59c1.1-1.3,2.4-2,3.9-2c0.8,0,1.5,0.2,2.1,0.5s1.1,0.8,1.4,1.5c0.5-0.7,1.1-1.2,1.8-1.5
				s1.3-0.5,2-0.5c0.9,0,1.7,0.2,2.3,0.6s1.1,0.9,1.4,1.6c0.2,0.5,0.3,1.4,0.3,2.6v8h-3.3v-7.1c0-1.2-0.1-2-0.3-2.4
				c-0.3-0.5-0.8-0.7-1.4-0.7c-0.5,0-0.9,0.1-1.3,0.4s-0.7,0.7-0.9,1.2s-0.3,1.4-0.3,2.6v6h-3.3v-6.8c0-1.2-0.1-2-0.2-2.3
				s-0.3-0.6-0.5-0.8s-0.6-0.3-1-0.3c-0.5,0-1,0.1-1.4,0.4s-0.7,0.7-0.9,1.2s-0.3,1.4-0.3,2.6v6h-3.3V57.3z"/>
		</g>
	</g>
</g>
</svg>
