<svg id="Layer_1" data-name="Layer 1" xmlns="http://www.w3.org/2000/svg" viewBox="0 0 100 100"><rect fill="#105cfb" width="100" height="100"/><path fill="#fff" d="M22.07,39.63V26.74h9.56v2.18h-7v2.86h6.47V34H24.67v3.51h7.2v2.17Z"/><path fill="#fff" d="M35.91,33.14l-2.24-.4a3.5,3.5,0,0,1,1.3-2,4.78,4.78,0,0,1,2.74-.65,5.74,5.74,0,0,1,2.46.4,2.45,2.45,0,0,1,1.14,1,5.09,5.09,0,0,1,.33,2.21l0,2.88a10,10,0,0,0,.12,1.82,5.7,5.7,0,0,0,.44,1.25H39.73c-.06-.17-.14-.41-.24-.73a2.74,2.74,0,0,0-.09-.29,4.33,4.33,0,0,1-1.35.92,3.78,3.78,0,0,1-1.54.31,3.18,3.18,0,0,1-2.27-.78,2.61,2.61,0,0,1-.83-2,2.66,2.66,0,0,1,.38-1.41,2.45,2.45,0,0,1,1.06-1,8.5,8.5,0,0,1,2-.58,12.58,12.58,0,0,0,2.4-.6v-.25a1.29,1.29,0,0,0-.35-1A2.12,2.12,0,0,0,37.53,32a1.8,1.8,0,0,0-1,.26A1.87,1.87,0,0,0,35.91,33.14Zm3.3,2c-.32.1-.82.23-1.5.37a4.29,4.29,0,0,0-1.35.44,1,1,0,0,0-.48.87,1.2,1.2,0,0,0,.39.89,1.33,1.33,0,0,0,1,.38,2.18,2.18,0,0,0,1.28-.44,1.52,1.52,0,0,0,.58-.82,4.53,4.53,0,0,0,.1-1.2Z"/><path fill="#fff" d="M46.44,39.63H44V30.29h2.29v1.33a4,4,0,0,1,1.06-1.24,1.94,1.94,0,0,1,1.07-.3,3.13,3.13,0,0,1,1.62.47l-.76,2.15a2.16,2.16,0,0,0-1.16-.4,1.36,1.36,0,0,0-.88.28,2,2,0,0,0-.57,1,14.67,14.67,0,0,0-.2,3.13Z"/><path fill="#fff" d="M59.57,39.63H57.1V34.87a7.64,7.64,0,0,0-.16-2,1.36,1.36,0,0,0-.52-.69,1.47,1.47,0,0,0-.85-.25,1.94,1.94,0,0,0-1.15.36,1.71,1.71,0,0,0-.7.93,7.81,7.81,0,0,0-.19,2.14v4.23H51.06V30.29h2.29v1.38a3.74,3.74,0,0,1,3.08-1.59,3.64,3.64,0,0,1,1.49.3,2.4,2.4,0,0,1,1.51,1.79,7.67,7.67,0,0,1,.14,1.66Z"/><path fill="#fff" d="M67.48,36.66l2.46.41a4.07,4.07,0,0,1-1.5,2.06,4.41,4.41,0,0,1-2.56.71,4.18,4.18,0,0,1-3.61-1.59A5.38,5.38,0,0,1,61.35,35a5.14,5.14,0,0,1,1.21-3.63,4,4,0,0,1,3.07-1.32,4.14,4.14,0,0,1,3.29,1.38,6.12,6.12,0,0,1,1.15,4.21H63.88a2.49,2.49,0,0,0,.6,1.71A1.85,1.85,0,0,0,65.9,38a1.51,1.51,0,0,0,1-.31A2,2,0,0,0,67.48,36.66Zm.14-2.5a2.35,2.35,0,0,0-.56-1.63A1.71,1.71,0,0,0,65.78,32a1.74,1.74,0,0,0-1.34.59,2.28,2.28,0,0,0-.51,1.6Z"/><path fill="#fff" d="M80.64,39.63H78.35V38.26A3.71,3.71,0,0,1,77,39.45a3.47,3.47,0,0,1-1.57.39,3.56,3.56,0,0,1-2.76-1.3,5.28,5.28,0,0,1-1.14-3.61,5.22,5.22,0,0,1,1.11-3.61,3.68,3.68,0,0,1,2.83-1.24,3.5,3.5,0,0,1,2.7,1.3V26.74h2.47Zm-6.59-4.87a4.3,4.3,0,0,0,.41,2.16,1.87,1.87,0,0,0,1.67,1,1.79,1.79,0,0,0,1.45-.73,3.31,3.31,0,0,0,.6-2.16,3.64,3.64,0,0,0-.58-2.32A1.84,1.84,0,0,0,76.12,32a1.89,1.89,0,0,0-1.48.7A3.2,3.2,0,0,0,74.05,34.76Z"/><path fill="#fff" d="M37.56,49.29l-.92,4.32a5.29,5.29,0,0,0-3.88-1.32,5.16,5.16,0,0,0-4.12,1.82,6,6,0,0,0-1.27,2.58H36l-.5,2.42H27.06c0,.24,0,.55,0,.93s0,.74,0,1.14h8l-.5,2.42H27.4a6,6,0,0,0,1.21,2.62,5.06,5.06,0,0,0,4.06,1.85,6.34,6.34,0,0,0,4.78-1.85V71a10.4,10.4,0,0,1-4.73,1,9.8,9.8,0,0,1-7.5-3.13,10.46,10.46,0,0,1-2.64-5.29H20.26l.5-2.42h1.53c0-.25,0-.52,0-.8,0-.48,0-.9,0-1.27h-2l.5-2.42h1.86a10.7,10.7,0,0,1,2.61-5.2A10.13,10.13,0,0,1,33,48.33,10.15,10.15,0,0,1,37.56,49.29Z"/><path fill="#fff" d="M51.15,71.63H46.76V55.08a15.09,15.09,0,0,1-5.67,3.33v-4a12.83,12.83,0,0,0,3.74-2.14,8,8,0,0,0,2.76-3.66h3.56Z"/><path fill="#fff" d="M65.14,48.63A6.26,6.26,0,0,1,70.34,51q2.23,2.82,2.24,9.33c0,4.34-.75,7.45-2.25,9.35A6.27,6.27,0,0,1,65.14,72a6.56,6.56,0,0,1-5.39-2.57c-1.37-1.71-2-4.77-2-9.16S58.45,52.87,60,51A6.26,6.26,0,0,1,65.14,48.63Zm0,3.64a2.17,2.17,0,0,0-1.42.51,3.38,3.38,0,0,0-1,1.82,24.47,24.47,0,0,0-.46,5.73,24.87,24.87,0,0,0,.41,5.54,3.87,3.87,0,0,0,1,2,2.22,2.22,0,0,0,1.42.5,2.19,2.19,0,0,0,1.42-.51,3.38,3.38,0,0,0,1-1.82A25,25,0,0,0,68,60.33a25.11,25.11,0,0,0-.4-5.54,4,4,0,0,0-1-2A2.15,2.15,0,0,0,65.14,52.27Z"/></svg>