<?xml version="1.0" encoding="utf-8"?>
<!-- Generator: Adobe Illustrator 24.0.2, SVG Export Plug-In . SVG Version: 6.00 Build 0)  -->
<svg version="1.1" id="Layer_1" xmlns="http://www.w3.org/2000/svg" xmlns:xlink="http://www.w3.org/1999/xlink" x="0px" y="0px"
	 viewBox="0 0 100 100" style="enable-background:new 0 0 100 100;" xml:space="preserve">
<rect y="0" fill="#105CFB" width="100" height="100"/>
<polygon fill="#ffffff" points="47.3,77.2 19.8,77.2 19.8,34 47.2,34 47.2,38.9 24.8,38.9 24.8,72.2 42.3,72.2 42.3,56.4 34.7,56.4 
	34.7,51.4 47.3,51.4 "/>
<path fill="#ffffff" d="M80.2,77.2H52.7V34h27.5V77.2z M57.7,72.2h17.5V38.9H57.7L57.7,72.2z"/>
<g>
	<path fill="#ffffff" d="M63.7,27.5h-1.4v-5.5c-0.5,0.5-1.2,0.9-1.9,1.1v-1.3c0.4-0.2,0.9-0.4,1.2-0.7c0.4-0.3,0.7-0.7,0.9-1.2h1.2
		L63.7,27.5z"/>
	<path fill="#ffffff" d="M73.5,19.9c0.7,0,1.3,0.3,1.7,0.8c0.6,0.9,0.8,2,0.7,3.1c0.1,1.1-0.2,2.2-0.7,3.1c-0.4,0.5-1.1,0.8-1.7,0.8
		c-0.7,0-1.3-0.3-1.8-0.9c-0.5-0.9-0.8-2-0.7-3c-0.1-1.1,0.2-2.2,0.7-3.1C72.2,20.2,72.8,19.9,73.5,19.9z M73.5,21.1
		c-0.2,0-0.3,0.1-0.5,0.2c-0.2,0.2-0.3,0.4-0.3,0.6c-0.1,0.6-0.2,1.3-0.2,1.9c0,0.6,0,1.2,0.1,1.8c0,0.2,0.2,0.5,0.3,0.7
		c0.1,0.1,0.3,0.2,0.5,0.2c0.2,0,0.3-0.1,0.5-0.2c0.2-0.2,0.3-0.4,0.3-0.6c0.1-0.6,0.2-1.3,0.2-1.9c0-0.6,0-1.2-0.1-1.8
		c0-0.2-0.2-0.5-0.3-0.7C73.8,21.2,73.6,21.1,73.5,21.1z"/>
	<g>
		<path fill="#ffffff" d="M14.5,27.3v-7.2h3.1c0.6,0,1.1,0.1,1.7,0.2c0.3,0.1,0.6,0.4,0.8,0.7c0.2,0.4,0.3,0.8,0.3,1.2
			c0,0.5-0.2,1-0.5,1.4c-0.4,0.4-0.9,0.7-1.4,0.7c0.3,0.2,0.6,0.4,0.8,0.6c0.3,0.4,0.6,0.8,0.8,1.2l0.9,1.4h-1.7l-1-1.6
			c-0.2-0.4-0.5-0.8-0.8-1.1c-0.1-0.2-0.3-0.2-0.5-0.3s-0.4-0.1-0.7-0.1H16v3h-1.5L14.5,27.3z M16,23.1h1.1c0.4,0,0.9,0,1.3-0.1
			c0.2,0,0.3-0.2,0.4-0.3c0.1-0.1,0.2-0.3,0.2-0.5c0-0.2-0.1-0.4-0.2-0.6c-0.1-0.2-0.3-0.2-0.5-0.3H16V23.1z"/>
		<path fill="#ffffff" d="M24.8,25.7l1.4,0.2c-0.2,0.4-0.5,0.9-0.8,1.2c-0.4,0.2-0.9,0.4-1.4,0.4c-0.8,0.1-1.5-0.3-2-0.9
			c-0.3-0.5-0.5-1.2-0.5-1.8c-0.1-0.7,0.2-1.5,0.7-2c0.5-0.4,1.1-0.7,1.7-0.7c0.7-0.1,1.4,0.2,1.8,0.8c0.5,0.7,0.8,1.5,0.7,2.4h-3.5
			c0,0.4,0.1,0.7,0.3,1c0.2,0.2,0.5,0.3,0.8,0.3c0.2,0,0.4,0,0.5-0.2C24.6,26.2,24.7,25.9,24.8,25.7z M24.9,24.2
			c0-0.3-0.1-0.7-0.3-0.9c-0.2-0.2-0.5-0.3-0.7-0.3c-0.3,0-0.5,0.1-0.7,0.3c-0.2,0.2-0.3,0.6-0.3,0.9L24.9,24.2z"/>
		<path fill="#ffffff" d="M28.3,27.3L26.6,22h1.3l1,3.4l0.9-3.4h1.3l0.9,3.4l1-3.4h1.4l-1.6,5.3h-1.3l-0.9-3.4l-0.9,3.4L28.3,27.3z"/>
		<path fill="#ffffff" d="M36.2,23.7L35,23.5c0.1-0.4,0.3-0.8,0.7-1.1c0.5-0.3,1-0.4,1.5-0.4c0.5,0,0.9,0.1,1.4,0.2
			c0.3,0.2,0.5,0.3,0.6,0.6c0.2,0.4,0.2,0.8,0.2,1.2v1.6c0,0.3,0,0.7,0.1,1c0,0.2,0.1,0.5,0.2,0.7h-1.4c0-0.1-0.1-0.2-0.1-0.4v-0.2
			c-0.2,0.2-0.4,0.4-0.7,0.5c-0.3,0.1-0.6,0.2-0.9,0.2c-0.5,0-0.9-0.2-1.3-0.5c-0.3-0.3-0.5-0.7-0.5-1.1c0-0.3,0.1-0.6,0.2-0.8
			c0.1-0.2,0.3-0.4,0.6-0.5c0.4-0.1,0.7-0.2,1.1-0.3c0.4,0,0.9-0.1,1.3-0.3v-0.1c0-0.2-0.1-0.4-0.2-0.6c-0.2-0.1-0.5-0.2-0.7-0.2
			c-0.2,0-0.5,0-0.6,0.2C36.4,23.3,36.3,23.5,36.2,23.7z M38.1,24.8c-0.3,0-0.5,0.1-0.8,0.2c-0.4,0.1-0.6,0.2-0.7,0.2
			c-0.2,0.1-0.3,0.3-0.3,0.5c0,0.4,0.3,0.7,0.7,0.7c0,0,0,0,0,0c0.2,0,0.5-0.1,0.7-0.2c0.2-0.1,0.3-0.3,0.3-0.5V25L38.1,24.8
			L38.1,24.8z"/>
		<path fill="#ffffff" d="M42.1,27.3h-1.4V22H42v0.7c0.1-0.3,0.3-0.5,0.6-0.7c0.2-0.1,0.4-0.2,0.6-0.2c0.3,0,0.6,0.1,0.9,0.2l-0.4,1.2
			C43.5,23,43.3,23,43,23c-0.2,0-0.4,0-0.5,0.2c-0.1,0.2-0.2,0.4-0.3,0.6c-0.1,0.6-0.1,1.2-0.1,1.8L42.1,27.3L42.1,27.3z"/>
		<path fill="#ffffff" d="M49.5,27.3h-1.3v-0.8c-0.2,0.3-0.4,0.5-0.7,0.7c-0.3,0.2-0.6,0.2-0.9,0.2c-0.6,0-1.1-0.2-1.5-0.7
			c-0.4-0.6-0.6-1.3-0.6-2c-0.1-0.7,0.2-1.4,0.6-2c0.4-0.5,1-0.7,1.6-0.7c0.6,0,1.1,0.2,1.5,0.7v-2.6h1.4
			C49.6,20.1,49.5,27.3,49.5,27.3z M45.8,24.6c0,0.4,0,0.8,0.2,1.2c0.2,0.4,0.5,0.5,1,0.5c0.3,0,0.6-0.1,0.8-0.4
			c0.2-0.4,0.3-0.8,0.3-1.2c0-0.5-0.1-0.9-0.3-1.3c-0.3-0.4-1-0.5-1.4-0.2c-0.1,0.1-0.1,0.1-0.2,0.2C45.9,23.7,45.8,24.2,45.8,24.6z
			"/>
		<path fill="#ffffff" d="M58.2,20.2l-0.3,1.4c-0.3-0.3-0.8-0.4-1.2-0.4c-0.5,0-1,0.2-1.3,0.6c-0.2,0.2-0.3,0.5-0.4,0.8h2.7l-0.2,0.8
			h-2.6v0.7h2.5l-0.2,0.8H55c0,0.3,0.2,0.6,0.4,0.8c0.3,0.4,0.8,0.6,1.3,0.6c0.6,0,1.1-0.2,1.5-0.6v1.5c-0.5,0.2-1,0.3-1.5,0.3
			c-0.9,0-1.8-0.3-2.4-1c-0.4-0.5-0.7-1.1-0.8-1.7h-0.7L53,24h0.5v-0.6h-0.7l0.2-0.8h0.6c0.1-0.6,0.4-1.2,0.8-1.7
			c0.6-0.7,1.5-1,2.4-1C57.3,19.9,57.8,20,58.2,20.2z"/>
	</g>
	<path fill="#ffffff" d="M66.1,23.5c-0.3-0.2-0.6-0.4-0.9-0.7c-0.2-0.2-0.2-0.6-0.2-1c0-0.6,0.2-1,0.7-1.4c0.5-0.4,1-0.6,1.7-0.6
		c0.6,0,1.2,0.2,1.7,0.6c0.4,0.4,0.7,0.9,0.7,1.4c0,0.3-0.1,0.7-0.2,1c-0.2,0.2-0.4,0.6-0.8,0.7c0.4,0.2,0.7,0.4,1,0.8
		c0.2,0.4,0.3,0.8,0.3,1.1c0,0.7-0.2,1.2-0.7,1.7c-0.5,0.5-1.1,0.7-1.8,0.7c-0.7,0-1.2-0.2-1.8-0.6c-0.7-0.4-1-1-1-1.8
		c0-0.4,0.1-0.9,0.3-1.1C65.3,23.9,65.6,23.7,66.1,23.5z M66.3,25.3c0,0.4,0.1,0.7,0.3,1c0.4,0.4,1,0.4,1.5,0c0.2-0.3,0.4-0.6,0.3-1
		c0-0.3-0.1-0.7-0.3-0.9c-0.2-0.2-0.5-0.3-0.8-0.3s-0.6,0.1-0.8,0.3C66.4,24.7,66.2,25,66.3,25.3z M66.4,22c0,0.3,0.1,0.5,0.2,0.8
		c0.2,0.2,0.4,0.3,0.7,0.2c0.2,0,0.5-0.1,0.7-0.2c0.2-0.2,0.3-0.5,0.2-0.8c0-0.2-0.1-0.5-0.2-0.7c-0.2-0.2-0.4-0.3-0.7-0.2
		c-0.2,0-0.5,0.1-0.7,0.2C66.5,21.6,66.4,21.8,66.4,22z"/>
	<g>
		<path fill="#ffffff" d="M77.7,22H79v0.7c0.5-0.6,1-0.8,1.7-0.8c0.3,0,0.6,0.1,0.9,0.2c0.2,0.1,0.5,0.4,0.6,0.6
			c0.2-0.3,0.5-0.5,0.8-0.6c0.3-0.1,0.6-0.2,0.9-0.2c0.4,0,0.7,0.1,1,0.2c0.3,0.2,0.5,0.4,0.6,0.7c0.1,0.2,0.1,0.6,0.1,1.1v3.4h-1.4
			v-3c0-0.5,0-0.9-0.1-1c-0.1-0.2-0.3-0.3-0.6-0.3c-0.2,0-0.4,0.1-0.6,0.2c-0.2,0.1-0.3,0.3-0.4,0.5c-0.1,0.2-0.1,0.6-0.1,1.1v2.5
			h-1.4v-2.9c0-0.5,0-0.8-0.1-1c0-0.1-0.1-0.3-0.2-0.3C80.5,23,80.3,23,80.1,23c-0.2,0-0.4,0.1-0.6,0.2c-0.2,0.1-0.3,0.3-0.4,0.5
			c-0.1,0.2-0.1,0.6-0.1,1.1v2.6h-1.4V22z"/>
	</g>
</g>
</svg>
