<?xml version="1.0" encoding="utf-8"?>
<!-- Generator: Adobe Illustrator 24.0.2, SVG Export Plug-In . SVG Version: 6.00 Build 0)  -->
<svg version="1.1" id="Layer_1" xmlns="http://www.w3.org/2000/svg" xmlns:xlink="http://www.w3.org/1999/xlink" x="0px" y="0px"
	 viewBox="0 0 100 100" style="enable-background:new 0 0 100 100;" xml:space="preserve">
<rect y="0" fill="#105CFB" width="100" height="100"/>
<polygon fill="#fff" points="40.5,80.6 13,80.6 13,37.4 40.4,37.4 40.4,42.3 18,42.3 18,75.6 35.5,75.6 35.5,59.8 27.9,59.8 
	27.9,54.8 40.5,54.8 "/>
<path fill="#fff" d="M73.4,80.6H45.9V37.4h27.5V80.6z M50.9,75.6h17.5V42.3H50.9V75.6z"/>
<polygon fill="#fff" points="89.4,24 94.6,24 86.6,9.8 78.8,24 83.9,24 83.9,70.5 80.2,74.5 80.2,88.2 86.3,81.5 93,88.7 93,75.2 
	89.4,70.9 "/>
<g>
	<g>
		<path fill="#fff" d="M12.6,24.2v-7.4h3.2c0.6,0,1.2,0.1,1.7,0.2c0.4,0.1,0.7,0.4,0.8,0.7c0.2,0.4,0.3,0.8,0.3,1.2
			c0,0.5-0.2,1-0.5,1.4c-0.4,0.4-0.9,0.7-1.4,0.7c0.3,0.2,0.6,0.4,0.8,0.6c0.3,0.4,0.6,0.8,0.8,1.2l0.9,1.4h-1.7l-1-1.6
			c-0.2-0.4-0.5-0.8-0.8-1.1c-0.1-0.2-0.3-0.2-0.5-0.3c-0.2-0.1-0.4-0.1-0.7-0.1h-0.3v3.1h-1.5V24.2z M14.1,19.9h1.1
			c0.4,0,0.9,0,1.3-0.1c0.2,0,0.3-0.2,0.4-0.3c0.1-0.1,0.2-0.3,0.2-0.5c0-0.2-0.1-0.4-0.2-0.6c-0.1-0.2-0.3-0.2-0.5-0.3h-2.4V19.9z"
			/>
	</g>
	<g>
		<path fill="#fff" d="M23.1,22.5l1.4,0.2c-0.2,0.5-0.5,0.9-0.8,1.2c-0.4,0.2-0.9,0.4-1.4,0.4c-0.8,0.1-1.6-0.3-2-0.9
			c-0.3-0.6-0.5-1.2-0.5-1.8c-0.1-0.8,0.2-1.5,0.7-2c0.5-0.4,1.1-0.7,1.7-0.7c0.7-0.1,1.4,0.2,1.8,0.8c0.6,0.7,0.8,1.6,0.7,2.5h-3.6
			c0,0.4,0.1,0.7,0.3,1c0.2,0.2,0.5,0.3,0.8,0.3c0.2,0,0.4,0,0.5-0.2C22.9,23,23,22.7,23.1,22.5z M23.2,21c0-0.3-0.1-0.7-0.3-0.9
			c-0.2-0.2-0.4-0.3-0.7-0.3c-0.3,0-0.5,0.1-0.7,0.3c-0.2,0.3-0.3,0.6-0.3,0.9H23.2z"/>
	</g>
	<g>
		<path fill="#fff" d="M26.7,24.2L25,18.7h1.3l1,3.5l0.9-3.5h1.3l0.9,3.5l1-3.5H33l-1.6,5.4H30l-0.9-3.5l-0.9,3.5H26.7z"/>
	</g>
	<g>
		<path fill="#fff" d="M34.8,20.5l-1.2-0.2c0.1-0.5,0.3-0.9,0.7-1.1c0.5-0.3,1-0.4,1.5-0.4c0.5,0,1,0.1,1.4,0.2
			c0.3,0.2,0.5,0.3,0.6,0.6c0.2,0.4,0.2,0.8,0.2,1.2v1.6c0,0.3,0,0.7,0.1,1c0,0.3,0.1,0.5,0.2,0.7H37c0-0.1-0.1-0.2-0.1-0.4v-0.2
			c-0.2,0.2-0.5,0.4-0.7,0.5c-0.3,0.1-0.6,0.2-0.9,0.2c-0.5,0-1-0.2-1.3-0.5c-0.3-0.3-0.5-0.7-0.5-1.1c0-0.3,0.1-0.6,0.2-0.8
			c0.1-0.2,0.3-0.4,0.6-0.5c0.4-0.1,0.7-0.2,1.1-0.3c0.5,0,0.9-0.1,1.3-0.3v-0.1c0-0.2-0.1-0.4-0.2-0.6c-0.2-0.1-0.5-0.2-0.7-0.2
			c-0.2,0-0.5,0-0.6,0.2C35,20.1,34.9,20.3,34.8,20.5z M36.8,21.6c-0.3,0-0.6,0.1-0.8,0.2c-0.4,0.1-0.6,0.2-0.7,0.2
			c-0.2,0.1-0.3,0.3-0.3,0.5c0,0.4,0.3,0.7,0.7,0.7c0,0,0,0,0,0c0.3,0,0.5-0.1,0.7-0.2c0.2-0.1,0.3-0.3,0.3-0.5v-0.7L36.8,21.6z"/>
	</g>
	<g>
		<path fill="#fff" d="M40.8,24.2h-1.4v-5.4h1.3v0.7c0.1-0.3,0.3-0.6,0.6-0.7c0.2-0.1,0.4-0.2,0.6-0.2c0.3,0,0.6,0.1,0.9,0.2
			L42.5,20c-0.2-0.2-0.5-0.2-0.7-0.2c-0.2,0-0.4,0-0.5,0.2c-0.1,0.2-0.2,0.4-0.3,0.6c-0.1,0.6-0.1,1.2-0.1,1.8
			C40.8,22.4,40.8,24.2,40.8,24.2z"/>
	</g>
	<g>
		<path fill="#fff" d="M48.4,24.2h-1.3v-0.8c-0.2,0.3-0.5,0.5-0.7,0.7c-0.3,0.2-0.6,0.2-0.9,0.2c-0.6,0-1.2-0.2-1.5-0.7
			c-0.4-0.6-0.6-1.3-0.6-2c-0.1-0.7,0.2-1.5,0.6-2c0.4-0.5,1-0.7,1.6-0.7c0.6,0,1.2,0.2,1.5,0.7v-2.7h1.4L48.4,24.2z M44.6,21.4
			c0,0.4,0,0.8,0.2,1.2c0.2,0.4,0.5,0.5,1,0.5c0.3,0,0.6-0.1,0.8-0.4c0.2-0.4,0.3-0.8,0.3-1.2c0-0.5-0.1-0.9-0.3-1.3
			c-0.3-0.5-1-0.5-1.4-0.2c-0.1,0.1-0.1,0.1-0.2,0.2C44.7,20.5,44.6,21,44.6,21.4z"/>
	</g>
	<g>
		<path fill="#fff" d="M57.3,16.9L57,18.3c-0.3-0.3-0.8-0.4-1.2-0.4c-0.5,0-1,0.2-1.3,0.6c-0.2,0.2-0.3,0.5-0.4,0.8h2.8l-0.2,0.8
			h-2.7v0.7h2.6l-0.2,0.8h-2.3c0.1,0.3,0.2,0.6,0.4,0.8c0.3,0.4,0.8,0.6,1.3,0.6c0.6,0,1.1-0.2,1.5-0.6v1.5c-0.5,0.2-1,0.3-1.5,0.3
			c-0.9,0-1.8-0.3-2.5-1c-0.4-0.5-0.7-1.1-0.8-1.7h-0.7l0.2-0.8h0.5v-0.6h-0.7l0.2-0.8h0.6c0.1-0.6,0.4-1.2,0.8-1.7
			c0.6-0.7,1.5-1.1,2.5-1C56.4,16.6,56.9,16.7,57.3,16.9z"/>
	</g>
	<g>
		<path fill="#fff" d="M61.7,24.2h-1.4v-5.3c-0.5,0.5-1.1,0.8-1.8,1v-1.2c0.5-0.1,0.9-0.4,1.2-0.7c0.4-0.3,0.7-0.7,0.9-1.2h1.1
			L61.7,24.2z"/>
	</g>
	<g>
		<path fill="#fff" d="M64.4,20.2c-0.3-0.2-0.6-0.4-0.8-0.6c-0.2-0.2-0.2-0.5-0.2-0.9c0-0.5,0.2-1,0.6-1.3c0.4-0.4,1-0.6,1.6-0.5
			c0.6,0,1.2,0.2,1.6,0.5c0.4,0.3,0.6,0.8,0.6,1.3c0,0.3-0.1,0.6-0.2,0.9c-0.2,0.2-0.4,0.5-0.7,0.6c0.4,0.2,0.7,0.4,0.9,0.7
			c0.2,0.3,0.3,0.7,0.3,1.1c0,0.6-0.2,1.2-0.6,1.6c-0.5,0.4-1.1,0.6-1.7,0.6c-0.6,0-1.2-0.2-1.7-0.5c-0.5-0.4-0.8-1.1-0.8-1.7
			c0-0.4,0.1-0.8,0.3-1.1C63.7,20.6,64,20.4,64.4,20.2z M64.6,21.9c0,0.3,0.1,0.7,0.3,0.9c0.4,0.4,1,0.4,1.4,0
			c0.2-0.3,0.3-0.6,0.3-0.9c0-0.3-0.1-0.6-0.3-0.8c-0.2-0.2-0.4-0.3-0.7-0.3c-0.3,0-0.5,0.1-0.7,0.3C64.7,21.3,64.5,21.6,64.6,21.9z
			 M64.7,18.7c0,0.3,0.1,0.5,0.2,0.7c0.2,0.2,0.4,0.2,0.6,0.2c0.2,0,0.4-0.1,0.6-0.2c0.2-0.2,0.2-0.5,0.2-0.7c0-0.2-0.1-0.4-0.2-0.6
			c-0.2-0.2-0.4-0.2-0.6-0.2c-0.2,0-0.4,0.1-0.6,0.2C64.8,18.3,64.7,18.5,64.7,18.7z"/>
	</g>
</g>
<g>
	<path fill="#fff" d="M71.5,16.7c0.7,0,1.3,0.3,1.7,0.8c0.5,0.6,0.7,1.6,0.7,3c0,1.4-0.2,2.4-0.7,3c-0.4,0.5-1,0.8-1.7,0.8
		c-0.7,0-1.3-0.3-1.7-0.8c-0.4-0.5-0.7-1.5-0.7-2.9c0-1.4,0.2-2.4,0.7-3C70.2,17,70.8,16.7,71.5,16.7z M71.5,17.9
		c-0.2,0-0.3,0.1-0.5,0.2c-0.1,0.1-0.2,0.3-0.3,0.6c-0.1,0.4-0.1,1-0.1,1.8c0,0.9,0,1.5,0.1,1.8c0.1,0.3,0.2,0.5,0.3,0.6
		c0.1,0.1,0.3,0.2,0.5,0.2s0.3-0.1,0.5-0.2c0.1-0.1,0.2-0.3,0.3-0.6c0.1-0.4,0.1-1,0.1-1.8c0-0.9,0-1.5-0.1-1.8
		c-0.1-0.3-0.2-0.5-0.3-0.6C71.8,17.9,71.7,17.9,71.5,17.9z"/>
</g>
<g>
</g>
<g>
</g>
</svg>
