<svg id="Layer_1" data-name="Layer 1" xmlns="http://www.w3.org/2000/svg" viewBox="0 0 100 100"><rect fill="#105cfb" width="100" height="100"/><polygon fill="#fff" points="40.5 80.6 13 80.6 13 37.4 40.4 37.4 40.4 42.3 18 42.3 18 75.6 35.5 75.6 35.5 59.8 27.9 59.8 27.9 54.8 40.5 54.8 40.5 80.6"/><path fill="#fff" d="M73.4,80.6H45.9V37.4H73.4Zm-22.5-5H68.4V42.3H50.9Z"/><polygon fill="#fff" points="89.4 24 94.6 24 86.6 9.8 78.8 24 83.9 24 83.9 70.5 80.2 74.5 80.2 88.2 86.3 81.5 93 88.7 93 75.2 89.4 70.9 89.4 24"/><g class="cls-3"><path fill="#fff" d="M12.6,24V16.8h3.1a6.53,6.53,0,0,1,1.7.2,1.39,1.39,0,0,1,.8.7,2.13,2.13,0,0,1,.3,1.2,2.39,2.39,0,0,1-.5,1.4,2.1,2.1,0,0,1-1.4.7,5.55,5.55,0,0,1,.8.6,4.82,4.82,0,0,1,.8,1.2l.9,1.4H17.4l-1-1.6a7.91,7.91,0,0,0-.8-1.1c-.1-.2-.3-.2-.5-.3s-.4-.1-.7-.1h-.3v3H12.6Zm1.5-4.2h1.1a3.81,3.81,0,0,0,1.3-.1c.2,0,.3-.2.4-.3a.76.76,0,0,0,.2-.5,1.07,1.07,0,0,0-.2-.6c-.1-.2-.3-.2-.5-.3H14.1Z"/><path fill="#fff" d="M22.9,22.4l1.4.2a3.6,3.6,0,0,1-.8,1.2,3.26,3.26,0,0,1-1.4.4,2.26,2.26,0,0,1-2-.9,3.45,3.45,0,0,1-.5-1.8,2.44,2.44,0,0,1,.7-2,2.61,2.61,0,0,1,1.7-.7,2,2,0,0,1,1.8.8,3.29,3.29,0,0,1,.7,2.4H21a1.69,1.69,0,0,0,.3,1,1.14,1.14,0,0,0,.8.3c.2,0,.4,0,.5-.2S22.8,22.6,22.9,22.4Zm.1-1.5a1.22,1.22,0,0,0-.3-.9,1.08,1.08,0,0,0-.7-.3.91.91,0,0,0-.7.3,1.22,1.22,0,0,0-.3.9Z"/><path fill="#fff" d="M26.4,24l-1.7-5.3H26l1,3.4.9-3.4h1.3l.9,3.4,1-3.4h1.4L30.9,24H29.6l-.9-3.4L27.8,24Z"/><path fill="#fff" d="M34.3,20.4l-1.2-.2a1.77,1.77,0,0,1,.7-1.1,3,3,0,0,1,1.5-.4,4.64,4.64,0,0,1,1.4.2c.3.2.5.3.6.6a2.87,2.87,0,0,1,.2,1.2v1.6a2.51,2.51,0,0,0,.1,1,1.85,1.85,0,0,0,.2.7H36.4c0-.1-.1-.2-.1-.4v-.2a3,3,0,0,1-.7.5,2,2,0,0,1-.9.2,1.9,1.9,0,0,1-1.3-.5,1.61,1.61,0,0,1-.5-1.1,1.88,1.88,0,0,1,.2-.8,1,1,0,0,1,.6-.5,5.31,5.31,0,0,1,1.1-.3,4.91,4.91,0,0,0,1.3-.3v-.1a1.07,1.07,0,0,0-.2-.6,1.17,1.17,0,0,0-.7-.2c-.2,0-.5,0-.6.2A1.07,1.07,0,0,0,34.3,20.4Zm1.9,1.1a3.09,3.09,0,0,0-.8.2c-.4.1-.6.2-.7.2a.55.55,0,0,0-.3.5.68.68,0,0,0,.7.7,1.85,1.85,0,0,0,.7-.2.55.55,0,0,0,.3-.5v-.7l.1-.2Z"/><path fill="#fff" d="M40.2,24H38.8V18.7h1.3v.7a1.44,1.44,0,0,1,.6-.7,1.42,1.42,0,0,1,.6-.2,2.92,2.92,0,0,1,.9.2l-.4,1.2a1,1,0,0,0-.7-.2c-.2,0-.4,0-.5.2a1.63,1.63,0,0,0-.3.6,7.67,7.67,0,0,0-.1,1.8V24Z"/><path fill="#fff" d="M47.6,24H46.3v-.8a4.62,4.62,0,0,1-.7.7,1.49,1.49,0,0,1-.9.2,1.8,1.8,0,0,1-1.5-.7,3.17,3.17,0,0,1-.6-2,2.81,2.81,0,0,1,.6-2,2,2,0,0,1,1.6-.7,1.8,1.8,0,0,1,1.5.7V16.8h1.4L47.6,24Zm-3.7-2.7a2.87,2.87,0,0,0,.2,1.2c.2.4.5.5,1,.5a.91.91,0,0,0,.8-.4,2.13,2.13,0,0,0,.3-1.2,2.27,2.27,0,0,0-.3-1.3,1,1,0,0,0-1.6,0A1.46,1.46,0,0,0,43.9,21.3Z"/><path fill="#fff" d="M56.3,16.9,56,18.3a1.59,1.59,0,0,0-1.2-.4,1.61,1.61,0,0,0-1.3.6,2,2,0,0,0-.4.8h2.7l-.2.8H53v.7h2.5l-.2.8H53.1a1.51,1.51,0,0,0,.4.8,1.49,1.49,0,0,0,1.3.6,2,2,0,0,0,1.5-.6v1.5a3.34,3.34,0,0,1-1.5.3,3.1,3.1,0,0,1-2.4-1,3.37,3.37,0,0,1-.8-1.7h-.7l.2-.8h.5v-.6h-.7l.2-.8h.6a3.37,3.37,0,0,1,.8-1.7,3,3,0,0,1,2.4-1A3.19,3.19,0,0,1,56.3,16.9Z"/><path fill="#fff" d="M60.6,24H59.2V18.8a4,4,0,0,1-1.8,1V18.6a3.07,3.07,0,0,0,1.2-.7,2.55,2.55,0,0,0,.9-1.2h1.1Z"/><path fill="#fff" d="M62.9,24V22.6h1.4V24Z"/><path fill="#fff" d="M66.6,20.1a2.76,2.76,0,0,1-.8-.6c-.2-.2-.2-.5-.2-.9a1.61,1.61,0,0,1,.6-1.3,2.07,2.07,0,0,1,1.6-.5,2.54,2.54,0,0,1,1.6.5,1.76,1.76,0,0,1,.6,1.3,2.92,2.92,0,0,1-.2.9c-.2.2-.4.5-.7.6a2.18,2.18,0,0,1,.9.7,2,2,0,0,1,.3,1.1,2.11,2.11,0,0,1-.6,1.6,2.35,2.35,0,0,1-1.7.6,3.1,3.1,0,0,1-1.7-.5,2.14,2.14,0,0,1-.8-1.7,2.28,2.28,0,0,1,.3-1.1C65.9,20.5,66.2,20.3,66.6,20.1Zm.2,1.7a1.22,1.22,0,0,0,.3.9,1,1,0,0,0,1.4,0,1.22,1.22,0,0,0,.3-.9,1.14,1.14,0,0,0-.3-.8.91.91,0,0,0-.7-.3.78.78,0,0,0-.7.3A.91.91,0,0,0,66.8,21.8Zm.1-3.1a1.45,1.45,0,0,0,.2.7.73.73,0,0,0,.6.2,1.07,1.07,0,0,0,.6-.2.84.84,0,0,0,.2-.7,1.07,1.07,0,0,0-.2-.6.73.73,0,0,0-.6-.2,1.07,1.07,0,0,0-.6.2A1.42,1.42,0,0,0,66.9,18.7Z"/></g></svg>