<?xml version="1.0" encoding="utf-8"?>
<!-- Generator: Adobe Illustrator 24.0.2, SVG Export Plug-In . SVG Version: 6.00 Build 0)  -->
<svg version="1.1" id="Layer_1" xmlns="http://www.w3.org/2000/svg" xmlns:xlink="http://www.w3.org/1999/xlink" x="0px" y="0px"
	 viewBox="0 0 100 100" style="enable-background:new 0 0 100 100;" xml:space="preserve">
<rect y="0" fill="#105CFB" width="100" height="100"/>
<polygon fill="#ffffff" points="47.3,77.2 19.8,77.2 19.8,34 47.2,34 47.2,38.9 24.8,38.9 24.8,72.2 42.3,72.2 42.3,56.4 34.7,56.4 
	34.7,51.4 47.3,51.4 "/>
<path fill="#ffffff" d="M80.2,77.2H52.7V34h27.5V77.2z M57.7,72.2h17.5V38.9H57.7L57.7,72.2z"/>
<g>
	<path fill="#ffffff" d="M67.5,27.5h-1.4v-5.5c-0.5,0.5-1.2,0.9-1.9,1.1v-1.3c0.4-0.2,0.9-0.4,1.2-0.7c0.4-0.3,0.7-0.7,0.9-1.2h1.2
		L67.5,27.5z"/>
	<path fill="#ffffff" d="M72.1,19.9c0.7,0,1.3,0.3,1.7,0.8c0.6,0.9,0.8,2,0.7,3.1c0.1,1.1-0.2,2.2-0.7,3.1c-0.4,0.5-1.1,0.8-1.7,0.8
		c-0.7,0-1.3-0.3-1.8-0.9c-0.5-0.9-0.8-2-0.7-3c-0.1-1.1,0.2-2.2,0.7-3.1C70.8,20.2,71.4,19.9,72.1,19.9z M72.1,21.1
		c-0.2,0-0.3,0.1-0.5,0.2c-0.2,0.2-0.3,0.4-0.3,0.6c-0.1,0.6-0.2,1.3-0.2,1.9c0,0.6,0,1.2,0.1,1.8c0,0.2,0.2,0.5,0.3,0.7
		c0.1,0.1,0.3,0.2,0.5,0.2c0.2,0,0.3-0.1,0.5-0.2c0.2-0.2,0.3-0.4,0.3-0.6c0.1-0.6,0.2-1.3,0.2-1.9c0-0.6,0-1.2-0.1-1.8
		c0-0.2-0.2-0.5-0.3-0.7C72.5,21.2,72.3,21.1,72.1,21.1z"/>
	<g>
		<path fill="#ffffff" d="M18.4,27.3v-7.2h3.1c0.6,0,1.1,0.1,1.7,0.2c0.3,0.1,0.6,0.4,0.8,0.7c0.2,0.4,0.3,0.8,0.3,1.2
			c0,0.5-0.2,1-0.5,1.4c-0.4,0.4-0.9,0.7-1.4,0.7c0.3,0.2,0.6,0.4,0.8,0.6c0.3,0.4,0.6,0.8,0.8,1.2l0.9,1.4h-1.7l-1-1.6
			c-0.2-0.4-0.5-0.8-0.8-1.1c-0.1-0.2-0.3-0.2-0.5-0.3s-0.4-0.1-0.7-0.1h-0.3v3h-1.5V27.3z M19.9,23.1H21c0.4,0,0.9,0,1.3-0.1
			c0.2,0,0.3-0.2,0.4-0.3c0.1-0.1,0.2-0.3,0.2-0.5c0-0.2-0.1-0.4-0.2-0.6c-0.1-0.2-0.3-0.2-0.5-0.3h-2.3V23.1z"/>
		<path fill="#ffffff" d="M28.7,25.7l1.4,0.2c-0.2,0.4-0.5,0.9-0.8,1.2c-0.4,0.2-0.9,0.4-1.4,0.4c-0.8,0.1-1.5-0.3-2-0.9
			c-0.3-0.5-0.5-1.2-0.5-1.8c-0.1-0.7,0.2-1.5,0.7-2c0.5-0.4,1.1-0.7,1.7-0.7c0.7-0.1,1.4,0.2,1.8,0.8c0.5,0.7,0.8,1.5,0.7,2.4h-3.5
			c0,0.4,0.1,0.7,0.3,1c0.2,0.2,0.5,0.3,0.8,0.3c0.2,0,0.4,0,0.5-0.2C28.4,26.2,28.6,25.9,28.7,25.7z M28.8,24.2
			c0-0.3-0.1-0.7-0.3-0.9C28.3,23.1,28,23,27.7,23c-0.3,0-0.5,0.1-0.7,0.3c-0.2,0.2-0.3,0.6-0.3,0.9L28.8,24.2z"/>
		<path fill="#ffffff" d="M32.2,27.3L30.5,22h1.3l1,3.4l0.9-3.4h1.3l0.9,3.4l1-3.4h1.4l-1.6,5.3h-1.3l-0.9-3.4l-0.9,3.4L32.2,27.3z"/>
		<path fill="#ffffff" d="M40.1,23.7l-1.2-0.2c0.1-0.4,0.3-0.8,0.7-1.1c0.5-0.3,1-0.4,1.5-0.4c0.5,0,0.9,0.1,1.4,0.2
			c0.3,0.2,0.5,0.3,0.6,0.6c0.2,0.4,0.2,0.8,0.2,1.2v1.6c0,0.3,0,0.7,0.1,1c0,0.2,0.1,0.5,0.2,0.7h-1.4c0-0.1-0.1-0.2-0.1-0.4v-0.2
			c-0.2,0.2-0.4,0.4-0.7,0.5c-0.3,0.1-0.6,0.2-0.9,0.2c-0.5,0-0.9-0.2-1.3-0.5c-0.3-0.3-0.5-0.7-0.5-1.1c0-0.3,0.1-0.6,0.2-0.8
			c0.1-0.2,0.3-0.4,0.6-0.5c0.4-0.1,0.7-0.2,1.1-0.3c0.4,0,0.9-0.1,1.3-0.3v-0.1c0-0.2-0.1-0.4-0.2-0.6C41.5,23.1,41.2,23,41,23
			c-0.2,0-0.5,0-0.6,0.2C40.2,23.3,40.1,23.5,40.1,23.7z M42,24.8c-0.3,0-0.5,0.1-0.8,0.2c-0.4,0.1-0.6,0.2-0.7,0.2
			c-0.2,0.1-0.3,0.3-0.3,0.5c0,0.4,0.3,0.7,0.7,0.7c0,0,0,0,0,0c0.2,0,0.5-0.1,0.7-0.2c0.2-0.1,0.3-0.3,0.3-0.5V25L42,24.8L42,24.8z
			"/>
		<path fill="#ffffff" d="M46,27.3h-1.4V22h1.3v0.7c0.1-0.3,0.3-0.5,0.6-0.7c0.2-0.1,0.4-0.2,0.6-0.2c0.3,0,0.6,0.1,0.9,0.2l-0.4,1.2
			C47.4,23,47.1,23,46.9,23c-0.2,0-0.4,0-0.5,0.2c-0.1,0.2-0.2,0.4-0.3,0.6C46,24.4,45.9,25,46,25.6L46,27.3L46,27.3z"/>
		<path fill="#ffffff" d="M53.4,27.3h-1.3v-0.8c-0.2,0.3-0.4,0.5-0.7,0.7c-0.3,0.2-0.6,0.2-0.9,0.2c-0.6,0-1.1-0.2-1.5-0.7
			c-0.4-0.6-0.6-1.3-0.6-2c-0.1-0.7,0.2-1.4,0.6-2c0.4-0.5,1-0.7,1.6-0.7c0.6,0,1.1,0.2,1.5,0.7v-2.6h1.4
			C53.5,20.1,53.4,27.3,53.4,27.3z M49.7,24.6c0,0.4,0,0.8,0.2,1.2c0.2,0.4,0.5,0.5,1,0.5c0.3,0,0.6-0.1,0.8-0.4
			c0.2-0.4,0.3-0.8,0.3-1.2c0-0.5-0.1-0.9-0.3-1.3c-0.3-0.4-1-0.5-1.4-0.2c-0.1,0.1-0.1,0.1-0.2,0.2C49.8,23.7,49.6,24.2,49.7,24.6z
			"/>
		<path fill="#ffffff" d="M62.1,20.2l-0.3,1.4c-0.3-0.3-0.8-0.4-1.2-0.4c-0.5,0-1,0.2-1.3,0.6c-0.2,0.2-0.3,0.5-0.4,0.8h2.7l-0.2,0.8
			h-2.6v0.7h2.5L61,24.9h-2.2c0,0.3,0.2,0.6,0.4,0.8c0.3,0.4,0.8,0.6,1.3,0.6c0.6,0,1.1-0.2,1.5-0.6v1.5c-0.5,0.2-1,0.3-1.5,0.3
			c-0.9,0-1.8-0.3-2.4-1c-0.4-0.5-0.7-1.1-0.8-1.7h-0.7l0.2-0.8h0.5v-0.6h-0.7l0.2-0.8h0.6c0.1-0.6,0.4-1.2,0.8-1.7
			c0.6-0.7,1.5-1,2.4-1C61.1,19.9,61.6,20,62.1,20.2z"/>
	</g>
	<g>
		<path fill="#ffffff" d="M76.1,27.8v-7.8h1.5v2.8c0.5-0.5,1-0.8,1.6-0.8c0.7,0,1.3,0.2,1.7,0.7c0.4,0.5,0.7,1.2,0.7,2.1
			c0,1-0.2,1.7-0.7,2.2c-0.5,0.5-1,0.8-1.7,0.8c-0.3,0-0.6-0.1-1-0.2c-0.3-0.2-0.6-0.4-0.8-0.7v0.8H76.1z M77.6,24.9
			c0,0.6,0.1,1,0.3,1.3c0.3,0.4,0.6,0.6,1,0.6c0.3,0,0.6-0.1,0.8-0.4c0.2-0.3,0.3-0.7,0.3-1.3c0-0.6-0.1-1.1-0.3-1.4
			c-0.2-0.3-0.5-0.4-0.9-0.4c-0.4,0-0.7,0.1-0.9,0.4C77.7,23.9,77.6,24.3,77.6,24.9z"/>
	</g>
</g>
</svg>
