<?xml version="1.0" encoding="utf-8"?>
<!-- Generator: Adobe Illustrator 24.0.2, SVG Export Plug-In . SVG Version: 6.00 Build 0)  -->
<svg version="1.1" id="Layer_1" xmlns="http://www.w3.org/2000/svg" xmlns:xlink="http://www.w3.org/1999/xlink" x="0px" y="0px"
	 viewBox="0 0 100 100" style="enable-background:new 0 0 100 100;" xml:space="preserve">
<rect y="0" fill="#105CFB" width="100" height="100"/>
<polygon fill="#ffffff" points="47.3,77.2 19.8,77.2 19.8,34 47.2,34 47.2,38.9 24.8,38.9 24.8,72.2 42.3,72.2 42.3,56.4 34.7,56.4 
	34.7,51.4 47.3,51.4 "/>
<path fill="#ffffff" d="M80.2,77.2H52.7V34h27.5V77.2z M57.7,72.2h17.5V38.9H57.7L57.7,72.2z"/>
<g>
	<g>
		<path fill="#ffffff" d="M17.3,27.3v-7.2h3.1c0.6,0,1.1,0.1,1.7,0.2c0.3,0.1,0.6,0.4,0.8,0.7c0.2,0.4,0.3,0.8,0.3,1.2
			c0,0.5-0.2,1-0.5,1.4c-0.4,0.4-0.9,0.7-1.4,0.7c0.3,0.2,0.6,0.4,0.8,0.6c0.3,0.4,0.6,0.8,0.8,1.2l0.9,1.4h-1.7l-1-1.6
			c-0.2-0.4-0.5-0.8-0.8-1.1c-0.1-0.2-0.3-0.2-0.5-0.3s-0.4-0.1-0.7-0.1h-0.3v3h-1.5L17.3,27.3z M18.8,23.1h1.1c0.4,0,0.9,0,1.3-0.1
			c0.2,0,0.3-0.2,0.4-0.3c0.1-0.1,0.2-0.3,0.2-0.5c0-0.2-0.1-0.4-0.2-0.6c-0.1-0.2-0.3-0.2-0.5-0.3h-2.3V23.1z"/>
		<path fill="#ffffff" d="M27.6,25.7l1.4,0.2c-0.2,0.4-0.5,0.9-0.8,1.2c-0.4,0.2-0.9,0.4-1.4,0.4c-0.8,0.1-1.5-0.3-2-0.9
			c-0.3-0.5-0.5-1.2-0.5-1.8c-0.1-0.7,0.2-1.5,0.7-2c0.5-0.4,1.1-0.7,1.7-0.7c0.7-0.1,1.4,0.2,1.8,0.8c0.5,0.7,0.8,1.5,0.7,2.4h-3.5
			c0,0.4,0.1,0.7,0.3,1c0.2,0.2,0.5,0.3,0.8,0.3c0.2,0,0.4,0,0.5-0.2C27.3,26.2,27.5,25.9,27.6,25.7z M27.7,24.2
			c0-0.3-0.1-0.7-0.3-0.9c-0.2-0.2-0.5-0.3-0.7-0.3c-0.3,0-0.5,0.1-0.7,0.3c-0.2,0.2-0.3,0.6-0.3,0.9L27.7,24.2z"/>
		<path fill="#ffffff" d="M31.1,27.3L29.4,22h1.3l1,3.4l0.9-3.4h1.3l0.9,3.4l1-3.4h1.4l-1.6,5.3h-1.3l-0.9-3.4l-0.9,3.4L31.1,27.3z"/>
		<path fill="#ffffff" d="M39,23.7l-1.2-0.2c0.1-0.4,0.3-0.8,0.7-1.1c0.5-0.3,1-0.4,1.5-0.4c0.5,0,0.9,0.1,1.4,0.2
			c0.3,0.2,0.5,0.3,0.6,0.6c0.2,0.4,0.2,0.8,0.2,1.2v1.6c0,0.3,0,0.7,0.1,1c0,0.2,0.1,0.5,0.2,0.7h-1.4c0-0.1-0.1-0.2-0.1-0.4v-0.2
			c-0.2,0.2-0.4,0.4-0.7,0.5c-0.3,0.1-0.6,0.2-0.9,0.2c-0.5,0-0.9-0.2-1.3-0.5c-0.3-0.3-0.5-0.7-0.5-1.1c0-0.3,0.1-0.6,0.2-0.8
			c0.1-0.2,0.3-0.4,0.6-0.5c0.4-0.1,0.7-0.2,1.1-0.3c0.4,0,0.9-0.1,1.3-0.3v-0.1c0-0.2-0.1-0.4-0.2-0.6c-0.2-0.1-0.5-0.2-0.7-0.2
			c-0.2,0-0.5,0-0.6,0.2C39.1,23.3,39,23.5,39,23.7z M40.9,24.8c-0.3,0-0.5,0.1-0.8,0.2c-0.4,0.1-0.6,0.2-0.7,0.2
			c-0.2,0.1-0.3,0.3-0.3,0.5c0,0.4,0.3,0.7,0.7,0.7c0,0,0,0,0,0c0.2,0,0.5-0.1,0.7-0.2c0.2-0.1,0.3-0.3,0.3-0.5V25L40.9,24.8
			L40.9,24.8z"/>
		<path fill="#ffffff" d="M44.9,27.3h-1.4V22h1.3v0.7c0.1-0.3,0.3-0.5,0.6-0.7c0.2-0.1,0.4-0.2,0.6-0.2c0.3,0,0.6,0.1,0.9,0.2l-0.4,1.2
			C46.3,23,46,23,45.8,23c-0.2,0-0.4,0-0.5,0.2c-0.1,0.2-0.2,0.4-0.3,0.6c-0.1,0.6-0.1,1.2-0.1,1.8L44.9,27.3L44.9,27.3z"/>
		<path fill="#ffffff" d="M52.3,27.3H51v-0.8c-0.2,0.3-0.4,0.5-0.7,0.7c-0.3,0.2-0.6,0.2-0.9,0.2c-0.6,0-1.1-0.2-1.5-0.7
			c-0.4-0.6-0.6-1.3-0.6-2c-0.1-0.7,0.2-1.4,0.6-2c0.4-0.5,1-0.7,1.6-0.7c0.6,0,1.1,0.2,1.5,0.7v-2.6h1.4
			C52.4,20.1,52.3,27.3,52.3,27.3z M48.6,24.6c0,0.4,0,0.8,0.2,1.2c0.2,0.4,0.5,0.5,1,0.5c0.3,0,0.6-0.1,0.8-0.4
			c0.2-0.4,0.3-0.8,0.3-1.2c0-0.5-0.1-0.9-0.3-1.3c-0.3-0.4-1-0.5-1.4-0.2c-0.1,0.1-0.1,0.1-0.2,0.2C48.7,23.7,48.5,24.2,48.6,24.6z
			"/>
	</g>
	<path fill="#ffffff" d="M62,20.2l-0.3,1.5c-0.4-0.3-0.8-0.5-1.2-0.4c-0.6,0-1,0.2-1.4,0.6c-0.2,0.3-0.4,0.6-0.4,0.8h2.8l-0.2,0.8h-2.7
		v0.7h2.6l-0.2,0.8h-2.3c0.1,0.3,0.2,0.6,0.4,0.8c0.3,0.5,0.8,0.6,1.4,0.6c0.6,0,1.1-0.2,1.6-0.6v1.6c-0.5,0.2-1,0.4-1.6,0.3
		c-0.9,0-1.9-0.4-2.5-1c-0.5-0.5-0.7-1.1-0.8-1.8h-0.7l0.2-0.8h0.6v-0.6h-0.7l0.2-0.8h0.6c0.1-0.6,0.4-1.3,0.8-1.8
		c0.6-0.7,1.6-1.1,2.5-1C61.1,19.9,61.6,20,62,20.2z"/>
	<path fill="#ffffff" d="M66.5,27.6H65v-5.4c-0.6,0.5-1.2,0.8-1.9,1V22c0.5-0.2,0.9-0.4,1.2-0.7c0.5-0.3,0.7-0.7,0.9-1.2h1.1L66.5,27.6
		L66.5,27.6z"/>
	<path fill="#ffffff" d="M69.3,23.5c-0.3-0.2-0.6-0.4-0.8-0.6c-0.2-0.2-0.2-0.6-0.2-0.9c0-0.6,0.2-1,0.6-1.4s1-0.6,1.7-0.6
		c0.6,0,1.2,0.2,1.7,0.6c0.4,0.4,0.6,0.8,0.6,1.4c0,0.3-0.1,0.6-0.2,0.9c-0.2,0.2-0.4,0.6-0.7,0.6c0.4,0.2,0.6,0.4,0.9,0.7
		c0.2,0.4,0.3,0.7,0.3,1.1c0,0.6-0.2,1.2-0.6,1.7c-0.5,0.5-1.1,0.6-1.8,0.6c-0.6,0-1.2-0.2-1.8-0.6c-0.6-0.4-0.9-1-0.9-1.8
		c0-0.4,0.1-0.8,0.3-1.1C68.5,24,68.8,23.7,69.3,23.5z M69.4,25.3c0,0.4,0.1,0.6,0.3,0.9c0.4,0.4,1,0.4,1.5,0
		c0.2-0.3,0.4-0.6,0.3-0.9c0-0.3-0.1-0.6-0.3-0.8c-0.2-0.2-0.5-0.3-0.7-0.3s-0.6,0.1-0.7,0.3C69.5,24.7,69.4,25,69.4,25.3z
		 M69.5,22.1c0,0.3,0.1,0.5,0.2,0.7c0.2,0.2,0.4,0.3,0.6,0.2c0.2,0,0.5-0.1,0.6-0.2c0.2-0.2,0.3-0.5,0.2-0.7c0-0.2-0.1-0.5-0.2-0.6
		c-0.2-0.2-0.4-0.3-0.6-0.2c-0.2,0-0.5,0.1-0.6,0.2C69.6,21.7,69.5,21.8,69.5,22.1z"/>
	<g>
		<path fill="#ffffff" d="M75.1,22.2h1.3v0.7c0.5-0.5,1-0.8,1.6-0.8c0.3,0,0.6,0.1,0.9,0.2c0.2,0.1,0.4,0.3,0.6,0.6
			c0.2-0.3,0.5-0.5,0.7-0.6c0.3-0.1,0.5-0.2,0.8-0.2c0.4,0,0.7,0.1,1,0.2c0.3,0.2,0.5,0.4,0.6,0.7c0.1,0.2,0.1,0.6,0.1,1.1v3.3h-1.4
			v-3c0-0.5,0-0.8-0.1-1s-0.3-0.3-0.6-0.3c-0.2,0-0.4,0.1-0.5,0.2c-0.2,0.1-0.3,0.3-0.4,0.5s-0.1,0.6-0.1,1.1v2.5h-1.4v-2.8
			c0-0.5,0-0.8-0.1-1s-0.1-0.3-0.2-0.3c-0.1-0.1-0.2-0.1-0.4-0.1c-0.2,0-0.4,0.1-0.6,0.2s-0.3,0.3-0.4,0.5s-0.1,0.6-0.1,1.1v2.5
			h-1.3V22.2z"/>
	</g>
</g>
</svg>
