<?xml version="1.0" encoding="utf-8"?>
<!-- Generator: Adobe Illustrator 24.0.2, SVG Export Plug-In . SVG Version: 6.00 Build 0)  -->
<svg version="1.1" id="Layer_1" xmlns="http://www.w3.org/2000/svg" xmlns:xlink="http://www.w3.org/1999/xlink" x="0px" y="0px"
	 viewBox="0 0 100 100" style="enable-background:new 0 0 100 100;" xml:space="preserve">
<rect y="0" fill="#105CFB" width="100" height="100"/>
<polygon fill="#ffffff" points="40.5,80.6 13,80.6 13,37.4 40.4,37.4 40.4,42.3 18,42.3 18,75.6 35.5,75.6 35.5,59.8 27.9,59.8 
	27.9,54.8 40.5,54.8 "/>
<path fill="#ffffff" d="M73.4,80.6H45.9V37.4h27.5V80.6z M50.9,75.6h17.5V42.3H50.9V75.6z"/>
<polygon fill="#ffffff" points="89.4,24 94.6,24 86.6,9.8 78.8,24 83.9,24 83.9,70.5 80.2,74.5 80.2,88.2 86.3,81.5 93,88.7 93,75.2 
	89.4,70.9 "/>
<g>
	<path fill="#ffffff" d="M12.6,24v-6.9h3c0.5,0,1.1,0.1,1.6,0.2c0.3,0.1,0.6,0.4,0.8,0.7c0.2,0.3,0.3,0.7,0.3,1.1c0,0.5-0.2,1-0.5,1.3
		c-0.3,0.4-0.8,0.6-1.3,0.7c0.3,0.2,0.5,0.4,0.8,0.6c0.3,0.3,0.6,0.7,0.8,1.1l0.9,1.3h-1.6l-1-1.5c-0.2-0.4-0.5-0.7-0.8-1
		c-0.1-0.2-0.3-0.2-0.5-0.3s-0.4-0.1-0.7-0.1H14v2.9L12.6,24L12.6,24z M14,20h1c0.4,0,0.8,0,1.2-0.1c0.2,0,0.3-0.2,0.4-0.3
		c0.1-0.1,0.2-0.3,0.2-0.5c0-0.2-0.1-0.4-0.2-0.6c-0.1-0.2-0.3-0.2-0.5-0.3H14V20z"/>
	<path fill="#ffffff" d="M22.4,22.5l1.3,0.2c-0.2,0.4-0.4,0.8-0.8,1.1c-0.4,0.2-0.9,0.4-1.3,0.4c-0.7,0.1-1.5-0.3-1.9-0.9
		c-0.3-0.5-0.5-1.1-0.5-1.7c-0.1-0.7,0.2-1.4,0.7-1.9c0.4-0.4,1-0.6,1.6-0.7c0.7-0.1,1.3,0.2,1.7,0.8c0.5,0.6,0.8,1.5,0.7,2.3h-3.3
		c0,0.3,0.1,0.7,0.3,1c0.2,0.2,0.5,0.3,0.8,0.3c0.2,0,0.4,0,0.5-0.2C22.2,23,22.3,22.7,22.4,22.5z M22.5,21.1c0-0.3-0.1-0.6-0.3-0.9
		c-0.2-0.2-0.4-0.3-0.7-0.3c-0.3,0-0.5,0.1-0.7,0.3c-0.2,0.2-0.3,0.5-0.3,0.9H22.5z"/>
	<path fill="#ffffff" d="M25.7,24l-1.6-5h1.2l1,3.2l0.9-3.2h1.2l0.9,3.2l1-3.2h1.3L30,24h-1.2l-0.9-3.2L27.1,24H25.7z"/>
	<path fill="#ffffff" d="M33.3,20.6l-1.1-0.2c0.1-0.4,0.3-0.8,0.7-1c0.4-0.2,0.9-0.4,1.4-0.4c0.5,0,0.9,0.1,1.3,0.2
		c0.3,0.2,0.5,0.3,0.6,0.6c0.1,0.4,0.2,0.8,0.2,1.1v1.5c0,0.3,0,0.6,0.1,1c0,0.2,0.1,0.5,0.2,0.7h-1.3c0-0.1-0.1-0.2-0.1-0.4v-0.2
		c-0.2,0.2-0.4,0.4-0.7,0.5c-0.3,0.1-0.6,0.2-0.9,0.2c-0.5,0-0.9-0.2-1.2-0.5c-0.3-0.3-0.5-0.6-0.5-1c0-0.3,0.1-0.5,0.2-0.8
		c0.1-0.2,0.3-0.4,0.6-0.5c0.3-0.1,0.7-0.2,1-0.3c0.4,0,0.8-0.1,1.2-0.3v-0.1c0-0.2-0.1-0.4-0.2-0.6c-0.2-0.1-0.4-0.2-0.7-0.2
		c-0.2,0-0.5,0-0.6,0.2C33.4,20.2,33.3,20.4,33.3,20.6z M35.1,21.6c-0.3,0-0.5,0.1-0.8,0.2c-0.4,0.1-0.6,0.2-0.7,0.2
		c-0.2,0.1-0.3,0.3-0.3,0.5c0,0.4,0.3,0.7,0.6,0.7c0,0,0,0,0,0c0.2,0,0.5-0.1,0.7-0.2c0.2-0.1,0.3-0.3,0.3-0.5v-0.7L35.1,21.6z"/>
	<path fill="#ffffff" d="M38.9,24h-1.3v-5h1.2v0.7c0.1-0.3,0.3-0.5,0.6-0.7c0.2-0.1,0.4-0.2,0.6-0.2c0.3,0,0.6,0.1,0.9,0.2l-0.4,1.1
		c-0.2-0.1-0.4-0.2-0.7-0.2c-0.2,0-0.4,0-0.5,0.2c-0.1,0.2-0.2,0.4-0.3,0.6c-0.1,0.6-0.1,1.1-0.1,1.7C38.9,22.4,38.9,24,38.9,24z"/>
	<path fill="#ffffff" d="M45.9,24h-1.2v-0.8c-0.2,0.2-0.4,0.5-0.7,0.7c-0.3,0.2-0.6,0.2-0.9,0.2c-0.6,0-1.1-0.2-1.4-0.7
		c-0.4-0.6-0.6-1.2-0.6-1.9c-0.1-0.7,0.1-1.4,0.6-1.9c0.4-0.4,0.9-0.7,1.5-0.7c0.6,0,1.1,0.2,1.4,0.7v-2.5H46L45.9,24z M42.4,21.4
		c0,0.4,0,0.8,0.2,1.1c0.2,0.4,0.5,0.5,1,0.5c0.3,0,0.6-0.1,0.8-0.4c0.2-0.3,0.3-0.7,0.3-1.1c0-0.4-0.1-0.9-0.3-1.2
		c-0.3-0.4-0.9-0.5-1.3-0.2c-0.1,0.1-0.1,0.1-0.2,0.2C42.5,20.6,42.3,21,42.4,21.4z"/>
	<path fill="#ffffff" d="M54.2,17.3l-0.3,1.3c-0.3-0.3-0.7-0.4-1.1-0.4c-0.5,0-0.9,0.2-1.2,0.6c-0.2,0.2-0.3,0.5-0.4,0.8h2.6l-0.2,0.8
		H51V21h2.4l-0.2,0.8h-2.1c0,0.3,0.2,0.6,0.4,0.8c0.3,0.4,0.8,0.6,1.2,0.6c0.5,0,1.1-0.2,1.4-0.6v1.4c-0.4,0.2-0.9,0.3-1.4,0.3
		c-0.9,0-1.7-0.3-2.3-1c-0.4-0.5-0.7-1-0.8-1.6H49l0.2-0.8h0.5v-0.6H49l0.2-0.8h0.6c0.1-0.6,0.4-1.2,0.8-1.6c0.6-0.6,1.4-1,2.3-1
		C53.3,17,53.8,17.1,54.2,17.3z"/>
	<path fill="#ffffff" d="M58.3,24h-1.3v-4.9c-0.5,0.5-1.1,0.8-1.7,1v-1.1c0.4-0.1,0.8-0.4,1.1-0.7c0.4-0.3,0.7-0.7,0.9-1.1h1L58.3,24z"
		/>
	<path fill="#ffffff" d="M60.5,24v-1.3h1.3V24H60.5z"/>
	<path fill="#ffffff" d="M64,20.3c-0.3-0.1-0.5-0.3-0.8-0.6C63,19.5,63,19.3,63,18.9c0-0.5,0.2-0.9,0.6-1.2c0.4-0.4,1-0.5,1.5-0.5
		c0.5,0,1.1,0.1,1.5,0.5c0.4,0.3,0.6,0.8,0.6,1.2c0,0.3-0.1,0.6-0.2,0.9c-0.2,0.2-0.4,0.5-0.7,0.6c0.3,0.1,0.6,0.4,0.9,0.7
		c0.2,0.3,0.3,0.7,0.3,1c0,0.6-0.2,1.1-0.6,1.5c-0.4,0.4-1,0.6-1.6,0.6c-0.6,0-1.1-0.2-1.6-0.5c-0.5-0.4-0.8-1-0.8-1.6
		c0-0.4,0.1-0.7,0.3-1C63.3,20.7,63.6,20.5,64,20.3z M64.2,21.9c0,0.3,0.1,0.6,0.3,0.9c0.4,0.4,1,0.4,1.3,0c0.2-0.2,0.3-0.5,0.3-0.9
		c0-0.3-0.1-0.6-0.3-0.8c-0.2-0.2-0.4-0.3-0.7-0.3c-0.3,0-0.5,0.1-0.7,0.3C64.3,21.3,64.1,21.6,64.2,21.9z M64.3,19
		c0,0.2,0.1,0.5,0.2,0.7c0.2,0.1,0.4,0.2,0.6,0.2c0.2,0,0.4-0.1,0.6-0.2c0.2-0.2,0.2-0.4,0.2-0.7c0-0.2-0.1-0.4-0.2-0.6
		c-0.2-0.1-0.4-0.2-0.6-0.2c-0.2,0-0.4,0.1-0.6,0.2C64.4,18.6,64.3,18.8,64.3,19z"/>
</g>
<g>
	<path fill="#ffffff" d="M69,24.2v-6.6h1.3V21l1.5-1.7h1.5l-1.6,1.8l1.8,3H72L70.8,22l-0.6,0.6v1.5H69z"/>
</g>
</svg>
