<?xml version="1.0" encoding="utf-8"?>
<!-- Generator: Adobe Illustrator 24.0.2, SVG Export Plug-In . SVG Version: 6.00 Build 0)  -->
<svg version="1.1" id="Layer_1" xmlns="http://www.w3.org/2000/svg" xmlns:xlink="http://www.w3.org/1999/xlink" x="0px" y="0px"
	 viewBox="0 0 100 100" style="enable-background:new 0 0 100 100;" xml:space="preserve">
<rect y="0" fill="#105CFB" width="100" height="100"/>
<polygon fill="#fff" points="40.5,80.6 13,80.6 13,37.4 40.4,37.4 40.4,42.3 18,42.3 18,75.6 35.5,75.6 35.5,59.8 27.9,59.8 
	27.9,54.8 40.5,54.8 "/>
<path fill="#fff" d="M73.4,80.6H45.9V37.4h27.5V80.6z M50.9,75.6h17.5V42.3H50.9V75.6z"/>
<polygon fill="#fff" points="89.4,24 94.6,24 86.6,9.8 78.8,24 83.9,24 83.9,70.5 80.2,74.5 80.2,88.2 86.3,81.5 93,88.7 93,75.2 
	89.4,70.9 "/>
<g>
	<path fill="#fff" d="M12.6,24.9v-8.1h3.5c0.6,0,1.3,0.1,1.9,0.2c0.4,0.1,0.7,0.4,0.9,0.8c0.2,0.4,0.4,0.9,0.3,1.3
		c0,0.6-0.2,1.1-0.6,1.6c-0.4,0.5-1,0.7-1.6,0.8c0.3,0.2,0.6,0.4,0.9,0.7c0.4,0.4,0.7,0.9,0.9,1.3l1,1.6H18l-1.1-1.8
		c-0.3-0.4-0.6-0.8-0.9-1.2c-0.1-0.2-0.3-0.2-0.6-0.3s-0.4-0.1-0.8-0.1h-0.3V25h-1.7V24.9z M14.3,20.2h1.2c0.5,0,1,0,1.5-0.1
		c0.2,0,0.3-0.2,0.4-0.3c0.1-0.2,0.2-0.4,0.2-0.6c0-0.2-0.1-0.5-0.2-0.7c-0.1-0.2-0.3-0.2-0.6-0.3h-2.6V20.2z"/>
	<path fill="#fff" d="M24.1,23.1l1.6,0.2c-0.2,0.5-0.5,1-0.9,1.3c-0.5,0.3-1,0.4-1.6,0.4c-0.9,0.1-1.7-0.3-2.2-1
		c-0.4-0.6-0.6-1.3-0.6-2c-0.1-0.8,0.2-1.7,0.8-2.2c0.5-0.5,1.2-0.8,1.9-0.8c0.8-0.1,1.5,0.3,2,0.9c0.6,0.8,0.9,1.7,0.8,2.7H22
		c0,0.4,0.1,0.8,0.3,1.1c0.2,0.2,0.6,0.3,0.9,0.3c0.2,0,0.4,0,0.6-0.2S24,23.3,24.1,23.1z M24.2,21.4c0-0.4-0.1-0.7-0.3-1
		c-0.2-0.2-0.5-0.3-0.8-0.3c-0.3,0-0.6,0.1-0.8,0.3c-0.2,0.3-0.4,0.6-0.3,1H24.2z"/>
	<path fill="#fff" d="M28.1,24.9L26.1,19h1.5l1.1,3.8l1-3.8h1.5l1,3.8l1.1-3.8h1.6l-1.8,5.9h-1.5l-1-3.8l-1,3.8H28.1z"/>
	<path fill="#fff" d="M36.9,20.9l-1.3-0.2c0.1-0.5,0.4-0.9,0.8-1.2c0.5-0.3,1.1-0.4,1.7-0.4c0.5,0,1.1,0.1,1.6,0.2
		c0.3,0.2,0.6,0.3,0.7,0.7c0.2,0.4,0.2,0.9,0.2,1.3V23c0,0.4,0,0.8,0.1,1.1c0,0.3,0.1,0.5,0.2,0.8h-1.6c0-0.1-0.1-0.2-0.1-0.4v-0.2
		c-0.2,0.2-0.5,0.4-0.8,0.6c-0.3,0.2-0.7,0.2-1,0.2c-0.5,0-1.1-0.2-1.5-0.6c-0.3-0.3-0.5-0.8-0.6-1.2c0-0.3,0.1-0.6,0.2-0.9
		c0.1-0.3,0.4-0.5,0.7-0.6c0.4-0.2,0.8-0.3,1.2-0.3c0.5,0,1-0.2,1.5-0.3V21c0-0.2-0.1-0.5-0.2-0.7c-0.2-0.2-0.5-0.2-0.8-0.2
		c-0.2,0-0.6,0-0.7,0.2C37.1,20.4,37,20.6,36.9,20.9z M39,22.1c-0.3,0-0.6,0.1-0.9,0.2c-0.4,0.1-0.7,0.2-0.8,0.2
		c-0.2,0.1-0.3,0.3-0.3,0.6c0,0.4,0.3,0.8,0.7,0.8c0,0,0,0,0,0c0.3,0,0.5-0.1,0.8-0.2c0.2-0.1,0.3-0.3,0.3-0.6v-0.8L39,22.1z"/>
	<path fill="#fff" d="M43.5,24.9h-1.6V19h1.5v0.8c0.1-0.3,0.4-0.6,0.7-0.8c0.2-0.1,0.4-0.2,0.7-0.2c0.3,0,0.7,0.1,1,0.2l-0.4,1.3
		c-0.2-0.2-0.5-0.3-0.8-0.2c-0.2,0-0.4,0-0.6,0.2c-0.2,0.2-0.3,0.4-0.3,0.7c-0.1,0.7-0.2,1.3-0.1,2C43.5,23,43.5,24.9,43.5,24.9z"/>
	<path fill="#fff" d="M51.8,24.9h-1.5V24c-0.2,0.3-0.5,0.6-0.8,0.8c-0.3,0.2-0.7,0.3-1,0.2c-0.7,0-1.3-0.3-1.7-0.8
		c-0.5-0.6-0.7-1.4-0.7-2.2c-0.1-0.8,0.2-1.6,0.7-2.2c0.4-0.5,1.1-0.8,1.8-0.8c0.7,0,1.3,0.3,1.7,0.8v-2.9h1.6L51.8,24.9z
		 M47.6,21.9c0,0.5,0.1,0.9,0.2,1.3c0.2,0.4,0.6,0.6,1.1,0.6c0.4,0,0.7-0.2,0.9-0.4c0.2-0.4,0.4-0.9,0.3-1.3c0-0.5-0.1-1-0.3-1.5
		c-0.4-0.5-1.1-0.6-1.6-0.2c-0.1,0.1-0.2,0.1-0.2,0.2C47.7,20.9,47.6,21.4,47.6,21.9z"/>
	<path fill="#fff" d="M61.5,16.9l-0.3,1.6c-0.4-0.3-0.9-0.5-1.3-0.4c-0.6,0-1.1,0.2-1.5,0.7c-0.2,0.3-0.4,0.6-0.4,0.9h3l-0.2,0.9
		h-2.9v0.8h2.8l-0.2,0.9h-2.5c0.1,0.3,0.2,0.6,0.4,0.9c0.3,0.5,0.9,0.7,1.5,0.7c0.6,0,1.2-0.2,1.7-0.7v1.7c-0.5,0.2-1.1,0.4-1.7,0.3
		c-1,0-2-0.4-2.7-1.1c-0.5-0.5-0.8-1.2-0.9-1.9h-0.8l0.2-0.9h0.6v-0.7h-0.8l0.2-0.9h0.7c0.1-0.7,0.4-1.4,0.9-1.9
		c0.7-0.8,1.7-1.2,2.7-1.1C60.5,16.6,61,16.7,61.5,16.9z"/>
	<path fill="#fff" d="M66.3,24.9h-1.6v-5.8c-0.6,0.5-1.3,0.9-2,1.1v-1.3c0.5-0.2,1-0.4,1.3-0.8c0.5-0.3,0.8-0.8,1-1.3h1.2V24.9z"/>
	<path fill="#fff" d="M69.3,20.5c-0.3-0.2-0.6-0.4-0.9-0.7c-0.2-0.2-0.2-0.6-0.2-1c0-0.6,0.2-1.1,0.7-1.5c0.5-0.4,1.1-0.6,1.8-0.6
		c0.6,0,1.3,0.2,1.8,0.6c0.4,0.4,0.7,0.9,0.7,1.5c0,0.3-0.1,0.7-0.2,1c-0.2,0.2-0.4,0.6-0.8,0.7c0.4,0.2,0.7,0.4,1,0.8
		c0.2,0.4,0.3,0.8,0.3,1.2c0,0.7-0.2,1.3-0.7,1.8c-0.5,0.5-1.2,0.7-1.9,0.7c-0.7,0-1.3-0.2-1.9-0.6C68.3,24,68,23.3,68,22.5
		c0-0.4,0.1-0.9,0.3-1.2C68.5,21,68.8,20.7,69.3,20.5z M69.5,22.4c0,0.4,0.1,0.7,0.3,1c0.4,0.4,1.1,0.4,1.6,0c0.2-0.3,0.4-0.6,0.3-1
		c0-0.3-0.1-0.7-0.3-0.9c-0.2-0.2-0.5-0.3-0.8-0.3c-0.3,0-0.6,0.1-0.8,0.3C69.6,21.8,69.4,22.1,69.5,22.4z M69.6,19
		c0,0.3,0.1,0.5,0.2,0.8c0.2,0.2,0.4,0.3,0.7,0.2c0.2,0,0.5-0.1,0.7-0.2c0.2-0.2,0.3-0.5,0.2-0.8c0-0.2-0.1-0.5-0.2-0.7
		c-0.2-0.2-0.4-0.3-0.7-0.2c-0.2,0-0.5,0.1-0.7,0.2C69.7,18.5,69.6,18.7,69.6,19z"/>
</g>
</svg>
