<?xml version="1.0" encoding="utf-8"?>
<!-- Generator: Adobe Illustrator 24.0.2, SVG Export Plug-In . SVG Version: 6.00 Build 0)  -->
<svg version="1.1" id="Layer_1" xmlns="http://www.w3.org/2000/svg" xmlns:xlink="http://www.w3.org/1999/xlink" x="0px" y="0px"
	 viewBox="0 0 100 100" style="enable-background:new 0 0 100 100;" xml:space="preserve">
<rect y="0" fill="#105CFB" width="100" height="100"/>
<polygon fill="#ffffff" points="40.5,80.6 13,80.6 13,37.4 40.4,37.4 40.4,42.3 18,42.3 18,75.6 35.5,75.6 35.5,59.8 27.9,59.8 
	27.9,54.8 40.5,54.8 "/>
<path fill="#ffffff" d="M73.4,80.6H45.9V37.4h27.5V80.6z M50.9,75.6h17.5V42.3H50.9V75.6z"/>
<polygon fill="#ffffff" points="89.4,24 94.6,24 86.6,9.8 78.8,24 83.9,24 83.9,70.5 80.2,74.5 80.2,88.2 86.3,81.5 93,88.7 93,75.2 
	89.4,70.9 "/>
<g>
	<g>
		<path fill="#ffffff" d="M12.6,24v-6.7h2.9c0.5,0,1.1,0.1,1.6,0.2c0.3,0.1,0.6,0.3,0.7,0.7c0.2,0.3,0.3,0.7,0.3,1.1
			c0,0.5-0.2,0.9-0.5,1.3c-0.3,0.4-0.8,0.6-1.3,0.7c0.3,0.2,0.5,0.4,0.7,0.6c0.3,0.3,0.6,0.7,0.7,1.1l0.8,1.3h-1.6l-0.9-1.5
			c-0.2-0.4-0.5-0.7-0.7-1c-0.1-0.2-0.3-0.2-0.5-0.3c-0.2-0.1-0.4-0.1-0.7-0.1H14v2.8L12.6,24L12.6,24z M14,20.1h1
			c0.4,0,0.8,0,1.2-0.1c0.2,0,0.3-0.2,0.4-0.3c0.1-0.1,0.2-0.3,0.2-0.5c0-0.2-0.1-0.4-0.2-0.6c-0.1-0.2-0.3-0.2-0.5-0.3H14V20.1z"/>
		<path fill="#ffffff" d="M22.2,22.5l1.3,0.2c-0.2,0.4-0.4,0.8-0.7,1.1c-0.4,0.2-0.8,0.3-1.3,0.4c-0.7,0.1-1.4-0.3-1.9-0.8
			c-0.3-0.5-0.5-1.1-0.5-1.7c-0.1-0.7,0.2-1.4,0.7-1.9c0.4-0.4,1-0.6,1.6-0.7c0.7-0.1,1.3,0.2,1.7,0.7c0.5,0.6,0.7,1.4,0.7,2.2h-3.3
			c0,0.3,0.1,0.7,0.3,0.9c0.2,0.2,0.5,0.3,0.7,0.3c0.2,0,0.4,0,0.5-0.2S22.1,22.7,22.2,22.5z M22.3,21.1c0-0.3-0.1-0.6-0.3-0.8
			c-0.2-0.2-0.4-0.3-0.7-0.3c-0.2,0-0.5,0.1-0.7,0.3c-0.2,0.2-0.3,0.5-0.3,0.8H22.3z"/>
		<path fill="#ffffff" d="M25.5,24l-1.6-4.9h1.2l0.9,3.2l0.8-3.2h1.2l0.8,3.2l0.9-3.2h1.3L29.7,24h-1.2l-0.8-3.2L26.8,24H25.5z"/>
		<path fill="#ffffff" d="M32.8,20.7l-1.1-0.2c0.1-0.4,0.3-0.8,0.7-1c0.4-0.2,0.9-0.4,1.4-0.4c0.4,0,0.9,0.1,1.3,0.2
			c0.3,0.2,0.5,0.3,0.6,0.6c0.1,0.4,0.2,0.7,0.2,1.1v1.5c0,0.3,0,0.6,0.1,0.9c0,0.2,0.1,0.4,0.2,0.7h-1.3c0-0.1-0.1-0.2-0.1-0.4
			v-0.2c-0.2,0.2-0.4,0.3-0.7,0.5c-0.3,0.1-0.5,0.2-0.8,0.2c-0.4,0-0.9-0.2-1.2-0.5c-0.3-0.3-0.4-0.6-0.5-1c0-0.3,0.1-0.5,0.2-0.7
			c0.1-0.2,0.3-0.4,0.6-0.5c0.3-0.1,0.7-0.2,1-0.3c0.4,0,0.8-0.1,1.2-0.3v-0.1c0-0.2-0.1-0.4-0.2-0.6c-0.2-0.1-0.4-0.2-0.7-0.2
			c-0.2,0-0.5,0-0.6,0.2C33,20.3,32.9,20.5,32.8,20.7z M34.6,21.7c-0.3,0-0.5,0.1-0.7,0.2c-0.4,0.1-0.6,0.2-0.7,0.2
			c-0.2,0.1-0.3,0.3-0.3,0.5c0,0.4,0.3,0.6,0.6,0.7c0,0,0,0,0,0c0.2,0,0.4-0.1,0.7-0.2c0.2-0.1,0.3-0.3,0.3-0.5v-0.7L34.6,21.7z"/>
		<path fill="#ffffff" d="M38.3,24H37v-4.9h1.2v0.7c0.1-0.3,0.3-0.5,0.6-0.7c0.2-0.1,0.4-0.2,0.6-0.2c0.3,0,0.6,0.1,0.8,0.2l-0.4,1.1
			C39.6,20,39.4,20,39.2,20c-0.2,0-0.4,0-0.5,0.2c-0.1,0.2-0.2,0.4-0.3,0.6c-0.1,0.6-0.1,1.1-0.1,1.7C38.3,22.4,38.3,24,38.3,24z"/>
		<path fill="#ffffff" d="M45.2,24H44v-0.7c-0.2,0.2-0.4,0.5-0.7,0.7c-0.3,0.1-0.5,0.2-0.8,0.2c-0.5,0-1.1-0.2-1.4-0.7
			c-0.4-0.5-0.6-1.2-0.6-1.9c-0.1-0.7,0.1-1.3,0.6-1.9c0.4-0.4,0.9-0.7,1.5-0.7c0.5,0,1.1,0.2,1.4,0.7v-2.4h1.3L45.2,24z M41.8,21.5
			c0,0.4,0,0.8,0.2,1.1c0.2,0.4,0.5,0.5,0.9,0.5c0.3,0,0.6-0.1,0.7-0.4c0.2-0.3,0.3-0.7,0.3-1.1c0-0.4-0.1-0.8-0.3-1.2
			c-0.3-0.4-0.9-0.5-1.3-0.2c-0.1,0.1-0.1,0.1-0.2,0.2C41.9,20.7,41.7,21.1,41.8,21.5z"/>
		<path fill="#ffffff" d="M53.4,17.4l-0.3,1.3c-0.3-0.3-0.7-0.4-1.1-0.4c-0.5,0-0.9,0.2-1.2,0.6c-0.2,0.2-0.3,0.5-0.4,0.7h2.5l-0.2,0.7
			h-2.4V21h2.3l-0.2,0.7h-2.1c0,0.3,0.2,0.5,0.4,0.7c0.3,0.4,0.7,0.6,1.2,0.6c0.5,0,1-0.2,1.4-0.6v1.4c-0.4,0.2-0.9,0.3-1.4,0.3
			c-0.8,0-1.7-0.3-2.2-0.9c-0.4-0.4-0.7-1-0.7-1.6h-0.7l0.2-0.7H49v-0.6h-0.7l0.2-0.7h0.6c0.1-0.6,0.4-1.1,0.7-1.6
			c0.6-0.6,1.4-1,2.2-0.9C52.5,17.1,52.9,17.2,53.4,17.4z"/>
		<path fill="#ffffff" d="M57.4,24h-1.3v-4.8c-0.5,0.5-1,0.8-1.7,0.9V19c0.4-0.1,0.8-0.4,1.1-0.7c0.4-0.3,0.7-0.7,0.8-1.1h1L57.4,24z"
			/>
		<path fill="#ffffff" d="M59.5,24v-1.3h1.3V24H59.5z"/>
		<path fill="#ffffff" d="M63,20.4c-0.3-0.1-0.5-0.3-0.7-0.6C62,19.6,62,19.4,62,19c0-0.5,0.2-0.9,0.6-1.2c0.4-0.4,1-0.5,1.5-0.5
			c0.5,0,1.1,0.1,1.5,0.5c0.3,0.3,0.6,0.7,0.6,1.2c0,0.3-0.1,0.6-0.2,0.8c-0.2,0.2-0.4,0.5-0.7,0.6c0.3,0.1,0.6,0.4,0.8,0.7
			c0.2,0.3,0.3,0.7,0.3,1c0,0.6-0.2,1.1-0.6,1.5c-0.4,0.4-1,0.6-1.6,0.6c-0.6,0-1.1-0.2-1.6-0.5c-0.5-0.4-0.8-1-0.7-1.6
			c0-0.4,0.1-0.7,0.3-1C62.3,20.7,62.6,20.6,63,20.4z M63.1,22c0,0.3,0.1,0.6,0.3,0.8c0.4,0.4,0.9,0.4,1.3,0
			c0.2-0.2,0.3-0.5,0.3-0.8c0-0.3-0.1-0.5-0.3-0.7c-0.2-0.2-0.4-0.3-0.7-0.3c-0.3,0-0.5,0.1-0.7,0.3C63.2,21.4,63.1,21.7,63.1,22z
			 M63.2,19.1c0,0.2,0.1,0.5,0.2,0.7c0.1,0.1,0.4,0.2,0.6,0.2c0.2,0,0.4-0.1,0.6-0.2c0.2-0.2,0.2-0.4,0.2-0.7c0-0.2-0.1-0.4-0.2-0.6
			c-0.1-0.1-0.4-0.2-0.6-0.2c-0.2,0-0.4,0.1-0.6,0.2C63.3,18.7,63.3,18.9,63.2,19.1z"/>
	</g>
	<g>
		<path fill="#ffffff" d="M67.7,19.2h1.2v0.7c0.5-0.5,0.9-0.7,1.5-0.7c0.3,0,0.6,0.1,0.8,0.2c0.2,0.1,0.4,0.3,0.6,0.6
			c0.2-0.3,0.5-0.5,0.7-0.6c0.3-0.1,0.5-0.2,0.7-0.2c0.4,0,0.7,0.1,0.9,0.2c0.3,0.2,0.5,0.4,0.6,0.7c0.1,0.2,0.1,0.6,0.1,1v3.1h-1.3
			v-2.8c0-0.5,0-0.7-0.1-0.9c-0.1-0.2-0.3-0.3-0.6-0.3c-0.2,0-0.4,0.1-0.5,0.2c-0.2,0.1-0.3,0.3-0.4,0.5s-0.1,0.6-0.1,1v2.3h-1.3
			v-2.6c0-0.5,0-0.7-0.1-0.9c-0.1-0.2-0.1-0.3-0.2-0.3c-0.1-0.1-0.2-0.1-0.4-0.1c-0.2,0-0.4,0.1-0.6,0.2s-0.3,0.3-0.4,0.5
			s-0.1,0.6-0.1,1v2.3h-1.2V19.2z"/>
	</g>
</g>
</svg>
