<svg id="Layer_1" data-name="Layer 1" xmlns="http://www.w3.org/2000/svg" viewBox="0 0 100 100"><rect fill="#105cfb" width="100" height="100"/><polygon fill="#fff" points="47.3 77.21 19.8 77.21 19.8 34.01 47.2 34.01 47.2 38.91 24.8 38.91 24.8 72.21 42.3 72.21 42.3 56.41 34.7 56.41 34.7 51.41 47.3 51.41 47.3 77.21"/><path fill="#fff" d="M80.2,77.21H52.7V34H80.2Zm-22.5-5H75.2V38.91H57.7Z"/><path fill="#fff" d="M70.77,27.52H69.33V22.06a5.17,5.17,0,0,1-1.87,1.1V21.84a4.16,4.16,0,0,0,1.23-.7,2.76,2.76,0,0,0,.91-1.21h1.17Z"/><path fill="#fff" d="M75.38,19.93a2.06,2.06,0,0,1,1.72.78,5,5,0,0,1,.74,3.08,5,5,0,0,1-.74,3.08,2.06,2.06,0,0,1-1.72.78,2.17,2.17,0,0,1-1.77-.85,5,5,0,0,1-.68-3,5,5,0,0,1,.74-3.08A2.08,2.08,0,0,1,75.38,19.93Zm0,1.2a.71.71,0,0,0-.46.17,1.06,1.06,0,0,0-.32.6,8.25,8.25,0,0,0-.15,1.89,8.25,8.25,0,0,0,.13,1.83,1.26,1.26,0,0,0,.34.66.7.7,0,0,0,.46.16.71.71,0,0,0,.47-.16,1.06,1.06,0,0,0,.32-.6,8.19,8.19,0,0,0,.15-1.89A8.37,8.37,0,0,0,76.19,22a1.26,1.26,0,0,0-.34-.66A.71.71,0,0,0,75.38,21.13Z"/><g class="cls-3"><path fill="#fff" d="M21.64,27.31v-7.2h3.1a6.53,6.53,0,0,1,1.7.2,1.39,1.39,0,0,1,.8.7,2.13,2.13,0,0,1,.3,1.2,2.39,2.39,0,0,1-.5,1.4,2.1,2.1,0,0,1-1.4.7,5.55,5.55,0,0,1,.8.6,4.82,4.82,0,0,1,.8,1.2l.9,1.4h-1.7l-1-1.6a7.91,7.91,0,0,0-.8-1.1c-.1-.2-.3-.2-.5-.3s-.4-.1-.7-.1h-.3v3h-1.5Zm1.5-4.2h1.1a3.81,3.81,0,0,0,1.3-.1c.2,0,.3-.2.4-.3a.76.76,0,0,0,.2-.5,1.07,1.07,0,0,0-.2-.6c-.1-.2-.3-.2-.5-.3h-2.3Z"/><path fill="#fff" d="M31.94,25.71l1.4.2a3.6,3.6,0,0,1-.8,1.2,3.26,3.26,0,0,1-1.4.4,2.26,2.26,0,0,1-2-.9,3.45,3.45,0,0,1-.5-1.8,2.44,2.44,0,0,1,.7-2,2.61,2.61,0,0,1,1.7-.7,2,2,0,0,1,1.8.8,3.29,3.29,0,0,1,.7,2.4H30a1.69,1.69,0,0,0,.3,1,1.14,1.14,0,0,0,.8.3c.2,0,.4,0,.5-.2S31.84,25.91,31.94,25.71Zm.1-1.5a1.22,1.22,0,0,0-.3-.9A1.08,1.08,0,0,0,31,23a.91.91,0,0,0-.7.3,1.22,1.22,0,0,0-.3.9Z"/><path fill="#fff" d="M35.44,27.31,33.74,22H35l1,3.4.9-3.4h1.3l.9,3.4,1-3.4h1.4l-1.6,5.3h-1.3l-.9-3.4-.9,3.4Z"/><path fill="#fff" d="M43.34,23.71l-1.2-.2a1.77,1.77,0,0,1,.7-1.1,3,3,0,0,1,1.5-.4,4.64,4.64,0,0,1,1.4.2c.3.2.5.3.6.6a2.87,2.87,0,0,1,.2,1.2v1.6a2.51,2.51,0,0,0,.1,1,1.85,1.85,0,0,0,.2.7h-1.4c0-.1-.1-.2-.1-.4v-.2a3,3,0,0,1-.7.5,2,2,0,0,1-.9.2,1.9,1.9,0,0,1-1.3-.5,1.61,1.61,0,0,1-.5-1.1,1.88,1.88,0,0,1,.2-.8,1,1,0,0,1,.6-.5,5.31,5.31,0,0,1,1.1-.3,4.91,4.91,0,0,0,1.3-.3v-.1a1.07,1.07,0,0,0-.2-.6,1.17,1.17,0,0,0-.7-.2c-.2,0-.5,0-.6.2A1.07,1.07,0,0,0,43.34,23.71Zm1.9,1.1a3.09,3.09,0,0,0-.8.2c-.4.1-.6.2-.7.2a.55.55,0,0,0-.3.5.68.68,0,0,0,.7.7,1.85,1.85,0,0,0,.7-.2.55.55,0,0,0,.3-.5V25l.1-.2Z"/><path fill="#fff" d="M49.24,27.31h-1.4V22h1.3v.7a1.44,1.44,0,0,1,.6-.7,1.42,1.42,0,0,1,.6-.2,2.92,2.92,0,0,1,.9.2l-.4,1.2a1,1,0,0,0-.7-.2c-.2,0-.4,0-.5.2a1.63,1.63,0,0,0-.3.6,7.67,7.67,0,0,0-.1,1.8v1.7Z"/><path fill="#fff" d="M56.64,27.31h-1.3v-.8a4.62,4.62,0,0,1-.7.7,1.49,1.49,0,0,1-.9.2,1.8,1.8,0,0,1-1.5-.7,3.17,3.17,0,0,1-.6-2,2.81,2.81,0,0,1,.6-2,2,2,0,0,1,1.6-.7,1.8,1.8,0,0,1,1.5.7v-2.6h1.4l-.1,7.2Zm-3.7-2.7a2.87,2.87,0,0,0,.2,1.2c.2.4.5.5,1,.5a.91.91,0,0,0,.8-.4,2.13,2.13,0,0,0,.3-1.2,2.27,2.27,0,0,0-.3-1.3,1,1,0,0,0-1.6,0A1.46,1.46,0,0,0,52.94,24.61Z"/><path fill="#fff" d="M65.34,20.21l-.3,1.4a1.59,1.59,0,0,0-1.2-.4,1.61,1.61,0,0,0-1.3.6,2,2,0,0,0-.4.8h2.7l-.2.8H62v.7h2.5l-.2.8h-2.2a1.51,1.51,0,0,0,.4.8,1.49,1.49,0,0,0,1.3.6,2,2,0,0,0,1.5-.6v1.5a3.34,3.34,0,0,1-1.5.3,3.1,3.1,0,0,1-2.4-1,3.37,3.37,0,0,1-.8-1.7h-.7l.2-.8h.5v-.6h-.7l.2-.8h.6a3.37,3.37,0,0,1,.8-1.7,3,3,0,0,1,2.4-1A3.19,3.19,0,0,1,65.34,20.21Z"/></g></svg>