<?xml version="1.0" encoding="utf-8"?>
<!-- Generator: Adobe Illustrator 24.0.2, SVG Export Plug-In . SVG Version: 6.00 Build 0)  -->
<svg version="1.1" id="Layer_1" xmlns="http://www.w3.org/2000/svg" xmlns:xlink="http://www.w3.org/1999/xlink" x="0px" y="0px"
	 viewBox="0 0 100 100" style="enable-background:new 0 0 100 100;" xml:space="preserve">
<rect y="0" fill="#105CFB" width="100" height="100"/>
<polygon fill="#ffffff" points="40.5,80.6 13,80.6 13,37.4 40.4,37.4 40.4,42.3 18,42.3 18,75.6 35.5,75.6 35.5,59.8 27.9,59.8 
	27.9,54.8 40.5,54.8 "/>
<path fill="#ffffff" d="M73.4,80.6H45.9V37.4h27.5V80.6z M50.9,75.6h17.5V42.3H50.9V75.6z"/>
<polygon fill="#ffffff" points="89.4,24 94.6,24 86.6,9.8 78.8,24 83.9,24 83.9,70.5 80.2,74.5 80.2,88.2 86.3,81.5 93,88.7 93,75.2 
	89.4,70.9 "/>
<g>
	<path fill="#ffffff" d="M12.6,24v-7.2h3.1c0.6,0,1.1,0.1,1.7,0.2c0.3,0.1,0.6,0.4,0.8,0.7c0.2,0.4,0.3,0.8,0.3,1.2
		c0,0.5-0.2,1-0.5,1.4c-0.4,0.4-0.9,0.7-1.4,0.7c0.3,0.2,0.6,0.4,0.8,0.6c0.3,0.4,0.6,0.8,0.8,1.2l0.9,1.4h-1.7l-1-1.6
		c-0.2-0.4-0.5-0.8-0.8-1.1c-0.1-0.2-0.3-0.2-0.5-0.3s-0.4-0.1-0.7-0.1h-0.3v3h-1.5V24z M14.1,19.8h1.1c0.4,0,0.9,0,1.3-0.1
		c0.2,0,0.3-0.2,0.4-0.3c0.1-0.1,0.2-0.3,0.2-0.5c0-0.2-0.1-0.4-0.2-0.6c-0.1-0.2-0.3-0.2-0.5-0.3h-2.3V19.8z"/>
	<path fill="#ffffff" d="M22.9,22.4l1.4,0.2c-0.2,0.4-0.5,0.9-0.8,1.2c-0.4,0.2-0.9,0.4-1.4,0.4c-0.8,0.1-1.5-0.3-2-0.9
		c-0.3-0.5-0.5-1.2-0.5-1.8c-0.1-0.7,0.2-1.5,0.7-2c0.5-0.4,1.1-0.7,1.7-0.7c0.7-0.1,1.4,0.2,1.8,0.8c0.5,0.7,0.8,1.5,0.7,2.4H21
		c0,0.4,0.1,0.7,0.3,1c0.2,0.2,0.5,0.3,0.8,0.3c0.2,0,0.4,0,0.5-0.2S22.8,22.6,22.9,22.4z M23,20.9c0-0.3-0.1-0.7-0.3-0.9
		c-0.2-0.2-0.4-0.3-0.7-0.3c-0.3,0-0.5,0.1-0.7,0.3c-0.2,0.2-0.3,0.6-0.3,0.9H23z"/>
	<path fill="#ffffff" d="M26.4,24l-1.7-5.3H26l1,3.4l0.9-3.4h1.3l0.9,3.4l1-3.4h1.4L30.9,24h-1.3l-0.9-3.4L27.8,24H26.4z"/>
	<path fill="#ffffff" d="M34.3,20.4l-1.2-0.2c0.1-0.4,0.3-0.8,0.7-1.1c0.5-0.3,1-0.4,1.5-0.4c0.5,0,0.9,0.1,1.4,0.2
		c0.3,0.2,0.5,0.3,0.6,0.6c0.2,0.4,0.2,0.8,0.2,1.2v1.6c0,0.3,0,0.7,0.1,1c0,0.2,0.1,0.5,0.2,0.7h-1.4c0-0.1-0.1-0.2-0.1-0.4v-0.2
		c-0.2,0.2-0.4,0.4-0.7,0.5c-0.3,0.1-0.6,0.2-0.9,0.2c-0.5,0-0.9-0.2-1.3-0.5c-0.3-0.3-0.5-0.7-0.5-1.1c0-0.3,0.1-0.6,0.2-0.8
		c0.1-0.2,0.3-0.4,0.6-0.5c0.4-0.1,0.7-0.2,1.1-0.3c0.4,0,0.9-0.1,1.3-0.3v-0.1c0-0.2-0.1-0.4-0.2-0.6c-0.2-0.1-0.5-0.2-0.7-0.2
		c-0.2,0-0.5,0-0.6,0.2C34.5,20,34.4,20.2,34.3,20.4z M36.2,21.5c-0.3,0-0.5,0.1-0.8,0.2c-0.4,0.1-0.6,0.2-0.7,0.2
		c-0.2,0.1-0.3,0.3-0.3,0.5c0,0.4,0.3,0.7,0.7,0.7c0,0,0,0,0,0c0.2,0,0.5-0.1,0.7-0.2c0.2-0.1,0.3-0.3,0.3-0.5v-0.7L36.2,21.5z"/>
	<path fill="#ffffff" d="M40.2,24h-1.4v-5.3h1.3v0.7c0.1-0.3,0.3-0.5,0.6-0.7c0.2-0.1,0.4-0.2,0.6-0.2c0.3,0,0.6,0.1,0.9,0.2l-0.4,1.2
		c-0.2-0.2-0.4-0.2-0.7-0.2c-0.2,0-0.4,0-0.5,0.2c-0.1,0.2-0.2,0.4-0.3,0.6c-0.1,0.6-0.1,1.2-0.1,1.8C40.2,22.3,40.2,24,40.2,24z"/>
	<path fill="#ffffff" d="M47.6,24h-1.3v-0.8c-0.2,0.3-0.4,0.5-0.7,0.7c-0.3,0.2-0.6,0.2-0.9,0.2c-0.6,0-1.1-0.2-1.5-0.7
		c-0.4-0.6-0.6-1.3-0.6-2c-0.1-0.7,0.2-1.4,0.6-2c0.4-0.5,1-0.7,1.6-0.7c0.6,0,1.1,0.2,1.5,0.7v-2.6h1.4L47.6,24z M43.9,21.3
		c0,0.4,0,0.8,0.2,1.2c0.2,0.4,0.5,0.5,1,0.5c0.3,0,0.6-0.1,0.8-0.4c0.2-0.4,0.3-0.8,0.3-1.2c0-0.5-0.1-0.9-0.3-1.3
		c-0.3-0.4-1-0.5-1.4-0.2c-0.1,0.1-0.1,0.1-0.2,0.2C44,20.4,43.8,20.9,43.9,21.3z"/>
	<path fill="#ffffff" d="M56.3,16.9L56,18.3c-0.3-0.3-0.8-0.4-1.2-0.4c-0.5,0-1,0.2-1.3,0.6c-0.2,0.2-0.3,0.5-0.4,0.8h2.7l-0.2,0.8H53
		v0.7h2.5l-0.2,0.8h-2.2c0,0.3,0.2,0.6,0.4,0.8c0.3,0.4,0.8,0.6,1.3,0.6c0.6,0,1.1-0.2,1.5-0.6v1.5c-0.5,0.2-1,0.3-1.5,0.3
		c-0.9,0-1.8-0.3-2.4-1c-0.4-0.5-0.7-1.1-0.8-1.7h-0.7l0.2-0.8h0.5v-0.6h-0.7l0.2-0.8h0.6c0.1-0.6,0.4-1.2,0.8-1.7
		c0.6-0.7,1.5-1,2.4-1C55.4,16.6,55.9,16.7,56.3,16.9z"/>
	<path fill="#ffffff" d="M60.6,24h-1.4v-5.2c-0.5,0.5-1.1,0.8-1.8,1v-1.2c0.4-0.1,0.9-0.4,1.2-0.7c0.4-0.3,0.7-0.7,0.9-1.2h1.1L60.6,24
		z"/>
	<path fill="#ffffff" d="M63.2,20.1c-0.3-0.1-0.6-0.4-0.8-0.6c-0.2-0.2-0.2-0.5-0.2-0.9c0-0.5,0.2-1,0.6-1.3c0.4-0.4,1-0.6,1.6-0.5
		c0.6,0,1.1,0.2,1.6,0.5c0.4,0.3,0.6,0.8,0.6,1.3c0,0.3-0.1,0.6-0.2,0.9c-0.2,0.2-0.4,0.5-0.7,0.6c0.4,0.1,0.7,0.4,0.9,0.7
		c0.2,0.3,0.3,0.7,0.3,1.1c0,0.6-0.2,1.2-0.6,1.6c-0.5,0.4-1.1,0.6-1.7,0.6c-0.6,0-1.2-0.2-1.7-0.5c-0.5-0.4-0.8-1-0.8-1.7
		c0-0.4,0.1-0.8,0.3-1.1C62.5,20.5,62.8,20.3,63.2,20.1z M63.4,21.8c0,0.3,0.1,0.7,0.3,0.9c0.4,0.4,1,0.4,1.4,0
		c0.2-0.2,0.3-0.6,0.3-0.9c0-0.3-0.1-0.6-0.3-0.8c-0.2-0.2-0.4-0.3-0.7-0.3c-0.3,0-0.5,0.1-0.7,0.3C63.5,21.2,63.4,21.5,63.4,21.8z
		 M63.5,18.7c0,0.2,0.1,0.5,0.2,0.7c0.2,0.2,0.4,0.2,0.6,0.2c0.2,0,0.4-0.1,0.6-0.2c0.2-0.2,0.2-0.4,0.2-0.7c0-0.2-0.1-0.4-0.2-0.6
		c-0.2-0.2-0.4-0.2-0.6-0.2c-0.2,0-0.4,0.1-0.6,0.2C63.6,18.3,63.5,18.5,63.5,18.7z"/>
</g>
<g>
	<path fill="#ffffff" d="M68.2,24.2v-6.9h1.3v3.7l1.5-1.8h1.6L71,21l1.8,3.2h-1.4l-1.3-2.2l-0.6,0.6v1.6H68.2z"/>
</g>
</svg>
