<?xml version="1.0" encoding="utf-8"?>
<!-- Generator: Adobe Illustrator 24.0.2, SVG Export Plug-In . SVG Version: 6.00 Build 0)  -->
<svg version="1.1" id="Layer_1" xmlns="http://www.w3.org/2000/svg" xmlns:xlink="http://www.w3.org/1999/xlink" x="0px" y="0px"
	 viewBox="0 0 100 100" style="enable-background:new 0 0 100 100;" xml:space="preserve">
<rect y="0" fill="#105CFB" width="100" height="100"/>
<polygon fill="#ffffff" points="47.3,77.2 19.8,77.2 19.8,34 47.2,34 47.2,38.9 24.8,38.9 24.8,72.2 42.3,72.2 42.3,56.4 34.7,56.4 
	34.7,51.4 47.3,51.4 "/>
<path fill="#ffffff" d="M80.2,77.2H52.7V34h27.5V77.2z M57.7,72.2h17.5V38.9H57.7L57.7,72.2z"/>
<g>
	<path fill="#ffffff" d="M21.6,27.3V21h2.7c0.5,0,1,0.1,1.5,0.2c0.3,0.1,0.6,0.3,0.7,0.6c0.2,0.3,0.3,0.7,0.3,1.1
		c0,0.4-0.2,0.9-0.4,1.2c-0.3,0.4-0.8,0.6-1.2,0.6c0.2,0.2,0.5,0.3,0.7,0.5c0.3,0.3,0.5,0.7,0.7,1.1l0.8,1.2h-1.5L25,26.1
		c-0.2-0.3-0.4-0.7-0.7-1C24.2,25,24,25,23.8,24.9c-0.2-0.1-0.4-0.1-0.6-0.1H23v2.6L21.6,27.3L21.6,27.3z M23,23.6h1
		c0.4,0,0.8,0,1.1-0.1c0.2,0,0.3-0.2,0.4-0.3c0.1-0.1,0.2-0.3,0.2-0.4c0-0.2-0.1-0.4-0.2-0.5c-0.1-0.2-0.3-0.2-0.4-0.3h-2V23.6z"/>
	<path fill="#ffffff" d="M30.7,25.9l1.2,0.2c-0.2,0.4-0.4,0.8-0.7,1.1c-0.4,0.2-0.8,0.3-1.2,0.4c-0.7,0.1-1.3-0.2-1.8-0.8
		c-0.3-0.5-0.4-1-0.4-1.6c-0.1-0.6,0.2-1.3,0.6-1.8c0.4-0.4,0.9-0.6,1.5-0.6c0.6-0.1,1.2,0.2,1.6,0.7c0.5,0.6,0.7,1.4,0.6,2.1H29
		c0,0.3,0.1,0.6,0.3,0.9c0.2,0.2,0.4,0.3,0.7,0.3c0.2,0,0.4,0,0.4-0.2C30.5,26.4,30.6,26.1,30.7,25.9z M30.8,24.6
		c0-0.3-0.1-0.6-0.3-0.8c-0.2-0.2-0.4-0.3-0.7-0.3c-0.2,0-0.5,0.1-0.6,0.3C29.1,24,29,24.3,29,24.6L30.8,24.6z"/>
	<path fill="#ffffff" d="M33.8,27.3l-1.5-4.7h1.1l0.9,3l0.8-3h1.1l0.8,3l0.9-3h1.2l-1.4,4.7h-1.1l-0.8-3l-0.8,3L33.8,27.3z"/>
	<path fill="#ffffff" d="M40.7,24.2L39.7,24c0.1-0.4,0.3-0.7,0.6-1c0.4-0.2,0.9-0.4,1.3-0.4c0.4,0,0.8,0.1,1.2,0.2
		c0.3,0.2,0.4,0.3,0.5,0.5c0.1,0.3,0.2,0.7,0.2,1.1v1.4c0,0.3,0,0.6,0.1,0.9c0,0.2,0.1,0.4,0.2,0.6h-1.2c0-0.1-0.1-0.2-0.1-0.4v-0.2
		c-0.2,0.2-0.4,0.3-0.6,0.4c-0.2,0.1-0.5,0.2-0.8,0.2c-0.4,0-0.8-0.2-1.1-0.4c-0.3-0.3-0.4-0.6-0.4-1c0-0.2,0.1-0.5,0.2-0.7
		c0.1-0.2,0.3-0.4,0.5-0.4c0.3-0.1,0.6-0.2,1-0.3c0.4,0,0.8-0.1,1.1-0.3v-0.1c0-0.2-0.1-0.4-0.2-0.5c-0.2-0.1-0.4-0.2-0.6-0.2
		c-0.2,0-0.4,0-0.5,0.2C40.9,23.9,40.8,24,40.7,24.2z M42.4,25.1c-0.2,0-0.5,0.1-0.7,0.2c-0.4,0.1-0.5,0.2-0.6,0.2
		c-0.2,0.1-0.3,0.3-0.3,0.4c0,0.3,0.2,0.6,0.6,0.6c0,0,0,0,0,0c0.2,0,0.4-0.1,0.6-0.2c0.2-0.1,0.3-0.3,0.3-0.4v-0.6L42.4,25.1
		L42.4,25.1z"/>
	<path fill="#ffffff" d="M45.9,27.3h-1.2v-4.7h1.1v0.6c0.1-0.3,0.3-0.5,0.5-0.6c0.2-0.1,0.3-0.2,0.5-0.2c0.3,0,0.5,0.1,0.8,0.2
		l-0.4,1.1c-0.2-0.1-0.4-0.2-0.6-0.2c-0.2,0-0.4,0-0.4,0.2c-0.1,0.2-0.2,0.3-0.3,0.5c-0.1,0.5-0.1,1.1-0.1,1.6L45.9,27.3L45.9,27.3z
		"/>
	<path fill="#ffffff" d="M52.4,27.3h-1.1v-0.7c-0.2,0.2-0.4,0.4-0.6,0.6c-0.2,0.1-0.5,0.2-0.8,0.2c-0.5,0-1-0.2-1.3-0.6
		C48.2,26.3,48,25.7,48,25c-0.1-0.6,0.1-1.3,0.5-1.8c0.3-0.4,0.9-0.6,1.4-0.6c0.5,0,1,0.2,1.3,0.6V21h1.2
		C52.5,21,52.4,27.3,52.4,27.3z M49.2,25c0,0.4,0,0.7,0.2,1.1c0.2,0.4,0.4,0.4,0.9,0.4c0.3,0,0.5-0.1,0.7-0.4
		c0.2-0.3,0.3-0.7,0.3-1.1c0-0.4-0.1-0.8-0.3-1.1c-0.3-0.4-0.8-0.5-1.2-0.2c-0.1,0-0.1,0.1-0.2,0.2C49.2,24.2,49.1,24.6,49.2,25z"/>
	<path fill="#ffffff" d="M60.1,21.1l-0.3,1.2c-0.3-0.3-0.7-0.4-1.1-0.4c-0.4,0-0.9,0.2-1.1,0.5c-0.2,0.2-0.3,0.4-0.4,0.7h2.4l-0.2,0.7
		h-2.3v0.6h2.2l-0.2,0.7h-1.9c0,0.3,0.2,0.5,0.4,0.7c0.3,0.4,0.7,0.6,1.1,0.5c0.5,0,1-0.2,1.3-0.5v1.3c-0.4,0.2-0.9,0.3-1.3,0.3
		c-0.8,0-1.6-0.3-2.1-0.9c-0.4-0.4-0.6-0.9-0.7-1.5h-0.6l0.2-0.7h0.4v-0.5h-0.6l0.2-0.7H56c0.1-0.6,0.3-1.1,0.7-1.5
		c0.5-0.6,1.3-0.9,2.1-0.9C59.2,20.8,59.7,20.9,60.1,21.1z"/>
</g>
<g>
	<path fill="#ffffff" d="M65.6,27.4h-1.3v-4.8c-0.5,0.4-1,0.8-1.7,1v-1.2c0.3-0.1,0.7-0.3,1.1-0.6c0.4-0.3,0.7-0.7,0.8-1.1h1V27.4z"/>
	<path fill="#ffffff" d="M67.8,27.4v-1.3H69v1.3H67.8z"/>
	<path fill="#ffffff" d="M71.2,23.8c-0.3-0.1-0.6-0.3-0.7-0.6c-0.2-0.2-0.2-0.5-0.2-0.8c0-0.5,0.2-0.9,0.5-1.2s0.8-0.5,1.5-0.5
		c0.6,0,1.1,0.2,1.5,0.5s0.5,0.7,0.5,1.2c0,0.3-0.1,0.6-0.2,0.8c-0.2,0.2-0.4,0.4-0.7,0.6c0.4,0.1,0.7,0.4,0.8,0.7
		c0.2,0.3,0.3,0.6,0.3,1c0,0.6-0.2,1.1-0.6,1.5c-0.4,0.4-0.9,0.6-1.6,0.6c-0.6,0-1.1-0.2-1.5-0.5c-0.5-0.4-0.7-0.9-0.7-1.5
		c0-0.4,0.1-0.7,0.3-1C70.5,24.2,70.8,24,71.2,23.8z M71.3,25.4c0,0.4,0.1,0.6,0.3,0.8c0.2,0.2,0.4,0.3,0.7,0.3
		c0.3,0,0.5-0.1,0.7-0.3c0.2-0.2,0.3-0.5,0.3-0.8c0-0.3-0.1-0.6-0.3-0.8c-0.2-0.2-0.4-0.3-0.7-0.3c-0.3,0-0.5,0.1-0.7,0.3
		C71.4,24.9,71.3,25.1,71.3,25.4z M71.4,22.5c0,0.3,0.1,0.5,0.2,0.6s0.3,0.2,0.6,0.2c0.2,0,0.4-0.1,0.6-0.2C73,23,73,22.8,73,22.5
		c0-0.2-0.1-0.4-0.2-0.6c-0.1-0.1-0.3-0.2-0.6-0.2c-0.2,0-0.4,0.1-0.6,0.2S71.4,22.3,71.4,22.5z"/>
	<path fill="#ffffff" d="M75.5,27.4v-6.7h1.3v2.4c0.4-0.4,0.9-0.7,1.4-0.7c0.6,0,1.1,0.2,1.5,0.6s0.6,1,0.6,1.8c0,0.8-0.2,1.5-0.6,1.9
		c-0.4,0.4-0.9,0.7-1.4,0.7c-0.3,0-0.5-0.1-0.8-0.2c-0.3-0.1-0.5-0.3-0.7-0.6v0.7H75.5z M76.8,24.9c0,0.5,0.1,0.9,0.2,1.1
		c0.2,0.3,0.5,0.5,0.9,0.5c0.3,0,0.5-0.1,0.7-0.4c0.2-0.2,0.3-0.6,0.3-1.1c0-0.6-0.1-0.9-0.3-1.2c-0.2-0.2-0.5-0.4-0.8-0.4
		c-0.3,0-0.6,0.1-0.8,0.4C76.9,24,76.8,24.4,76.8,24.9z"/>
</g>
</svg>
