<?xml version="1.0" encoding="utf-8"?>
<!-- Generator: Adobe Illustrator 24.0.2, SVG Export Plug-In . SVG Version: 6.00 Build 0)  -->
<svg version="1.1" id="Layer_1" xmlns="http://www.w3.org/2000/svg" xmlns:xlink="http://www.w3.org/1999/xlink" x="0px" y="0px"
	 viewBox="0 0 100 100" style="enable-background:new 0 0 100 100;" xml:space="preserve">
<rect y="0" fill="#105CFB" width="100" height="100"/>
<polygon fill="#fff" points="47.3,77.2 19.8,77.2 19.8,34 47.2,34 47.2,38.9 24.8,38.9 24.8,72.2 42.3,72.2 42.3,56.4 34.7,56.4 
	34.7,51.4 47.3,51.4 "/>
<path fill="#fff" d="M80.2,77.2H52.7V34h27.5V77.2z M57.7,72.2h17.5V38.9H57.7L57.7,72.2z"/>
<path fill="#fff" d="M67.7,27.1h-1.4v-5.1c-0.5,0.5-1.1,0.8-1.8,1v-1.2c0.4-0.2,0.8-0.4,1.2-0.7c0.4-0.3,0.7-0.7,0.9-1.1h1.1
	L67.7,27.1z"/>
<path fill="#fff" d="M72.1,19.9c0.6,0,1.2,0.2,1.6,0.7c0.5,0.9,0.8,1.9,0.7,2.9c0.1,1-0.2,2-0.7,2.9c-0.4,0.5-1,0.8-1.6,0.7
	c-0.6,0-1.3-0.3-1.7-0.8c-0.5-0.8-0.7-1.8-0.6-2.8c-0.1-1,0.2-2,0.7-2.9C70.8,20.2,71.4,19.9,72.1,19.9z M72.1,21.1
	c-0.2,0-0.3,0.1-0.4,0.2c-0.2,0.1-0.3,0.3-0.3,0.6c-0.1,0.6-0.2,1.2-0.1,1.8c0,0.6,0,1.2,0.1,1.7c0,0.2,0.2,0.4,0.3,0.6
	c0.1,0.1,0.3,0.2,0.4,0.2c0.2,0,0.3,0,0.4-0.2c0.2-0.1,0.3-0.3,0.3-0.6c0.1-0.6,0.2-1.2,0.1-1.8c0-0.6,0-1.1-0.1-1.7
	c0-0.2-0.2-0.4-0.3-0.6C72.4,21.1,72.2,21.1,72.1,21.1z"/>
<path fill="#fff" d="M77.9,19.9c0.6,0,1.2,0.2,1.6,0.7c0.5,0.9,0.8,1.9,0.7,2.9c0.1,1-0.2,2-0.7,2.9c-0.4,0.5-1,0.8-1.6,0.7
	c-0.6,0-1.3-0.3-1.7-0.8c-0.5-0.8-0.7-1.8-0.6-2.8c-0.1-1,0.2-2,0.7-2.9C76.7,20.2,77.3,19.9,77.9,19.9z M77.9,21.1
	c-0.2,0-0.3,0.1-0.4,0.2c-0.2,0.1-0.3,0.3-0.3,0.6C77,22.4,77,23,77,23.6c0,0.6,0,1.2,0.1,1.7c0,0.2,0.2,0.4,0.3,0.6
	c0.1,0.1,0.3,0.2,0.4,0.2c0.2,0,0.3,0,0.4-0.2c0.2-0.1,0.3-0.3,0.3-0.6c0.1-0.6,0.2-1.2,0.1-1.8c0-0.6,0-1.1-0.1-1.7
	c0-0.2-0.2-0.4-0.3-0.6C78.2,21.1,78,21.1,77.9,21.1z"/>
<g>
	<path fill="#fff" d="M21.6,26.9v-6.8h2.9c0.5,0,1.1,0.1,1.6,0.2c0.3,0.1,0.6,0.3,0.8,0.7c0.2,0.3,0.3,0.7,0.3,1.1
		c0,0.5-0.2,0.9-0.5,1.3c-0.3,0.4-0.8,0.6-1.3,0.7c0.3,0.2,0.5,0.4,0.8,0.6c0.3,0.3,0.6,0.7,0.8,1.1l0.8,1.3h-1.6l-0.9-1.5
		c-0.2-0.4-0.5-0.7-0.8-1c-0.1-0.2-0.3-0.2-0.5-0.3s-0.4-0.1-0.7-0.1H23v2.8L21.6,26.9L21.6,26.9z M23,22.9h1c0.4,0,0.8,0,1.2-0.1
		c0.2,0,0.3-0.2,0.4-0.3c0.1-0.1,0.2-0.3,0.2-0.5c0-0.2-0.1-0.4-0.2-0.6c-0.1-0.2-0.3-0.2-0.5-0.3H23V22.9z"/>
	<path fill="#fff" d="M31.3,25.4l1.3,0.2c-0.2,0.4-0.4,0.8-0.8,1.1C31.5,26.9,31,27,30.6,27c-0.7,0.1-1.4-0.3-1.9-0.8
		c-0.3-0.5-0.5-1.1-0.5-1.7c-0.1-0.7,0.2-1.4,0.7-1.9c0.4-0.4,1-0.6,1.6-0.7c0.7-0.1,1.3,0.2,1.7,0.8c0.5,0.6,0.7,1.4,0.7,2.3h-3.3
		c0,0.3,0.1,0.7,0.3,0.9c0.2,0.2,0.5,0.3,0.8,0.3c0.2,0,0.4,0,0.5-0.2C31.1,25.8,31.2,25.5,31.3,25.4z M31.4,23.9
		c0-0.3-0.1-0.6-0.3-0.8c-0.2-0.2-0.4-0.3-0.7-0.3c-0.2,0-0.5,0.1-0.7,0.3c-0.2,0.2-0.3,0.5-0.3,0.8L31.4,23.9z"/>
	<path fill="#fff" d="M34.6,26.9l-1.6-5h1.2l0.9,3.2l0.8-3.2h1.2l0.8,3.2l0.9-3.2h1.3l-1.5,5h-1.2l-0.8-3.2l-0.8,3.2L34.6,26.9z"/>
	<path fill="#fff" d="M42,23.5l-1.1-0.2c0.1-0.4,0.3-0.8,0.7-1c0.4-0.2,0.9-0.4,1.4-0.4c0.4,0,0.9,0.1,1.3,0.2
		c0.3,0.2,0.5,0.3,0.6,0.6C45,23,45,23.4,45,23.8v1.5c0,0.3,0,0.6,0.1,0.9c0,0.2,0.1,0.5,0.2,0.7H44c0-0.1-0.1-0.2-0.1-0.4v-0.2
		c-0.2,0.2-0.4,0.3-0.7,0.5c-0.3,0.1-0.6,0.2-0.8,0.2c-0.5,0-0.9-0.2-1.2-0.5c-0.3-0.3-0.5-0.6-0.5-1c0-0.3,0.1-0.5,0.2-0.8
		c0.1-0.2,0.3-0.4,0.6-0.5c0.3-0.1,0.7-0.2,1-0.3c0.4,0,0.8-0.1,1.2-0.3v-0.1c0-0.2-0.1-0.4-0.2-0.6c-0.2-0.1-0.4-0.2-0.7-0.2
		c-0.2,0-0.5,0-0.6,0.2C42.1,23.1,42.1,23.3,42,23.5z M43.8,24.5c-0.3,0-0.5,0.1-0.8,0.2c-0.4,0.1-0.6,0.2-0.7,0.2
		c-0.2,0.1-0.3,0.3-0.3,0.5c0,0.4,0.3,0.6,0.6,0.7c0,0,0,0,0,0c0.2,0,0.5-0.1,0.7-0.2c0.2-0.1,0.3-0.3,0.3-0.5v-0.7L43.8,24.5
		L43.8,24.5z"/>
	<path fill="#fff" d="M47.5,26.9h-1.3v-5h1.2v0.7c0.1-0.3,0.3-0.5,0.6-0.7c0.2-0.1,0.4-0.2,0.6-0.2c0.3,0,0.6,0.1,0.8,0.2L49,23
		c-0.2-0.1-0.4-0.2-0.7-0.2c-0.2,0-0.4,0-0.5,0.2c-0.1,0.2-0.2,0.4-0.3,0.6c-0.1,0.6-0.1,1.1-0.1,1.7L47.5,26.9L47.5,26.9z"/>
	<path fill="#fff" d="M54.5,26.9h-1.2v-0.8c-0.2,0.2-0.4,0.5-0.7,0.7c-0.3,0.2-0.6,0.2-0.8,0.2c-0.5,0-1.1-0.2-1.4-0.7
		c-0.4-0.5-0.6-1.2-0.6-1.9c-0.1-0.7,0.1-1.3,0.6-1.9c0.4-0.4,0.9-0.7,1.5-0.7c0.5,0,1.1,0.2,1.4,0.7v-2.4h1.3
		C54.6,20.1,54.5,26.9,54.5,26.9z M51,24.3c0,0.4,0,0.8,0.2,1.1c0.2,0.4,0.5,0.5,0.9,0.5c0.3,0,0.6-0.1,0.8-0.4
		c0.2-0.3,0.3-0.7,0.3-1.1c0-0.4-0.1-0.9-0.3-1.2c-0.3-0.4-0.9-0.5-1.3-0.2c-0.1,0.1-0.1,0.1-0.2,0.2C51.1,23.5,51,23.9,51,24.3z"/>
	<path fill="#fff" d="M62.6,20.2l-0.3,1.3c-0.3-0.3-0.7-0.4-1.1-0.4c-0.5,0-0.9,0.2-1.2,0.6c-0.2,0.2-0.3,0.5-0.4,0.8h2.5L62,23.2
		h-2.5v0.7h2.3l-0.2,0.8h-2.1c0,0.3,0.2,0.5,0.4,0.8c0.3,0.4,0.7,0.6,1.2,0.6c0.5,0,1-0.2,1.4-0.6v1.4c-0.4,0.2-0.9,0.3-1.4,0.3
		c-0.9,0-1.7-0.3-2.3-0.9c-0.4-0.4-0.7-1-0.8-1.6h-0.7l0.2-0.8h0.5v-0.6h-0.7l0.2-0.8h0.6c0.1-0.6,0.4-1.1,0.8-1.6
		c0.6-0.6,1.4-1,2.3-0.9C61.8,19.9,62.2,20,62.6,20.2z"/>
</g>
</svg>
