<?xml version="1.0" encoding="utf-8"?>
<!-- Generator: Adobe Illustrator 24.0.2, SVG Export Plug-In . SVG Version: 6.00 Build 0)  -->
<svg version="1.1" id="Layer_1" xmlns="http://www.w3.org/2000/svg" xmlns:xlink="http://www.w3.org/1999/xlink" x="0px" y="0px"
	 viewBox="0 0 100 100" style="enable-background:new 0 0 100 100;" xml:space="preserve">
<rect y="0" fill="#105CFB" width="100" height="100"/>
<polygon fill="#ffffff" points="47.3,77.2 19.8,77.2 19.8,34 47.2,34 47.2,38.9 24.8,38.9 24.8,72.2 42.3,72.2 42.3,56.4 34.7,56.4 
	34.7,51.4 47.3,51.4 "/>
<path fill="#ffffff" d="M80.2,77.2H52.7V34h27.5V77.2z M57.7,72.2h17.5V38.9H57.7L57.7,72.2z"/>
<g>
	<path fill="#ffffff" d="M64.8,27.5h-1.3v-5c-0.5,0.4-1.1,0.8-1.7,1v-1.2c0.4-0.1,0.8-0.4,1.1-0.6c0.4-0.3,0.7-0.7,0.8-1.1h1.1
		L64.8,27.5z"/>
	<path fill="#ffffff" d="M69,20.6c0.6,0,1.2,0.2,1.6,0.7c0.5,0.8,0.8,1.8,0.7,2.8c0.1,1-0.2,2-0.7,2.8c-0.4,0.5-1,0.7-1.6,0.7
		c-0.6,0-1.2-0.3-1.6-0.8c-0.5-0.8-0.7-1.8-0.6-2.7c-0.1-1,0.2-2,0.7-2.8C67.9,20.9,68.4,20.6,69,20.6z M69,21.7
		c-0.2,0-0.3,0.1-0.4,0.2c-0.2,0.1-0.3,0.3-0.3,0.5c-0.1,0.6-0.2,1.1-0.1,1.7c0,0.6,0,1.1,0.1,1.7c0,0.2,0.1,0.4,0.3,0.6
		c0.1,0.1,0.3,0.1,0.4,0.1c0.2,0,0.3,0,0.4-0.1c0.2-0.1,0.3-0.3,0.3-0.5c0.1-0.6,0.2-1.1,0.1-1.7c0-0.5,0-1.1-0.1-1.6
		c0-0.2-0.1-0.4-0.3-0.6C69.3,21.8,69.2,21.7,69,21.7z"/>
	<g>
		<path fill="#ffffff" d="M20.3,27.3v-6.5h2.8c0.5,0,1,0.1,1.5,0.2c0.3,0.1,0.6,0.3,0.7,0.6c0.2,0.3,0.3,0.7,0.3,1.1
			c0,0.5-0.2,0.9-0.5,1.3c-0.3,0.4-0.8,0.6-1.3,0.6c0.3,0.2,0.5,0.3,0.7,0.5c0.3,0.3,0.5,0.7,0.7,1.1l0.8,1.3h-1.5l-0.9-1.5
			c-0.2-0.4-0.5-0.7-0.7-1c-0.1-0.2-0.3-0.2-0.5-0.3c-0.2-0.1-0.4-0.1-0.6-0.1h-0.3v2.7L20.3,27.3L20.3,27.3z M21.6,23.5h1
			c0.4,0,0.8,0,1.2-0.1c0.2,0,0.3-0.2,0.4-0.3c0.1-0.1,0.2-0.3,0.2-0.5c0-0.2-0.1-0.4-0.2-0.5c-0.1-0.2-0.3-0.2-0.5-0.3h-2.1V23.5z"
			/>
		<path fill="#ffffff" d="M29.6,25.9l1.3,0.2c-0.2,0.4-0.4,0.8-0.7,1.1c-0.4,0.2-0.8,0.3-1.3,0.4c-0.7,0.1-1.4-0.2-1.8-0.8
			c-0.3-0.5-0.5-1.1-0.5-1.6c-0.1-0.7,0.2-1.3,0.6-1.8c0.4-0.4,1-0.6,1.5-0.6c0.6-0.1,1.3,0.2,1.6,0.7c0.5,0.6,0.7,1.4,0.6,2.2h-3.2
			c0,0.3,0.1,0.6,0.3,0.9c0.2,0.2,0.5,0.3,0.7,0.3c0.2,0,0.4,0,0.5-0.2S29.5,26.1,29.6,25.9z M29.7,24.5c0-0.3-0.1-0.6-0.3-0.8
			c-0.2-0.2-0.4-0.3-0.7-0.3c-0.2,0-0.5,0.1-0.6,0.3c-0.2,0.2-0.3,0.5-0.3,0.8L29.7,24.5z"/>
		<path fill="#ffffff" d="M32.8,27.3l-1.5-4.8h1.1l0.9,3.1l0.8-3.1h1.2l0.8,3.1l0.9-3.1h1.3l-1.5,4.8h-1.2l-0.8-3.1L34,27.3L32.8,27.3z
			"/>
		<path fill="#ffffff" d="M40,24.1l-1.1-0.2c0.1-0.4,0.3-0.8,0.6-1c0.4-0.2,0.9-0.4,1.4-0.4c0.4,0,0.9,0.1,1.3,0.2
			c0.3,0.2,0.5,0.3,0.5,0.5c0.1,0.3,0.2,0.7,0.2,1.1v1.5c0,0.3,0,0.6,0.1,0.9c0,0.2,0.1,0.4,0.2,0.6h-1.3c0-0.1-0.1-0.2-0.1-0.4
			v-0.2c-0.2,0.2-0.4,0.3-0.6,0.5c-0.3,0.1-0.5,0.2-0.8,0.2c-0.4,0-0.9-0.2-1.2-0.5c-0.3-0.3-0.4-0.6-0.5-1c0-0.3,0.1-0.5,0.2-0.7
			c0.1-0.2,0.3-0.4,0.5-0.5c0.3-0.1,0.7-0.2,1-0.3c0.4,0,0.8-0.1,1.2-0.3v-0.1c0-0.2-0.1-0.4-0.2-0.5c-0.2-0.1-0.4-0.2-0.6-0.2
			c-0.2,0-0.5,0-0.5,0.2C40.1,23.7,40,23.9,40,24.1z M41.7,25.1c-0.2,0-0.5,0.1-0.7,0.2c-0.4,0.1-0.5,0.2-0.6,0.2
			c-0.2,0.1-0.3,0.3-0.3,0.5c0,0.3,0.3,0.6,0.6,0.6c0,0,0,0,0,0c0.2,0,0.4-0.1,0.6-0.2c0.2-0.1,0.3-0.3,0.3-0.5v-0.6L41.7,25.1
			L41.7,25.1z"/>
		<path fill="#ffffff" d="M45.3,27.3H44v-4.8h1.2v0.6c0.1-0.3,0.3-0.5,0.5-0.6c0.2-0.1,0.4-0.2,0.5-0.2c0.3,0,0.6,0.1,0.8,0.2l-0.4,1.1
			c-0.2-0.1-0.4-0.2-0.6-0.2c-0.2,0-0.4,0-0.5,0.2c-0.1,0.2-0.2,0.3-0.3,0.5c-0.1,0.5-0.1,1.1-0.1,1.6L45.3,27.3L45.3,27.3z"/>
		<path fill="#ffffff" d="M52,27.3h-1.2v-0.7c-0.2,0.2-0.4,0.4-0.6,0.6c-0.2,0.1-0.5,0.2-0.8,0.2c-0.5,0-1-0.2-1.4-0.6
			c-0.4-0.5-0.6-1.2-0.5-1.8c-0.1-0.7,0.1-1.3,0.5-1.8c0.4-0.4,0.9-0.7,1.5-0.6c0.5,0,1,0.2,1.4,0.6v-2.4h1.3
			C52.1,20.8,52,27.3,52,27.3z M48.7,24.9c0,0.4,0,0.7,0.2,1.1c0.2,0.4,0.5,0.5,0.9,0.5c0.3,0,0.6-0.1,0.7-0.4
			c0.2-0.3,0.3-0.7,0.3-1.1c0-0.4-0.1-0.8-0.3-1.2c-0.3-0.4-0.9-0.5-1.3-0.2c-0.1,0.1-0.1,0.1-0.2,0.2
			C48.8,24.1,48.6,24.5,48.7,24.9z"/>
		<path fill="#ffffff" d="M59.9,20.9l-0.3,1.3c-0.3-0.3-0.7-0.4-1.1-0.4c-0.5,0-0.9,0.2-1.2,0.5c-0.2,0.2-0.3,0.5-0.4,0.7h2.4l-0.2,0.7
			h-2.4v0.6h2.3L59,25.2h-2c0,0.3,0.2,0.5,0.4,0.7c0.3,0.4,0.7,0.6,1.2,0.5c0.5,0,1-0.2,1.4-0.5v1.4c-0.4,0.2-0.9,0.3-1.4,0.3
			c-0.8,0-1.6-0.3-2.2-0.9c-0.4-0.4-0.6-1-0.7-1.5H55l0.2-0.7h0.5v-0.5H55l0.2-0.7h0.5c0.1-0.6,0.3-1.1,0.7-1.5
			c0.6-0.6,1.4-1,2.2-0.9C59.1,20.6,59.5,20.7,59.9,20.9z"/>
	</g>
	<g>
		<path fill="#ffffff" d="M72.8,22.8H74v0.6c0.5-0.5,0.9-0.7,1.5-0.7c0.3,0,0.5,0.1,0.8,0.2c0.2,0.1,0.4,0.3,0.5,0.5
			c0.2-0.3,0.5-0.5,0.6-0.5c0.3-0.1,0.5-0.2,0.7-0.2c0.4,0,0.6,0.1,0.9,0.2c0.3,0.2,0.5,0.4,0.5,0.6c0.1,0.2,0.1,0.5,0.1,1v3h-1.3
			v-2.7c0-0.5,0-0.7-0.1-0.9c-0.1-0.2-0.3-0.3-0.5-0.3c-0.2,0-0.4,0.1-0.5,0.2c-0.2,0.1-0.3,0.3-0.4,0.5c-0.1,0.2-0.1,0.5-0.1,1v2.3
			h-1.3V25c0-0.5,0-0.7-0.1-0.9c-0.1-0.2-0.1-0.3-0.2-0.3c-0.1-0.1-0.2-0.1-0.4-0.1c-0.2,0-0.4,0.1-0.5,0.2
			c-0.2,0.1-0.3,0.3-0.4,0.5c-0.1,0.2-0.1,0.5-0.1,1v2.3h-1.2V22.8z"/>
	</g>
</g>
</svg>
