<?xml version="1.0" encoding="utf-8"?>
<!-- Generator: Adobe Illustrator 24.0.2, SVG Export Plug-In . SVG Version: 6.00 Build 0)  -->
<svg version="1.1" id="Layer_1" xmlns="http://www.w3.org/2000/svg" xmlns:xlink="http://www.w3.org/1999/xlink" x="0px" y="0px"
	 viewBox="0 0 100 100" style="enable-background:new 0 0 100 100;" xml:space="preserve">
<rect y="0" fill="#105CFB" width="100" height="100"/>
<polygon fill="#fff" points="47.3,77.2 19.8,77.2 19.8,34 47.2,34 47.2,38.9 24.8,38.9 24.8,72.2 42.3,72.2 42.3,56.4 34.7,56.4 
	34.7,51.4 47.3,51.4 "/>
<path fill="#fff" d="M80.2,77.2H52.7V34h27.5V77.2z M57.7,72.2h17.5V38.9H57.7L57.7,72.2z"/>
<path fill="#fff" d="M63.8,27.9h-1.3v-4.9c-0.5,0.4-1.1,0.8-1.7,1v-1.2c0.4-0.1,0.8-0.4,1.1-0.6c0.4-0.3,0.6-0.7,0.8-1.1h1
	L63.8,27.9z"/>
<path fill="#fff" d="M67.5,21.2c0.6,0,1.2,0.2,1.5,0.7c0.5,0.8,0.7,1.8,0.7,2.8c0.1,1-0.1,1.9-0.7,2.8c-0.4,0.5-0.9,0.7-1.5,0.7
	c-0.6,0-1.2-0.3-1.6-0.8c-0.5-0.8-0.7-1.7-0.6-2.7c-0.1-1,0.1-1.9,0.7-2.8C66.4,21.4,66.9,21.1,67.5,21.2z M67.5,22.2
	c-0.2,0-0.3,0.1-0.4,0.2c-0.2,0.1-0.3,0.3-0.3,0.5c-0.1,0.6-0.2,1.1-0.1,1.7c0,0.5,0,1.1,0.1,1.6c0,0.2,0.1,0.4,0.3,0.6
	c0.1,0.1,0.3,0.1,0.4,0.1c0.2,0,0.3,0,0.4-0.1c0.2-0.1,0.3-0.3,0.3-0.5c0.1-0.6,0.2-1.1,0.1-1.7c0-0.5,0-1.1-0.1-1.6
	c0-0.2-0.1-0.4-0.3-0.6C67.8,22.3,67.7,22.2,67.5,22.2z"/>
<path fill="#fff" d="M72.8,21.2c0.6,0,1.2,0.2,1.5,0.7c0.5,0.8,0.7,1.8,0.7,2.8c0.1,1-0.1,1.9-0.7,2.8c-0.4,0.5-0.9,0.7-1.5,0.7
	c-0.6,0-1.2-0.3-1.6-0.8c-0.5-0.8-0.7-1.7-0.6-2.7c-0.1-1,0.1-1.9,0.7-2.8C71.6,21.4,72.2,21.1,72.8,21.2z M72.8,22.2
	c-0.2,0-0.3,0.1-0.4,0.2c-0.2,0.1-0.3,0.3-0.3,0.5c-0.1,0.6-0.2,1.1-0.1,1.7c0,0.5,0,1.1,0.1,1.6c0,0.2,0.1,0.4,0.3,0.6
	c0.1,0.1,0.3,0.1,0.4,0.1c0.2,0,0.3,0,0.4-0.1c0.2-0.1,0.3-0.3,0.3-0.5c0.1-0.6,0.2-1.1,0.1-1.7c0-0.5,0-1.1-0.1-1.6
	c0-0.2-0.1-0.4-0.3-0.6C73.1,22.3,72.9,22.2,72.8,22.2z"/>
<path fill="#fff" d="M78,21.2c0.6,0,1.2,0.2,1.5,0.7c0.5,0.8,0.7,1.8,0.7,2.8c0.1,1-0.1,1.9-0.7,2.8c-0.4,0.5-0.9,0.7-1.5,0.7
	c-0.6,0-1.2-0.3-1.6-0.8c-0.5-0.8-0.7-1.7-0.6-2.7c-0.1-1,0.1-1.9,0.7-2.8C76.8,21.4,77.4,21.1,78,21.2z M78,22.2
	c-0.2,0-0.3,0.1-0.4,0.2c-0.2,0.1-0.3,0.3-0.3,0.5c-0.1,0.6-0.2,1.1-0.1,1.7c0,0.5,0,1.1,0.1,1.6c0,0.2,0.1,0.4,0.3,0.6
	c0.1,0.1,0.3,0.1,0.4,0.1c0.2,0,0.3,0,0.4-0.1c0.2-0.1,0.3-0.3,0.3-0.5c0.1-0.6,0.2-1.1,0.1-1.7c0-0.5,0-1.1-0.1-1.6
	c0-0.2-0.1-0.4-0.3-0.6C78.3,22.3,78.1,22.2,78,22.2z"/>
<g>
	<path fill="#fff" d="M19.8,27.8v-6.4h2.8c0.5,0,1,0.1,1.5,0.2c0.3,0.1,0.6,0.3,0.7,0.6c0.2,0.3,0.3,0.7,0.3,1.1
		c0,0.5-0.2,0.9-0.4,1.3c-0.3,0.4-0.8,0.6-1.3,0.6c0.3,0.2,0.5,0.3,0.7,0.5c0.3,0.3,0.5,0.7,0.7,1.1l0.8,1.3h-1.5l-0.9-1.4
		c-0.2-0.3-0.4-0.7-0.7-1c-0.1-0.2-0.3-0.2-0.4-0.3c-0.2-0.1-0.4-0.1-0.6-0.1h-0.3v2.7L19.8,27.8L19.8,27.8z M21.1,24h1
		c0.4,0,0.8,0,1.2-0.1c0.2,0,0.3-0.2,0.4-0.3c0.1-0.1,0.2-0.3,0.2-0.4c0-0.2-0.1-0.4-0.2-0.5c-0.1-0.2-0.3-0.2-0.4-0.3h-2.1V24z"/>
	<path fill="#fff" d="M29,26.3l1.3,0.2c-0.2,0.4-0.4,0.8-0.7,1.1c-0.4,0.2-0.8,0.3-1.3,0.4c-0.7,0.1-1.4-0.2-1.8-0.8
		c-0.3-0.5-0.4-1-0.4-1.6c-0.1-0.7,0.2-1.3,0.6-1.8c0.4-0.4,1-0.6,1.5-0.6c0.6-0.1,1.2,0.2,1.6,0.7c0.5,0.6,0.7,1.4,0.6,2.1h-3.2
		c0,0.3,0.1,0.6,0.3,0.9c0.2,0.2,0.5,0.3,0.7,0.3c0.2,0,0.4,0,0.4-0.2S28.9,26.5,29,26.3z M29.1,25c0-0.3-0.1-0.6-0.3-0.8
		c-0.2-0.2-0.4-0.3-0.7-0.3c-0.2,0-0.5,0.1-0.6,0.3c-0.2,0.2-0.3,0.5-0.3,0.8L29.1,25z"/>
	<path fill="#fff" d="M32.2,27.8L30.6,23h1.1l0.9,3l0.8-3h1.2l0.8,3l0.9-3h1.3l-1.4,4.7H35l-0.8-3l-0.8,3L32.2,27.8z"/>
	<path fill="#fff" d="M39.2,24.5l-1.1-0.2c0.1-0.4,0.3-0.7,0.6-1c0.4-0.2,0.9-0.4,1.3-0.4c0.4,0,0.8,0.1,1.3,0.2
		c0.3,0.2,0.4,0.3,0.5,0.5c0.1,0.3,0.2,0.7,0.2,1.1v1.4c0,0.3,0,0.6,0.1,0.9c0,0.2,0.1,0.4,0.2,0.6h-1.3c0-0.1-0.1-0.2-0.1-0.4v-0.2
		c-0.2,0.2-0.4,0.3-0.6,0.4c-0.3,0.1-0.5,0.2-0.8,0.2c-0.4,0-0.8-0.2-1.2-0.4c-0.3-0.3-0.4-0.6-0.4-1c0-0.2,0.1-0.5,0.2-0.7
		c0.1-0.2,0.3-0.4,0.5-0.4c0.3-0.1,0.6-0.2,1-0.3c0.4,0,0.8-0.1,1.2-0.3v-0.1c0-0.2-0.1-0.4-0.2-0.5c-0.2-0.1-0.4-0.2-0.6-0.2
		c-0.2,0-0.4,0-0.5,0.2C39.4,24.2,39.3,24.4,39.2,24.5z M40.9,25.5c-0.2,0-0.5,0.1-0.7,0.2c-0.4,0.1-0.5,0.2-0.6,0.2
		c-0.2,0.1-0.3,0.3-0.3,0.4c0,0.3,0.3,0.6,0.6,0.6c0,0,0,0,0,0c0.2,0,0.4-0.1,0.6-0.2c0.2-0.1,0.3-0.3,0.3-0.4v-0.6L40.9,25.5
		L40.9,25.5z"/>
	<path fill="#fff" d="M44.5,27.8h-1.3V23h1.2v0.6c0.1-0.3,0.3-0.5,0.5-0.6c0.2-0.1,0.3-0.2,0.5-0.2c0.3,0,0.5,0.1,0.8,0.2l-0.4,1.1
		c-0.2-0.1-0.4-0.2-0.6-0.2c-0.2,0-0.4,0-0.4,0.2c-0.1,0.2-0.2,0.3-0.3,0.5c-0.1,0.5-0.1,1.1-0.1,1.6V27.8L44.5,27.8z"/>
	<path fill="#fff" d="M51.1,27.8H50V27c-0.2,0.2-0.4,0.4-0.6,0.6c-0.2,0.1-0.5,0.2-0.8,0.2c-0.5,0-1-0.2-1.3-0.6
		c-0.4-0.5-0.6-1.2-0.5-1.8c-0.1-0.6,0.1-1.3,0.5-1.8c0.4-0.4,0.9-0.6,1.4-0.6c0.5,0,1,0.2,1.3,0.6v-2.3h1.3
		C51.2,21.3,51.1,27.8,51.1,27.8z M47.8,25.3c0,0.4,0,0.7,0.2,1.1c0.2,0.4,0.4,0.4,0.9,0.4c0.3,0,0.6-0.1,0.7-0.4
		c0.2-0.3,0.3-0.7,0.3-1.1c0-0.4-0.1-0.8-0.3-1.2c-0.3-0.4-0.9-0.5-1.3-0.2c-0.1,0.1-0.1,0.1-0.2,0.2C47.9,24.6,47.8,24.9,47.8,25.3
		z"/>
	<path fill="#fff" d="M58.9,21.4l-0.3,1.3c-0.3-0.3-0.7-0.4-1.1-0.4c-0.5,0-0.9,0.2-1.2,0.5c-0.2,0.2-0.3,0.5-0.4,0.7h2.4l-0.2,0.7
		h-2.4v0.6h2.2L58,25.6h-2c0,0.3,0.2,0.5,0.4,0.7c0.3,0.4,0.7,0.6,1.2,0.5c0.5,0,1-0.2,1.3-0.5v1.3c-0.4,0.2-0.9,0.3-1.3,0.3
		c-0.8,0-1.6-0.3-2.1-0.9c-0.4-0.4-0.6-1-0.7-1.5h-0.6l0.2-0.7h0.4v-0.5h-0.6l0.2-0.7h0.5c0.1-0.6,0.3-1.1,0.7-1.5
		c0.5-0.6,1.3-0.9,2.1-0.9C58.1,21.1,58.5,21.2,58.9,21.4z"/>
</g>
</svg>
