<?xml version="1.0" encoding="utf-8"?>
<!-- Generator: Adobe Illustrator 24.0.2, SVG Export Plug-In . SVG Version: 6.00 Build 0)  -->
<svg version="1.1" id="Layer_1" xmlns="http://www.w3.org/2000/svg" xmlns:xlink="http://www.w3.org/1999/xlink" x="0px" y="0px"
	 viewBox="0 0 100 100" style="enable-background:new 0 0 100 100;" xml:space="preserve">
<rect y="0" fill="#105CFB" width="100" height="100"/>
<polygon fill="#ffffff" points="47.3,77.2 19.8,77.2 19.8,34 47.2,34 47.2,38.9 24.8,38.9 24.8,72.2 42.3,72.2 42.3,56.4 34.7,56.4 
	34.7,51.4 47.3,51.4 "/>
<path fill="#ffffff" d="M80.2,77.2H52.7V34h27.5V77.2z M57.7,72.2h17.5V38.9H57.7L57.7,72.2z"/>
<g>
	<path fill="#ffffff" d="M67.9,27.5h-1.4v-5.5c-0.5,0.5-1.2,0.9-1.9,1.1v-1.3c0.4-0.2,0.9-0.4,1.2-0.7c0.4-0.3,0.7-0.7,0.9-1.2h1.2
		L67.9,27.5z"/>
	<path fill="#ffffff" d="M72.5,19.9c0.7,0,1.3,0.3,1.7,0.8c0.6,0.9,0.8,2,0.7,3.1c0.1,1.1-0.2,2.2-0.7,3.1c-0.4,0.5-1.1,0.8-1.7,0.8
		c-0.7,0-1.3-0.3-1.8-0.9c-0.5-0.9-0.8-2-0.7-3c-0.1-1.1,0.2-2.2,0.7-3.1C71.2,20.2,71.9,19.9,72.5,19.9z M72.5,21.1
		c-0.2,0-0.3,0.1-0.5,0.2c-0.2,0.2-0.3,0.4-0.3,0.6c-0.1,0.6-0.2,1.3-0.2,1.9c0,0.6,0,1.2,0.1,1.8c0,0.2,0.2,0.5,0.3,0.7
		c0.1,0.1,0.3,0.2,0.5,0.2c0.2,0,0.3-0.1,0.5-0.2c0.2-0.2,0.3-0.4,0.3-0.6c0.1-0.6,0.2-1.3,0.2-1.9c0-0.6,0-1.2-0.1-1.8
		c0-0.2-0.2-0.5-0.3-0.7C72.9,21.2,72.7,21.1,72.5,21.1z"/>
	<g>
		<path fill="#ffffff" d="M18.8,27.3v-7.2h3.1c0.6,0,1.1,0.1,1.7,0.2c0.3,0.1,0.6,0.4,0.8,0.7c0.2,0.4,0.3,0.8,0.3,1.2
			c0,0.5-0.2,1-0.5,1.4c-0.4,0.4-0.9,0.7-1.4,0.7c0.3,0.2,0.6,0.4,0.8,0.6c0.3,0.4,0.6,0.8,0.8,1.2l0.9,1.4h-1.7l-1-1.6
			c-0.2-0.4-0.5-0.8-0.8-1.1c-0.1-0.2-0.3-0.2-0.5-0.3s-0.4-0.1-0.7-0.1h-0.3v3h-1.5L18.8,27.3z M20.3,23.1h1.1c0.4,0,0.9,0,1.3-0.1
			c0.2,0,0.3-0.2,0.4-0.3c0.1-0.1,0.2-0.3,0.2-0.5c0-0.2-0.1-0.4-0.2-0.6c-0.1-0.2-0.3-0.2-0.5-0.3h-2.3V23.1z"/>
		<path fill="#ffffff" d="M29.1,25.7l1.4,0.2c-0.2,0.4-0.5,0.9-0.8,1.2c-0.4,0.2-0.9,0.4-1.4,0.4c-0.8,0.1-1.5-0.3-2-0.9
			c-0.3-0.5-0.5-1.2-0.5-1.8c-0.1-0.7,0.2-1.5,0.7-2c0.5-0.4,1.1-0.7,1.7-0.7c0.7-0.1,1.4,0.2,1.8,0.8c0.5,0.7,0.8,1.5,0.7,2.4h-3.5
			c0,0.4,0.1,0.7,0.3,1c0.2,0.2,0.5,0.3,0.8,0.3c0.2,0,0.4,0,0.5-0.2S29,25.9,29.1,25.7z M29.2,24.2c0-0.3-0.1-0.7-0.3-0.9
			c-0.2-0.2-0.5-0.3-0.7-0.3c-0.3,0-0.5,0.1-0.7,0.3c-0.2,0.2-0.3,0.6-0.3,0.9L29.2,24.2z"/>
		<path fill="#ffffff" d="M32.6,27.3L30.9,22h1.3l1,3.4L34,22h1.3l0.9,3.4l1-3.4h1.4L37,27.3h-1.3l-0.9-3.4l-0.9,3.4L32.6,27.3z"/>
		<path fill="#ffffff" d="M40.5,23.7l-1.2-0.2c0.1-0.4,0.3-0.8,0.7-1.1c0.5-0.3,1-0.4,1.5-0.4c0.5,0,0.9,0.1,1.4,0.2
			c0.3,0.2,0.5,0.3,0.6,0.6c0.2,0.4,0.2,0.8,0.2,1.2v1.6c0,0.3,0,0.7,0.1,1c0,0.2,0.1,0.5,0.2,0.7h-1.4c0-0.1-0.1-0.2-0.1-0.4v-0.2
			c-0.2,0.2-0.4,0.4-0.7,0.5c-0.3,0.1-0.6,0.2-0.9,0.2c-0.5,0-0.9-0.2-1.3-0.5c-0.3-0.3-0.5-0.7-0.5-1.1c0-0.3,0.1-0.6,0.2-0.8
			c0.1-0.2,0.3-0.4,0.6-0.5c0.4-0.1,0.7-0.2,1.1-0.3c0.4,0,0.9-0.1,1.3-0.3v-0.1c0-0.2-0.1-0.4-0.2-0.6c-0.2-0.1-0.5-0.2-0.7-0.2
			c-0.2,0-0.5,0-0.6,0.2C40.6,23.3,40.5,23.5,40.5,23.7z M42.4,24.8c-0.3,0-0.5,0.1-0.8,0.2c-0.4,0.1-0.6,0.2-0.7,0.2
			c-0.2,0.1-0.3,0.3-0.3,0.5c0,0.4,0.3,0.7,0.7,0.7c0,0,0,0,0,0c0.2,0,0.5-0.1,0.7-0.2c0.2-0.1,0.3-0.3,0.3-0.5V25L42.4,24.8
			L42.4,24.8z"/>
		<path fill="#ffffff" d="M46.4,27.3H45V22h1.3v0.7c0.1-0.3,0.3-0.5,0.6-0.7c0.2-0.1,0.4-0.2,0.6-0.2c0.3,0,0.6,0.1,0.9,0.2L48,23.2
			C47.8,23,47.5,23,47.3,23c-0.2,0-0.4,0-0.5,0.2c-0.1,0.2-0.2,0.4-0.3,0.6c-0.1,0.6-0.1,1.2-0.1,1.8L46.4,27.3L46.4,27.3z"/>
		<path fill="#ffffff" d="M53.8,27.3h-1.3v-0.8c-0.2,0.3-0.4,0.5-0.7,0.7c-0.3,0.2-0.6,0.2-0.9,0.2c-0.6,0-1.1-0.2-1.5-0.7
			c-0.4-0.6-0.6-1.3-0.6-2c-0.1-0.7,0.2-1.4,0.6-2c0.4-0.5,1-0.7,1.6-0.7c0.6,0,1.1,0.2,1.5,0.7v-2.6h1.4
			C53.9,20.1,53.8,27.3,53.8,27.3z M50.1,24.6c0,0.4,0,0.8,0.2,1.2c0.2,0.4,0.5,0.5,1,0.5c0.3,0,0.6-0.1,0.8-0.4
			c0.2-0.4,0.3-0.8,0.3-1.2c0-0.5-0.1-0.9-0.3-1.3c-0.3-0.4-1-0.5-1.4-0.2c-0.1,0.1-0.1,0.1-0.2,0.2C50.2,23.7,50,24.2,50.1,24.6z"
			/>
		<path fill="#ffffff" d="M62.5,20.2l-0.3,1.4c-0.3-0.3-0.8-0.4-1.2-0.4c-0.5,0-1,0.2-1.3,0.6c-0.2,0.2-0.3,0.5-0.4,0.8H62l-0.2,0.8
			h-2.6v0.7h2.5l-0.2,0.8h-2.2c0,0.3,0.2,0.6,0.4,0.8c0.3,0.4,0.8,0.6,1.3,0.6c0.6,0,1.1-0.2,1.5-0.6v1.5c-0.5,0.2-1,0.3-1.5,0.3
			c-0.9,0-1.8-0.3-2.4-1c-0.4-0.5-0.7-1.1-0.8-1.7H57l0.2-0.8h0.5v-0.6H57l0.2-0.8h0.6c0.1-0.6,0.4-1.2,0.8-1.7c0.6-0.7,1.5-1,2.4-1
			C61.5,19.9,62,20,62.5,20.2z"/>
	</g>
	<g>
		<path fill="#ffffff" d="M76.6,27.7v-6.9h1.3v3.7l1.5-1.8h1.6l-1.7,1.8l1.8,3.2h-1.4l-1.3-2.2l-0.6,0.6v1.6H76.6z"/>
	</g>
</g>
</svg>
