<?xml version="1.0" encoding="utf-8"?>
<!-- Generator: Adobe Illustrator 24.0.2, SVG Export Plug-In . SVG Version: 6.00 Build 0)  -->
<svg version="1.1" id="Layer_1" xmlns="http://www.w3.org/2000/svg" xmlns:xlink="http://www.w3.org/1999/xlink" x="0px" y="0px"
	 viewBox="0 0 100 100" style="enable-background:new 0 0 100 100;" xml:space="preserve">
<rect y="0" fill="#105CFB" width="100" height="100"/>
<polygon fill="#FFFFFF" points="47.3,73.7 19.8,73.7 19.8,30.5 47.2,30.5 47.2,35.4 24.8,35.4 24.8,68.7 42.3,68.7 42.3,52.9 
	34.7,52.9 34.7,47.9 47.3,47.9 "/>
<path fill="#FFFFFF" d="M80.2,73.7H52.7V30.5h27.5V73.7z M57.7,68.7h17.5V35.4H57.7L57.7,68.7z"/>
<path fill="#FFFFFF" d="M65.6,86.5l1.4-0.2c0,0.3,0.2,0.6,0.4,0.8c0.2,0.2,0.5,0.3,0.7,0.3c0.3,0,0.6-0.1,0.8-0.3
	c0.2-0.3,0.3-0.6,0.3-0.9c0-0.3-0.1-0.6-0.3-0.9c-0.2-0.2-0.4-0.3-0.7-0.3c-0.2,0-0.5,0-0.7,0.1l0.2-1.2c0.3,0,0.6-0.1,0.9-0.3
	c0.2-0.2,0.3-0.4,0.3-0.7c0-0.2-0.1-0.4-0.2-0.6c-0.2-0.2-0.4-0.2-0.6-0.2c-0.2,0-0.5,0.1-0.6,0.3c-0.2,0.2-0.3,0.5-0.3,0.8
	l-1.3-0.2c0.1-0.4,0.2-0.8,0.4-1.1c0.2-0.3,0.5-0.5,0.8-0.7c0.4-0.2,0.7-0.2,1.1-0.2c0.6,0,1.3,0.2,1.7,0.7c0.3,0.3,0.5,0.8,0.5,1.3
	c0,0.7-0.4,1.3-1.1,1.6c0.4,0.1,0.8,0.3,1,0.6c0.3,0.3,0.4,0.7,0.4,1.2c0,0.6-0.3,1.3-0.7,1.7c-1,0.9-2.5,0.9-3.5,0.1
	C65.9,87.7,65.6,87.1,65.6,86.5z"/>
<path fill="#FFFFFF" d="M71.8,88.5v-1.4h1.4v1.4H71.8z"/>
<path fill="#FFFFFF" d="M79.3,87.2v1.3h-5.1c0.1-0.5,0.2-1,0.5-1.4c0.5-0.7,1-1.3,1.6-1.8c0.4-0.4,0.8-0.8,1.2-1.3
	c0.2-0.3,0.3-0.6,0.3-0.9c0-0.3-0.1-0.5-0.3-0.7c-0.2-0.2-0.5-0.3-0.7-0.3c-0.3,0-0.5,0.1-0.7,0.3c-0.2,0.3-0.3,0.6-0.3,0.9
	l-1.4-0.2c0-0.7,0.3-1.3,0.8-1.7c0.5-0.4,1.1-0.5,1.7-0.5c0.6,0,1.3,0.2,1.8,0.6c0.4,0.4,0.6,0.9,0.6,1.5c0,0.3-0.1,0.7-0.2,1
	c-0.1,0.4-0.3,0.7-0.6,1c-0.3,0.4-0.6,0.7-1,1c-0.4,0.4-0.7,0.7-0.9,0.8c-0.1,0.1-0.2,0.3-0.3,0.4L79.3,87.2z"/>
<g>
	<path fill="#FFFFFF" d="M20.2,88.3v-7.2h3.1c0.6,0,1.1,0.1,1.7,0.2c0.3,0.1,0.6,0.4,0.8,0.7c0.2,0.4,0.3,0.8,0.3,1.2
		c0,0.5-0.2,1-0.5,1.4c-0.4,0.4-0.9,0.7-1.4,0.7c0.3,0.2,0.6,0.4,0.8,0.6c0.3,0.4,0.6,0.8,0.8,1.2l0.9,1.4H25l-1-1.6
		c-0.2-0.4-0.5-0.8-0.8-1.1c-0.1-0.2-0.3-0.2-0.5-0.3s-0.4-0.1-0.7-0.1h-0.3v3L20.2,88.3L20.2,88.3z M21.7,84.1h1.1
		c0.4,0,0.9,0,1.3-0.1c0.2,0,0.3-0.2,0.4-0.3c0.1-0.1,0.2-0.3,0.2-0.5c0-0.2-0.1-0.4-0.2-0.6c-0.1-0.2-0.3-0.2-0.5-0.3h-2.3V84.1z"
		/>
	<path fill="#FFFFFF" d="M30.5,86.7l1.4,0.2c-0.2,0.4-0.5,0.9-0.8,1.2c-0.4,0.2-0.9,0.4-1.4,0.4c-0.8,0.1-1.5-0.3-2-0.9
		c-0.3-0.5-0.5-1.2-0.5-1.8c-0.1-0.7,0.2-1.5,0.7-2c0.5-0.4,1.1-0.7,1.7-0.7c0.7-0.1,1.4,0.2,1.8,0.8c0.5,0.7,0.8,1.5,0.7,2.4h-3.5
		c0,0.4,0.1,0.7,0.3,1c0.2,0.2,0.5,0.3,0.8,0.3c0.2,0,0.4,0,0.5-0.2S30.4,86.9,30.5,86.7z M30.6,85.2c0-0.3-0.1-0.7-0.3-0.9
		c-0.2-0.2-0.4-0.3-0.7-0.3c-0.3,0-0.5,0.1-0.7,0.3c-0.2,0.2-0.3,0.6-0.3,0.9H30.6z"/>
	<path fill="#FFFFFF" d="M34,88.3L32.3,83h1.3l1,3.4l0.9-3.4h1.3l0.9,3.4l1-3.4h1.4l-1.6,5.3h-1.3l-0.9-3.4l-0.9,3.4L34,88.3z"/>
	<path fill="#FFFFFF" d="M41.9,84.7l-1.2-0.2c0.1-0.4,0.3-0.8,0.7-1.1c0.5-0.3,1-0.4,1.5-0.4c0.5,0,1,0.1,1.4,0.2
		c0.3,0.2,0.5,0.3,0.6,0.6c0.2,0.4,0.2,0.8,0.2,1.2v1.6c0,0.3,0,0.7,0.1,1c0,0.2,0.1,0.5,0.2,0.7H44c0-0.1-0.1-0.2-0.1-0.4v-0.2
		c-0.2,0.2-0.4,0.4-0.7,0.5c-0.3,0.1-0.6,0.2-0.9,0.2c-0.5,0-0.9-0.2-1.3-0.5c-0.3-0.3-0.5-0.7-0.5-1.1c0-0.3,0.1-0.6,0.2-0.8
		c0.1-0.2,0.3-0.4,0.6-0.5c0.4-0.1,0.7-0.2,1.1-0.3c0.4,0,0.9-0.1,1.3-0.3v-0.1c0-0.2-0.1-0.4-0.2-0.6C43.3,84.1,43,84,42.8,84
		c-0.2,0-0.5,0-0.6,0.2C42.1,84.3,41.9,84.5,41.9,84.7z M43.8,85.8c-0.3,0-0.5,0.1-0.8,0.2c-0.4,0.1-0.6,0.2-0.7,0.2
		c-0.2,0.1-0.3,0.3-0.3,0.5c0,0.4,0.3,0.7,0.7,0.7c0,0,0,0,0,0c0.2,0,0.5-0.1,0.7-0.2c0.2-0.1,0.3-0.3,0.3-0.5V86L43.8,85.8
		L43.8,85.8z"/>
	<path fill="#FFFFFF" d="M47.8,88.3h-1.4V83h1.3v0.7c0.1-0.3,0.3-0.5,0.6-0.7c0.2-0.1,0.4-0.2,0.6-0.2c0.3,0,0.6,0.1,0.9,0.2l-0.4,1.2
		C49.2,84,48.9,84,48.7,84c-0.2,0-0.4,0-0.5,0.2c-0.1,0.2-0.2,0.4-0.3,0.6c-0.1,0.6-0.1,1.2-0.1,1.8L47.8,88.3L47.8,88.3z"/>
	<path fill="#FFFFFF" d="M55.2,88.3h-1.3v-0.8c-0.2,0.3-0.4,0.5-0.7,0.7c-0.3,0.2-0.6,0.2-0.9,0.2c-0.6,0-1.1-0.2-1.5-0.7
		c-0.4-0.6-0.6-1.3-0.6-2c-0.1-0.7,0.2-1.4,0.6-2c0.4-0.5,1-0.7,1.6-0.7c0.6,0,1.1,0.2,1.5,0.7v-2.6h1.4
		C55.3,81.1,55.2,88.3,55.2,88.3z M51.5,85.6c0,0.4,0,0.8,0.2,1.2c0.2,0.4,0.5,0.5,1,0.5c0.3,0,0.6-0.1,0.8-0.4
		c0.2-0.4,0.3-0.8,0.3-1.2c0-0.5-0.1-0.9-0.3-1.3c-0.3-0.4-1-0.5-1.4-0.2c-0.1,0.1-0.1,0.1-0.2,0.2C51.6,84.7,51.4,85.2,51.5,85.6z"
		/>
	<path fill="#FFFFFF" d="M63.9,81.2l-0.3,1.4c-0.3-0.3-0.8-0.4-1.2-0.4c-0.5,0-1,0.2-1.3,0.6c-0.2,0.2-0.3,0.5-0.4,0.8h2.7l-0.2,0.8
		h-2.6v0.7h2.5l-0.2,0.8h-2.2c0,0.3,0.2,0.6,0.4,0.8c0.3,0.4,0.8,0.6,1.3,0.6c0.6,0,1.1-0.2,1.5-0.6v1.5c-0.5,0.2-1,0.3-1.5,0.3
		c-0.9,0-1.8-0.3-2.4-1c-0.4-0.5-0.7-1.1-0.8-1.7h-0.7l0.2-0.8h0.5v-0.6h-0.7l0.2-0.8h0.6c0.1-0.6,0.4-1.2,0.8-1.7
		c0.6-0.7,1.5-1,2.4-1C63,80.9,63.4,81,63.9,81.2z"/>
</g>
<polygon fill="#FFFFFF" points="75.3,18.8 75.3,24 89.4,16 75.3,8.2 75.3,13.3 28.7,13.3 24.7,9.6 11.1,9.6 17.7,15.7 10.6,22.4 
	24,22.4 28.3,18.8 "/>
</svg>
