<?xml version="1.0" encoding="utf-8"?>
<!-- Generator: Adobe Illustrator 24.0.2, SVG Export Plug-In . SVG Version: 6.00 Build 0)  -->
<svg version="1.1" id="Layer_1" xmlns="http://www.w3.org/2000/svg" xmlns:xlink="http://www.w3.org/1999/xlink" x="0px" y="0px"
	 viewBox="0 0 100 100" style="enable-background:new 0 0 100 100;" xml:space="preserve">
<rect y="0" fill="#105cfb" width="100" height="100"/>
<polygon fill="#fff" points="47.3,73.7 19.8,73.7 19.8,30.5 47.2,30.5 47.2,35.4 24.8,35.4 24.8,68.7 42.3,68.7 42.3,52.9 
	34.7,52.9 34.7,47.9 47.3,47.9 "/>
<path fill="#fff" d="M80.2,73.7H52.7V30.5h27.5V73.7z M57.7,68.7h17.5V35.4H57.7V68.7z"/>
<polygon fill="#fff" points="75.2,18.8 75.2,24 89.4,16 75.2,8.2 75.2,13.3 28.7,13.3 24.7,9.6 11.1,9.6 17.7,15.7 10.6,22.4 
	24.1,22.4 28.3,18.8 "/>
<g>
	<path fill="#fff" d="M64.7,86.5l1.4-0.2c0,0.3,0.2,0.6,0.4,0.8c0.2,0.2,0.5,0.3,0.7,0.3c0.3,0,0.6-0.1,0.8-0.3
		c0.2-0.3,0.3-0.6,0.3-0.9s-0.1-0.6-0.3-0.9c-0.2-0.2-0.4-0.3-0.7-0.3c-0.2,0-0.5,0-0.7,0.1l0.2-1.2c0.3,0,0.6-0.1,0.9-0.3
		c0.2-0.2,0.3-0.4,0.3-0.7c0-0.2-0.1-0.4-0.2-0.6c-0.2-0.2-0.4-0.2-0.6-0.2s-0.5,0.1-0.6,0.3c-0.2,0.2-0.3,0.5-0.3,0.8L65,83
		c0.1-0.4,0.2-0.8,0.4-1.1c0.2-0.3,0.5-0.5,0.8-0.7c0.4-0.2,0.7-0.2,1.1-0.2c0.6,0,1.3,0.2,1.7,0.7c0.3,0.3,0.5,0.8,0.5,1.3
		c0,0.7-0.4,1.3-1.1,1.6c0.4,0.1,0.8,0.3,1,0.6c0.3,0.3,0.4,0.7,0.4,1.2c0,0.6-0.3,1.3-0.7,1.7c-1,0.9-2.5,0.9-3.5,0.1
		C65,87.7,64.7,87.1,64.7,86.5z"/>
	<path fill="#fff" d="M75.3,87.2v1.3h-5.1c0.1-0.5,0.2-1,0.5-1.4c0.5-0.7,1-1.3,1.6-1.8c0.4-0.4,0.8-0.8,1.2-1.3
		c0.2-0.3,0.3-0.6,0.3-0.9s-0.1-0.5-0.3-0.7c-0.2-0.2-0.5-0.3-0.7-0.3c-0.3,0-0.5,0.1-0.7,0.3c-0.2,0.3-0.3,0.6-0.3,0.9l-1.4-0.2
		c0-0.7,0.3-1.3,0.8-1.7c0.5-0.4,1.1-0.5,1.7-0.5s1.3,0.2,1.8,0.6c0.4,0.4,0.6,0.9,0.6,1.5c0,0.3-0.1,0.7-0.2,1
		c-0.1,0.4-0.3,0.7-0.6,1c-0.3,0.4-0.6,0.7-1,1c-0.4,0.4-0.7,0.7-0.9,0.8c-0.1,0.1-0.2,0.3-0.3,0.4L75.3,87.2z"/>
	<g>
		<path fill="#fff" d="M19.3,88.3v-7.2h3.1c0.6,0,1.1,0.1,1.7,0.2c0.3,0.1,0.6,0.4,0.8,0.7c0.2,0.4,0.3,0.8,0.3,1.2
			c0,0.5-0.2,1-0.5,1.4c-0.4,0.4-0.9,0.7-1.4,0.7c0.3,0.2,0.6,0.4,0.8,0.6c0.3,0.4,0.6,0.8,0.8,1.2l0.9,1.4h-1.7l-1-1.6
			c-0.2-0.4-0.5-0.8-0.8-1.1c-0.1-0.2-0.3-0.2-0.5-0.3s-0.4-0.1-0.7-0.1h-0.3v3L19.3,88.3L19.3,88.3z M20.8,84.1h1.1
			c0.4,0,0.9,0,1.3-0.1c0.2,0,0.3-0.2,0.4-0.3c0.1-0.1,0.2-0.3,0.2-0.5s-0.1-0.4-0.2-0.6s-0.3-0.2-0.5-0.3h-2.3V84.1z"/>
		<path fill="#fff" d="M29.6,86.7l1.4,0.2c-0.2,0.4-0.5,0.9-0.8,1.2c-0.4,0.2-0.9,0.4-1.4,0.4c-0.8,0.1-1.5-0.3-2-0.9
			c-0.3-0.5-0.5-1.2-0.5-1.8c-0.1-0.7,0.2-1.5,0.7-2c0.5-0.4,1.1-0.7,1.7-0.7c0.7-0.1,1.4,0.2,1.8,0.8c0.5,0.7,0.8,1.5,0.7,2.4h-3.5
			c0,0.4,0.1,0.7,0.3,1c0.2,0.2,0.5,0.3,0.8,0.3c0.2,0,0.4,0,0.5-0.2S29.5,86.9,29.6,86.7z M29.7,85.2c0-0.3-0.1-0.7-0.3-0.9
			C29.2,84.1,29,84,28.7,84s-0.5,0.1-0.7,0.3c-0.2,0.2-0.3,0.6-0.3,0.9C27.7,85.2,29.7,85.2,29.7,85.2z"/>
		<path fill="#fff" d="M33.1,88.3L31.4,83h1.3l1,3.4l0.9-3.4h1.3l0.9,3.4l1-3.4h1.4l-1.6,5.3h-1.3l-0.9-3.4l-0.9,3.4H33.1z"/>
		<path fill="#fff" d="M41,84.7l-1.2-0.2c0.1-0.4,0.3-0.8,0.7-1.1c0.5-0.3,1-0.4,1.5-0.4s1,0.1,1.4,0.2c0.3,0.2,0.5,0.3,0.6,0.6
			c0.2,0.4,0.2,0.8,0.2,1.2v1.6c0,0.3,0,0.7,0.1,1c0,0.2,0.1,0.5,0.2,0.7h-1.4c0-0.1-0.1-0.2-0.1-0.4v-0.2c-0.2,0.2-0.4,0.4-0.7,0.5
			s-0.6,0.2-0.9,0.2c-0.5,0-0.9-0.2-1.3-0.5c-0.3-0.3-0.5-0.7-0.5-1.1c0-0.3,0.1-0.6,0.2-0.8c0.1-0.2,0.3-0.4,0.6-0.5
			c0.4-0.1,0.7-0.2,1.1-0.3c0.4,0,0.9-0.1,1.3-0.3v-0.1c0-0.2-0.1-0.4-0.2-0.6c-0.2-0.1-0.5-0.2-0.7-0.2s-0.5,0-0.6,0.2
			C41.2,84.3,41.1,84.5,41,84.7z M42.9,85.8c-0.3,0-0.5,0.1-0.8,0.2c-0.4,0.1-0.6,0.2-0.7,0.2c-0.2,0.1-0.3,0.3-0.3,0.5
			c0,0.4,0.3,0.7,0.7,0.7l0,0c0.2,0,0.5-0.1,0.7-0.2s0.3-0.3,0.3-0.5V86L42.9,85.8L42.9,85.8z"/>
		<path fill="#fff" d="M46.9,88.3h-1.4V83h1.3v0.7c0.1-0.3,0.3-0.5,0.6-0.7c0.2-0.1,0.4-0.2,0.6-0.2c0.3,0,0.6,0.1,0.9,0.2l-0.4,1.2
			C48.3,84,48.1,84,47.8,84c-0.2,0-0.4,0-0.5,0.2s-0.2,0.4-0.3,0.6c-0.1,0.6-0.1,1.2-0.1,1.8V88.3L46.9,88.3z"/>
		<path fill="#fff" d="M54.3,88.3H53v-0.8c-0.2,0.3-0.4,0.5-0.7,0.7s-0.6,0.2-0.9,0.2c-0.6,0-1.1-0.2-1.5-0.7
			c-0.4-0.6-0.6-1.3-0.6-2c-0.1-0.7,0.2-1.4,0.6-2c0.4-0.5,1-0.7,1.6-0.7s1.1,0.2,1.5,0.7v-2.6h1.4C54.4,81.1,54.3,88.3,54.3,88.3z
			 M50.6,85.6c0,0.4,0,0.8,0.2,1.2c0.2,0.4,0.5,0.5,1,0.5c0.3,0,0.6-0.1,0.8-0.4c0.2-0.4,0.3-0.8,0.3-1.2c0-0.5-0.1-0.9-0.3-1.3
			c-0.3-0.4-1-0.5-1.4-0.2c-0.1,0.1-0.1,0.1-0.2,0.2C50.7,84.7,50.6,85.2,50.6,85.6z"/>
		<path fill="#fff" d="M63,81.2l-0.3,1.4c-0.3-0.3-0.8-0.4-1.2-0.4c-0.5,0-1,0.2-1.3,0.6c-0.2,0.2-0.3,0.5-0.4,0.8h2.7l-0.2,0.8
			h-2.6v0.7h2.5L62,85.9h-2.2c0,0.3,0.2,0.6,0.4,0.8c0.3,0.4,0.8,0.6,1.3,0.6c0.6,0,1.1-0.2,1.5-0.6v1.5c-0.5,0.2-1,0.3-1.5,0.3
			c-0.9,0-1.8-0.3-2.4-1c-0.4-0.5-0.7-1.1-0.8-1.7h-0.7l0.2-0.8h0.5v-0.6h-0.7l0.2-0.8h0.6c0.1-0.6,0.4-1.2,0.8-1.7
			c0.6-0.7,1.5-1,2.4-1C62.1,80.9,62.6,81,63,81.2z"/>
	</g>
	<g>
		<path fill="#fff" d="M78.3,81.1c0.7,0,1.3,0.3,1.7,0.8c0.5,0.6,0.7,1.6,0.7,3s-0.2,2.4-0.7,3c-0.4,0.5-1,0.8-1.7,0.8
			s-1.3-0.3-1.7-0.8c-0.4-0.5-0.7-1.5-0.7-2.9s0.2-2.4,0.7-3C77,81.3,77.6,81.1,78.3,81.1z M78.3,82.2c-0.2,0-0.3,0.1-0.5,0.2
			c-0.1,0.1-0.2,0.3-0.3,0.6c-0.1,0.4-0.1,1-0.1,1.8c0,0.9,0,1.5,0.1,1.8s0.2,0.5,0.3,0.6c0.1,0.1,0.3,0.2,0.5,0.2s0.3-0.1,0.5-0.2
			c0.1-0.1,0.2-0.3,0.3-0.6c0.1-0.4,0.1-1,0.1-1.8c0-0.9,0-1.5-0.1-1.8s-0.2-0.5-0.3-0.6C78.6,82.3,78.5,82.2,78.3,82.2z"/>
	</g>
</g>
</svg>
