<?xml version="1.0" encoding="utf-8"?>
<!-- Generator: Adobe Illustrator 24.0.2, SVG Export Plug-In . SVG Version: 6.00 Build 0)  -->
<svg version="1.1" id="Layer_1" xmlns="http://www.w3.org/2000/svg" xmlns:xlink="http://www.w3.org/1999/xlink" x="0px" y="0px"
	 viewBox="0 0 100 100" style="enable-background:new 0 0 100 100;" xml:space="preserve">
<rect y="0" fill="#105CFB" width="100" height="100"/>
<polygon fill="#ffffff" points="47.3,73.7 19.8,73.7 19.8,30.5 47.2,30.5 47.2,35.4 24.8,35.4 24.8,68.7 42.3,68.7 42.3,52.9 
	34.7,52.9 34.7,47.9 47.3,47.9 "/>
<path fill="#ffffff" d="M80.2,73.7H52.7V30.5h27.5V73.7z M57.7,68.7h17.5V35.4H57.7V68.7z"/>
<polygon fill="#ffffff" points="75.2,18.8 75.2,24 89.4,16 75.2,8.2 75.2,13.3 28.7,13.3 24.7,9.6 11.1,9.6 17.7,15.7 10.6,22.4 
	24.1,22.4 28.3,18.8 "/>
<g>
	<path fill="#ffffff" d="M19.8,87.9V81h2.9c0.7,0,1.3,0.1,1.6,0.2c0.3,0.1,0.6,0.3,0.8,0.7c0.2,0.3,0.3,0.7,0.3,1.1
		c0,0.5-0.2,0.9-0.5,1.3c-0.3,0.3-0.8,0.5-1.4,0.6c0.3,0.2,0.5,0.4,0.7,0.6c0.2,0.2,0.5,0.6,0.8,1.1l0.8,1.3h-1.7l-1-1.5
		c-0.4-0.5-0.6-0.9-0.7-1s-0.3-0.2-0.4-0.3S21.8,85,21.5,85h-0.3v2.9H19.8z M21.2,83.9h1c0.7,0,1.1,0,1.2-0.1
		c0.2-0.1,0.3-0.2,0.4-0.3C24,83.4,24,83.2,24,83c0-0.2-0.1-0.4-0.2-0.6c-0.1-0.1-0.3-0.2-0.5-0.3c-0.1,0-0.4,0-1,0h-1.1V83.9z"/>
	<path fill="#ffffff" d="M29.6,86.3l1.3,0.2c-0.2,0.5-0.4,0.8-0.8,1.1c-0.4,0.3-0.8,0.4-1.4,0.4c-0.9,0-1.5-0.3-1.9-0.8
		c-0.3-0.5-0.5-1-0.5-1.7c0-0.8,0.2-1.5,0.6-1.9s1-0.7,1.6-0.7c0.7,0,1.3,0.2,1.7,0.7c0.4,0.5,0.6,1.2,0.6,2.2h-3.3
		c0,0.4,0.1,0.7,0.3,0.9c0.2,0.2,0.5,0.3,0.8,0.3c0.2,0,0.4-0.1,0.5-0.2C29.4,86.7,29.5,86.5,29.6,86.3z M29.7,85
		c0-0.4-0.1-0.7-0.3-0.9c-0.2-0.2-0.4-0.3-0.7-0.3c-0.3,0-0.5,0.1-0.7,0.3s-0.3,0.5-0.3,0.9H29.7z"/>
	<path fill="#ffffff" d="M33,87.9l-1.6-5h1.3l0.9,3.3l0.9-3.3h1.3l0.8,3.3l0.9-3.3h1.3l-1.6,5H36l-0.9-3.2l-0.8,3.2H33z"/>
	<path fill="#ffffff" d="M40.5,84.4l-1.2-0.2c0.1-0.5,0.4-0.8,0.7-1.1c0.3-0.2,0.8-0.3,1.5-0.3c0.6,0,1,0.1,1.3,0.2
		c0.3,0.1,0.5,0.3,0.6,0.5s0.2,0.6,0.2,1.2l0,1.5c0,0.4,0,0.8,0.1,1c0,0.2,0.1,0.4,0.2,0.7h-1.3c0-0.1-0.1-0.2-0.1-0.4
		c0-0.1,0-0.1,0-0.2c-0.2,0.2-0.5,0.4-0.7,0.5c-0.3,0.1-0.5,0.2-0.8,0.2c-0.5,0-0.9-0.1-1.2-0.4c-0.3-0.3-0.4-0.6-0.4-1.1
		c0-0.3,0.1-0.5,0.2-0.8c0.1-0.2,0.3-0.4,0.6-0.5c0.2-0.1,0.6-0.2,1-0.3c0.6-0.1,1-0.2,1.3-0.3v-0.1c0-0.3-0.1-0.4-0.2-0.5
		c-0.1-0.1-0.4-0.2-0.7-0.2c-0.2,0-0.4,0-0.5,0.1C40.7,84,40.6,84.2,40.5,84.4z M42.3,85.5c-0.2,0.1-0.4,0.1-0.8,0.2
		s-0.6,0.2-0.7,0.2c-0.2,0.1-0.3,0.3-0.3,0.5c0,0.2,0.1,0.3,0.2,0.5C40.8,87,41,87,41.2,87c0.2,0,0.5-0.1,0.7-0.2
		c0.2-0.1,0.3-0.3,0.3-0.4c0-0.1,0.1-0.3,0.1-0.6V85.5z"/>
	<path fill="#ffffff" d="M46.1,87.9h-1.3v-5H46v0.7c0.2-0.3,0.4-0.6,0.6-0.7s0.4-0.2,0.6-0.2c0.3,0,0.6,0.1,0.9,0.2l-0.4,1.1
		C47.4,84,47.2,84,47,84c-0.2,0-0.3,0.1-0.5,0.2c-0.1,0.1-0.2,0.3-0.3,0.5c-0.1,0.3-0.1,0.8-0.1,1.7V87.9z"/>
	<path fill="#ffffff" d="M53.1,87.9h-1.2v-0.7c-0.2,0.3-0.4,0.5-0.7,0.6c-0.3,0.1-0.6,0.2-0.8,0.2c-0.6,0-1.1-0.2-1.5-0.7
		c-0.4-0.5-0.6-1.1-0.6-1.9c0-0.8,0.2-1.5,0.6-1.9c0.4-0.4,0.9-0.7,1.5-0.7c0.6,0,1,0.2,1.4,0.7V81h1.3V87.9z M49.6,85.3
		c0,0.5,0.1,0.9,0.2,1.2c0.2,0.3,0.5,0.5,0.9,0.5c0.3,0,0.6-0.1,0.8-0.4s0.3-0.6,0.3-1.2c0-0.6-0.1-1-0.3-1.2
		c-0.2-0.3-0.5-0.4-0.8-0.4c-0.3,0-0.6,0.1-0.8,0.4C49.7,84.4,49.6,84.8,49.6,85.3z"/>
	<path fill="#ffffff" d="M61.4,81.2l-0.3,1.3c-0.3-0.3-0.7-0.4-1.2-0.4s-0.9,0.2-1.2,0.5c-0.2,0.2-0.3,0.5-0.4,0.8H61l-0.1,0.7h-2.5
		c0,0.1,0,0.2,0,0.3c0,0.1,0,0.2,0,0.3h2.4l-0.1,0.7h-2.1c0.1,0.3,0.2,0.6,0.4,0.8c0.3,0.4,0.7,0.6,1.2,0.6c0.6,0,1.1-0.2,1.4-0.6
		v1.4C61,87.9,60.5,88,60,88c-0.9,0-1.7-0.3-2.2-0.9c-0.4-0.4-0.7-1-0.8-1.6h-0.7l0.1-0.7h0.5c0-0.1,0-0.2,0-0.2c0-0.1,0-0.3,0-0.4
		h-0.6l0.1-0.7H57c0.1-0.6,0.4-1.1,0.8-1.6c0.6-0.6,1.4-0.9,2.3-0.9C60.6,80.9,61,81,61.4,81.2z"/>
	<path fill="#ffffff" d="M62.1,86l1.3-0.2c0,0.3,0.1,0.6,0.3,0.7c0.2,0.2,0.4,0.3,0.6,0.3c0.3,0,0.5-0.1,0.7-0.3
		c0.2-0.2,0.3-0.5,0.3-0.8c0-0.3-0.1-0.6-0.3-0.8c-0.2-0.2-0.4-0.3-0.7-0.3c-0.2,0-0.4,0-0.6,0.1l0.1-1.1c0.4,0,0.6-0.1,0.8-0.2
		c0.2-0.2,0.3-0.4,0.3-0.7c0-0.2-0.1-0.4-0.2-0.6c-0.1-0.1-0.3-0.2-0.5-0.2c-0.2,0-0.4,0.1-0.6,0.2c-0.2,0.2-0.3,0.4-0.3,0.7
		l-1.2-0.2c0.1-0.4,0.2-0.7,0.4-1c0.2-0.2,0.4-0.4,0.7-0.6s0.6-0.2,1-0.2c0.6,0,1.2,0.2,1.6,0.6c0.3,0.3,0.5,0.7,0.5,1.1
		c0,0.6-0.3,1.1-1,1.4c0.4,0.1,0.7,0.3,0.9,0.6c0.2,0.3,0.4,0.6,0.4,1.1c0,0.6-0.2,1.1-0.7,1.5c-0.4,0.4-1,0.6-1.6,0.6
		c-0.6,0-1.1-0.2-1.5-0.5C62.4,87.1,62.2,86.6,62.1,86z"/>
	<path fill="#ffffff" d="M67.7,87.9v-1.3h1.3v1.3H67.7z"/>
	<path fill="#ffffff" d="M74.6,86.6v1.2H70c0-0.5,0.2-0.9,0.4-1.3c0.2-0.4,0.7-1,1.5-1.6c0.6-0.6,1-0.9,1.1-1.1
		c0.2-0.3,0.3-0.5,0.3-0.8c0-0.3-0.1-0.5-0.2-0.7s-0.4-0.2-0.7-0.2c-0.3,0-0.5,0.1-0.7,0.2c-0.2,0.2-0.3,0.4-0.3,0.8L70.1,83
		c0.1-0.7,0.3-1.2,0.7-1.6s0.9-0.5,1.5-0.5c0.7,0,1.2,0.2,1.6,0.5c0.4,0.4,0.6,0.8,0.6,1.4c0,0.3-0.1,0.6-0.2,0.9
		c-0.1,0.3-0.3,0.6-0.5,0.9c-0.2,0.2-0.4,0.5-0.9,0.9c-0.4,0.4-0.7,0.6-0.8,0.8c-0.1,0.1-0.2,0.2-0.3,0.4H74.6z"/>
	<path fill="#ffffff" d="M75.7,87.9V81H77v3.6l1.5-1.7h1.6l-1.7,1.8l1.8,3.2h-1.4l-1.2-2.2L77,86.3v1.6H75.7z"/>
</g>
</svg>
