<?xml version="1.0" encoding="utf-8"?>
<!-- Generator: Adobe Illustrator 24.0.2, SVG Export Plug-In . SVG Version: 6.00 Build 0)  -->
<svg version="1.1" id="Layer_1" xmlns="http://www.w3.org/2000/svg" xmlns:xlink="http://www.w3.org/1999/xlink" x="0px" y="0px"
	 viewBox="0 0 100 100" style="enable-background:new 0 0 100 100;" xml:space="preserve">
<rect y="0" fill="#105CFB" width="100" height="100"/>
<g>
	<polygon fill="#ffffff" points="47.3,77.2 19.8,77.2 19.8,34 47.2,34 47.2,38.9 24.8,38.9 24.8,72.2 42.3,72.2 42.3,56.4 34.7,56.4 
		34.7,51.4 47.3,51.4 	"/>
	<path fill="#ffffff" d="M80.2,77.2H52.7V34h27.5V77.2z M57.7,72.2h17.5V38.9H57.7L57.7,72.2z"/>
</g>
<g>
	<g>
		<path fill="#ffffff" d="M14.4,27.3v-7.2h3.1c0.6,0,1.1,0.1,1.7,0.2c0.3,0.1,0.6,0.4,0.8,0.7c0.2,0.4,0.3,0.8,0.3,1.2
			c0,0.5-0.2,1-0.5,1.4c-0.4,0.4-0.9,0.7-1.4,0.7c0.3,0.2,0.6,0.4,0.8,0.6c0.3,0.4,0.6,0.8,0.8,1.2l0.9,1.4h-1.7l-1-1.6
			c-0.2-0.4-0.5-0.8-0.8-1.1c-0.1-0.2-0.3-0.2-0.5-0.3s-0.4-0.1-0.7-0.1h-0.3v3h-1.5L14.4,27.3z M15.9,23.1H17c0.4,0,0.9,0,1.3-0.1
			c0.2,0,0.3-0.2,0.4-0.3c0.1-0.1,0.2-0.3,0.2-0.5c0-0.2-0.1-0.4-0.2-0.6c-0.1-0.2-0.3-0.2-0.5-0.3h-2.3V23.1z"/>
		<path fill="#ffffff" d="M24.7,25.7l1.4,0.2c-0.2,0.4-0.5,0.9-0.8,1.2c-0.4,0.2-0.9,0.4-1.4,0.4c-0.8,0.1-1.5-0.3-2-0.9
			c-0.3-0.5-0.5-1.2-0.5-1.8c-0.1-0.7,0.2-1.5,0.7-2c0.5-0.4,1.1-0.7,1.7-0.7c0.7-0.1,1.4,0.2,1.8,0.8c0.5,0.7,0.8,1.5,0.7,2.4h-3.5
			c0,0.4,0.1,0.7,0.3,1c0.2,0.2,0.5,0.3,0.8,0.3c0.2,0,0.4,0,0.5-0.2S24.6,25.9,24.7,25.7z M24.8,24.2c0-0.3-0.1-0.7-0.3-0.9
			C24.3,23.1,24,23,23.8,23c-0.3,0-0.5,0.1-0.7,0.3c-0.2,0.2-0.3,0.6-0.3,0.9L24.8,24.2z"/>
		<path fill="#ffffff" d="M28.2,27.3L26.5,22h1.3l1,3.4l0.9-3.4H31l0.9,3.4l1-3.4h1.4l-1.6,5.3h-1.3l-0.9-3.4l-0.9,3.4L28.2,27.3z"/>
		<path fill="#ffffff" d="M36.1,23.7l-1.2-0.2c0.1-0.4,0.3-0.8,0.7-1.1c0.5-0.3,1-0.4,1.5-0.4c0.5,0,0.9,0.1,1.4,0.2
			c0.3,0.2,0.5,0.3,0.6,0.6c0.2,0.4,0.2,0.8,0.2,1.2v1.6c0,0.3,0,0.7,0.1,1c0,0.2,0.1,0.5,0.2,0.7h-1.4c0-0.1-0.1-0.2-0.1-0.4v-0.2
			c-0.2,0.2-0.4,0.4-0.7,0.5c-0.3,0.1-0.6,0.2-0.9,0.2c-0.5,0-0.9-0.2-1.3-0.5c-0.3-0.3-0.5-0.7-0.5-1.1c0-0.3,0.1-0.6,0.2-0.8
			c0.1-0.2,0.3-0.4,0.6-0.5c0.4-0.1,0.7-0.2,1.1-0.3c0.4,0,0.9-0.1,1.3-0.3v-0.1c0-0.2-0.1-0.4-0.2-0.6C37.5,23.1,37.3,23,37,23
			c-0.2,0-0.5,0-0.6,0.2C36.3,23.3,36.2,23.5,36.1,23.7z M38,24.8c-0.3,0-0.5,0.1-0.8,0.2c-0.4,0.1-0.6,0.2-0.7,0.2
			c-0.2,0.1-0.3,0.3-0.3,0.5c0,0.4,0.3,0.7,0.7,0.7c0,0,0,0,0,0c0.2,0,0.5-0.1,0.7-0.2c0.2-0.1,0.3-0.3,0.3-0.5V25L38,24.8L38,24.8z
			"/>
		<path fill="#ffffff" d="M42,27.3h-1.4V22h1.3v0.7c0.1-0.3,0.3-0.5,0.6-0.7c0.2-0.1,0.4-0.2,0.6-0.2c0.3,0,0.6,0.1,0.9,0.2l-0.4,1.2
			C43.4,23,43.2,23,42.9,23c-0.2,0-0.4,0-0.5,0.2c-0.1,0.2-0.2,0.4-0.3,0.6C42,24.4,42,25,42,25.6L42,27.3L42,27.3z"/>
		<path fill="#ffffff" d="M49.4,27.3h-1.3v-0.8c-0.2,0.3-0.4,0.5-0.7,0.7c-0.3,0.2-0.6,0.2-0.9,0.2c-0.6,0-1.1-0.2-1.5-0.7
			c-0.4-0.6-0.6-1.3-0.6-2c-0.1-0.7,0.2-1.4,0.6-2c0.4-0.5,1-0.7,1.6-0.7c0.6,0,1.1,0.2,1.5,0.7v-2.6h1.4
			C49.5,20.1,49.4,27.3,49.4,27.3z M45.7,24.6c0,0.4,0,0.8,0.2,1.2c0.2,0.4,0.5,0.5,1,0.5c0.3,0,0.6-0.1,0.8-0.4
			c0.2-0.4,0.3-0.8,0.3-1.2c0-0.5-0.1-0.9-0.3-1.3c-0.3-0.4-1-0.5-1.4-0.2c-0.1,0.1-0.1,0.1-0.2,0.2C45.8,23.7,45.7,24.2,45.7,24.6z
			"/>
		<path fill="#ffffff" d="M58.1,20.2l-0.3,1.4c-0.3-0.3-0.8-0.4-1.2-0.4c-0.5,0-1,0.2-1.3,0.6c-0.2,0.2-0.3,0.5-0.4,0.8h2.7l-0.2,0.8
			h-2.6v0.7h2.5l-0.2,0.8h-2.2c0,0.3,0.2,0.6,0.4,0.8c0.3,0.4,0.8,0.6,1.3,0.6c0.6,0,1.1-0.2,1.5-0.6v1.5c-0.5,0.2-1,0.3-1.5,0.3
			c-0.9,0-1.8-0.3-2.4-1c-0.4-0.5-0.7-1.1-0.8-1.7h-0.7l0.2-0.8h0.5v-0.6h-0.7l0.2-0.8h0.6c0.1-0.6,0.4-1.2,0.8-1.7
			c0.6-0.7,1.5-1,2.4-1C57.2,19.9,57.7,20,58.1,20.2z"/>
	</g>
	<g>
		<path fill="#ffffff" d="M60.7,25.5l1.3-0.2c0,0.3,0.2,0.6,0.3,0.8s0.4,0.3,0.7,0.3c0.3,0,0.5-0.1,0.7-0.3c0.2-0.2,0.3-0.5,0.3-0.9
			c0-0.3-0.1-0.6-0.3-0.8S63.4,24,63.1,24c-0.2,0-0.4,0-0.6,0.1l0.2-1.1c0.4,0,0.7-0.1,0.9-0.2c0.2-0.2,0.3-0.4,0.3-0.7
			c0-0.2-0.1-0.4-0.2-0.6s-0.3-0.2-0.6-0.2c-0.2,0-0.4,0.1-0.6,0.2c-0.2,0.2-0.3,0.4-0.3,0.7L60.8,22c0.1-0.4,0.2-0.8,0.4-1.1
			c0.2-0.3,0.4-0.5,0.8-0.6s0.7-0.2,1.1-0.2c0.7,0,1.2,0.2,1.6,0.7c0.3,0.4,0.5,0.8,0.5,1.2c0,0.6-0.3,1.1-1,1.5
			c0.4,0.1,0.7,0.3,1,0.6c0.2,0.3,0.4,0.7,0.4,1.1c0,0.6-0.2,1.2-0.7,1.6s-1,0.7-1.7,0.7c-0.7,0-1.2-0.2-1.6-0.6
			C61,26.6,60.8,26.1,60.7,25.5z"/>
		<path fill="#ffffff" d="M71.1,26.1v1.3h-4.9c0.1-0.5,0.2-1,0.5-1.4c0.3-0.4,0.8-1,1.6-1.7c0.6-0.6,1-1,1.2-1.2
			c0.2-0.3,0.3-0.6,0.3-0.9c0-0.3-0.1-0.5-0.2-0.7c-0.2-0.2-0.4-0.2-0.7-0.2c-0.3,0-0.5,0.1-0.7,0.3c-0.2,0.2-0.3,0.5-0.3,0.9
			l-1.4-0.1c0.1-0.8,0.3-1.3,0.8-1.6s1-0.5,1.6-0.5c0.7,0,1.3,0.2,1.7,0.6c0.4,0.4,0.6,0.9,0.6,1.4c0,0.3-0.1,0.6-0.2,0.9
			c-0.1,0.3-0.3,0.6-0.6,0.9c-0.2,0.2-0.5,0.5-0.9,0.9c-0.4,0.4-0.7,0.7-0.8,0.8c-0.1,0.1-0.2,0.3-0.3,0.4H71.1z"/>
		<path fill="#ffffff" d="M74.4,20.1c0.7,0,1.3,0.3,1.6,0.8c0.5,0.6,0.7,1.6,0.7,3c0,1.4-0.2,2.4-0.7,3c-0.4,0.5-0.9,0.7-1.6,0.7
			c-0.7,0-1.3-0.3-1.7-0.8c-0.4-0.5-0.6-1.5-0.6-2.9c0-1.4,0.2-2.3,0.7-2.9C73.1,20.4,73.7,20.1,74.4,20.1z M74.4,21.3
			c-0.2,0-0.3,0.1-0.5,0.2c-0.1,0.1-0.2,0.3-0.3,0.6c-0.1,0.4-0.1,1-0.1,1.8c0,0.9,0,1.4,0.1,1.8s0.2,0.5,0.3,0.6
			c0.1,0.1,0.3,0.2,0.4,0.2c0.2,0,0.3-0.1,0.5-0.2c0.1-0.1,0.2-0.3,0.3-0.6c0.1-0.4,0.1-1,0.1-1.8c0-0.9,0-1.4-0.1-1.8
			c-0.1-0.3-0.2-0.5-0.3-0.6C74.7,21.3,74.5,21.3,74.4,21.3z"/>
		<g>
			<path fill="#ffffff" d="M78,22.3h1.3V23c0.5-0.5,1-0.8,1.6-0.8c0.3,0,0.6,0.1,0.9,0.2c0.2,0.1,0.4,0.3,0.6,0.6
				c0.2-0.3,0.5-0.5,0.7-0.6c0.3-0.1,0.5-0.2,0.8-0.2c0.4,0,0.7,0.1,1,0.2c0.3,0.2,0.5,0.4,0.6,0.7c0.1,0.2,0.1,0.6,0.1,1.1v3.3
				h-1.4v-3c0-0.5,0-0.8-0.1-1c-0.1-0.2-0.3-0.3-0.6-0.3c-0.2,0-0.4,0.1-0.5,0.2c-0.2,0.1-0.3,0.3-0.4,0.5c-0.1,0.2-0.1,0.6-0.1,1.1
				v2.5h-1.4v-2.8c0-0.5,0-0.8-0.1-1s-0.1-0.3-0.2-0.3c-0.1-0.1-0.2-0.1-0.4-0.1c-0.2,0-0.4,0.1-0.6,0.2c-0.2,0.1-0.3,0.3-0.4,0.5
				s-0.1,0.6-0.1,1.1v2.5H78V22.3z"/>
		</g>
	</g>
</g>
</svg>
