<?xml version="1.0" encoding="utf-8"?>
<!-- Generator: Adobe Illustrator 24.0.2, SVG Export Plug-In . SVG Version: 6.00 Build 0)  -->
<svg version="1.1" id="Layer_1" xmlns="http://www.w3.org/2000/svg" xmlns:xlink="http://www.w3.org/1999/xlink" x="0px" y="0px"
	 viewBox="0 0 100 100" style="enable-background:new 0 0 100 100;" xml:space="preserve">
<rect y="0" fill="#105cfb" width="100" height="100"/>
<polygon fill="#fff" points="47.3,73.7 19.8,73.7 19.8,30.5 47.2,30.5 47.2,35.4 24.8,35.4 24.8,68.7 42.3,68.7 42.3,52.9 
	34.7,52.9 34.7,47.9 47.3,47.9 "/>
<path fill="#fff" d="M80.2,73.7H52.7V30.5h27.5V73.7z M57.7,68.7h17.5V35.4H57.7V68.7z"/>
<path fill="#fff" d="M68.5,86.9l1.5-0.2c0,0.3,0.2,0.6,0.4,0.9c0.2,0.2,0.5,0.3,0.8,0.3s0.6-0.1,0.8-0.4c0.2-0.3,0.3-0.6,0.3-1
	c0-0.3-0.1-0.7-0.3-0.9c-0.2-0.2-0.5-0.3-0.8-0.3c-0.2,0-0.5,0-0.7,0.1l0.2-1.3c0.3,0,0.7-0.1,1-0.3c0.2-0.2,0.3-0.5,0.3-0.8
	c0-0.2-0.1-0.5-0.2-0.6c-0.2-0.2-0.4-0.2-0.6-0.2c-0.3,0-0.5,0.1-0.7,0.3C70.2,82.7,70,83,70,83.3L68.6,83c0.1-0.4,0.2-0.8,0.4-1.2
	c0.2-0.3,0.5-0.5,0.8-0.7c0.4-0.2,0.8-0.3,1.2-0.2c0.7,0,1.3,0.2,1.8,0.7c0.4,0.4,0.6,0.8,0.6,1.3c0,0.7-0.5,1.4-1.2,1.7
	c0.4,0.1,0.8,0.3,1.1,0.7c0.3,0.4,0.4,0.8,0.4,1.2c0,0.7-0.3,1.3-0.8,1.8c-1.1,0.9-2.6,1-3.7,0.1C68.8,88.1,68.5,87.5,68.5,86.9z"/>
<path fill="#fff" d="M80.2,87.6V89h-5.4c0.1-0.5,0.2-1.1,0.5-1.5c0.5-0.7,1.1-1.4,1.7-1.9c0.5-0.4,0.9-0.9,1.3-1.4
	c0.2-0.3,0.3-0.6,0.3-0.9s-0.1-0.6-0.3-0.8c-0.2-0.2-0.5-0.3-0.8-0.3s-0.6,0.1-0.8,0.3c-0.2,0.3-0.3,0.6-0.3,1L75,83.3
	c0-0.7,0.3-1.4,0.9-1.8c0.5-0.4,1.2-0.6,1.8-0.6c0.7,0,1.4,0.2,1.9,0.6c0.4,0.4,0.7,1,0.7,1.6c0,0.4-0.1,0.7-0.2,1.1
	s-0.4,0.7-0.6,1.1c-0.3,0.4-0.7,0.7-1.1,1.1c-0.5,0.4-0.8,0.7-0.9,0.9c-0.1,0.1-0.2,0.3-0.3,0.4L80.2,87.6z"/>
<g>
	<path fill="#fff" d="M20.2,88.8v-7.7h3.3c0.6,0,1.2,0.1,1.8,0.2c0.4,0.1,0.7,0.4,0.9,0.7c0.2,0.4,0.3,0.8,0.3,1.3s-0.2,1.1-0.5,1.5
		c-0.4,0.4-0.9,0.7-1.5,0.7c0.3,0.2,0.6,0.4,0.9,0.6c0.3,0.4,0.6,0.8,0.9,1.3l1,1.5h-1.8l-1.1-1.7c-0.3-0.4-0.5-0.8-0.9-1.2
		c-0.1-0.2-0.3-0.2-0.5-0.3c-0.2-0.1-0.4-0.1-0.7-0.1H22v3.2h-1.6H20.2z M21.8,84.3H23c0.5,0,0.9,0,1.4-0.1c0.2,0,0.3-0.2,0.4-0.3
		c0.1-0.1,0.2-0.3,0.2-0.5s-0.1-0.5-0.2-0.6c-0.1-0.2-0.3-0.2-0.5-0.3h-2.4v1.8H21.8z"/>
	<path fill="#fff" d="M31.1,87.1l1.5,0.2c-0.2,0.5-0.5,0.9-0.9,1.3c-0.5,0.3-1,0.4-1.5,0.4c-0.8,0.1-1.6-0.3-2.1-1
		c-0.4-0.6-0.5-1.2-0.5-1.9c-0.1-0.8,0.2-1.6,0.7-2.1s1.1-0.7,1.8-0.7c0.7-0.1,1.5,0.3,1.9,0.9c0.6,0.7,0.8,1.6,0.7,2.6H29
		c0,0.4,0.1,0.8,0.3,1.1c0.2,0.2,0.5,0.3,0.9,0.3c0.2,0,0.4,0,0.5-0.2C30.9,87.6,31,87.3,31.1,87.1z M31.3,85.5c0-0.3-0.1-0.7-0.3-1
		c-0.2-0.2-0.5-0.3-0.7-0.3c-0.3,0-0.6,0.1-0.7,0.3c-0.2,0.3-0.3,0.6-0.3,1H31.3z"/>
	<path fill="#fff" d="M34.9,88.8l-1.8-5.7h1.4l1.1,3.6l1-3.6H38l1,3.6l1.1-3.6h1.5l-1.7,5.6h-1.4l-1-3.6l-1,3.6L34.9,88.8z"/>
	<path fill="#fff" d="M43.3,85L42,84.7c0.1-0.5,0.4-0.9,0.7-1.2c0.5-0.3,1-0.4,1.6-0.4c0.5,0,1,0.1,1.5,0.2c0.3,0.2,0.5,0.3,0.6,0.6
		c0.2,0.4,0.2,0.8,0.2,1.3V87c0,0.4,0,0.7,0.1,1.1c0,0.3,0.1,0.5,0.2,0.7h-1.5c0-0.1-0.1-0.2-0.1-0.4v-0.2c-0.2,0.2-0.5,0.4-0.7,0.5
		c-0.3,0.1-0.6,0.2-1,0.2c-0.5,0-1-0.2-1.4-0.5c-0.3-0.3-0.5-0.7-0.5-1.2c0-0.3,0.1-0.6,0.2-0.9c0.1-0.3,0.4-0.4,0.6-0.5
		c0.4-0.1,0.8-0.3,1.2-0.3c0.5,0,0.9-0.2,1.4-0.3v-0.1c0-0.2-0.1-0.5-0.2-0.6c-0.2-0.1-0.5-0.2-0.7-0.2s-0.5,0-0.6,0.2
		C43.5,84.6,43.3,84.8,43.3,85z M45.3,86.1c-0.3,0-0.6,0.1-0.9,0.2c-0.4,0.1-0.6,0.2-0.7,0.2c-0.2,0.1-0.3,0.3-0.3,0.5
		c0,0.4,0.3,0.7,0.7,0.7l0,0c0.3,0,0.5-0.1,0.7-0.2s0.3-0.3,0.3-0.5v-0.8L45.3,86.1L45.3,86.1z"/>
	<path fill="#fff" d="M49.6,88.8h-1.5v-5.7h1.4v0.7c0.1-0.3,0.3-0.6,0.6-0.7c0.2-0.1,0.4-0.2,0.6-0.2c0.3,0,0.7,0.1,1,0.2l-0.4,1.3
		c-0.2-0.2-0.5-0.2-0.7-0.2s-0.4,0-0.5,0.2s-0.3,0.4-0.3,0.6c-0.1,0.6-0.1,1.3-0.1,1.9L49.6,88.8L49.6,88.8z"/>
	<path fill="#fff" d="M57.4,88.8H56v-0.9c-0.2,0.3-0.5,0.5-0.7,0.7c-0.3,0.2-0.6,0.2-1,0.2c-0.6,0-1.2-0.3-1.6-0.7
		c-0.4-0.6-0.7-1.4-0.6-2.1c-0.1-0.8,0.2-1.5,0.6-2.1c0.4-0.5,1.1-0.8,1.7-0.7c0.6,0,1.2,0.3,1.6,0.7v-2.8h1.5L57.4,88.8z
		 M53.5,85.9c0,0.4,0,0.9,0.2,1.3s0.5,0.5,1.1,0.5c0.3,0,0.7-0.1,0.9-0.4c0.2-0.4,0.3-0.8,0.3-1.3s-0.1-1-0.3-1.4
		c-0.4-0.5-1-0.6-1.5-0.2c-0.1,0.1-0.2,0.1-0.2,0.2C53.6,85,53.4,85.4,53.5,85.9z"/>
	<path fill="#fff" d="M66.7,81.2l-0.3,1.5c-0.3-0.3-0.8-0.5-1.3-0.4c-0.5,0-1,0.2-1.4,0.6c-0.2,0.2-0.4,0.5-0.4,0.9h2.9L66,84.6
		h-2.8v0.7h2.7l-0.2,0.9h-2.3c0.1,0.3,0.2,0.6,0.4,0.9c0.3,0.4,0.8,0.7,1.4,0.6c0.6,0,1.2-0.2,1.6-0.6v1.6c-0.5,0.2-1,0.3-1.6,0.3
		c-1,0-1.9-0.4-2.6-1.1c-0.4-0.5-0.7-1.1-0.9-1.8H61l0.2-0.9h0.5v-0.6H61l0.2-0.9h0.6c0.1-0.7,0.4-1.3,0.9-1.8
		c0.6-0.7,1.6-1.1,2.6-1.1C65.7,80.9,66.2,81,66.7,81.2z"/>
</g>
<polygon fill="#fff" points="75.2,18.8 75.2,24 89.4,16 75.2,8.2 75.2,13.3 28.7,13.3 24.7,9.6 11.1,9.6 17.7,15.7 10.6,22.4 
	24.1,22.4 28.3,18.8 "/>
</svg>
