<?xml version="1.0" encoding="utf-8"?>
<!-- Generator: Adobe Illustrator 24.0.2, SVG Export Plug-In . SVG Version: 6.00 Build 0)  -->
<svg version="1.1" id="Layer_1" xmlns="http://www.w3.org/2000/svg" xmlns:xlink="http://www.w3.org/1999/xlink" x="0px" y="0px"
	 viewBox="0 0 100 100" style="enable-background:new 0 0 100 100;" xml:space="preserve">
<rect y="0" fill="#105CFB" width="100" height="100"/>
<polygon fill="#ffffff" points="56.3,77.2 28.8,77.2 28.8,34 56.2,34 56.2,38.9 33.8,38.9 33.8,72.2 51.3,72.2 51.3,56.4 43.7,56.4 
	43.7,51.4 56.3,51.4 "/>
<path fill="#ffffff" d="M89.2,77.2H61.7V34h27.5V77.2z M66.7,72.2h17.5V38.9H66.7V72.2z"/>
<path fill="#ffffff" d="M73.2,25.6l1.4-0.1c0,0.3,0.1,0.6,0.4,0.8c0.2,0.2,0.4,0.3,0.7,0.3c0.3,0,0.6-0.1,0.8-0.4
	c0.2-0.3,0.4-0.7,0.3-1.1c0-0.4-0.1-0.7-0.3-1c-0.2-0.2-0.5-0.3-0.8-0.3c-0.4,0-0.8,0.2-1.1,0.5l-1.1-0.2l0.7-3.8h3.7v1.3h-2.7
	l-0.2,1.2c0.9-0.4,1.9-0.3,2.6,0.4c0.4,0.5,0.7,1.1,0.7,1.8c0,0.6-0.2,1.2-0.5,1.6c-0.5,0.6-1.2,1-1.9,1c-0.6,0-1.2-0.2-1.7-0.6
	C73.6,26.7,73.3,26.2,73.2,25.6z"/>
<g>
	<path fill="#ffffff" d="M28.9,27.3v-7h3c0.6,0,1.1,0.1,1.7,0.2c0.3,0.1,0.6,0.4,0.8,0.7c0.2,0.4,0.3,0.8,0.3,1.2c0,0.5-0.2,1-0.5,1.4
		c-0.3,0.4-0.8,0.6-1.4,0.7c0.3,0.2,0.5,0.4,0.8,0.6c0.3,0.3,0.6,0.7,0.8,1.2l0.9,1.4h-1.7l-1-1.6c-0.2-0.4-0.5-0.7-0.8-1.1
		c-0.1-0.2-0.3-0.2-0.5-0.3c-0.2-0.1-0.4-0.1-0.7-0.1h-0.3v2.9L28.9,27.3L28.9,27.3z M30.4,23.2h1.1c0.4,0,0.9,0,1.3-0.1
		c0.2,0,0.3-0.2,0.4-0.3c0.1-0.1,0.2-0.3,0.2-0.5c0-0.2-0.1-0.4-0.2-0.6c-0.1-0.2-0.3-0.2-0.5-0.3h-2.2L30.4,23.2z"/>
	<path fill="#ffffff" d="M39,25.8l1.4,0.2c-0.2,0.4-0.4,0.8-0.8,1.2c-0.4,0.2-0.9,0.4-1.4,0.4c-0.8,0.1-1.5-0.3-1.9-0.9
		c-0.3-0.5-0.5-1.1-0.5-1.8c-0.1-0.7,0.2-1.4,0.7-1.9c0.5-0.4,1-0.7,1.7-0.7c0.7-0.1,1.3,0.2,1.8,0.8c0.5,0.7,0.8,1.5,0.7,2.3h-3.4
		c0,0.3,0.1,0.7,0.3,1c0.2,0.2,0.5,0.3,0.8,0.3c0.2,0,0.4,0,0.5-0.2C38.8,26.3,38.9,26,39,25.8z M39.1,24.3c0-0.3-0.1-0.6-0.3-0.9
		c-0.2-0.2-0.4-0.3-0.7-0.3c-0.3,0-0.5,0.1-0.7,0.3c-0.2,0.2-0.3,0.6-0.3,0.9H39.1z"/>
	<path fill="#ffffff" d="M42.4,27.3l-1.7-5.2H42l1,3.3l0.9-3.3h1.3l0.9,3.3l1-3.3h1.4l-1.6,5.2h-1.3L44.6,24l-0.9,3.3L42.4,27.3z"/>
	<path fill="#ffffff" d="M50.1,23.8l-1.2-0.2c0.1-0.4,0.3-0.8,0.7-1.1c0.4-0.3,0.9-0.4,1.5-0.4c0.5,0,0.9,0.1,1.4,0.2
		c0.3,0.2,0.5,0.3,0.6,0.6c0.1,0.4,0.2,0.8,0.2,1.2v1.6c0,0.3,0,0.7,0.1,1c0,0.2,0.1,0.5,0.2,0.7h-1.4c0-0.1-0.1-0.2-0.1-0.4v-0.2
		c-0.2,0.2-0.4,0.4-0.7,0.5c-0.3,0.1-0.6,0.2-0.9,0.2c-0.5,0-0.9-0.2-1.3-0.5c-0.3-0.3-0.5-0.7-0.5-1.1c0-0.3,0.1-0.5,0.2-0.8
		c0.1-0.2,0.3-0.4,0.6-0.5c0.3-0.1,0.7-0.2,1.1-0.3c0.4,0,0.9-0.1,1.3-0.3v-0.1c0-0.2-0.1-0.4-0.2-0.6c-0.2-0.1-0.4-0.2-0.7-0.2
		c-0.2,0-0.5,0-0.6,0.2C50.2,23.5,50.1,23.6,50.1,23.8z M51.9,24.9c-0.3,0-0.5,0.1-0.8,0.2c-0.4,0.1-0.6,0.2-0.7,0.2
		c-0.2,0.1-0.3,0.3-0.3,0.5c0,0.2,0.1,0.4,0.2,0.5c0.1,0.1,0.3,0.2,0.5,0.2c0.2,0,0.5-0.1,0.7-0.2c0.2-0.1,0.3-0.3,0.3-0.5v-0.7
		L51.9,24.9L51.9,24.9z"/>
	<path fill="#ffffff" d="M55.8,27.3h-1.4v-5.2h1.3v0.7c0.1-0.3,0.3-0.5,0.6-0.7c0.2-0.1,0.4-0.2,0.6-0.2c0.3,0,0.6,0.1,0.9,0.2
		l-0.4,1.2c-0.2-0.1-0.4-0.2-0.7-0.2c-0.2,0-0.4,0-0.5,0.2c-0.1,0.2-0.2,0.4-0.3,0.6c-0.1,0.6-0.1,1.2-0.1,1.8L55.8,27.3L55.8,27.3z
		"/>
	<path fill="#ffffff" d="M63,27.3h-1.3v-0.8c-0.2,0.3-0.4,0.5-0.7,0.7c-0.3,0.2-0.6,0.2-0.9,0.2c-0.6,0-1.1-0.2-1.5-0.7
		c-0.4-0.6-0.6-1.3-0.6-1.9c-0.1-0.7,0.1-1.4,0.6-1.9c0.4-0.5,1-0.7,1.6-0.7c0.6,0,1.1,0.2,1.5,0.7v-2.5h1.3L63,27.3L63,27.3z
		 M59.4,24.7c0,0.4,0,0.8,0.2,1.2c0.2,0.4,0.5,0.5,1,0.5c0.3,0,0.6-0.1,0.8-0.4c0.2-0.4,0.3-0.8,0.3-1.2c0-0.4-0.1-0.9-0.3-1.3
		C61,23.1,60.4,23,60,23.3c-0.1,0.1-0.1,0.1-0.2,0.2C59.5,23.8,59.4,24.3,59.4,24.7z"/>
	<path fill="#ffffff" d="M71.5,20.4l-0.3,1.4c-0.3-0.3-0.7-0.4-1.2-0.4c-0.5,0-1,0.2-1.3,0.6c-0.2,0.2-0.3,0.5-0.4,0.8H71l-0.2,0.8
		h-2.5v0.7h2.4L70.5,25h-2.1c0,0.3,0.2,0.6,0.4,0.8c0.3,0.4,0.8,0.6,1.3,0.6c0.5,0,1.1-0.2,1.5-0.6v1.5c-0.5,0.2-1,0.3-1.5,0.3
		c-0.9,0-1.7-0.3-2.3-1c-0.4-0.5-0.7-1-0.8-1.7h-0.7l0.2-0.8h0.5v-0.6h-0.7l0.2-0.8H67c0.1-0.6,0.4-1.2,0.8-1.7c0.6-0.7,1.5-1,2.3-1
		C70.6,20.1,71.1,20.2,71.5,20.4z"/>
</g>
<polygon fill="#ffffff" points="14.2,77.6 9,77.6 17,91.8 24.8,77.6 19.7,77.6 19.7,31.1 23.4,27.1 23.4,13.4 17.3,20.1 10.6,12.9 
	10.6,26.4 14.2,30.7 "/>
<g>
	<path fill="#ffffff" d="M79.1,21.6v-1.3h5v1c-0.4,0.4-0.9,0.9-1.3,1.7s-0.8,1.5-0.9,2.4c-0.1,0.9-0.3,1.7-0.3,2.3h-1.4
		c0-1,0.3-2,0.6-3.2c0.4-1,0.9-2,1.7-2.9L79.1,21.6L79.1,21.6z"/>
</g>
<g>
	<path fill="#ffffff" d="M86,27.8v-6.9h1.3v3.7l1.5-1.8h1.6l-1.7,1.8l1.8,3.2h-1.4l-1.3-2.2l-0.6,0.6v1.6H86z"/>
</g>
</svg>
