<?xml version="1.0" encoding="utf-8"?>
<!-- Generator: Adobe Illustrator 24.0.2, SVG Export Plug-In . SVG Version: 6.00 Build 0)  -->
<svg version="1.1" id="Layer_1" xmlns="http://www.w3.org/2000/svg" xmlns:xlink="http://www.w3.org/1999/xlink" x="0px" y="0px"
	 viewBox="0 0 100 100" style="enable-background:new 0 0 100 100;" xml:space="preserve">
<rect y="0" fill="#105cfb" width="100" height="100"/>
<polygon fill="#fff" points="56.3,77.2 28.8,77.2 28.8,34 56.2,34 56.2,38.9 33.8,38.9 33.8,72.2 51.3,72.2 51.3,56.4 43.7,56.4 
	43.7,51.4 56.3,51.4 "/>
<path fill="#fff" d="M89.2,77.2H61.7V34h27.5V77.2z M66.7,72.2h17.5V38.9H66.7V72.2z"/>
<path fill="#fff" d="M77.2,25.9l1.5-0.2c0,0.3,0.2,0.6,0.4,0.8c0.2,0.2,0.5,0.3,0.7,0.3c0.3,0,0.6-0.1,0.8-0.4
	c0.3-0.3,0.4-0.8,0.4-1.2c0-0.4-0.1-0.8-0.4-1.1c-0.2-0.2-0.5-0.4-0.9-0.4c-0.5,0-0.9,0.2-1.2,0.6l-1.2-0.2l0.8-4.2h4.1v1.4h-2.9
	l-0.2,1.4c0.9-0.5,2.1-0.3,2.8,0.5c0.5,0.5,0.7,1.2,0.7,2c0,0.6-0.2,1.3-0.6,1.8c-0.5,0.7-1.3,1.1-2.1,1.1c-0.7,0-1.3-0.2-1.8-0.6
	C77.6,27.1,77.3,26.6,77.2,25.9z"/>
<g>
	<path fill="#fff" d="M28.9,27.8v-7.6h3.3c0.6,0,1.2,0.1,1.8,0.2c0.4,0.1,0.7,0.4,0.8,0.7c0.2,0.4,0.3,0.8,0.3,1.3s-0.2,1.1-0.5,1.5
		c-0.4,0.4-0.9,0.7-1.5,0.7c0.3,0.2,0.6,0.4,0.8,0.6c0.3,0.4,0.6,0.8,0.8,1.3l1,1.5H34l-1.1-1.7c-0.2-0.4-0.5-0.8-0.8-1.2
		c-0.1-0.2-0.3-0.2-0.5-0.3s-0.4-0.1-0.7-0.1h-0.3v3.2H29L28.9,27.8z M30.5,23.3h1.2c0.5,0,0.9,0,1.4-0.1c0.2,0,0.3-0.2,0.4-0.3
		c0.1-0.1,0.2-0.3,0.2-0.5s-0.1-0.5-0.2-0.6c-0.1-0.2-0.3-0.2-0.5-0.3h-2.4L30.5,23.3z"/>
	<path fill="#fff" d="M39.9,26.1l1.5,0.2c-0.2,0.5-0.5,0.9-0.8,1.3C40,27.8,39.5,28,39,28c-0.8,0.1-1.6-0.3-2.1-1
		c-0.3-0.6-0.5-1.2-0.5-1.9c-0.1-0.8,0.2-1.6,0.7-2.1s1.1-0.7,1.8-0.7c0.7-0.1,1.5,0.3,1.9,0.8c0.6,0.7,0.8,1.6,0.7,2.5h-3.7
		c0,0.4,0.1,0.8,0.3,1.1c0.2,0.2,0.5,0.3,0.8,0.3c0.2,0,0.4,0,0.5-0.2S39.8,26.3,39.9,26.1z M40,24.5c0-0.3-0.1-0.7-0.3-1
		c-0.2-0.2-0.5-0.3-0.7-0.3c-0.3,0-0.6,0.1-0.7,0.3c-0.2,0.3-0.3,0.6-0.3,1H40z"/>
	<path fill="#fff" d="M43.6,27.8l-1.8-5.6h1.4l1.1,3.6l1-3.6h1.4l1,3.6l1.1-3.6H50l-1.7,5.6H47l-1-3.6l-1,3.6H43.6z"/>
	<path fill="#fff" d="M52,23.9l-1.3-0.2c0.1-0.5,0.4-0.9,0.7-1.2c0.5-0.3,1-0.4,1.6-0.4c0.5,0,1,0.1,1.5,0.2
		c0.3,0.2,0.5,0.3,0.6,0.6c0.2,0.4,0.2,0.8,0.2,1.3V26c0,0.4,0,0.7,0.1,1.1c0,0.3,0.1,0.5,0.2,0.7h-1.5c0-0.1-0.1-0.2-0.1-0.4v-0.2
		c-0.2,0.2-0.5,0.4-0.7,0.5c-0.3,0.1-0.6,0.2-1,0.2c-0.5,0-1-0.2-1.4-0.5c-0.3-0.3-0.5-0.7-0.5-1.2c0-0.3,0.1-0.6,0.2-0.8
		c0.1-0.3,0.4-0.4,0.6-0.5c0.4-0.1,0.8-0.3,1.2-0.3c0.5,0,0.9-0.2,1.4-0.3v-0.1c0-0.2-0.1-0.5-0.2-0.6c-0.2-0.1-0.5-0.2-0.7-0.2
		s-0.5,0-0.6,0.2C52.1,23.6,52,23.7,52,23.9z M54,25.1c-0.3,0-0.6,0.1-0.8,0.2c-0.4,0.1-0.6,0.2-0.7,0.2c-0.2,0.1-0.3,0.3-0.3,0.5
		s0.1,0.4,0.2,0.5c0.1,0.1,0.3,0.2,0.5,0.2c0.3,0,0.5-0.1,0.7-0.2s0.3-0.3,0.3-0.5v-0.8L54,25.1L54,25.1z"/>
	<path fill="#fff" d="M58.2,27.8h-1.5v-5.6h1.4v0.7c0.1-0.3,0.3-0.6,0.6-0.7c0.2-0.1,0.4-0.2,0.6-0.2c0.3,0,0.7,0.1,1,0.2l-0.4,1.3
		c-0.2-0.2-0.5-0.2-0.7-0.2s-0.4,0-0.5,0.2s-0.3,0.4-0.3,0.6c-0.1,0.6-0.1,1.3-0.1,1.9L58.2,27.8L58.2,27.8z"/>
	<path fill="#fff" d="M66.1,27.8h-1.4V27c-0.2,0.3-0.5,0.5-0.7,0.7c-0.3,0.2-0.6,0.2-1,0.2c-0.6,0-1.2-0.3-1.6-0.7
		c-0.4-0.6-0.7-1.4-0.6-2.1c-0.1-0.8,0.2-1.5,0.6-2.1c0.4-0.5,1-0.8,1.7-0.7c0.6,0,1.2,0.3,1.6,0.7v-2.8h1.5L66.1,27.8L66.1,27.8z
		 M62.2,24.9c0,0.4,0.1,0.9,0.2,1.3c0.2,0.4,0.5,0.5,1.1,0.5c0.3,0,0.7-0.1,0.8-0.4c0.2-0.4,0.3-0.8,0.3-1.3s-0.1-1-0.3-1.4
		c-0.4-0.5-1-0.6-1.5-0.2c-0.1,0.1-0.2,0.1-0.2,0.2C62.3,24,62.1,24.4,62.2,24.9z"/>
	<path fill="#fff" d="M75.3,20.2L75,21.7c-0.3-0.3-0.8-0.5-1.3-0.4c-0.5,0-1,0.2-1.4,0.6c-0.2,0.2-0.3,0.5-0.4,0.8h2.9l-0.2,0.8
		h-2.8v0.7h2.7L74.3,25H72c0.1,0.3,0.2,0.6,0.4,0.8c0.3,0.4,0.8,0.7,1.4,0.6c0.6,0,1.2-0.2,1.6-0.6v1.6c-0.5,0.2-1,0.3-1.6,0.3
		c-1,0-1.9-0.4-2.5-1.1c-0.4-0.5-0.7-1.1-0.8-1.8h-0.7L70,24h0.5v-0.6h-0.7l0.2-0.8h0.6c0.1-0.7,0.4-1.3,0.8-1.8
		c0.6-0.7,1.6-1.1,2.5-1.1C74.3,19.9,74.9,20,75.3,20.2z"/>
</g>
<polygon fill="#fff" points="14.2,77.6 9,77.6 17,91.8 24.8,77.6 19.7,77.6 19.7,31.1 23.4,27.1 23.4,13.4 17.3,20.1 10.6,12.9 
	10.6,26.4 14.2,30.7 "/>
<g>
	<path fill="#fff" d="M83.7,21.4v-1.5h5.4v1.2c-0.4,0.4-0.9,1.1-1.4,1.9s-0.8,1.7-1.1,2.6c-0.2,0.9-0.4,1.8-0.4,2.5h-1.5
		c0-1.1,0.3-2.3,0.7-3.5c0.4-1.2,1-2.3,1.8-3.2H83.7z"/>
</g>
</svg>
