<?xml version="1.0" encoding="utf-8"?>
<!-- Generator: Adobe Illustrator 24.0.2, SVG Export Plug-In . SVG Version: 6.00 Build 0)  -->
<svg version="1.1" id="Layer_1" xmlns="http://www.w3.org/2000/svg" xmlns:xlink="http://www.w3.org/1999/xlink" x="0px" y="0px"
	 viewBox="0 0 100 100" style="enable-background:new 0 0 100 100;" xml:space="preserve">
<rect y="0" fill="#105CFB" width="100" height="100"/>
<polygon fill="#ffffff" points="56.3,77.2 28.8,77.2 28.8,34 56.2,34 56.2,38.9 33.8,38.9 33.8,72.2 51.3,72.2 51.3,56.4 43.7,56.4 
	43.7,51.4 56.3,51.4 "/>
<path fill="#ffffff" d="M89.2,77.2H61.7V34h27.5V77.2z M66.7,72.2h17.5V38.9H66.7V72.2z"/>
<path fill="#ffffff" d="M63.8,26.1l1.1-0.1c0,0.2,0.1,0.4,0.3,0.6c0.1,0.1,0.3,0.2,0.5,0.2c0.2,0,0.4-0.1,0.6-0.3
	c0.2-0.2,0.3-0.6,0.3-0.9c0-0.3-0.1-0.6-0.3-0.8c-0.2-0.2-0.4-0.3-0.6-0.3c-0.3,0-0.7,0.2-0.9,0.4L64,24.8l0.6-3h2.9v1h-2.1l-0.2,1
	c0.7-0.3,1.5-0.2,2,0.4c0.4,0.4,0.5,0.9,0.5,1.4c0,0.5-0.1,0.9-0.4,1.3c-0.4,0.5-0.9,0.8-1.5,0.8c-0.5,0-0.9-0.1-1.3-0.4
	C64.1,26.9,63.9,26.5,63.8,26.1z"/>
<g>
	<path fill="#ffffff" d="M28.9,27.4v-5.5h2.4c0.4,0,0.9,0,1.3,0.2c0.3,0.1,0.5,0.3,0.6,0.5c0.2,0.3,0.2,0.6,0.2,0.9
		c0,0.4-0.1,0.8-0.4,1.1c-0.3,0.3-0.7,0.5-1.1,0.5c0.2,0.1,0.4,0.3,0.6,0.5c0.3,0.3,0.5,0.6,0.6,0.9l0.7,1.1h-1.3l-0.8-1.2
		c-0.2-0.3-0.4-0.6-0.6-0.8c-0.1-0.2-0.2-0.2-0.4-0.2c-0.2-0.1-0.3-0.1-0.5-0.1h-0.2v2.3L28.9,27.4L28.9,27.4z M30.1,24.2h0.8
		c0.3,0,0.7,0,1-0.1c0.2,0,0.2-0.2,0.3-0.2c0.1-0.1,0.2-0.2,0.2-0.4c0-0.2-0.1-0.3-0.2-0.5c-0.1-0.2-0.2-0.2-0.4-0.2h-1.8L30.1,24.2
		z"/>
	<path fill="#ffffff" d="M36.8,26.2l1.1,0.2c-0.1,0.3-0.3,0.7-0.6,0.9c-0.3,0.2-0.7,0.3-1.1,0.3c-0.6,0.1-1.2-0.2-1.5-0.7
		c-0.3-0.4-0.4-0.9-0.4-1.4c-0.1-0.6,0.1-1.1,0.5-1.5c0.4-0.3,0.8-0.5,1.3-0.5c0.5-0.1,1.1,0.2,1.4,0.6c0.4,0.5,0.6,1.2,0.5,1.8
		h-2.7c0,0.3,0.1,0.5,0.2,0.8c0.2,0.2,0.4,0.2,0.6,0.2c0.2,0,0.3,0,0.4-0.2C36.7,26.5,36.8,26.3,36.8,26.2z M36.9,25
		c0-0.3-0.1-0.5-0.2-0.7c-0.1-0.1-0.3-0.2-0.5-0.2c-0.2,0-0.4,0.1-0.5,0.2c-0.2,0.2-0.3,0.4-0.2,0.7H36.9z"/>
	<path fill="#ffffff" d="M39.5,27.4l-1.3-4.1h1l0.8,2.6l0.7-2.6h1l0.7,2.6l0.8-2.6h1.1L43,27.4h-1l-0.7-2.6l-0.7,2.6L39.5,27.4z"/>
	<path fill="#ffffff" d="M45.6,24.6l-0.9-0.2c0.1-0.3,0.3-0.6,0.5-0.8c0.4-0.2,0.7-0.3,1.2-0.3c0.4,0,0.7,0,1.1,0.2
		c0.2,0.2,0.4,0.2,0.5,0.5c0.1,0.3,0.2,0.6,0.2,0.9v1.2c0,0.3,0,0.5,0.1,0.8c0,0.2,0.1,0.4,0.2,0.5h-1.1c0-0.1-0.1-0.2-0.1-0.3v-0.2
		c-0.2,0.2-0.3,0.3-0.5,0.4c-0.2,0.1-0.5,0.2-0.7,0.2c-0.4,0-0.7-0.1-1-0.4c-0.2-0.2-0.4-0.5-0.4-0.8c0-0.2,0.1-0.4,0.2-0.6
		c0.1-0.2,0.3-0.3,0.5-0.4c0.3-0.1,0.6-0.2,0.8-0.2c0.3,0,0.7-0.1,1-0.2v-0.1c0-0.2-0.1-0.3-0.2-0.5c-0.2-0.1-0.3-0.2-0.5-0.2
		c-0.2,0-0.4,0-0.5,0.2C45.7,24.3,45.6,24.5,45.6,24.6z M47.1,25.5c-0.2,0-0.4,0.1-0.6,0.2c-0.3,0.1-0.5,0.2-0.5,0.2
		c-0.1,0.1-0.2,0.2-0.2,0.4c0,0.1,0.1,0.3,0.2,0.4c0.1,0.1,0.2,0.1,0.4,0.2c0.2,0,0.4-0.1,0.5-0.2c0.1-0.1,0.2-0.2,0.2-0.4v-0.5
		L47.1,25.5L47.1,25.5z"/>
	<path fill="#ffffff" d="M50.1,27.4h-1.1v-4.1h1v0.5c0.1-0.2,0.2-0.4,0.4-0.5c0.1-0.1,0.3-0.1,0.5-0.2c0.2,0,0.5,0.1,0.7,0.2l-0.3,0.9
		c-0.2-0.1-0.3-0.2-0.5-0.2c-0.2,0-0.3,0-0.4,0.2c-0.1,0.1-0.2,0.3-0.2,0.5c-0.1,0.5-0.1,0.9-0.1,1.4L50.1,27.4L50.1,27.4z"/>
	<path fill="#ffffff" d="M55.8,27.4h-1v-0.6c-0.2,0.2-0.3,0.4-0.5,0.5c-0.2,0.1-0.5,0.2-0.7,0.2c-0.4,0-0.9-0.2-1.2-0.5
		c-0.3-0.4-0.5-1-0.5-1.5c0-0.6,0.1-1.1,0.5-1.5c0.3-0.4,0.8-0.6,1.2-0.5c0.4,0,0.9,0.2,1.2,0.5v-2h1.1L55.8,27.4L55.8,27.4z
		 M53,25.3c0,0.3,0,0.6,0.2,0.9c0.2,0.3,0.4,0.4,0.8,0.4c0.2,0,0.5-0.1,0.6-0.3c0.2-0.3,0.2-0.6,0.2-0.9c0-0.3-0.1-0.7-0.2-1
		c-0.3-0.3-0.7-0.4-1.1-0.2c-0.1,0-0.1,0.1-0.2,0.2C53,24.6,52.9,25,53,25.3z"/>
	<path fill="#ffffff" d="M62.5,21.9L62.3,23c-0.3-0.2-0.6-0.3-0.9-0.3c-0.4,0-0.8,0.2-1,0.5c-0.1,0.2-0.3,0.4-0.3,0.6h2.1L62,24.4h-2
		v0.5h1.9l-0.2,0.6H60c0,0.2,0.1,0.4,0.3,0.6c0.2,0.3,0.6,0.5,1,0.5c0.4,0,0.9-0.2,1.2-0.5v1.2c-0.4,0.2-0.8,0.2-1.2,0.2
		c-0.7,0-1.4-0.3-1.8-0.8c-0.3-0.4-0.5-0.8-0.6-1.3h-0.5l0.2-0.6h0.4v-0.5h-0.5l0.2-0.6H59c0.1-0.5,0.3-0.9,0.6-1.3
		c0.5-0.5,1.1-0.8,1.8-0.8C61.8,21.7,62.2,21.8,62.5,21.9z"/>
</g>
<polygon fill="#ffffff" points="14.2,77.6 9,77.6 17,91.8 24.8,77.6 19.7,77.6 19.7,31.1 23.4,27.1 23.4,13.4 17.3,20.1 10.6,12.9 
	10.6,26.4 14.2,30.7 "/>
<g>
	<path fill="#ffffff" d="M68.3,22.9v-1h3.9v0.8c-0.3,0.3-0.7,0.7-1,1.3s-0.6,1.2-0.7,1.9c-0.1,0.7-0.2,1.3-0.2,1.8h-1.1
		c0-0.8,0.2-1.6,0.5-2.5c0.3-0.8,0.7-1.6,1.3-2.3L68.3,22.9L68.3,22.9z"/>
</g>
<g>
	<path fill="#ffffff" d="M74.4,21.7c0.6,0,1,0.2,1.3,0.6c0.4,0.5,0.6,1.3,0.6,2.4c0,1.1-0.2,1.9-0.6,2.4c-0.3,0.4-0.7,0.6-1.3,0.6
		c-0.6,0-1-0.2-1.4-0.6c-0.3-0.4-0.5-1.2-0.5-2.3c0-1.1,0.2-1.9,0.6-2.3C73.4,21.9,73.8,21.7,74.4,21.7z M74.4,22.6
		c-0.1,0-0.3,0-0.4,0.1c-0.1,0.1-0.2,0.2-0.2,0.5c-0.1,0.3-0.1,0.8-0.1,1.4c0,0.7,0,1.1,0.1,1.4c0.1,0.3,0.2,0.4,0.3,0.5
		c0.1,0.1,0.2,0.1,0.4,0.1s0.3,0,0.4-0.1c0.1-0.1,0.2-0.2,0.2-0.5c0.1-0.3,0.1-0.8,0.1-1.4c0-0.7,0-1.1-0.1-1.4
		c-0.1-0.3-0.2-0.4-0.3-0.5C74.6,22.7,74.5,22.6,74.4,22.6z"/>
</g>
<g>
	<path fill="#ffffff" d="M78.2,27.7v-6.1h1.2v3.2l1.4-1.5h1.4l-1.5,1.6l1.6,2.8H81l-1.1-2l-0.5,0.6v1.4H78.2z"/>
</g>
</svg>
