<?xml version="1.0" encoding="utf-8"?>
<!-- Generator: Adobe Illustrator 24.0.2, SVG Export Plug-In . SVG Version: 6.00 Build 0)  -->
<svg version="1.1" id="Layer_1" xmlns="http://www.w3.org/2000/svg" xmlns:xlink="http://www.w3.org/1999/xlink" x="0px" y="0px"
	 viewBox="0 0 100 100" style="enable-background:new 0 0 100 100;" xml:space="preserve">
<rect y="0" fill="#105CFB" width="100" height="100"/>
<polygon fill="#ffffff" points="56.3,77.2 28.8,77.2 28.8,34 56.2,34 56.2,38.9 33.8,38.9 33.8,72.2 51.3,72.2 51.3,56.4 43.7,56.4 
	43.7,51.4 56.3,51.4 "/>
<path fill="#ffffff" d="M89.2,77.2H61.7V34h27.5V77.2z M66.7,72.2h17.5V38.9H66.7V72.2z"/>
<polygon fill="#ffffff" points="14.2,77.6 9,77.6 17,91.8 24.8,77.6 19.7,77.6 19.7,31.1 23.4,27.1 23.4,13.4 17.3,20.1 10.6,12.9 
	10.6,26.4 14.2,30.7 "/>
<g>
	<path fill="#ffffff" d="M69.3,25.8l1.3-0.1c0,0.3,0.1,0.5,0.3,0.7c0.2,0.2,0.4,0.3,0.6,0.3c0.3,0,0.5-0.1,0.7-0.3
		c0.2-0.3,0.3-0.6,0.3-1c0-0.3-0.1-0.6-0.3-0.9c-0.2-0.2-0.4-0.3-0.7-0.3c-0.4,0-0.8,0.2-1,0.5l-1-0.2l0.7-3.5h3.4v1.2h-2.4
		l-0.2,1.1c0.8-0.4,1.7-0.2,2.3,0.4c0.4,0.4,0.6,1,0.6,1.6c0,0.5-0.2,1.1-0.5,1.5c-0.4,0.6-1.1,0.9-1.8,0.9c-0.6,0-1.1-0.2-1.5-0.5
		C69.6,26.8,69.3,26.3,69.3,25.8z"/>
	<path fill="#ffffff" d="M74.7,27.5v-1.3h1.3v1.3H74.7z"/>
	<g>
		<path fill="#ffffff" d="M28.9,27.4V21h2.7c0.5,0,1,0.1,1.5,0.2c0.3,0.1,0.6,0.3,0.7,0.6c0.2,0.3,0.3,0.7,0.3,1.1
			c0,0.5-0.2,0.9-0.4,1.2c-0.3,0.4-0.8,0.6-1.2,0.6c0.3,0.2,0.5,0.3,0.7,0.5c0.3,0.3,0.5,0.7,0.7,1.1l0.8,1.2h-1.5l-0.9-1.4
			c-0.2-0.3-0.4-0.7-0.7-1c-0.1-0.2-0.3-0.2-0.4-0.3s-0.4-0.1-0.6-0.1h-0.3v2.7L28.9,27.4L28.9,27.4z M30.2,23.6h1
			c0.4,0,0.8,0,1.2-0.1c0.2,0,0.3-0.2,0.4-0.3c0.1-0.1,0.2-0.3,0.2-0.4c0-0.2-0.1-0.4-0.2-0.5c-0.1-0.2-0.3-0.2-0.4-0.3h-2
			L30.2,23.6z"/>
		<path fill="#ffffff" d="M38.1,25.9l1.2,0.2c-0.2,0.4-0.4,0.8-0.7,1.1c-0.4,0.2-0.8,0.3-1.2,0.4c-0.7,0.1-1.4-0.2-1.8-0.8
			c-0.3-0.5-0.4-1-0.4-1.6c-0.1-0.7,0.2-1.3,0.6-1.8c0.4-0.4,0.9-0.6,1.5-0.6c0.6-0.1,1.2,0.2,1.6,0.7c0.5,0.6,0.7,1.4,0.6,2.1h-3.1
			c0,0.3,0.1,0.6,0.3,0.9c0.2,0.2,0.4,0.3,0.7,0.3c0.2,0,0.4,0,0.4-0.2C37.9,26.4,38,26.1,38.1,25.9z M38.2,24.6
			c0-0.3-0.1-0.6-0.3-0.8c-0.2-0.2-0.4-0.3-0.6-0.3c-0.2,0-0.5,0.1-0.6,0.3c-0.2,0.2-0.3,0.5-0.3,0.8H38.2z"/>
		<path fill="#ffffff" d="M41.2,27.4l-1.5-4.7h1.2l0.9,3l0.8-3h1.2l0.8,3l0.9-3h1.2l-1.4,4.7H44l-0.8-3l-0.8,3L41.2,27.4z"/>
		<path fill="#ffffff" d="M48.2,24.2L47.1,24c0.1-0.4,0.3-0.7,0.6-1c0.4-0.2,0.9-0.4,1.3-0.4c0.4,0,0.8,0.1,1.2,0.2
			c0.3,0.2,0.4,0.3,0.5,0.5c0.1,0.3,0.2,0.7,0.2,1.1v1.4c0,0.3,0,0.6,0.1,0.9c0,0.2,0.1,0.4,0.2,0.6h-1.2c0-0.1-0.1-0.2-0.1-0.4
			v-0.2c-0.2,0.2-0.4,0.3-0.6,0.4c-0.2,0.1-0.5,0.2-0.8,0.2c-0.4,0-0.8-0.2-1.2-0.4c-0.3-0.3-0.4-0.6-0.4-1c0-0.2,0.1-0.5,0.2-0.7
			c0.1-0.2,0.3-0.4,0.5-0.4c0.3-0.1,0.6-0.2,1-0.3c0.4,0,0.8-0.1,1.2-0.3v-0.1c0-0.2-0.1-0.4-0.2-0.5c-0.2-0.1-0.4-0.2-0.6-0.2
			c-0.2,0-0.4,0-0.5,0.2C48.3,23.8,48.2,24,48.2,24.2z M49.9,25.1c-0.2,0-0.5,0.1-0.7,0.2c-0.4,0.1-0.5,0.2-0.6,0.2
			c-0.2,0.1-0.3,0.3-0.3,0.4c0,0.2,0.1,0.3,0.2,0.4c0.1,0.1,0.3,0.2,0.4,0.2c0.2,0,0.4-0.1,0.6-0.2c0.2-0.1,0.3-0.3,0.3-0.4v-0.6
			L49.9,25.1L49.9,25.1z"/>
		<path fill="#ffffff" d="M53.4,27.4h-1.2v-4.7h1.2v0.6c0.1-0.3,0.3-0.5,0.5-0.6c0.2-0.1,0.3-0.2,0.5-0.2c0.3,0,0.5,0.1,0.8,0.2
			l-0.4,1.1c-0.2-0.1-0.4-0.2-0.6-0.2c-0.2,0-0.4,0-0.4,0.2c-0.1,0.2-0.2,0.3-0.3,0.5c-0.1,0.5-0.1,1.1-0.1,1.6L53.4,27.4L53.4,27.4
			z"/>
		<path fill="#ffffff" d="M60,27.4h-1.2v-0.7c-0.2,0.2-0.4,0.4-0.6,0.6c-0.2,0.1-0.5,0.2-0.8,0.2c-0.5,0-1-0.2-1.3-0.6
			c-0.4-0.5-0.6-1.1-0.5-1.8c-0.1-0.6,0.1-1.3,0.5-1.8c0.4-0.4,0.9-0.6,1.4-0.6c0.5,0,1,0.2,1.3,0.6V21h1.2L60,27.4L60,27.4z
			 M56.7,25c0,0.4,0,0.7,0.2,1.1c0.2,0.4,0.4,0.4,0.9,0.4c0.3,0,0.6-0.1,0.7-0.4c0.2-0.3,0.3-0.7,0.3-1.1c0-0.4-0.1-0.8-0.3-1.2
			c-0.3-0.4-0.9-0.5-1.2-0.2c-0.1,0.1-0.1,0.1-0.2,0.2C56.8,24.2,56.7,24.6,56.7,25z"/>
		<path fill="#ffffff" d="M67.7,21l-0.3,1.2c-0.3-0.3-0.7-0.4-1.1-0.4c-0.4,0-0.9,0.2-1.2,0.5c-0.2,0.2-0.3,0.4-0.4,0.7h2.4l-0.2,0.7
			h-2.3v0.6H67l-0.2,0.7h-2c0,0.3,0.2,0.5,0.4,0.7c0.3,0.4,0.7,0.6,1.2,0.5c0.5,0,1-0.2,1.3-0.5v1.3c-0.4,0.2-0.9,0.3-1.3,0.3
			c-0.8,0-1.6-0.3-2.1-0.9c-0.4-0.4-0.6-0.9-0.7-1.5h-0.6l0.2-0.7h0.4v-0.5h-0.6l0.2-0.7h0.5c0.1-0.6,0.3-1.1,0.7-1.5
			c0.5-0.6,1.3-0.9,2.1-0.9C66.9,20.8,67.3,20.9,67.7,21z"/>
	</g>
	<g>
		<path fill="#ffffff" d="M82.4,23h1.2v0.6c0.4-0.4,0.9-0.7,1.4-0.7c0.3,0,0.5,0.1,0.8,0.2c0.2,0.1,0.4,0.3,0.5,0.5
			c0.2-0.3,0.4-0.4,0.6-0.5c0.3-0.1,0.4-0.2,0.7-0.2c0.4,0,0.6,0.1,0.9,0.2c0.3,0.2,0.4,0.4,0.5,0.6c0.1,0.2,0.1,0.5,0.1,1v2.9h-1.2
			v-2.7c0-0.4,0-0.7-0.1-0.9c-0.1-0.2-0.3-0.3-0.5-0.3c-0.2,0-0.4,0.1-0.4,0.2c-0.2,0.1-0.3,0.3-0.4,0.4c-0.1,0.2-0.1,0.5-0.1,1v2.2
			h-1.2v-2.5c0-0.4,0-0.7-0.1-0.9C85,24,85,23.9,84.9,23.9c-0.1-0.1-0.2-0.1-0.4-0.1c-0.2,0-0.4,0.1-0.5,0.2
			c-0.2,0.1-0.3,0.3-0.4,0.4c-0.1,0.2-0.1,0.5-0.1,1v2.2h-1.2V23z"/>
	</g>
	<g>
		<path fill="#ffffff" d="M76.7,21.9v-1.2h4.5v0.9c-0.3,0.3-0.8,0.8-1.2,1.5s-0.7,1.4-0.8,2.2c-0.1,0.8-0.2,1.5-0.2,2.1h-1.3
			c0-0.9,0.2-1.9,0.6-2.9c0.3-0.9,0.8-1.9,1.5-2.7L76.7,21.9L76.7,21.9z"/>
	</g>
</g>
</svg>
