<?xml version="1.0" encoding="utf-8"?>
<!-- Generator: Adobe Illustrator 24.0.2, SVG Export Plug-In . SVG Version: 6.00 Build 0)  -->
<svg version="1.1" id="Layer_1" xmlns="http://www.w3.org/2000/svg" xmlns:xlink="http://www.w3.org/1999/xlink" x="0px" y="0px"
	 viewBox="0 0 100 100" style="enable-background:new 0 0 100 100;" xml:space="preserve">
<rect y="0" fill="#105CFB" width="100" height="100"/>
<polygon fill="#fff" points="56.3,77.2 28.8,77.2 28.8,34 56.2,34 56.2,38.9 33.8,38.9 33.8,72.2 51.3,72.2 51.3,56.4 43.7,56.4 
	43.7,51.4 56.3,51.4 "/>
<path fill="#fff" d="M89.2,77.2H61.7V34h27.5V77.2z M66.7,72.2h17.5V38.9H66.7V72.2z"/>
<path fill="#fff" d="M74.4,25.6l1.4-0.1c0,0.3,0.2,0.6,0.4,0.8c0.2,0.2,0.4,0.3,0.7,0.3c0.3,0,0.6-0.1,0.8-0.4
	c0.2-0.3,0.4-0.7,0.4-1.1c0-0.4-0.1-0.7-0.3-1c-0.2-0.2-0.5-0.4-0.8-0.3c-0.4,0-0.8,0.2-1.1,0.5L74.6,24l0.7-3.9h3.8v1.4h-2.7
	l-0.2,1.3c0.9-0.4,2-0.3,2.6,0.5c0.5,0.5,0.7,1.2,0.7,1.8c0,0.6-0.2,1.2-0.6,1.7c-0.5,0.6-1.2,1-2,1c-0.6,0-1.2-0.2-1.7-0.6
	C74.7,26.7,74.4,26.2,74.4,25.6z"/>
<path fill="#fff" d="M80.5,27.5v-1.5H82v1.5H80.5z"/>
<g>
	<path fill="#fff" d="M28.9,27.3v-7.2H32c0.6,0,1.1,0.1,1.7,0.2c0.3,0.1,0.6,0.4,0.8,0.7c0.2,0.4,0.3,0.8,0.3,1.2
		c0,0.5-0.2,1-0.5,1.4c-0.4,0.4-0.9,0.7-1.4,0.7c0.3,0.2,0.6,0.4,0.8,0.6c0.3,0.4,0.6,0.8,0.8,1.2l0.9,1.4h-1.7l-1-1.6
		c-0.2-0.4-0.5-0.8-0.8-1.1c-0.1-0.2-0.3-0.2-0.5-0.3s-0.4-0.1-0.7-0.1h-0.3v3h-1.5L28.9,27.3z M30.4,23.1h1.1c0.4,0,0.9,0,1.3-0.1
		c0.2,0,0.3-0.2,0.4-0.3c0.1-0.1,0.2-0.3,0.2-0.5c0-0.2-0.1-0.4-0.2-0.6c-0.1-0.2-0.3-0.2-0.5-0.3h-2.3L30.4,23.1z"/>
	<path fill="#fff" d="M39.2,25.7l1.4,0.2c-0.2,0.4-0.5,0.9-0.8,1.2c-0.4,0.2-0.9,0.4-1.4,0.4c-0.8,0.1-1.5-0.3-2-0.9
		c-0.3-0.5-0.5-1.2-0.5-1.8c-0.1-0.7,0.2-1.5,0.7-2c0.5-0.4,1.1-0.7,1.7-0.7c0.7-0.1,1.4,0.2,1.8,0.8c0.5,0.7,0.8,1.5,0.7,2.4h-3.5
		c0,0.4,0.1,0.7,0.3,1c0.2,0.2,0.5,0.3,0.8,0.3c0.2,0,0.4,0,0.5-0.2S39.1,25.9,39.2,25.7z M39.3,24.2c0-0.3-0.1-0.7-0.3-0.9
		c-0.2-0.2-0.4-0.3-0.7-0.3c-0.3,0-0.5,0.1-0.7,0.3c-0.2,0.2-0.3,0.6-0.3,0.9H39.3z"/>
	<path fill="#fff" d="M42.7,27.3L41,22h1.3l1,3.4l0.9-3.4h1.3l0.9,3.4l1-3.4h1.4l-1.6,5.3h-1.3L45,23.9l-0.9,3.4L42.7,27.3z"/>
	<path fill="#fff" d="M50.6,23.7l-1.2-0.2c0.1-0.4,0.3-0.8,0.7-1.1c0.5-0.3,1-0.4,1.5-0.4c0.5,0,0.9,0.1,1.4,0.2
		c0.3,0.2,0.5,0.3,0.6,0.6c0.2,0.4,0.2,0.8,0.2,1.2v1.6c0,0.3,0,0.7,0.1,1c0,0.2,0.1,0.5,0.2,0.7h-1.4c0-0.1-0.1-0.2-0.1-0.4v-0.2
		c-0.2,0.2-0.4,0.4-0.7,0.5c-0.3,0.1-0.6,0.2-0.9,0.2c-0.5,0-0.9-0.2-1.3-0.5c-0.3-0.3-0.5-0.7-0.5-1.1c0-0.3,0.1-0.6,0.2-0.8
		c0.1-0.2,0.3-0.4,0.6-0.5c0.4-0.1,0.7-0.2,1.1-0.3c0.4,0,0.9-0.1,1.3-0.3v-0.1c0-0.2-0.1-0.4-0.2-0.6C52,23.1,51.8,23,51.5,23
		c-0.2,0-0.5,0-0.6,0.2C50.8,23.3,50.7,23.5,50.6,23.7z M52.5,24.8c-0.3,0-0.5,0.1-0.8,0.2c-0.4,0.1-0.6,0.2-0.7,0.2
		c-0.2,0.1-0.3,0.3-0.3,0.5c0,0.2,0.1,0.4,0.2,0.5c0.1,0.1,0.3,0.2,0.5,0.2c0.2,0,0.5-0.1,0.7-0.2c0.2-0.1,0.3-0.3,0.3-0.5V25
		L52.5,24.8L52.5,24.8z"/>
	<path fill="#fff" d="M56.5,27.3h-1.4V22h1.3v0.7c0.1-0.3,0.3-0.5,0.6-0.7c0.2-0.1,0.4-0.2,0.6-0.2c0.3,0,0.6,0.1,0.9,0.2l-0.4,1.2
		C57.9,23,57.7,23,57.4,23c-0.2,0-0.4,0-0.5,0.2c-0.1,0.2-0.2,0.4-0.3,0.6c-0.1,0.6-0.1,1.2-0.1,1.8L56.5,27.3L56.5,27.3z"/>
	<path fill="#fff" d="M63.9,27.3h-1.3v-0.8c-0.2,0.3-0.4,0.5-0.7,0.7c-0.3,0.2-0.6,0.2-0.9,0.2c-0.6,0-1.1-0.2-1.5-0.7
		c-0.4-0.6-0.6-1.3-0.6-2c-0.1-0.7,0.2-1.4,0.6-2c0.4-0.5,1-0.7,1.6-0.7c0.6,0,1.1,0.2,1.5,0.7v-2.6H64L63.9,27.3L63.9,27.3z
		 M60.2,24.6c0,0.4,0,0.8,0.2,1.2c0.2,0.4,0.5,0.5,1,0.5c0.3,0,0.6-0.1,0.8-0.4c0.2-0.4,0.3-0.8,0.3-1.2c0-0.5-0.1-0.9-0.3-1.3
		c-0.3-0.4-1-0.5-1.4-0.2c-0.1,0.1-0.1,0.1-0.2,0.2C60.3,23.7,60.2,24.2,60.2,24.6z"/>
	<path fill="#fff" d="M72.6,20.2l-0.3,1.4c-0.3-0.3-0.8-0.4-1.2-0.4c-0.5,0-1,0.2-1.3,0.6c-0.2,0.2-0.3,0.5-0.4,0.8h2.7l-0.2,0.8
		h-2.6v0.7h2.5l-0.2,0.8h-2.2c0,0.3,0.2,0.6,0.4,0.8c0.3,0.4,0.8,0.6,1.3,0.6c0.6,0,1.1-0.2,1.5-0.6v1.5c-0.5,0.2-1,0.3-1.5,0.3
		c-0.9,0-1.8-0.3-2.4-1c-0.4-0.5-0.7-1.1-0.8-1.7h-0.7l0.2-0.8h0.5v-0.6h-0.7l0.2-0.8H68c0.1-0.6,0.4-1.2,0.8-1.7
		c0.6-0.7,1.5-1,2.4-1C71.7,19.9,72.2,20,72.6,20.2z"/>
</g>
<polygon fill="#fff" points="14.2,77.6 9,77.6 17,91.8 24.8,77.6 19.7,77.6 19.7,31.1 23.4,27.1 23.4,13.4 17.3,20.1 10.6,12.9 
	10.6,26.4 14.2,30.7 "/>
<g>
	<path fill="#fff" d="M82.6,21.5v-1.4h5v1.1c-0.4,0.4-0.8,1-1.3,1.8c-0.4,0.8-0.8,1.6-1,2.4C85.1,26.2,85,27,85,27.7h-1.4
		c0-1.1,0.2-2.1,0.7-3.2s1-2.1,1.7-3H82.6z"/>
</g>
</svg>
