<?xml version="1.0" encoding="utf-8"?>
<!-- Generator: Adobe Illustrator 24.0.2, SVG Export Plug-In . SVG Version: 6.00 Build 0)  -->
<svg version="1.1" id="Layer_1" xmlns="http://www.w3.org/2000/svg" xmlns:xlink="http://www.w3.org/1999/xlink" x="0px" y="0px"
	 viewBox="0 0 100 100" style="enable-background:new 0 0 100 100;" xml:space="preserve">
<rect y="0" fill="#105CFB" width="100" height="100"/>
<polygon fill="#ffffff" points="47.3,77.2 19.8,77.2 19.8,34 47.2,34 47.2,38.9 24.8,38.9 24.8,72.2 42.3,72.2 42.3,56.4 34.7,56.4 
	34.7,51.4 47.3,51.4 "/>
<path fill="#ffffff" d="M80.2,77.2H52.7V34h27.5V77.2z M57.7,72.2h17.5V38.9H57.7V72.2z"/>
<g>
	<path fill="#ffffff" d="M21.6,27.3v-5.9h2.5c0.5,0,0.9,0,1.4,0.2c0.3,0.1,0.5,0.3,0.7,0.6c0.2,0.3,0.3,0.6,0.2,1
		c0,0.4-0.2,0.8-0.4,1.1c-0.3,0.3-0.7,0.5-1.1,0.6c0.2,0.1,0.5,0.3,0.7,0.5c0.3,0.3,0.5,0.6,0.7,1l0.7,1.1h-1.4l-0.8-1.3
		c-0.2-0.3-0.4-0.6-0.7-0.9c-0.1-0.2-0.2-0.2-0.4-0.2C23.5,25,23.4,25,23.1,25h-0.2v2.5L21.6,27.3L21.6,27.3z M22.9,23.9h0.9
		c0.4,0,0.7,0,1.1-0.1c0.2,0,0.2-0.2,0.3-0.2c0.1-0.1,0.2-0.3,0.2-0.4c0-0.2-0.1-0.3-0.2-0.5s-0.2-0.2-0.4-0.2h-1.9V23.9z"/>
	<path fill="#ffffff" d="M30.1,26l1.1,0.2c-0.2,0.4-0.4,0.7-0.7,1c-0.4,0.2-0.7,0.3-1.1,0.3c-0.6,0.1-1.3-0.2-1.6-0.7
		c-0.3-0.4-0.4-1-0.4-1.5c-0.1-0.6,0.1-1.2,0.6-1.6c0.4-0.4,0.9-0.6,1.4-0.6c0.6-0.1,1.1,0.2,1.5,0.7c0.4,0.6,0.6,1.3,0.6,2h-2.9
		c0,0.3,0.1,0.6,0.2,0.8c0.2,0.2,0.4,0.3,0.7,0.2c0.2,0,0.3,0,0.4-0.2C29.9,26.4,30,26.2,30.1,26z M30.2,24.8c0-0.3-0.1-0.5-0.2-0.7
		c-0.2-0.2-0.4-0.3-0.6-0.3S29,23.9,28.8,24c-0.2,0.2-0.3,0.5-0.2,0.7L30.2,24.8z"/>
	<path fill="#ffffff" d="M33,27.3L31.6,23h1l0.8,2.8l0.7-2.8h1.1l0.7,2.8l0.8-2.8h1.1l-1.3,4.3h-1.1l-0.7-2.8L34,27.3H33z"/>
	<path fill="#ffffff" d="M39.4,24.4l-1-0.2c0.1-0.4,0.3-0.7,0.6-0.9c0.4-0.2,0.8-0.3,1.2-0.3s0.8,0.1,1.1,0.2c0.2,0.2,0.4,0.2,0.5,0.5
		s0.2,0.6,0.2,1V26c0,0.3,0,0.6,0.1,0.8c0,0.2,0.1,0.4,0.2,0.6h-1.1c0-0.1-0.1-0.2-0.1-0.3v-0.2c-0.2,0.2-0.4,0.3-0.6,0.4
		c-0.2,0.1-0.5,0.2-0.7,0.2c-0.4,0-0.8-0.1-1.1-0.4c-0.2-0.2-0.4-0.6-0.4-0.9c0-0.2,0.1-0.5,0.2-0.7c0.1-0.2,0.3-0.3,0.5-0.4
		c0.3-0.1,0.6-0.2,0.9-0.2c0.4,0,0.7-0.1,1.1-0.2v-0.1c0-0.2-0.1-0.3-0.2-0.5c-0.2-0.1-0.4-0.2-0.6-0.2c-0.2,0-0.4,0-0.5,0.2
		C39.6,24.1,39.5,24.2,39.4,24.4z M41,25.3c-0.2,0-0.4,0.1-0.7,0.2s-0.5,0.2-0.6,0.2c-0.2,0.1-0.2,0.2-0.2,0.4
		c0,0.3,0.2,0.6,0.5,0.6l0,0c0.2,0,0.4-0.1,0.6-0.2c0.2-0.1,0.2-0.2,0.2-0.4v-0.6L41,25.3L41,25.3z"/>
	<path fill="#ffffff" d="M44.3,27.3h-1.1V23h1.1v0.6c0.1-0.2,0.3-0.4,0.5-0.6c0.1-0.1,0.3-0.1,0.5-0.2c0.3,0,0.5,0.1,0.7,0.2l-0.3,1
		c-0.2-0.1-0.4-0.2-0.6-0.2c-0.2,0-0.3,0-0.4,0.2c-0.1,0.1-0.2,0.3-0.2,0.5c-0.1,0.5-0.1,1-0.1,1.5L44.3,27.3L44.3,27.3z"/>
	<path fill="#ffffff" d="M50.4,27.3h-1.1v-0.7c-0.2,0.2-0.4,0.4-0.6,0.6c-0.2,0.1-0.5,0.2-0.7,0.2c-0.5,0-0.9-0.2-1.2-0.6
		c-0.3-0.5-0.5-1.1-0.5-1.6c-0.1-0.6,0.1-1.2,0.5-1.6c0.3-0.4,0.8-0.6,1.3-0.6s0.9,0.2,1.2,0.6v-2.1h1.1
		C50.4,21.4,50.4,27.3,50.4,27.3z M47.3,25.1c0,0.3,0,0.7,0.2,1s0.4,0.4,0.8,0.4c0.3,0,0.5-0.1,0.7-0.3c0.2-0.3,0.3-0.6,0.2-1
		c0-0.4-0.1-0.7-0.2-1.1c-0.3-0.4-0.8-0.4-1.1-0.2c-0.1,0-0.1,0.1-0.2,0.2C47.4,24.4,47.3,24.8,47.3,25.1z"/>
	<path fill="#ffffff" d="M57.5,21.5l-0.2,1.1c-0.3-0.2-0.6-0.4-1-0.3c-0.4,0-0.8,0.2-1.1,0.5c-0.2,0.2-0.3,0.4-0.3,0.7h2.2l-0.2,0.7
		h-2.2v0.6h2.1l-0.2,0.7h-1.8c0,0.2,0.2,0.5,0.3,0.7c0.2,0.3,0.7,0.5,1.1,0.5c0.5,0,0.9-0.2,1.2-0.5v1.2c-0.4,0.2-0.8,0.3-1.2,0.2
		c-0.7,0-1.5-0.3-2-0.8c-0.3-0.4-0.6-0.9-0.7-1.4H53l0.2-0.7h0.4v-0.5H53l0.2-0.7h0.5c0.1-0.5,0.3-1,0.7-1.4c0.5-0.6,1.2-0.9,2-0.8
		C56.7,21.3,57.1,21.3,57.5,21.5z"/>
</g>
<path fill="#ffffff" d="M59.5,26.1l1.2-0.1c0,0.2,0.1,0.5,0.3,0.6c0.2,0.2,0.4,0.2,0.6,0.2c0.2,0,0.5-0.1,0.6-0.3
	c0.2-0.3,0.3-0.6,0.3-0.9s-0.1-0.6-0.3-0.8c-0.2-0.2-0.4-0.3-0.7-0.3c-0.4,0-0.7,0.2-0.9,0.4l-1-0.2l0.6-3.2h3.1v1.1h-2.2l-0.2,1
	c0.7-0.4,1.6-0.2,2.1,0.4c0.4,0.4,0.6,0.9,0.5,1.5c0,0.5-0.2,1-0.4,1.4c-0.4,0.5-1,0.8-1.6,0.8c-0.5,0-1-0.1-1.4-0.5
	C59.8,27,59.5,26.6,59.5,26.1z"/>
<g>
	<path fill="#ffffff" d="M64.2,22.7v-1.1h4.1v0.9c-0.3,0.3-0.7,0.8-1,1.4s-0.6,1.3-0.8,2c-0.2,0.7-0.2,1.3-0.2,1.9h-1.2
		c0-0.9,0.2-1.7,0.6-2.7c0.3-0.9,0.8-1.7,1.3-2.5L64.2,22.7L64.2,22.7z"/>
</g>
<g>
	<path fill="#ffffff" d="M70.6,21.5c0.6,0,1.1,0.2,1.4,0.6c0.4,0.5,0.6,1.3,0.6,2.5s-0.2,2-0.6,2.5c-0.3,0.4-0.8,0.6-1.4,0.6
		s-1.1-0.2-1.4-0.7c-0.4-0.5-0.5-1.3-0.5-2.5s0.2-2,0.6-2.5C69.6,21.7,70,21.5,70.6,21.5z M70.6,22.5c-0.1,0-0.3,0-0.4,0.1
		s-0.2,0.3-0.3,0.5c-0.1,0.3-0.1,0.8-0.1,1.5s0,1.2,0.1,1.5s0.2,0.4,0.3,0.5c0.1,0.1,0.2,0.1,0.4,0.1s0.3,0,0.4-0.1s0.2-0.3,0.3-0.5
		c0.1-0.3,0.1-0.8,0.1-1.5s0-1.2-0.1-1.5s-0.2-0.4-0.3-0.5C70.9,22.5,70.8,22.5,70.6,22.5z"/>
</g>
<g>
	<path fill="#ffffff" d="M73.9,23.5h1v0.6c0.4-0.5,0.8-0.7,1.3-0.7c0.3,0,0.5,0.1,0.7,0.2s0.4,0.3,0.5,0.5c0.2-0.2,0.4-0.4,0.6-0.5
		s0.4-0.2,0.7-0.2c0.3,0,0.6,0.1,0.8,0.2c0.2,0.1,0.4,0.3,0.5,0.6c0.1,0.2,0.1,0.5,0.1,0.9v2.7H79v-2.4c0-0.4,0-0.7-0.1-0.8
		c-0.1-0.2-0.3-0.2-0.5-0.2s-0.3,0-0.4,0.1s-0.2,0.2-0.3,0.4c-0.1,0.2-0.1,0.5-0.1,0.9v2h-1.1v-2.4c0-0.4,0-0.7-0.1-0.8
		c0-0.1-0.1-0.2-0.2-0.3c-0.1-0.1-0.2-0.1-0.3-0.1c-0.2,0-0.3,0-0.5,0.1c-0.1,0.1-0.2,0.2-0.3,0.4C75,24.9,75,25.2,75,25.6v2.1h-1.1
		V23.5z"/>
</g>
</svg>
