<?xml version="1.0" encoding="utf-8"?>
<!-- Generator: Adobe Illustrator 24.0.2, SVG Export Plug-In . SVG Version: 6.00 Build 0)  -->
<svg version="1.1" id="Layer_1" xmlns="http://www.w3.org/2000/svg" xmlns:xlink="http://www.w3.org/1999/xlink" x="0px" y="0px"
	 viewBox="0 0 100 100" style="enable-background:new 0 0 100 100;" xml:space="preserve">
<rect y="0" fill="#105CFB" width="100" height="100"/>
<polygon fill="#fff" points="56.3,77.2 28.8,77.2 28.8,34 56.2,34 56.2,38.9 33.8,38.9 33.8,72.2 51.3,72.2 51.3,56.4 43.7,56.4 
	43.7,51.4 56.3,51.4 "/>
<path fill="#fff" d="M89.2,77.2H61.7V34h27.5V77.2z M66.7,72.2h17.5V38.9H66.7V72.2z"/>
<g>
	<path fill="#fff" d="M28.9,27v-6.9h3c0.5,0,1.1,0.1,1.6,0.2c0.3,0.1,0.6,0.4,0.8,0.7c0.2,0.3,0.3,0.7,0.3,1.1c0,0.5-0.2,1-0.5,1.3
		c-0.3,0.4-0.8,0.6-1.3,0.7c0.3,0.2,0.5,0.4,0.8,0.6c0.3,0.3,0.6,0.7,0.8,1.1l0.9,1.3h-1.6l-1-1.5c-0.2-0.4-0.5-0.7-0.8-1.1
		c-0.1-0.2-0.3-0.2-0.5-0.3s-0.4-0.1-0.7-0.1h-0.3v2.9L28.9,27L28.9,27z M30.4,23h1.1c0.4,0,0.8,0,1.2-0.1c0.2,0,0.3-0.2,0.4-0.3
		c0.1-0.1,0.2-0.3,0.2-0.5c0-0.2-0.1-0.4-0.2-0.6c-0.1-0.2-0.3-0.2-0.5-0.3h-2.2L30.4,23z"/>
	<path fill="#fff" d="M38.8,25.5l1.3,0.2c-0.2,0.4-0.4,0.8-0.8,1.1c-0.4,0.2-0.9,0.4-1.3,0.4c-0.7,0.1-1.5-0.3-1.9-0.9
		c-0.3-0.5-0.5-1.1-0.5-1.7c-0.1-0.7,0.2-1.4,0.7-1.9c0.4-0.4,1-0.7,1.6-0.7c0.7-0.1,1.3,0.2,1.7,0.8c0.5,0.6,0.8,1.5,0.7,2.3H37
		c0,0.3,0.1,0.7,0.3,1c0.2,0.2,0.5,0.3,0.8,0.3c0.2,0,0.4,0,0.5-0.2C38.6,25.9,38.7,25.7,38.8,25.5z M38.9,24c0-0.3-0.1-0.6-0.3-0.9
		c-0.2-0.2-0.4-0.3-0.7-0.3c-0.3,0-0.5,0.1-0.7,0.3C37,23.4,36.9,23.7,37,24H38.9z"/>
	<path fill="#fff" d="M42.1,27l-1.6-5.1h1.2l1,3.3l0.9-3.3h1.2l0.9,3.3l1-3.3H48L46.4,27h-1.2l-0.9-3.3L43.5,27L42.1,27z"/>
	<path fill="#fff" d="M49.7,23.5l-1.1-0.2c0.1-0.4,0.3-0.8,0.7-1.1c0.4-0.3,0.9-0.4,1.4-0.4c0.5,0,0.9,0.1,1.3,0.2
		c0.3,0.2,0.5,0.3,0.6,0.6c0.1,0.4,0.2,0.8,0.2,1.1v1.5c0,0.3,0,0.6,0.1,1c0,0.2,0.1,0.5,0.2,0.7h-1.3c0-0.1-0.1-0.2-0.1-0.4v-0.2
		c-0.2,0.2-0.4,0.4-0.7,0.5c-0.3,0.1-0.6,0.2-0.9,0.2c-0.5,0-0.9-0.2-1.2-0.5c-0.3-0.3-0.5-0.7-0.5-1.1c0-0.3,0.1-0.5,0.2-0.8
		c0.1-0.2,0.3-0.4,0.6-0.5c0.3-0.1,0.7-0.2,1.1-0.3c0.4,0,0.8-0.1,1.2-0.3v-0.1c0-0.2-0.1-0.4-0.2-0.6c-0.2-0.1-0.4-0.2-0.7-0.2
		c-0.2,0-0.5,0-0.6,0.2C49.9,23.2,49.8,23.4,49.7,23.5z M51.5,24.6c-0.3,0-0.5,0.1-0.8,0.2c-0.4,0.1-0.6,0.2-0.7,0.2
		c-0.2,0.1-0.3,0.3-0.3,0.5c0,0.2,0.1,0.3,0.2,0.5c0.1,0.1,0.3,0.2,0.5,0.2c0.2,0,0.5-0.1,0.7-0.2c0.2-0.1,0.3-0.3,0.3-0.5v-0.7
		L51.5,24.6L51.5,24.6z"/>
	<path fill="#fff" d="M55.4,27H54v-5.1h1.2v0.7c0.1-0.3,0.3-0.5,0.6-0.7c0.2-0.1,0.4-0.2,0.6-0.2c0.3,0,0.6,0.1,0.9,0.2l-0.4,1.1
		c-0.2-0.1-0.4-0.2-0.7-0.2c-0.2,0-0.4,0-0.5,0.2c-0.1,0.2-0.2,0.4-0.3,0.6c-0.1,0.6-0.1,1.1-0.1,1.7L55.4,27L55.4,27z"/>
	<path fill="#fff" d="M62.4,27h-1.2v-0.8c-0.2,0.2-0.4,0.5-0.7,0.7c-0.3,0.2-0.6,0.2-0.9,0.2c-0.6,0-1.1-0.2-1.4-0.7
		c-0.4-0.6-0.6-1.2-0.6-1.9c-0.1-0.7,0.1-1.4,0.6-1.9c0.4-0.4,0.9-0.7,1.5-0.7c0.6,0,1.1,0.2,1.4,0.7v-2.5h1.3L62.4,27L62.4,27z
		 M58.9,24.4c0,0.4,0,0.8,0.2,1.1c0.2,0.4,0.5,0.5,1,0.5c0.3,0,0.6-0.1,0.8-0.4c0.2-0.3,0.3-0.7,0.3-1.1c0-0.4-0.1-0.9-0.3-1.2
		c-0.3-0.4-0.9-0.5-1.3-0.2c-0.1,0.1-0.1,0.1-0.2,0.2C59,23.6,58.8,24,58.9,24.4z"/>
	<path fill="#fff" d="M70.8,20.2l-0.3,1.3c-0.3-0.3-0.7-0.4-1.1-0.4c-0.5,0-0.9,0.2-1.2,0.6c-0.2,0.2-0.3,0.5-0.4,0.8h2.6l-0.2,0.8
		h-2.5v0.7H70l-0.2,0.8h-2.1c0,0.3,0.2,0.6,0.4,0.8c0.3,0.4,0.8,0.6,1.2,0.6c0.5,0,1.1-0.2,1.4-0.6v1.4c-0.5,0.2-0.9,0.3-1.4,0.3
		c-0.9,0-1.7-0.3-2.3-1c-0.4-0.5-0.7-1-0.8-1.6h-0.7l0.2-0.8h0.5v-0.6h-0.7l0.2-0.8h0.6c0.1-0.6,0.4-1.2,0.8-1.6
		c0.6-0.7,1.4-1,2.3-1C69.9,19.9,70.4,20,70.8,20.2z"/>
</g>
<polygon fill="#fff" points="14.2,77.6 9,77.6 17,91.8 24.8,77.6 19.7,77.6 19.7,31.1 23.4,27.1 23.4,13.4 17.3,20.1 10.6,12.9 
	10.6,26.4 14.2,30.7 "/>
<path fill="#fff" d="M72.6,25.7l1.5-0.2c0,0.3,0.2,0.6,0.4,0.8c0.2,0.2,0.4,0.3,0.7,0.3c0.3,0,0.6-0.1,0.8-0.4
	c0.3-0.3,0.4-0.7,0.4-1.1c0-0.4-0.1-0.7-0.4-1c-0.2-0.2-0.5-0.4-0.8-0.3c-0.4,0-0.9,0.2-1.1,0.6l-1.2-0.2l0.8-4h3.9v1.4h-2.8
	l-0.2,1.3c0.9-0.5,2-0.3,2.7,0.5c0.5,0.5,0.7,1.2,0.7,1.9c0,0.6-0.2,1.2-0.6,1.7c-0.5,0.7-1.2,1-2,1c-0.6,0-1.3-0.2-1.7-0.6
	C72.9,26.8,72.6,26.3,72.6,25.7z"/>
<g>
	<path fill="#fff" d="M78.3,21.5v-1.4h5.2v1.1c-0.4,0.4-0.9,1-1.3,1.8c-0.4,0.8-0.8,1.6-1,2.5c-0.2,0.9-0.3,1.7-0.3,2.4h-1.5
		c0-1.1,0.3-2.2,0.7-3.4c0.4-1.1,1-2.2,1.7-3.1H78.3z"/>
</g>
<g>
	<path fill="#fff" d="M86.7,20c0.8,0,1.4,0.3,1.8,0.8c0.5,0.6,0.8,1.7,0.8,3.2c0,1.5-0.3,2.5-0.8,3.2c-0.4,0.5-1,0.8-1.8,0.8
		c-0.8,0-1.4-0.3-1.8-0.9c-0.5-0.6-0.7-1.6-0.7-3.1c0-1.5,0.3-2.5,0.8-3.2C85.3,20.2,85.9,20,86.7,20z M86.7,21.2
		c-0.2,0-0.3,0.1-0.5,0.2c-0.1,0.1-0.3,0.3-0.3,0.6c-0.1,0.4-0.2,1-0.2,2c0,0.9,0,1.5,0.1,1.9c0.1,0.3,0.2,0.6,0.3,0.7
		c0.1,0.1,0.3,0.2,0.5,0.2c0.2,0,0.3-0.1,0.5-0.2c0.1-0.1,0.3-0.3,0.3-0.6c0.1-0.4,0.2-1,0.2-2c0-0.9,0-1.5-0.1-1.9
		c-0.1-0.3-0.2-0.6-0.4-0.7C87,21.3,86.9,21.2,86.7,21.2z"/>
</g>
</svg>
