<?xml version="1.0" encoding="utf-8"?>
<!-- Generator: Adobe Illustrator 24.0.2, SVG Export Plug-In . SVG Version: 6.00 Build 0)  -->
<svg version="1.1" id="Layer_1" xmlns="http://www.w3.org/2000/svg" xmlns:xlink="http://www.w3.org/1999/xlink" x="0px" y="0px"
	 viewBox="0 0 100 100" style="enable-background:new 0 0 100 100;" xml:space="preserve">
<rect y="0" fill="#105CFB" width="100" height="100"/>
<polygon fill="#ffffff" points="56.3,77.2 28.8,77.2 28.8,34 56.2,34 56.2,38.9 33.8,38.9 33.8,72.2 51.3,72.2 51.3,56.4 43.7,56.4 
	43.7,51.4 56.3,51.4 "/>
<path fill="#ffffff" d="M89.2,77.2H61.7V34h27.5V77.2z M66.7,72.2h17.5V38.9H66.7V72.2z"/>
<path fill="#ffffff" d="M71.2,25.7l1.3-0.1c0,0.3,0.1,0.5,0.3,0.7c0.2,0.2,0.4,0.3,0.7,0.3c0.3,0,0.5-0.1,0.7-0.3
	c0.2-0.3,0.3-0.7,0.3-1c0-0.3-0.1-0.7-0.3-0.9c-0.2-0.2-0.5-0.3-0.8-0.3c-0.4,0-0.8,0.2-1,0.5l-1.1-0.2l0.7-3.7h3.6v1.3H73l-0.2,1.2
	c0.8-0.4,1.8-0.2,2.4,0.4c0.4,0.5,0.6,1.1,0.6,1.7c0,0.6-0.2,1.1-0.5,1.6c-0.4,0.6-1.1,0.9-1.9,0.9c-0.6,0-1.1-0.2-1.6-0.5
	C71.5,26.8,71.2,26.3,71.2,25.7z"/>
<path fill="#ffffff" d="M76.9,27.5v-1.3h1.4v1.3H76.9z"/>
<g>
	<path fill="#ffffff" d="M28.9,27.3v-6.7h2.9c0.5,0,1.1,0.1,1.6,0.2c0.3,0.1,0.6,0.3,0.7,0.7c0.2,0.3,0.3,0.7,0.3,1.1
		c0,0.5-0.2,0.9-0.5,1.3c-0.3,0.4-0.8,0.6-1.3,0.7c0.3,0.2,0.5,0.3,0.7,0.6c0.3,0.3,0.6,0.7,0.7,1.1l0.8,1.3h-1.6L32.4,26
		c-0.2-0.4-0.5-0.7-0.7-1c-0.1-0.2-0.3-0.2-0.5-0.3c-0.2-0.1-0.4-0.1-0.7-0.1h-0.3v2.8L28.9,27.3L28.9,27.3z M30.3,23.4h1
		c0.4,0,0.8,0,1.2-0.1c0.2,0,0.3-0.2,0.4-0.3c0.1-0.1,0.2-0.3,0.2-0.5c0-0.2-0.1-0.4-0.2-0.6c-0.1-0.2-0.3-0.2-0.5-0.3h-2.1
		L30.3,23.4z"/>
	<path fill="#ffffff" d="M38.5,25.8l1.3,0.2c-0.2,0.4-0.4,0.8-0.7,1.1c-0.4,0.2-0.8,0.3-1.3,0.4c-0.7,0.1-1.4-0.3-1.9-0.8
		c-0.3-0.5-0.5-1.1-0.5-1.7c-0.1-0.7,0.2-1.4,0.7-1.9c0.4-0.4,1-0.6,1.6-0.7c0.6-0.1,1.3,0.2,1.7,0.7c0.5,0.6,0.7,1.4,0.7,2.2h-3.3
		c0,0.3,0.1,0.7,0.3,0.9c0.2,0.2,0.5,0.3,0.7,0.3c0.2,0,0.4,0,0.5-0.2C38.3,26.3,38.4,26,38.5,25.8z M38.6,24.5
		c0-0.3-0.1-0.6-0.3-0.8c-0.2-0.2-0.4-0.3-0.7-0.3c-0.2,0-0.5,0.1-0.7,0.3c-0.2,0.2-0.3,0.5-0.3,0.8H38.6z"/>
	<path fill="#ffffff" d="M41.7,27.3l-1.6-4.9h1.2l0.9,3.2l0.8-3.2h1.2l0.8,3.2l0.9-3.2h1.3l-1.5,4.9h-1.2l-0.8-3.2L43,27.3L41.7,27.3z"
		/>
	<path fill="#ffffff" d="M49.1,24L48,23.8c0.1-0.4,0.3-0.8,0.7-1c0.4-0.2,0.9-0.4,1.4-0.4c0.4,0,0.9,0.1,1.3,0.2
		c0.3,0.2,0.5,0.3,0.6,0.6c0.1,0.4,0.2,0.7,0.2,1.1v1.5c0,0.3,0,0.6,0.1,0.9c0,0.2,0.1,0.4,0.2,0.7H51c0-0.1-0.1-0.2-0.1-0.4v-0.2
		c-0.2,0.2-0.4,0.3-0.7,0.5c-0.3,0.1-0.5,0.2-0.8,0.2c-0.4,0-0.9-0.2-1.2-0.5c-0.3-0.3-0.4-0.6-0.5-1c0-0.3,0.1-0.5,0.2-0.7
		c0.1-0.2,0.3-0.4,0.6-0.5c0.3-0.1,0.7-0.2,1-0.3c0.4,0,0.8-0.1,1.2-0.3v-0.1c0-0.2-0.1-0.4-0.2-0.6c-0.2-0.1-0.4-0.2-0.7-0.2
		c-0.2,0-0.5,0-0.6,0.2C49.2,23.7,49.1,23.8,49.1,24z M50.9,25c-0.3,0-0.5,0.1-0.7,0.2c-0.4,0.1-0.6,0.2-0.7,0.2
		c-0.2,0.1-0.3,0.3-0.3,0.5c0,0.2,0.1,0.3,0.2,0.5c0.1,0.1,0.3,0.2,0.5,0.2c0.2,0,0.4-0.1,0.7-0.2c0.2-0.1,0.3-0.3,0.3-0.5v-0.7
		L50.9,25L50.9,25z"/>
	<path fill="#ffffff" d="M54.6,27.3h-1.3v-4.9h1.2v0.7c0.1-0.3,0.3-0.5,0.5-0.7c0.2-0.1,0.4-0.2,0.6-0.2c0.3,0,0.6,0.1,0.8,0.2L56,23.5
		c-0.2-0.1-0.4-0.2-0.7-0.2c-0.2,0-0.4,0-0.5,0.2c-0.1,0.2-0.2,0.4-0.3,0.6c-0.1,0.6-0.1,1.1-0.1,1.7L54.6,27.3L54.6,27.3z"/>
	<path fill="#ffffff" d="M61.5,27.3h-1.2v-0.7c-0.2,0.2-0.4,0.5-0.7,0.7c-0.3,0.1-0.5,0.2-0.8,0.2c-0.5,0-1.1-0.2-1.4-0.7
		c-0.4-0.5-0.6-1.2-0.6-1.9c-0.1-0.7,0.1-1.3,0.6-1.9c0.4-0.4,0.9-0.7,1.5-0.7c0.5,0,1.1,0.2,1.4,0.7v-2.4h1.3L61.5,27.3L61.5,27.3z
		 M58,24.8c0,0.4,0,0.8,0.2,1.1c0.2,0.4,0.5,0.5,0.9,0.5c0.3,0,0.6-0.1,0.7-0.4c0.2-0.3,0.3-0.7,0.3-1.1c0-0.4-0.1-0.8-0.3-1.2
		c-0.3-0.4-0.9-0.5-1.3-0.2c-0.1,0.1-0.1,0.1-0.2,0.2C58.1,24,58,24.4,58,24.8z"/>
	<path fill="#ffffff" d="M69.5,20.7L69.3,22c-0.3-0.3-0.7-0.4-1.1-0.4c-0.5,0-0.9,0.2-1.2,0.6c-0.2,0.2-0.3,0.5-0.4,0.7h2.5l-0.2,0.7
		h-2.4v0.7h2.3l-0.2,0.7h-2c0,0.3,0.2,0.5,0.4,0.7c0.3,0.4,0.7,0.6,1.2,0.6c0.5,0,1-0.2,1.4-0.6v1.4c-0.4,0.2-0.9,0.3-1.4,0.3
		c-0.8,0-1.7-0.3-2.2-0.9c-0.4-0.4-0.7-1-0.7-1.6h-0.7l0.2-0.7h0.5v-0.6h-0.7l0.2-0.7h0.5c0.1-0.6,0.4-1.1,0.7-1.6
		c0.6-0.6,1.4-1,2.2-0.9C68.7,20.4,69.1,20.5,69.5,20.7z"/>
</g>
<polygon fill="#ffffff" points="14.2,77.6 9,77.6 17,91.8 24.8,77.6 19.7,77.6 19.7,31.1 23.4,27.1 23.4,13.4 17.3,20.1 10.6,12.9 
	10.6,26.4 14.2,30.7 "/>
<g>
	<path fill="#ffffff" d="M79.1,21.7v-1.2h4.8v1c-0.4,0.4-0.9,0.9-1.2,1.6s-0.7,1.5-0.9,2.3c-0.1,0.9-0.2,1.6-0.2,2.2h-1.3
		c0-1,0.2-2,0.6-3.1c0.4-1,0.9-2,1.6-2.8L79.1,21.7L79.1,21.7z"/>
</g>
<g>
	<path fill="#ffffff" d="M85.6,27.5v-6.4h1.2v3.4l1.4-1.6h1.5l-1.6,1.7l1.7,2.9h-1.3l-1.2-2.1L86.8,26v1.5H85.6z"/>
</g>
</svg>
