<?xml version="1.0" encoding="utf-8"?>
<!-- Generator: Adobe Illustrator 24.0.2, SVG Export Plug-In . SVG Version: 6.00 Build 0)  -->
<svg version="1.1" id="Layer_1" xmlns="http://www.w3.org/2000/svg" xmlns:xlink="http://www.w3.org/1999/xlink" x="0px" y="0px"
	 viewBox="0 0 100 100" style="enable-background:new 0 0 100 100;" xml:space="preserve">
<g>
	<g>
		<g>
			<path fill="#105CFB" d="M15.2,48V30.8h3.4l7,11.5V30.8h3.2V48h-3.5l-6.9-11.2V48H15.2z"/>
			<path fill="#105CFB" d="M39.7,44l3.3,0.6c-0.4,1.2-1.1,2.1-2,2.7s-2,0.9-3.4,0.9c-2.2,0-3.8-0.7-4.8-2.1c-0.8-1.1-1.2-2.6-1.2-4.3
				c0-2.1,0.5-3.7,1.6-4.8s2.4-1.8,4.1-1.8c1.9,0,3.3,0.6,4.4,1.8c1.1,1.2,1.6,3.1,1.5,5.6h-8.3c0,1,0.3,1.7,0.8,2.3
				s1.1,0.8,1.9,0.8c0.5,0,0.9-0.1,1.3-0.4C39.3,45,39.5,44.6,39.7,44z M39.9,40.7c0-1-0.3-1.7-0.7-2.2s-1-0.7-1.7-0.7
				s-1.3,0.3-1.8,0.8S35,39.8,35,40.7C35,40.7,39.9,40.7,39.9,40.7z"/>
			<path fill="#105CFB" d="M44.2,48l4.5-6.4l-4.3-6h4l2.2,3.4l2.3-3.4h3.9l-4.2,5.9l4.6,6.6h-4l-2.5-3.9L48.1,48H44.2z"/>
			<path fill="#105CFB" d="M64.9,35.5v2.6h-2.3v5c0,1,0,1.6,0.1,1.8s0.1,0.3,0.3,0.4s0.3,0.2,0.6,0.2c0.3,0,0.7-0.1,1.3-0.3l0.3,2.6
				c-0.8,0.3-1.6,0.5-2.6,0.5c-0.6,0-1.1-0.1-1.6-0.3s-0.8-0.5-1-0.8s-0.4-0.7-0.5-1.3c-0.1-0.4-0.1-1.2-0.1-2.3v-5.4h-1.5v-2.6h1.5
				v-2.5l3.3-1.9v4.4h2.2C64.9,35.6,64.9,35.5,64.9,35.5z"/>
		</g>
		<g>
			<path fill="#105CFB" d="M14.8,69V52h3.5v14.1h8.6V69H14.8z"/>
			<path fill="#105CFB" d="M36.7,65l3.3,0.6c-0.4,1.2-1.1,2.1-2,2.7c-0.9,0.6-2,0.9-3.4,0.9c-2.2,0-3.8-0.7-4.8-2.1
				c-0.8-1.1-1.2-2.6-1.2-4.3c0-2.1,0.5-3.7,1.6-4.8s2.4-1.8,4.1-1.8c1.9,0,3.3,0.6,4.4,1.8s1.6,3.1,1.5,5.6h-8.4
				c0,1,0.3,1.7,0.8,2.3s1.1,0.8,1.9,0.8c0.5,0,0.9-0.1,1.3-0.4S36.5,65.6,36.7,65z M36.8,61.7c0-1-0.3-1.7-0.7-2.2s-1-0.7-1.7-0.7
				s-1.3,0.3-1.8,0.8s-0.7,1.2-0.7,2.1C31.9,61.7,36.8,61.7,36.8,61.7z"/>
			<path fill="#105CFB" d="M46.2,69l-5-12.4h3.5L47,63l0.7,2.1c0.2-0.5,0.3-0.9,0.3-1.1c0.1-0.4,0.2-0.7,0.4-1.1l2.4-6.4h3.4l-5,12.5
				H46.2z"/>
			<path fill="#105CFB" d="M63.3,65l3.3,0.6c-0.4,1.2-1.1,2.1-2,2.7c-0.9,0.6-2,0.9-3.4,0.9c-2.2,0-3.8-0.7-4.8-2.1
				c-0.8-1.1-1.2-2.6-1.2-4.3c0-2.1,0.5-3.7,1.6-4.8s2.4-1.8,4.1-1.8c1.9,0,3.3,0.6,4.4,1.8s1.6,3.1,1.5,5.6h-8.3
				c0,1,0.3,1.7,0.8,2.3s1.1,0.8,1.9,0.8c0.5,0,0.9-0.1,1.3-0.4S63.1,65.6,63.3,65z M63.6,61.7c0-1-0.3-1.7-0.7-2.2s-1-0.7-1.7-0.7
				s-1.3,0.3-1.8,0.8s-0.7,1.2-0.7,2.1C58.7,61.7,63.6,61.7,63.6,61.7z"/>
			<path fill="#105CFB" d="M69.4,69V51.8h3.3V69H69.4z"/>
		</g>
	</g>
	<polygon fill="#105CFB" points="79.7,39.3 79.7,50 79.7,60.7 89.2,50 	"/>
</g>
</svg>
