<?xml version="1.0" encoding="utf-8"?>
<!-- Generator: Adobe Illustrator 24.0.2, SVG Export Plug-In . SVG Version: 6.00 Build 0)  -->
<svg version="1.1" id="Layer_1" xmlns="http://www.w3.org/2000/svg" xmlns:xlink="http://www.w3.org/1999/xlink" x="0px" y="0px"
	 viewBox="0 0 100 100" style="enable-background:new 0 0 100 100;" xml:space="preserve">
<g>
	<g>
		<path fill="#105CFB" d="M21.3,47.2V34.3h4.2c1.6,0,2.6,0.1,3.1,0.2c0.8,0.2,1.4,0.6,1.8,1.3c0.4,0.7,0.8,1.5,0.8,2.5
			c0,0.8-0.2,1.5-0.4,2c-0.3,0.5-0.7,1-1.1,1.3c-0.4,0.3-0.9,0.5-1.4,0.6c-0.6,0.1-1.6,0.2-2.7,0.2h-1.7v4.9H21.3z M23.9,36.5v3.6
			h1.4c1,0,1.7-0.1,2.1-0.2c0.3-0.2,0.6-0.3,0.8-0.6c0.2-0.3,0.3-0.6,0.3-1s-0.2-0.9-0.4-1.1c-0.3-0.3-0.6-0.5-1-0.6
			c-0.3-0.1-1-0.1-1.9-0.1C25.1,36.5,23.9,36.5,23.9,36.5z"/>
		<path fill="#105CFB" d="M35.8,47.2h-2.5v-9.4h2.3v1.3c0.4-0.6,0.8-1,1-1.2c0.3-0.2,0.7-0.3,1-0.3c0.5,0,1.1,0.2,1.6,0.4l-0.8,2.2
			c-0.4-0.3-0.8-0.4-1.1-0.4s-0.6,0.1-0.9,0.3c-0.3,0.2-0.4,0.5-0.6,1c-0.2,0.5-0.2,1.6-0.2,3.1V47.2z"/>
		<path fill="#105CFB" d="M45.8,44.3l2.4,0.4c-0.3,0.9-0.8,1.6-1.5,2.1c-0.7,0.4-1.6,0.7-2.6,0.7c-1.6,0-2.9-0.5-3.6-1.6
			c-0.6-0.9-1-1.9-1-3.2c0-1.6,0.4-2.8,1.2-3.6s1.8-1.3,3-1.3c1.4,0,2.5,0.4,3.3,1.4c0.8,1,1.2,2.3,1.1,4.2H42
			c0,0.7,0.3,1.3,0.6,1.7c0.3,0.4,0.9,0.6,1.4,0.6c0.3,0,0.7-0.1,1-0.3C45.5,45.1,45.6,44.7,45.8,44.3z M46,41.8
			c0-0.7-0.2-1.3-0.5-1.6c-0.3-0.3-0.8-0.5-1.3-0.5s-1,0.2-1.3,0.6c-0.3,0.4-0.5,1-0.5,1.6H46z"/>
		<path fill="#105CFB" d="M52.9,47.2l-3.7-9.4h2.6l1.7,4.8l0.5,1.6c0.2-0.4,0.3-0.7,0.3-0.8c0.1-0.3,0.2-0.5,0.3-0.8l1.7-4.8h2.5
			l-3.7,9.4H52.9z"/>
		<path fill="#105CFB" d="M60.5,36.7v-2.3H63v2.3L60.5,36.7L60.5,36.7z M60.5,47.2v-9.4H63v9.4H60.5z"/>
		<path fill="#105CFB" d="M64.8,42.5c0-0.8,0.2-1.6,0.6-2.4c0.4-0.8,1-1.4,1.7-1.7c0.8-0.4,1.6-0.6,2.5-0.6c1.4,0,2.6,0.4,3.5,1.4
			c0.9,1,1.4,2.1,1.4,3.5s-0.4,2.6-1.4,3.6c-1,1-2.1,1.4-3.5,1.4c-0.9,0-1.6-0.2-2.4-0.6c-0.8-0.3-1.4-1-1.7-1.7
			C65.1,44.5,64.8,43.5,64.8,42.5z M67.4,42.6c0,1,0.3,1.6,0.7,2.2s1,0.8,1.6,0.8c0.6,0,1.2-0.3,1.6-0.8s0.7-1.2,0.7-2.2
			s-0.3-1.6-0.7-2.1c-0.4-0.4-1-0.8-1.6-0.8c-0.6,0-1.2,0.3-1.6,0.8C67.7,40.9,67.4,41.7,67.4,42.6z"/>
		<path fill="#105CFB" d="M82.5,47.2v-1.4c-0.3,0.5-0.8,0.9-1.3,1.2c-0.5,0.3-1.1,0.4-1.7,0.4s-1.2-0.2-1.6-0.4c-0.5-0.3-0.9-0.7-1-1.1
			c-0.3-0.5-0.3-1.2-0.3-2.1V38h2.5v4.3c0,1.3,0.1,2.1,0.2,2.4c0.1,0.3,0.3,0.5,0.5,0.7c0.3,0.2,0.5,0.3,1,0.3
			c0.4,0,0.8-0.1,1.1-0.3c0.3-0.3,0.5-0.5,0.7-0.9c0.1-0.3,0.2-1.2,0.2-2.5V38h2.5v9.4h-2.6V47.2z"/>
		<path fill="#105CFB" d="M86.6,44.5l2.5-0.3c0.1,0.5,0.3,0.9,0.6,1.1c0.3,0.3,0.8,0.3,1.4,0.3s1.1-0.1,1.5-0.3
			c0.3-0.2,0.3-0.3,0.3-0.7c0-0.2-0.1-0.3-0.2-0.4c-0.1-0.1-0.4-0.3-0.9-0.3c-2-0.4-3.3-0.9-3.8-1.2c-0.8-0.5-1.1-1.2-1.1-2.1
			c0-0.8,0.3-1.5,1-2.1c0.6-0.5,1.6-0.9,2.9-0.9c1.3,0,2.3,0.2,2.9,0.6c0.6,0.4,1,1,1.3,1.8l-2.3,0.4c-0.1-0.3-0.3-0.6-0.6-0.9
			c-0.3-0.3-0.7-0.3-1.2-0.3c-0.7,0-1.1,0.1-1.4,0.3c-0.2,0.1-0.3,0.3-0.3,0.5c0,0.2,0.1,0.3,0.3,0.4c0.3,0.2,1,0.4,2.3,0.7
			c1.3,0.3,2.3,0.7,2.8,1.1c0.5,0.4,0.8,1,0.8,1.8c0,0.9-0.3,1.6-1,2.2s-1.7,1-3.2,1c-1.3,0-2.3-0.3-3-0.8
			C87.2,46.2,86.7,45.5,86.6,44.5z"/>
	</g>
	<g>
		<path fill="#105CFB" d="M21.3,65.4V52.6h2.6v10.6h6.5v2.2L21.3,65.4L21.3,65.4z"/>
		<path fill="#105CFB" d="M37.7,62.5l2.4,0.4c-0.3,0.9-0.8,1.6-1.5,2.1s-1.6,0.7-2.6,0.7c-1.6,0-2.9-0.5-3.6-1.6c-0.6-0.9-1-1.9-1-3.2
			c0-1.6,0.4-2.8,1.2-3.6c0.8-0.9,1.8-1.3,3-1.3c1.4,0,2.5,0.4,3.3,1.4c0.8,1,1.2,2.3,1.1,4.2H34c0,0.7,0.3,1.3,0.6,1.7
			c0.3,0.4,0.9,0.6,1.4,0.6c0.3,0,0.7-0.1,1-0.3C37.4,63.3,37.5,62.9,37.7,62.5z M37.8,60c0-0.7-0.2-1.3-0.5-1.6
			c-0.3-0.3-0.8-0.5-1.3-0.5s-1,0.2-1.3,0.6c-0.3,0.4-0.5,1-0.5,1.6H37.8z"/>
		<path fill="#105CFB" d="M44.7,65.4L41,56.1h2.6l1.7,4.8l0.5,1.6c0.2-0.4,0.3-0.7,0.3-0.8c0.1-0.3,0.2-0.5,0.3-0.8l1.7-4.8h2.6
			L47,65.4C47,65.4,44.7,65.4,44.7,65.4z"/>
		<path fill="#105CFB" d="M57.7,62.5l2.4,0.4c-0.3,0.9-0.8,1.6-1.5,2.1c-0.7,0.4-1.6,0.7-2.6,0.7c-1.6,0-2.9-0.5-3.6-1.6
			c-0.6-0.9-1-1.9-1-3.2c0-1.6,0.4-2.8,1.2-3.6c0.8-0.9,1.8-1.3,3-1.3c1.4,0,2.5,0.4,3.3,1.4c0.8,1,1.2,2.3,1.1,4.2H54
			c0,0.7,0.3,1.3,0.6,1.7c0.3,0.4,0.9,0.6,1.4,0.6c0.3,0,0.7-0.1,1-0.3C57.3,63.3,57.5,62.9,57.7,62.5z M57.7,60
			c0-0.7-0.2-1.3-0.5-1.6c-0.3-0.3-0.8-0.5-1.3-0.5s-1,0.2-1.3,0.6c-0.3,0.4-0.5,1-0.5,1.6H57.7z"/>
		<path fill="#105CFB" d="M62.3,65.4V52.5h2.5v12.9C64.8,65.4,62.3,65.4,62.3,65.4z"/>
	</g>
</g>
<polygon fill="#105CFB" points="15.1,60.7 15.1,50 15.1,39.3 5.6,50 "/>
</svg>
